<?xml version="1.0" standalone="no"?>
<!DOCTYPE svg PUBLIC "-//W3C//DTD SVG 20010904//EN"
 "http://www.w3.org/TR/2001/REC-SVG-20010904/DTD/svg10.dtd">
<svg version="1.0" xmlns="http://www.w3.org/2000/svg"
 width="280.000000pt" height="280.000000pt" viewBox="0 0 280.000000 280.000000"
 preserveAspectRatio="xMidYMid meet">
<metadata>
Created by potrace 1.16, written by Peter Selinger 2001-2019
</metadata>
<g transform="translate(0.000000,280.000000) scale(0.100000,-0.100000)"
fill="currentColor" stroke="currentColor" stroke-width="2">
<path d="M475 2522 c-91 -50 -134 -148 -107 -246 9 -32 7 -50 -13 -113 -57
-172 -14 -340 100 -395 78 -38 112 -19 249 137 62 71 49 29 -16 -51 -76 -95
-130 -195 -170 -318 -26 -79 -31 -110 -35 -231 -5 -137 -4 -144 27 -245 39
-126 71 -192 139 -285 28 -38 51 -77 51 -86 0 -10 -16 -50 -35 -90 -57 -119
-43 -208 38 -257 80 -49 134 -35 231 58 34 33 71 60 82 60 11 0 44 -9 74 -19
196 -69 434 -66 623 8 50 20 71 13 122 -40 89 -90 148 -112 220 -80 44 20 75
55 93 108 13 40 -5 112 -49 190 -16 29 -29 56 -29 61 0 4 19 35 43 67 61 84
89 137 124 235 46 126 55 179 55 304 -1 152 -25 248 -100 399 -33 64 -58 117
-56 117 2 0 19 -11 39 -24 56 -38 88 -41 143 -14 98 48 149 185 123 331 -6 39
-18 84 -26 100 -11 22 -13 48 -8 101 7 83 -5 131 -45 178 -59 70 -163 86 -267
42 -33 -14 -103 -36 -155 -48 -52 -12 -111 -31 -130 -40 -62 -32 -122 -88
-142 -132 -17 -40 -17 -45 -2 -83 18 -44 34 -57 146 -113 43 -22 78 -46 78
-54 0 -16 -21 -19 -35 -5 -20 17 -131 74 -160 81 -16 4 -65 17 -107 29 -43 11
-86 21 -97 21 -25 0 -34 14 -26 40 4 13 17 20 43 22 76 6 97 117 29 158 -27
17 -51 20 -145 20 -150 0 -192 -21 -192 -98 0 -44 33 -80 78 -84 31 -3 37 -7
40 -28 3 -24 -1 -26 -90 -43 -51 -10 -97 -23 -102 -28 -6 -5 -16 -9 -24 -9 -7
0 -51 -18 -97 -40 -97 -46 -118 -50 -85 -15 22 23 39 32 143 78 45 20 72 72
63 122 -16 86 -156 180 -309 208 -42 8 -83 19 -90 25 -20 17 -118 42 -161 42
-25 0 -60 -11 -91 -28z m193 -156 c31 -13 91 -29 131 -35 76 -12 161 -43 161
-59 0 -4 -17 -16 -37 -26 -84 -39 -233 -150 -312 -231 -46 -47 -87 -85 -92
-85 -38 0 -40 143 -3 226 17 38 24 69 21 89 -3 16 -9 49 -12 72 -5 29 -4 48 5
58 18 22 72 18 138 -9z m1584 -1 c8 -18 8 -39 -1 -83 -10 -54 -9 -63 14 -120
16 -39 25 -81 25 -115 0 -59 -16 -117 -32 -117 -6 0 -43 33 -82 74 -78 80
-202 176 -296 228 -33 18 -60 36 -60 39 0 13 103 50 191 69 50 11 95 23 101
26 16 10 68 22 101 23 20 1 30 -6 39 -24z m-652 -352 c171 -49 315 -154 417
-303 270 -397 93 -956 -358 -1130 -198 -76 -470 -54 -649 53 -181 108 -326
307 -366 504 -20 95 -14 280 11 363 58 192 205 370 384 464 165 86 368 104
561 49z m472 -105 c19 -24 41 -54 48 -67 l12 -24 -28 21 c-38 27 -94 87 -94
101 0 24 29 9 62 -31z m-1218 -1334 c9 -3 16 -11 16 -17 0 -16 -51 -67 -67
-67 -17 0 -16 12 1 55 15 36 22 40 50 29z m1121 -30 c18 -44 19 -54 3 -53 -19
1 -71 67 -63 79 14 23 45 10 60 -26z"/>
<path d="M1245 1954 c-38 -8 -112 -35 -163 -60 -156 -75 -282 -220 -344 -394
-31 -89 -34 -324 -4 -410 55 -161 154 -286 302 -380 27 -17 94 -45 149 -63 88
-28 113 -32 210 -31 181 1 322 56 451 177 147 137 217 297 215 497 -1 268
-144 493 -386 610 -141 67 -281 85 -430 54z m280 -89 c146 -37 278 -132 363
-261 91 -137 115 -337 61 -502 -26 -77 -104 -198 -163 -249 -59 -51 -140 -99
-212 -124 -75 -27 -230 -37 -305 -19 -130 30 -291 132 -358 226 -76 105 -111
216 -111 354 0 109 14 172 60 265 72 146 227 272 385 311 70 17 210 17 280 -1z"/>
<path d="M1360 1830 c-36 -36 -21 -90 26 -90 23 0 54 33 54 57 0 15 -36 53
-50 53 -5 0 -19 -9 -30 -20z"/>
<path d="M1096 1764 c-9 -8 -16 -24 -16 -35 0 -22 33 -59 53 -59 37 0 50 65
19 93 -23 21 -36 21 -56 1z"/>
<path d="M1622 1764 c-32 -22 -28 -77 6 -82 50 -7 85 65 43 88 -25 13 -22 13
-49 -6z"/>
<path d="M1341 1654 c-19 -24 -21 -40 -21 -142 0 -110 -1 -117 -25 -142 -14
-15 -29 -46 -33 -72 -7 -37 -20 -56 -66 -101 -60 -60 -68 -85 -36 -117 31 -31
60 -24 125 30 37 31 80 56 111 65 65 20 95 51 101 107 4 34 0 50 -20 79 -23
34 -25 48 -28 164 -4 111 -6 128 -23 141 -30 21 -62 17 -85 -12z"/>
<path d="M912 1568 c-17 -17 -15 -42 6 -61 33 -30 82 -16 82 23 0 38 -62 64
-88 38z"/>
<path d="M1776 1559 c-30 -44 23 -85 70 -54 19 12 24 23 22 43 -3 23 -8 27
-40 30 -28 2 -40 -2 -52 -19z"/>
<path d="M847 1312 c-32 -36 -11 -72 42 -72 21 0 61 32 61 49 0 38 -75 54
-103 23z"/>
<path d="M1846 1311 c-37 -41 33 -93 74 -56 36 33 19 75 -30 75 -15 0 -35 -9
-44 -19z"/>
<path d="M920 1070 c-28 -28 -26 -58 4 -66 35 -8 57 -2 72 21 12 18 11 24 -2
43 -19 27 -48 28 -74 2z"/>
<path d="M1788 1079 c-22 -12 -23 -52 -3 -69 28 -24 95 -8 95 22 0 14 -47 58
-62 58 -7 0 -21 -5 -30 -11z"/>
<path d="M1604 886 c-13 -22 -14 -29 -2 -53 16 -34 43 -41 69 -17 26 24 24 49
-7 73 -34 27 -40 26 -60 -3z"/>
<path d="M1094 875 c-15 -23 -15 -27 0 -50 9 -14 23 -25 31 -25 21 0 55 36 55
58 0 45 -60 57 -86 17z"/>
<path d="M1356 824 c-30 -30 -9 -84 33 -84 25 0 41 20 41 50 0 47 -42 66 -74
34z"/>
</g>
</svg>
