<?xml version="1.0" standalone="no"?>
<!DOCTYPE svg PUBLIC "-//W3C//DTD SVG 20010904//EN"
 "http://www.w3.org/TR/2001/REC-SVG-20010904/DTD/svg10.dtd">
<svg version="1.0" xmlns="http://www.w3.org/2000/svg"
 width="280.000000pt" height="280.000000pt" viewBox="0 0 280.000000 280.000000"
 preserveAspectRatio="xMidYMid meet">
<metadata>
Created by potrace 1.16, written by Peter Selinger 2001-2019
</metadata>
<g transform="translate(0.000000,280.000000) scale(0.100000,-0.100000)"
fill="currentColor" stroke="currentColor" stroke-width="2" stroke-linejoin="round" stroke-linecap="round">
<path d="M430 2497 c-62 -41 -75 -77 -76 -212 -1 -80 -7 -143 -19 -190 -16
-61 -17 -80 -7 -148 14 -97 62 -193 110 -220 54 -32 92 -18 150 56 26 34 70
84 97 110 43 43 50 47 63 33 14 -13 10 -21 -34 -72 -111 -127 -162 -219 -210
-379 -25 -80 -28 -106 -28 -235 0 -144 7 -190 49 -315 28 -83 90 -197 146
-265 16 -19 29 -40 29 -46 0 -7 -17 -47 -37 -89 -45 -97 -53 -165 -24 -212 28
-45 63 -65 114 -65 60 0 90 18 166 97 72 75 59 73 196 26 174 -62 371 -60 566
5 l112 37 51 -55 c79 -87 119 -112 177 -112 57 0 95 23 122 75 24 46 15 100
-34 211 -23 50 -37 94 -33 101 4 6 20 28 35 47 77 97 142 248 170 391 24 127
24 216 -1 338 -34 166 -97 297 -199 416 -54 62 -78 115 -53 115 10 0 108 -102
167 -174 37 -44 44 -49 83 -49 49 0 70 16 106 77 62 109 76 232 37 348 -19 58
-21 73 -11 132 34 216 -98 303 -315 204 -44 -20 -104 -39 -134 -43 -79 -9
-171 -55 -235 -117 -48 -46 -56 -60 -56 -90 0 -43 20 -62 160 -148 87 -53 123
-90 88 -90 -8 0 -43 16 -79 35 -102 54 -195 86 -299 105 -94 16 -95 17 -95 45
0 27 4 30 43 38 75 15 102 97 48 144 -25 21 -36 23 -144 23 -133 0 -162 -10
-176 -57 -15 -53 7 -90 63 -107 41 -12 46 -16 46 -42 0 -28 -1 -29 -82 -40
-45 -7 -105 -20 -135 -29 -51 -17 -181 -78 -224 -105 -22 -13 -54 -8 -54 9 0
9 79 59 212 134 77 45 78 104 0 179 -56 56 -134 94 -229 112 -37 7 -81 20 -98
28 -51 27 -165 58 -210 58 -27 0 -54 -8 -75 -23z m214 -128 c32 -16 93 -36
135 -45 76 -16 191 -69 191 -89 0 -5 -31 -28 -68 -49 -158 -92 -305 -212 -373
-304 -32 -44 -54 -35 -74 31 -22 75 -19 138 11 209 19 46 24 72 20 102 -19
147 -19 152 -1 170 23 23 79 14 159 -25z m1638 24 c21 -19 23 -56 7 -135 -10
-51 -9 -64 16 -142 22 -70 26 -96 21 -138 -9 -64 -31 -118 -48 -118 -7 0 -44
32 -83 71 -81 83 -197 176 -313 249 -95 60 -95 62 1 110 41 20 75 30 106 30
34 0 72 12 141 45 104 49 124 53 152 28z m-706 -383 c361 -93 604 -402 604
-769 0 -319 -170 -589 -453 -721 -127 -59 -192 -73 -342 -73 -149 -1 -213 13
-342 74 -212 100 -343 252 -419 484 -38 119 -45 308 -15 425 29 109 92 234
159 316 96 118 264 223 421 265 97 25 284 25 387 -1z m417 -1507 c24 -54 37
-122 26 -129 -13 -8 -98 63 -111 92 -9 19 -6 26 18 48 39 34 48 32 67 -11z
m-1154 10 c17 -10 31 -24 31 -31 0 -8 -22 -36 -49 -64 -35 -38 -53 -49 -66
-45 -13 6 -16 14 -10 35 11 43 47 122 55 122 5 0 22 -8 39 -17z M1210 1909
c-137 -37 -215 -82 -315 -183 -124 -125 -180 -236 -205 -408 -28 -190 50 -422
190 -565 234 -241 623 -281 899 -93 98 66 171 149 223 255 59 118 73 183 72
330 0 116 -3 139 -28 210 -41 118 -80 181 -170 270 -66 66 -99 89 -176 127
-52 26 -125 54 -161 62 -91 22 -235 20 -329 -5z m337 -85 c303 -86 489 -376
439 -685 -56 -346 -405 -584 -735 -503 -216 53 -405 233 -457 435 -20 75 -22
240 -5 314 52 220 261 413 493 454 70 13 193 6 265 -15z M1360 1800 c-22 -22
-27 -69 -8 -88 33 -33 85 12 72 62 -10 39 -39 51 -64 26z M1085 1723 c-21 -20
-19 -38 8 -68 26 -30 54 -26 63 10 12 48 -40 90 -71 58z M1634 1732 c-20 -13
-35 -52 -29 -72 13 -40 70 -18 89 34 12 33 -29 59 -60 38z M1346 1624 c-13
-12 -16 -40 -16 -144 0 -122 -1 -130 -25 -158 -27 -33 -45 -73 -45 -103 0 -12
-26 -45 -60 -77 -65 -63 -76 -95 -40 -127 27 -25 55 -15 130 49 37 32 75 56
88 56 105 1 156 116 87 199 -24 27 -25 36 -25 153 0 96 -4 129 -16 146 -18 26
-56 29 -78 6z M884 1519 c-19 -21 -18 -21 9 -45 59 -51 128 -13 76 42 -28 30
-60 31 -85 3z M1818 1529 c-49 -18 -45 -79 6 -79 49 0 83 49 54 78 -14 14 -23
14 -60 1z M1880 1269 c-31 -13 -41 -29 -30 -50 12 -22 52 -31 84 -19 35 13 35
53 1 68 -14 7 -27 12 -28 11 -1 0 -13 -5 -27 -10z M820 1255 c-31 -37 20 -77
73 -56 31 12 38 55 11 65 -28 11 -71 6 -84 -9z M924 1020 c-21 -8 -54 -46 -54
-62 0 -4 9 -12 20 -18 54 -29 131 42 85 77 -21 15 -22 15 -51 3z M1780 1001
c-24 -46 76 -92 104 -48 9 15 6 22 -17 43 -34 29 -72 31 -87 5z M1096 818
c-20 -28 -20 -62 -2 -77 19 -16 44 -4 61 29 12 23 12 30 -1 49 -19 27 -39 27
-58 -1z M1618 829 c-26 -14 -22 -52 7 -79 20 -19 30 -22 43 -14 25 16 27 59 3
83 -24 24 -29 25 -53 10z M1350 734 c-8 -20 -7 -32 5 -50 29 -44 69 -20 63 38
-2 28 -7 34 -30 36 -23 3 -30 -2 -38 -24z"/>
</g>
</svg>
