<?xml version="1.0" standalone="no"?>
<!DOCTYPE svg PUBLIC "-//W3C//DTD SVG 20010904//EN"
 "http://www.w3.org/TR/2001/REC-SVG-20010904/DTD/svg10.dtd">
<svg version="1.0" xmlns="http://www.w3.org/2000/svg"
 width="280.000000pt" height="280.000000pt" viewBox="0 0 280.000000 280.000000"
 preserveAspectRatio="xMidYMid meet">
<metadata>
Created by potrace 1.16, written by Peter Selinger 2001-2019
</metadata>
<g transform="translate(0.000000,280.000000) scale(0.100000,-0.100000)"
fill="#4A5568" stroke="#4A5568" stroke-width="2">
<path d="M295 2557 c-33 -33 -35 -38 -35 -103 0 -113 65 -379 117 -482 33 -65
77 -112 267 -282 76 -69 148 -134 160 -145 13 -11 50 -44 84 -74 34 -30 62
-61 62 -70 0 -9 -18 -36 -39 -61 l-39 -45 -56 28 c-68 33 -131 35 -185 7 -93
-47 -140 -115 -141 -202 0 -36 10 -66 40 -125 31 -59 39 -84 34 -106 -6 -29
-150 -194 -170 -196 -6 -1 -34 -8 -62 -16 -128 -38 -185 -156 -132 -272 24
-53 155 -181 222 -218 101 -55 207 -24 259 77 10 21 19 55 19 76 0 36 8 47 88
130 50 52 100 94 115 97 20 5 43 -1 85 -21 47 -23 70 -28 134 -29 69 0 80 3
120 30 53 37 98 120 98 179 0 23 -11 65 -25 94 -14 30 -25 59 -25 66 0 6 22
34 50 61 46 46 51 48 74 36 13 -8 41 -31 61 -51 l37 -38 -32 -66 c-29 -58 -32
-73 -27 -120 16 -155 165 -230 320 -162 32 14 74 26 95 26 34 0 46 -9 128 -93
86 -87 92 -95 93 -136 3 -132 152 -222 269 -162 59 30 207 175 231 226 59 126
-19 254 -172 281 -23 4 -50 25 -97 76 -36 39 -71 82 -78 95 -21 38 -17 79 11
120 35 52 47 86 47 139 0 158 -182 274 -320 204 -22 -11 -48 -20 -59 -20 -22
0 -81 66 -81 91 0 10 87 97 193 195 274 253 347 329 385 401 57 109 127 433
108 507 -4 16 -21 42 -37 59 -29 28 -33 29 -87 23 -63 -8 -245 -48 -339 -77
-153 -45 -222 -98 -388 -293 -236 -278 -271 -316 -288 -315 -10 0 -91 90 -336
378 -110 129 -182 182 -301 221 -69 23 -309 80 -364 86 -54 6 -56 6 -91 -29z
m316 -183 c174 -43 211 -66 333 -207 44 -52 138 -160 209 -241 70 -81 127
-152 127 -158 0 -19 -42 -58 -62 -58 -11 0 -108 88 -229 208 -116 114 -221
213 -235 220 -48 25 -85 -22 -57 -75 7 -15 108 -123 223 -238 116 -116 210
-217 210 -225 0 -16 -49 -70 -63 -70 -19 0 -427 368 -509 459 -48 53 -69 109
-108 291 -29 134 -29 133 23 125 23 -4 85 -18 138 -31z m1749 23 c0 -44 -65
-298 -86 -340 -21 -39 -120 -139 -338 -338 -94 -85 -285 -263 -425 -396 -141
-133 -269 -252 -285 -264 -34 -27 -59 -17 -64 26 -3 23 13 44 115 144 304 299
821 830 828 850 10 32 -19 71 -52 71 -22 0 -114 -87 -508 -480 -481 -480 -515
-509 -532 -465 -8 23 18 55 259 326 119 134 320 361 447 504 132 149 248 270
270 283 42 25 285 90 339 91 20 1 32 -4 32 -12z m-606 -1140 c28 -24 37 -39
33 -50 -10 -27 -64 -22 -92 9 -29 32 -31 49 -7 63 24 14 22 15 66 -22z m-975
-96 c25 -16 66 -35 91 -41 53 -14 117 -50 147 -82 12 -13 40 -59 64 -102 23
-43 57 -101 76 -128 36 -55 42 -92 16 -120 -22 -25 -63 -23 -136 9 -42 18 -86
28 -139 31 -73 4 -78 6 -127 49 -28 25 -51 51 -51 59 0 8 -4 14 -10 14 -6 0
-10 33 -10 78 0 67 -4 83 -30 127 -34 57 -37 90 -13 117 24 26 70 22 122 -11z
m1356 9 c22 -25 15 -65 -22 -121 -22 -33 -28 -56 -33 -122 -7 -97 -15 -115
-77 -162 -42 -32 -51 -35 -115 -35 -56 0 -84 -6 -138 -30 -78 -34 -97 -36
-128 -14 -31 21 -30 83 2 121 28 34 86 137 86 154 0 7 7 19 15 28 9 9 26 31
38 50 16 25 40 41 89 61 37 15 80 30 96 33 16 3 47 18 67 32 46 30 95 33 120
5z m-536 -46 c33 -27 39 -52 19 -72 -18 -18 -33 -15 -67 14 -35 29 -39 51 -13
70 23 18 26 18 61 -12z m-921 -440 c45 -38 52 -54 26 -54 -17 0 -84 64 -84 81
0 17 16 9 58 -27z m1492 24 c0 -15 -73 -78 -89 -78 -20 0 -11 24 21 57 32 33
68 44 68 21z m-1601 -139 c38 -38 50 -59 35 -59 -15 0 -94 72 -94 86 0 23 15
16 59 -27z m1701 29 c0 -16 -61 -78 -77 -78 -21 0 -15 15 22 53 37 38 55 46
55 25z m174 -64 c34 -13 18 -55 -46 -116 -76 -74 -103 -92 -123 -84 -34 13
-15 50 67 128 45 43 83 78 84 78 1 0 9 -3 18 -6z m-1985 -88 c83 -84 98 -116
53 -116 -45 0 -182 133 -182 176 0 48 41 29 129 -60z"/>
<path d="M903 1055 c-24 -17 -29 -49 -13 -75 7 -11 15 -12 37 -4 24 8 28 15
28 49 0 45 -17 55 -52 30z"/>
<path d="M792 1048 c-32 -32 -1 -89 38 -68 29 15 25 74 -5 78 -11 1 -26 -3
-33 -10z"/>
<path d="M953 961 c-22 -36 -16 -51 21 -51 37 0 59 19 54 47 -5 27 -59 29 -75
4z"/>
<path d="M837 949 c-10 -6 -28 -9 -39 -6 -32 9 -58 -14 -58 -50 0 -27 8 -39
53 -73 50 -37 99 -52 110 -32 16 25 16 103 0 136 -17 37 -34 43 -66 25z"/>
<path d="M954 855 c-8 -20 2 -44 21 -51 20 -8 55 23 55 48 0 14 -8 18 -35 18
-22 0 -38 -6 -41 -15z"/>
<path d="M1826 1038 c-3 -13 -6 -26 -6 -30 0 -14 32 -38 51 -38 17 0 20 6 17
43 -3 37 -6 42 -29 45 -20 2 -28 -2 -33 -20z"/>
<path d="M1931 1042 c-25 -46 35 -98 65 -57 11 15 11 23 -2 46 -17 33 -48 38
-63 11z"/>
<path d="M1752 978 c-17 -17 -15 -32 7 -52 27 -24 75 -18 79 10 6 42 -56 72
-86 42z"/>
<path d="M1881 937 c-6 -8 -14 -28 -17 -45 l-6 -32 -53 6 c-57 7 -73 -3 -56
-35 15 -28 41 -34 68 -16 23 15 25 15 52 -14 16 -17 36 -31 44 -31 17 0 123
85 130 104 9 22 -21 55 -61 66 -51 14 -87 13 -101 -3z"/>
</g>
</svg>
