<?xml version="1.0" standalone="no"?>
<!DOCTYPE svg PUBLIC "-//W3C//DTD SVG 20010904//EN"
 "http://www.w3.org/TR/2001/REC-SVG-20010904/DTD/svg10.dtd">
<svg version="1.0" xmlns="http://www.w3.org/2000/svg"
 width="280.000000pt" height="280.000000pt" viewBox="0 0 280.000000 280.000000"
 preserveAspectRatio="xMidYMid meet">
<metadata>
Created by potrace 1.16, written by Peter Selinger 2001-2019
</metadata>
<g transform="translate(0.000000,280.000000) scale(0.100000,-0.100000)"
fill="currentColor" stroke="currentColor" stroke-width="2" stroke-linejoin="round" stroke-linecap="round">
<path d="M295 2612 c-32 -6 -54 -32 -61 -69 -16 -87 43 -386 100 -502 37 -78
113 -156 391 -406 109 -99 208 -187 219 -196 19 -16 18 -18 -44 -88 -34 -39
-67 -71 -72 -71 -5 0 -24 11 -41 24 -97 74 -240 37 -299 -77 -34 -66 -29 -123
15 -195 32 -51 37 -69 37 -118 l0 -58 -97 -92 c-87 -82 -103 -93 -144 -98 -90
-12 -159 -83 -159 -165 0 -65 42 -132 139 -223 95 -90 146 -114 218 -103 82
12 152 107 137 184 -5 24 7 39 98 129 77 77 113 105 143 113 28 8 44 8 55 0
131 -93 224 -92 309 5 71 81 75 173 10 256 l-29 36 71 69 c39 37 75 70 80 71
12 5 159 -119 159 -135 0 -6 -5 -15 -11 -19 -26 -16 -69 -100 -69 -135 0 -93
83 -194 177 -214 42 -9 99 8 157 46 39 27 53 31 88 26 36 -5 54 -19 145 -109
99 -97 104 -105 99 -137 -9 -59 35 -135 96 -167 15 -8 49 -14 76 -14 61 0 114
32 211 128 105 103 133 181 92 260 -35 68 -88 102 -159 102 -34 0 -46 9 -118
83 -45 45 -89 93 -98 107 -28 42 -20 87 26 158 36 55 42 73 42 116 -1 162
-171 260 -305 177 -28 -17 -54 -31 -57 -31 -12 0 -132 124 -132 136 0 10 84
88 396 370 136 124 189 186 228 269 43 90 84 251 98 387 10 96 10 109 -6 133
-29 44 -56 48 -190 25 -126 -22 -262 -57 -331 -85 -103 -43 -128 -67 -499
-492 -59 -68 -111 -123 -115 -123 -5 0 -62 62 -127 137 -355 410 -377 432
-453 465 -66 29 -231 74 -341 93 -123 21 -131 22 -155 17z m2100 -132 c7 -12
-29 -193 -60 -295 -41 -136 -36 -131 -640 -685 -110 -100 -267 -244 -348 -319
-82 -75 -159 -143 -173 -151 -23 -14 -27 -13 -40 5 -31 41 -28 63 12 108 21
23 244 251 496 506 254 258 458 472 458 482 0 24 -27 49 -51 49 -13 0 -196
-176 -526 -506 l-507 -507 -33 18 c-58 31 -68 16 252 374 110 123 232 261 270
305 250 290 442 500 479 521 43 25 146 56 286 86 100 21 117 22 125 9z m-1845
-29 c144 -36 189 -52 234 -86 40 -32 476 -518 496 -556 7 -12 -2 -29 -35 -65
l-43 -49 -86 84 c-47 46 -155 153 -238 238 -84 84 -163 156 -176 160 -25 6
-62 -20 -62 -45 0 -9 111 -127 246 -263 227 -228 245 -249 233 -266 -32 -46
-69 -83 -80 -83 -7 0 -42 28 -78 63 -36 34 -150 137 -252 229 -178 159 -235
221 -274 297 -17 33 -85 317 -85 355 0 17 6 18 63 12 34 -3 96 -15 137 -25z
m1204 -1172 c26 -29 45 -57 43 -63 -2 -6 -18 -19 -36 -30 l-33 -19 -49 49
c-27 26 -49 54 -49 60 0 15 48 54 65 54 7 0 34 -23 59 -51z m-1023 -77 c24
-16 50 -36 58 -45 7 -9 32 -22 55 -28 97 -25 157 -80 215 -198 17 -34 51 -86
76 -113 53 -59 56 -85 17 -129 -38 -43 -88 -43 -147 0 -40 29 -49 31 -129 31
-75 0 -92 3 -126 25 -21 13 -51 42 -65 62 -21 32 -25 49 -25 115 0 73 -2 81
-40 139 -44 68 -48 93 -24 127 33 48 75 52 135 14z m1405 -6 c47 -47 44 -70
-18 -146 -25 -31 -28 -42 -28 -109 0 -92 -24 -147 -83 -191 -40 -29 -46 -31
-127 -28 -80 2 -88 0 -141 -30 -69 -39 -107 -41 -143 -6 -39 39 -35 76 15 132
22 25 61 86 86 134 51 100 79 128 159 157 77 29 104 44 153 85 54 45 83 46
127 2z m-544 -53 c26 -26 48 -54 48 -63 -1 -8 -12 -28 -25 -45 -27 -33 -23
-35 -112 49 l-43 40 32 33 c18 18 37 33 42 33 6 0 32 -21 58 -47z m-956 -448
c27 -25 52 -45 56 -45 16 0 7 -26 -13 -38 -17 -11 -25 -9 -57 16 -64 51 -75
68 -62 91 6 12 14 21 19 21 4 0 30 -20 57 -45z m1542 33 c20 -20 14 -36 -25
-73 -44 -41 -77 -52 -98 -35 -13 11 -7 20 42 66 64 59 64 59 81 42z m-1652
-155 c57 -50 63 -63 38 -84 -13 -11 -23 -4 -71 43 -38 38 -54 61 -50 72 10 25
24 20 83 -31z m1768 25 c9 -15 3 -26 -37 -65 -39 -40 -50 -46 -65 -37 -25 16
-22 28 21 79 40 47 61 53 81 23z m-1901 -125 c40 -38 84 -82 96 -100 43 -61 9
-103 -56 -69 -46 24 -171 150 -178 179 -5 17 -2 33 5 42 24 29 57 16 133 -52z
m2093 41 c4 -15 1 -36 -7 -51 -20 -38 -169 -173 -190 -173 -10 0 -26 11 -35
25 -15 23 -15 27 6 60 12 19 54 64 93 100 82 73 122 85 133 39z M752 1048
c-29 -29 -3 -84 35 -76 25 5 40 52 23 72 -15 19 -41 21 -58 4z M848 1035 c-14
-31 -2 -58 29 -63 27 -4 45 21 41 55 -2 22 -9 29 -30 31 -22 3 -30 -2 -40 -23z
M916 964 c-29 -29 -15 -64 25 -64 32 0 57 35 46 64 -8 21 -51 21 -71 0z M770
948 c-62 -26 -70 -32 -70 -54 0 -23 74 -97 118 -117 34 -16 63 18 70 81 4 44
1 54 -21 76 -28 27 -56 31 -97 14z M938 876 c-27 -14 -31 -54 -7 -69 24 -15
69 16 69 47 0 29 -28 39 -62 22z M1937 1052 c-23 -25 -21 -45 4 -68 39 -35 75
14 45 61 -20 30 -28 31 -49 7z M1830 1041 c-25 -47 30 -100 62 -61 23 28 22
36 -2 60 -25 25 -46 25 -60 1z M1764 982 c-39 -27 -10 -85 39 -80 26 2 33 8
35 30 4 37 -44 71 -74 50z M1889 945 c-35 -19 -41 -38 -33 -102 7 -55 22 -73
62 -73 17 0 122 99 122 115 0 22 -26 46 -61 55 -22 6 -46 13 -52 15 -7 2 -24
-2 -38 -10z M1745 870 c-11 -18 6 -50 31 -56 38 -10 56 2 52 33 -3 24 -8 28
-40 31 -20 2 -39 -2 -43 -8z"/>
</g>
</svg>
