<?xml version="1.0" standalone="no"?>
<!DOCTYPE svg PUBLIC "-//W3C//DTD SVG 20010904//EN"
 "http://www.w3.org/TR/2001/REC-SVG-20010904/DTD/svg10.dtd">
<svg version="1.0" xmlns="http://www.w3.org/2000/svg"
 width="280.000000pt" height="280.000000pt" viewBox="0 0 280.000000 280.000000"
 preserveAspectRatio="xMidYMid meet">
<metadata>
Created by potrace 1.16, written by Peter Selinger 2001-2019
</metadata>
<g transform="translate(0.000000,280.000000) scale(0.100000,-0.100000)"
fill="#C8960C" stroke="#C8960C" stroke-width="2">
<path d="M1283 2651 c-29 -10 -71 -31 -93 -46 -52 -36 -107 -125 -122 -197
-11 -55 -13 -57 -61 -77 -140 -58 -313 -219 -384 -357 -46 -89 -87 -210 -102
-299 -6 -33 -20 -148 -31 -255 -29 -273 -38 -299 -163 -444 -79 -93 -109 -157
-110 -244 -2 -123 56 -203 198 -273 135 -66 424 -139 554 -139 54 0 64 -3 84
-26 47 -56 84 -86 147 -117 62 -31 69 -32 185 -32 116 0 123 1 186 32 41 21
85 53 115 85 l49 53 120 11 c66 7 161 22 210 34 337 81 486 191 488 359 0 83
-28 151 -100 239 -131 159 -142 189 -167 463 -27 278 -48 366 -129 523 -86
165 -206 286 -370 372 -38 20 -71 43 -74 52 -51 149 -111 230 -201 272 -64 31
-161 36 -229 11z m165 -185 c33 -17 66 -52 59 -63 -3 -4 -62 -7 -131 -5 -122
3 -126 4 -115 23 27 52 127 76 187 45z m130 -276 c165 -55 254 -113 333 -218
110 -146 160 -304 189 -607 26 -265 57 -353 171 -479 67 -75 99 -126 99 -160
0 -46 -115 -120 -235 -151 -73 -19 -283 -55 -318 -55 -24 0 -25 3 -29 72 -3
40 -8 81 -12 91 -12 25 26 23 239 -13 214 -36 232 -36 262 -8 55 52 11 113
-105 147 -174 51 -542 95 -787 94 -164 -1 -402 -20 -530 -42 -258 -46 -318
-63 -357 -101 -32 -33 -35 -59 -10 -90 24 -30 85 -36 174 -17 40 9 125 23 188
32 63 8 123 18 134 21 16 5 17 2 10 -28 -4 -18 -10 -60 -13 -93 -6 -57 -8 -60
-34 -63 -42 -5 -290 44 -382 76 -97 33 -165 90 -165 139 0 33 37 90 110 168
96 103 128 189 160 430 53 394 68 455 132 562 90 151 248 267 408 301 30 7 64
14 75 16 50 12 232 -3 293 -24z m14 -1530 c57 -182 -24 -317 -196 -328 -52 -3
-69 0 -116 25 -34 18 -66 45 -85 72 -28 40 -30 49 -29 124 1 52 7 96 17 119
20 45 24 45 237 44 l154 -1 18 -55z"/>
<path d="M1677 1510 c-20 -16 -27 -30 -27 -56 0 -65 46 -122 87 -107 40 14 53
35 53 88 0 56 -15 78 -60 90 -18 4 -34 0 -53 -15z"/>
<path d="M1850 1492 c-18 -14 -24 -32 -28 -74 -4 -49 -2 -57 19 -72 36 -25 64
-20 98 19 37 42 40 81 10 119 -25 31 -66 35 -99 8z"/>
<path d="M1570 1412 c-40 -12 -52 -70 -25 -121 35 -69 115 -47 115 31 0 56
-47 103 -90 90z"/>
<path d="M1955 1349 c-41 -36 -46 -73 -14 -113 26 -33 51 -33 90 2 40 35 44
96 9 124 -31 25 -44 23 -85 -13z"/>
<path d="M1735 1316 c-16 -7 -54 -38 -82 -69 -48 -51 -53 -60 -53 -102 0 -37
5 -51 28 -72 25 -23 32 -25 95 -20 47 4 78 2 102 -9 50 -20 71 -18 107 15 48
43 45 87 -11 169 -64 95 -116 119 -186 88z"/>
</g>
</svg>
