<?xml version="1.0" standalone="no"?>
<!DOCTYPE svg PUBLIC "-//W3C//DTD SVG 20010904//EN"
 "http://www.w3.org/TR/2001/REC-SVG-20010904/DTD/svg10.dtd">
<svg version="1.0" xmlns="http://www.w3.org/2000/svg"
 width="280.000000pt" height="280.000000pt" viewBox="0 0 280.000000 280.000000"
 preserveAspectRatio="xMidYMid meet">
<metadata>
Created by potrace 1.16, written by Peter Selinger 2001-2019
</metadata>
<g transform="translate(0.000000,280.000000) scale(0.100000,-0.100000)"
fill="#C8960C" stroke="#C8960C" stroke-width="2" stroke-linejoin="round" stroke-linecap="round">
<path d="M1311 2484 c-99 -27 -169 -104 -191 -211 l-12 -54 -71 -33 c-226
-104 -383 -319 -426 -581 -6 -38 -18 -137 -27 -220 -26 -258 -42 -303 -150
-431 -37 -43 -75 -97 -85 -119 -41 -90 -11 -219 67 -283 49 -40 158 -86 266
-112 95 -22 283 -50 341 -50 34 0 44 -6 85 -51 25 -28 63 -62 84 -75 45 -29
136 -54 194 -54 101 0 236 68 282 142 l21 33 153 18 c269 30 436 85 522 170
53 53 71 106 63 188 -6 70 -22 100 -97 187 -107 124 -124 177 -160 498 -32
283 -74 406 -180 532 -75 89 -158 155 -257 204 -78 37 -83 42 -83 71 0 75 -85
190 -164 222 -53 21 -117 25 -175 9z m147 -124 c31 -19 72 -73 72 -96 0 -10
-285 -12 -296 -2 -8 9 42 73 75 95 43 29 104 30 149 3z m20 -230 c193 -25 356
-127 457 -285 71 -111 90 -186 130 -515 29 -241 61 -328 169 -454 78 -92 93
-130 73 -179 -31 -73 -137 -122 -342 -156 -66 -11 -142 -21 -170 -23 l-50 -3
-6 80 c-3 44 -12 91 -18 104 -8 15 -9 27 -3 33 13 13 218 -15 351 -47 104 -25
105 -26 124 -6 19 18 19 22 5 43 -46 71 -430 132 -818 130 -507 -1 -898 -84
-812 -170 19 -19 21 -19 123 4 142 32 339 58 352 45 6 -6 5 -23 -3 -47 -7 -21
-14 -68 -15 -104 l-3 -65 -58 3 c-161 8 -348 53 -433 104 -112 68 -114 135 -8
254 133 149 150 202 193 589 27 248 79 370 209 494 150 142 334 199 553 171z
m94 -1397 c31 -37 51 -110 46 -177 -10 -156 -154 -258 -305 -215 -62 17 -143
96 -161 155 -22 76 -9 166 34 231 14 22 19 23 193 23 157 0 180 -2 193 -17z
M1661 1434 c-28 -36 -26 -58 7 -95 26 -29 30 -31 53 -19 32 17 39 29 39 68 0
36 -29 72 -59 72 -11 0 -29 -12 -40 -26z M1815 1420 c-25 -28 -25 -88 0 -106
25 -19 38 -18 69 7 19 15 26 30 26 53 0 59 -58 87 -95 46z M1546 1338 c-9 -12
-16 -30 -16 -39 0 -24 39 -69 60 -69 49 0 67 73 28 110 -28 26 -53 25 -72 -2z
M1911 1294 c-52 -66 13 -142 69 -82 26 29 27 84 1 98 -31 16 -48 12 -70 -16z
M1725 1278 c-85 -30 -139 -134 -104 -200 14 -25 72 -50 102 -43 12 4 42 2 67
-4 118 -26 166 79 84 186 -29 38 -80 73 -104 72 -8 0 -28 -5 -45 -11z"/>
</g>
</svg>
