<?xml version="1.0" standalone="no"?>
<!DOCTYPE svg PUBLIC "-//W3C//DTD SVG 20010904//EN"
 "http://www.w3.org/TR/2001/REC-SVG-20010904/DTD/svg10.dtd">
<svg version="1.0" xmlns="http://www.w3.org/2000/svg"
 width="280.000000pt" height="280.000000pt" viewBox="0 0 280.000000 280.000000"
 preserveAspectRatio="xMidYMid meet">
<metadata>
Created by potrace 1.16, written by Peter Selinger 2001-2019
</metadata>
<g transform="translate(0.000000,280.000000) scale(0.100000,-0.100000)"
fill="#F0C040" stroke="#F0C040" stroke-width="3" stroke-linejoin="round" stroke-linecap="round">
<path d="M1285 2451 c-103 -27 -185 -122 -185 -216 0 -35 -2 -37 -67 -66 -146
-65 -265 -179 -342 -329 -53 -102 -77 -199 -96 -392 -29 -297 -46 -355 -139
-456 -76 -82 -107 -136 -113 -197 -10 -95 35 -174 126 -220 105 -53 305 -99
487 -111 l95 -7 31 -43 c57 -80 148 -125 254 -126 108 -1 210 49 265 128 28
42 32 44 79 44 74 0 265 27 355 50 97 26 200 72 239 108 16 15 37 45 47 67 42
90 12 189 -89 298 -95 102 -111 150 -142 437 -36 323 -86 455 -228 599 -72 72
-103 95 -177 132 -49 24 -93 49 -97 54 -4 6 -8 23 -8 38 0 66 -59 150 -131
187 -42 22 -121 32 -164 21z m136 -94 c41 -28 79 -82 79 -114 0 -22 -2 -23
-42 -16 -52 10 -213 9 -250 0 -24 -6 -28 -4 -28 13 0 45 50 109 100 129 45 18
105 13 141 -12z m125 -231 c188 -60 330 -196 402 -384 36 -91 45 -138 72 -375
20 -167 44 -277 75 -338 8 -14 41 -56 74 -92 74 -82 91 -113 91 -171 0 -36 -6
-52 -29 -78 -65 -74 -173 -106 -523 -153 l-38 -5 0 74 c0 52 -6 88 -21 125
-12 28 -19 54 -15 58 16 17 305 -32 404 -68 67 -24 79 -24 93 3 22 41 -40 70
-236 108 -346 67 -983 52 -1247 -30 -98 -30 -129 -60 -93 -90 11 -9 27 -8 77
8 91 30 325 72 397 72 l30 0 -21 -47 c-16 -35 -22 -69 -22 -125 l-1 -78 -48 0
c-118 0 -360 51 -444 93 -135 70 -144 160 -28 287 116 125 145 205 170 455 9
88 22 192 30 231 56 284 239 478 509 540 92 21 242 12 342 -20z m-38 -1337
c23 -8 38 -24 57 -62 71 -144 -9 -315 -168 -358 -110 -29 -247 40 -292 148
-33 78 -11 207 44 262 19 19 32 21 175 21 84 0 167 -5 184 -11z M1616 1448
c-22 -31 -20 -52 7 -84 28 -32 63 -26 78 13 25 67 -46 127 -85 71z M1762 1430
c-25 -40 -5 -100 34 -100 21 0 54 37 54 61 0 55 -61 83 -88 39z M1518 1359
c-27 -15 -24 -74 4 -93 19 -13 25 -14 43 -2 29 19 31 54 4 82 -25 27 -27 27
-51 13z M1862 1318 c-20 -20 -15 -76 8 -88 41 -22 88 38 63 79 -13 20 -54 26
-71 9z M1680 1299 c-14 -6 -38 -22 -53 -37 -62 -59 -74 -125 -31 -169 22 -22
32 -25 71 -20 25 2 61 0 80 -5 51 -14 81 -3 100 37 15 31 15 37 -1 77 -19 51
-80 114 -116 122 -14 3 -36 1 -50 -5z"/>
</g>
</svg>
