<?xml version="1.0" standalone="no"?>
<!DOCTYPE svg PUBLIC "-//W3C//DTD SVG 20010904//EN"
 "http://www.w3.org/TR/2001/REC-SVG-20010904/DTD/svg10.dtd">
<svg version="1.0" xmlns="http://www.w3.org/2000/svg"
 width="280.000000pt" height="280.000000pt" viewBox="0 0 280.000000 280.000000"
 preserveAspectRatio="xMidYMid meet">
<metadata>
Created by potrace 1.16, written by Peter Selinger 2001-2019
</metadata>
<g transform="translate(0.000000,280.000000) scale(0.100000,-0.100000)"
fill="currentColor" stroke="none">
<path d="M684 2190 c-134 -19 -179 -45 -193 -111 -5 -27 -14 -35 -47 -46 -52
-17 -93 -60 -105 -109 -4 -22 -9 -298 -9 -614 0 -539 2 -578 19 -616 22 -47
72 -83 122 -86 19 -1 97 4 174 12 244 22 419 0 565 -72 75 -37 95 -43 167 -46
76 -4 88 -1 149 27 36 17 70 29 74 26 4 -2 10 -28 12 -56 9 -90 57 -100 154
-34 28 19 57 35 65 35 8 0 41 -18 74 -40 65 -43 81 -47 110 -26 15 11 20 31
25 97 l5 84 75 -1 c41 -1 109 -3 152 -5 83 -4 109 6 152 65 21 27 21 39 24
624 2 328 0 611 -3 629 -8 42 -53 86 -104 101 -37 12 -41 16 -47 53 -14 87
-95 115 -339 113 -143 -1 -170 -4 -248 -28 -108 -32 -197 -75 -266 -127 l-52
-40 -30 25 c-69 59 -182 111 -314 147 -81 22 -269 32 -361 19z m236 -61 c144
-17 338 -95 414 -166 l26 -24 0 -573 c0 -315 -3 -576 -7 -579 -3 -4 -18 1 -32
10 -95 62 -261 118 -393 133 -103 11 -254 1 -317 -21 -63 -22 -61 -39 -61 592
0 529 1 568 18 589 14 17 37 25 102 35 109 17 146 17 250 4z m1158 1 c51 -6
106 -17 122 -25 l30 -16 0 -583 c0 -491 -2 -585 -14 -595 -20 -17 -156 10
-192 38 -62 49 -331 10 -410 -59 -31 -26 -167 -100 -186 -100 -12 0 -10 1127
2 1150 24 44 179 131 293 164 118 34 211 41 355 26z m-1588 -702 l5 -536 24
-26 c28 -30 55 -32 151 -11 85 19 219 19 316 0 86 -16 227 -67 262 -93 l23
-18 -28 -57 c-23 -48 -31 -57 -48 -52 -159 47 -168 48 -370 49 -110 0 -240 -1
-288 -4 -87 -5 -89 -5 -113 23 l-24 28 0 595 0 595 25 25 c14 14 33 24 43 22
16 -3 17 -42 22 -540z m1867 518 l28 -24 0 -602 0 -602 -29 -24 c-28 -25 -31
-25 -150 -19 -182 9 -167 1 -164 98 l3 82 30 -1 c17 -1 60 -5 97 -9 64 -7 67
-7 92 20 l26 28 0 532 c0 292 3 535 7 538 12 13 32 7 60 -17z m-389 -1048 c9
-9 12 -68 12 -205 0 -162 -2 -193 -15 -193 -8 0 -40 18 -71 40 -32 22 -61 40
-65 40 -4 0 -37 -20 -74 -45 -36 -25 -70 -43 -76 -40 -15 10 -12 350 4 363 10
8 80 27 172 46 43 8 102 5 113 -6z m-363 -188 c0 -74 0 -75 -27 -78 -23 -3
-30 3 -49 45 -13 26 -25 51 -27 55 -5 10 70 57 88 55 12 -2 15 -18 15 -77z
m-143 -34 c21 -26 34 -84 21 -97 -29 -29 -197 -16 -210 17 -2 6 7 35 21 63
l26 51 62 -7 c46 -5 67 -12 80 -27z M720 1861 c-18 -5 -25 -14 -25 -31 0 -25
0 -25 90 -22 114 4 240 -17 341 -58 70 -28 79 -29 93 -15 24 23 4 46 -65 74
-122 49 -348 76 -434 52z M725 1661 c-24 -5 -30 -12 -30 -31 l0 -25 135 -1
c144 -1 206 -13 314 -60 54 -24 59 -25 74 -10 13 13 14 20 6 34 -14 22 -133
68 -225 87 -70 15 -218 18 -274 6z M720 1462 c-18 -6 -25 -15 -25 -32 l0 -25
130 -1 c138 0 224 -16 320 -60 52 -23 85 -19 85 12 0 18 -80 57 -177 86 -73
21 -286 34 -333 20z M704 1246 c-15 -12 -17 -18 -8 -33 10 -16 24 -17 122 -14
126 3 194 -8 305 -52 69 -27 80 -29 93 -15 8 8 12 22 9 30 -8 21 -116 64 -207
83 -93 20 -287 20 -314 1z M1711 1741 c-23 -23 -27 -61 -10 -94 24 -45 70 -51
95 -12 40 62 -35 156 -85 106z M1893 1745 c-50 -35 -34 -135 22 -135 53 0 85
90 45 130 -24 24 -38 25 -67 5z M1585 1603 c-33 -32 6 -113 54 -113 26 0 41
21 41 57 0 59 -58 93 -95 56z M2001 1594 c-56 -71 14 -151 73 -85 21 23 24 74
6 96 -19 23 -56 18 -79 -11z M1775 1542 c-37 -23 -103 -116 -111 -157 -4 -23
0 -38 17 -59 21 -27 25 -28 78 -21 67 8 80 8 149 -1 43 -5 56 -3 72 11 43 39
12 134 -68 208 -39 37 -96 45 -137 19z"/>
</g>
</svg>
