<?xml version="1.0" standalone="no"?>
<!DOCTYPE svg PUBLIC "-//W3C//DTD SVG 20010904//EN"
 "http://www.w3.org/TR/2001/REC-SVG-20010904/DTD/svg10.dtd">
<svg version="1.0" xmlns="http://www.w3.org/2000/svg"
 width="280.000000pt" height="280.000000pt" viewBox="0 0 280.000000 280.000000"
 preserveAspectRatio="xMidYMid meet">
<metadata>
Created by potrace 1.16, written by Peter Selinger 2001-2019
</metadata>
<g transform="translate(0.000000,280.000000) scale(0.100000,-0.100000)"
fill="currentColor" stroke="currentColor" stroke-width="2">
<path d="M505 2476 c-120 -24 -177 -73 -191 -162 -6 -40 -8 -42 -60 -60 -36
-12 -70 -34 -100 -63 -78 -79 -76 -57 -77 -840 l-2 -686 31 -65 c34 -72 74
-111 149 -146 48 -23 61 -24 268 -24 337 0 486 -23 657 -100 149 -67 261 -69
368 -9 29 16 57 27 61 25 5 -3 11 -23 15 -45 7 -43 44 -81 80 -81 11 0 59 27
105 60 46 33 88 60 93 60 5 0 43 -23 85 -50 95 -63 140 -69 181 -24 18 21 22
37 22 95 l0 69 143 0 c128 0 147 3 192 24 97 45 143 124 156 270 5 56 8 382 7
726 -3 610 -3 626 -24 670 -28 60 -84 112 -149 140 -46 20 -53 26 -58 57 -10
60 -43 100 -110 133 -54 26 -77 31 -174 37 -249 14 -517 -55 -715 -182 -82
-54 -60 -57 -189 23 -209 129 -542 193 -764 148z m427 -182 c121 -31 285 -107
346 -159 l42 -37 0 -700 c0 -385 -3 -698 -7 -696 -133 64 -196 88 -333 125
-83 22 -120 26 -300 29 -113 2 -211 6 -217 9 -19 6 -19 1403 0 1428 33 45 299
45 469 1z m1355 13 c17 -15 18 -60 17 -729 l0 -713 -57 -3 c-60 -3 -59 -4 -72
51 -4 20 -16 33 -43 44 -34 15 -48 15 -173 -1 -144 -17 -278 -53 -310 -82 -11
-9 -22 -35 -26 -57 -6 -41 1 -36 -165 -115 -5 -2 -8 311 -8 696 l0 700 39 34
c83 71 262 148 411 177 91 18 110 19 242 17 100 -2 132 -6 145 -19z m-1967
-835 c0 -603 1 -639 19 -672 36 -68 59 -74 306 -81 275 -8 369 -29 585 -132
125 -59 157 -64 227 -38 32 12 79 35 103 51 24 16 47 27 52 24 4 -3 8 -25 8
-48 l0 -43 -87 -44 c-77 -38 -96 -44 -153 -44 -54 0 -79 6 -145 37 -181 83
-332 108 -657 108 -196 0 -255 3 -277 14 -57 30 -56 15 -59 711 -2 352 -1 663
3 692 7 54 36 103 61 103 12 0 14 -92 14 -638z m2178 598 l22 -33 0 -673 c0
-370 -4 -683 -9 -696 -5 -13 -21 -35 -36 -50 -27 -28 -29 -28 -156 -28 -127 0
-129 0 -135 23 -3 13 -4 41 -2 63 l3 39 80 6 c100 6 140 26 166 82 18 40 19
75 19 675 0 677 -1 664 48 592z m-470 -1437 c2 -116 -1 -173 -8 -173 -6 0 -33
16 -61 35 -50 34 -51 34 -82 19 -18 -9 -46 -27 -64 -40 -17 -13 -34 -24 -37
-24 -12 0 -6 319 5 326 17 10 169 33 209 31 l35 -2 3 -172z"/>
<path d="M633 2081 c-47 -12 -63 -29 -63 -65 0 -52 10 -56 166 -56 117 0 158
-4 237 -24 52 -13 108 -31 125 -40 63 -33 115 -14 115 40 0 49 -53 78 -228
126 -78 21 -298 33 -352 19z"/>
<path d="M612 1815 c-37 -16 -47 -34 -38 -70 10 -39 36 -47 115 -34 104 17
201 -1 463 -87 22 -8 58 30 58 60 0 70 -239 145 -460 145 -69 0 -116 -5 -138
-14z"/>
<path d="M625 1572 c-17 -4 -36 -19 -45 -35 -13 -24 -13 -30 0 -53 l15 -27
165 -2 c162 -1 167 -2 273 -38 59 -20 115 -37 125 -37 22 0 52 30 52 52 0 38
-85 84 -217 119 -82 21 -311 34 -368 21z"/>
<path d="M647 1320 c-27 -5 -55 -14 -63 -20 -17 -15 -19 -76 -1 -87 6 -4 75
-8 152 -9 151 -2 219 -13 347 -61 80 -29 98 -28 121 9 15 23 0 66 -29 85 -15
9 -84 32 -156 50 -139 36 -286 49 -371 33z"/>
</g>
</svg>
