<?xml version="1.0" standalone="no"?>
<!DOCTYPE svg PUBLIC "-//W3C//DTD SVG 20010904//EN"
 "http://www.w3.org/TR/2001/REC-SVG-20010904/DTD/svg10.dtd">
<svg version="1.0" xmlns="http://www.w3.org/2000/svg"
 width="280.000000pt" height="280.000000pt" viewBox="0 0 280.000000 280.000000"
 preserveAspectRatio="xMidYMid meet">
<metadata>
Created by potrace 1.16, written by Peter Selinger 2001-2019
</metadata>
<g transform="translate(0.000000,280.000000) scale(0.100000,-0.100000)"
fill="currentColor" stroke="currentColor" stroke-width="2" stroke-linejoin="round" stroke-linecap="round">
<path d="M671 2084 c-108 -22 -146 -44 -166 -99 -10 -25 -24 -45 -32 -45 -26
0 -91 -49 -114 -87 l-24 -38 0 -596 0 -595 28 -42 c15 -24 45 -51 69 -63 39
-20 50 -21 143 -13 55 5 172 9 260 8 182 -1 257 -16 392 -80 102 -48 182 -55
270 -25 79 27 80 27 88 -9 19 -86 82 -103 168 -45 28 19 61 35 72 35 11 0 45
-16 74 -36 62 -42 103 -46 135 -15 16 17 21 37 24 97 l4 77 128 -7 c116 -7
132 -5 167 12 47 24 68 47 88 94 22 54 24 1168 2 1221 -19 44 -60 81 -106 97
-30 10 -40 20 -52 53 -8 22 -26 49 -40 60 -70 52 -315 74 -462 41 -138 -30
-289 -94 -354 -148 -17 -14 -34 -26 -38 -26 -4 0 -24 13 -45 30 -55 43 -193
107 -285 131 -107 27 -293 34 -394 13z m374 -118 c87 -24 216 -88 264 -131
l41 -37 0 -534 c0 -294 -2 -534 -5 -534 -3 0 -36 15 -73 34 -78 39 -162 68
-247 87 -75 16 -272 17 -347 0 -32 -7 -62 -10 -68 -6 -16 10 -14 1100 3 1113
41 33 321 38 432 8z m1113 4 l32 -12 0 -560 0 -560 -27 4 c-16 3 -66 15 -113
28 -72 19 -101 22 -185 17 -117 -6 -178 -25 -312 -97 -51 -28 -96 -50 -98 -50
-3 0 -5 240 -5 533 l0 533 28 26 c33 31 120 81 182 104 120 45 181 54 325 50
77 -2 155 -9 173 -16z m-1658 -672 l5 -516 25 -27 c23 -25 29 -27 85 -22 33 4
92 11 130 17 82 13 223 6 309 -16 70 -18 196 -73 196 -86 0 -5 -10 -23 -22
-41 -13 -18 -24 -34 -25 -36 -1 -1 -23 4 -50 13 -141 45 -342 58 -555 34 -107
-12 -108 -12 -133 12 l-25 23 0 564 c0 381 3 571 11 584 6 11 18 19 27 17 16
-3 17 -46 22 -520z m1827 514 c31 -20 33 -65 28 -601 -3 -295 -8 -545 -10
-557 -8 -37 -41 -45 -165 -36 l-115 7 -3 64 c-3 62 -3 63 20 56 56 -17 138
-18 164 0 53 35 54 43 54 580 0 272 3 495 8 495 4 0 12 -4 19 -8z m-389 -1034
c17 -17 17 -318 0 -318 -6 0 -33 14 -60 31 l-49 32 -60 -32 c-32 -17 -64 -31
-69 -31 -6 0 -10 55 -10 140 l0 140 28 11 c38 15 141 37 178 38 16 1 35 -4 42
-11z m-348 -137 c0 -38 -19 -68 -28 -43 -2 7 -11 19 -19 28 -14 13 -13 17 2
34 29 32 45 25 45 -19z m-141 -70 c53 -49 36 -71 -56 -71 -46 0 -93 14 -93 29
0 5 12 23 26 40 35 42 80 42 123 2z M723 1755 c-27 -19 -30 -60 -6 -73 9 -6
60 -8 112 -5 110 6 214 -11 310 -52 63 -26 85 -25 101 5 22 40 -7 64 -125 105
-69 24 -100 28 -225 32 -123 4 -148 2 -167 -12z M773 1571 c-68 -11 -91 -44
-57 -82 13 -14 29 -16 118 -12 114 6 210 -10 313 -52 62 -25 87 -21 98 16 11
33 -21 57 -119 88 -137 44 -254 58 -353 42z M754 1374 c-12 -3 -30 -14 -40
-25 -14 -15 -15 -24 -6 -43 11 -24 13 -25 139 -25 131 0 204 -13 315 -57 46
-17 48 -17 68 1 11 10 20 23 20 30 0 25 -50 54 -145 85 -84 27 -118 33 -215
35 -63 2 -125 1 -136 -1z M752 1173 c-33 -7 -56 -46 -43 -72 10 -18 21 -20
134 -19 127 0 200 -12 292 -52 58 -25 77 -25 99 -1 41 45 -6 79 -163 122 -74
21 -266 34 -319 22z M1706 1639 c-36 -28 -37 -89 -1 -124 13 -14 31 -25 40
-25 23 0 65 45 65 70 0 29 -27 77 -49 90 -25 13 -24 13 -55 -11z M1893 1647
c-45 -20 -58 -102 -21 -137 29 -27 44 -25 79 9 59 60 15 161 -58 128z M1572
1508 c-21 -21 -14 -82 12 -107 52 -49 119 -2 95 68 -16 47 -77 69 -107 39z
M2004 1512 c-20 -13 -45 -73 -39 -92 17 -53 62 -64 100 -25 27 27 35 91 13
113 -13 13 -57 16 -74 4z M1768 1437 c-20 -12 -54 -43 -74 -70 -29 -38 -37
-57 -38 -92 -1 -52 27 -88 65 -85 13 0 72 1 132 1 96 -1 110 2 128 20 18 18
20 30 17 70 -6 56 -38 105 -101 150 -48 35 -80 36 -129 6z"/>
</g>
</svg>
