<?xml version="1.0" standalone="no"?>
<!DOCTYPE svg PUBLIC "-//W3C//DTD SVG 20010904//EN"
 "http://www.w3.org/TR/2001/REC-SVG-20010904/DTD/svg10.dtd">
<svg version="1.0" xmlns="http://www.w3.org/2000/svg"
 width="280.000000pt" height="280.000000pt" viewBox="0 0 280.000000 280.000000"
 preserveAspectRatio="xMidYMid meet">
<metadata>
Created by potrace 1.16, written by Peter Selinger 2001-2019
</metadata>
<g transform="translate(0.000000,280.000000) scale(0.100000,-0.100000)"
fill="currentColor" stroke="none">
<path d="M1315 2501 c-57 -22 -543 -254 -810 -387 -171 -85 -181 -91 -202
-133 l-23 -44 0 -556 c0 -521 2 -559 19 -597 21 -45 66 -84 127 -110 21 -9
131 -60 244 -114 113 -54 230 -109 260 -123 158 -73 234 -109 322 -151 158
-75 188 -73 386 21 209 99 303 143 541 254 288 134 314 149 349 202 l27 42 3
547 c3 569 1 601 -39 652 -20 25 -130 83 -364 191 -44 20 -216 99 -382 176
-337 156 -368 165 -458 130z m204 -84 c41 -18 76 -37 78 -44 3 -7 -13 -19 -34
-28 -21 -9 -147 -66 -280 -127 -264 -121 -278 -132 -227 -173 l28 -23 -182
-91 c-100 -50 -186 -91 -192 -91 -5 0 -38 13 -72 29 -35 16 -102 47 -150 70
-49 22 -88 44 -88 49 0 5 22 19 48 30 26 11 120 55 207 97 88 42 264 127 390
187 127 61 248 119 270 129 58 27 118 23 204 -14z m327 -150 c76 -35 139 -68
141 -74 2 -5 -83 -51 -189 -102 -106 -51 -196 -98 -200 -104 -9 -15 -1 -26 28
-37 13 -5 24 -14 24 -20 0 -10 -191 -110 -211 -110 -6 0 -25 10 -41 22 l-31
21 -172 -86 -172 -86 -112 51 c-61 28 -111 56 -111 62 0 6 90 55 200 108 206
99 227 116 175 140 -14 6 -25 16 -25 23 0 6 91 54 202 106 111 52 227 106 257
121 31 14 66 27 77 27 12 1 84 -28 160 -62z m403 -188 c86 -38 162 -77 170
-84 15 -15 -29 -38 -354 -187 -60 -28 -224 -105 -364 -171 -139 -66 -266 -120
-281 -120 -30 0 -305 125 -305 139 0 5 56 38 124 73 l124 63 34 -16 c18 -9 41
-16 51 -16 27 1 295 143 306 163 9 14 7 21 -8 32 -10 8 -16 19 -14 26 5 14
315 167 342 168 10 1 89 -31 175 -70z m-1789 -199 c52 -25 122 -58 155 -75
l60 -30 5 -225 c3 -124 7 -227 8 -229 4 -7 89 7 120 20 l33 14 72 -79 c59 -64
77 -78 97 -75 l25 4 3 199 2 198 23 -5 c29 -6 293 -131 314 -148 14 -12 15
-57 9 -419 -3 -223 -6 -476 -6 -562 0 -127 -3 -158 -14 -158 -13 0 -58 20
-311 139 -60 29 -193 91 -295 139 -343 161 -383 183 -402 222 -16 32 -18 80
-18 562 0 491 2 564 19 556 3 -2 49 -23 101 -48z m2031 -81 c3 -68 5 -314 4
-547 -3 -465 0 -446 -67 -495 -18 -13 -67 -39 -108 -57 -41 -18 -131 -60 -200
-93 -334 -159 -632 -296 -648 -299 -16 -3 -17 30 -17 570 l0 573 210 98 c116
54 334 155 485 226 151 71 284 134 295 142 11 7 24 12 30 10 6 -2 13 -58 16
-128z m-1642 -99 c145 -63 131 -40 131 -227 0 -93 -4 -163 -9 -163 -5 0 -31
25 -56 55 -51 59 -77 68 -125 40 -50 -28 -50 -27 -50 160 0 105 4 175 10 175
5 0 50 -18 99 -40z M2037 1409 c-42 -25 -59 -116 -32 -169 26 -51 71 -49 114
6 30 38 29 125 -1 154 -24 22 -53 25 -81 9z m59 -65 c8 -31 -19 -94 -40 -94
-18 0 -28 27 -21 54 19 66 49 86 61 40z M1832 1343 c-21 -8 -42 -60 -42 -103
0 -53 46 -105 82 -95 39 11 68 52 68 96 0 81 -48 126 -108 102z m59 -67 c14
-29 4 -75 -16 -83 -23 -8 -45 16 -45 51 0 55 41 76 61 32z M2203 1280 c-53
-22 -77 -126 -39 -169 48 -53 126 1 126 87 0 53 -5 64 -37 81 -25 13 -21 12
-50 1z m45 -82 c3 -29 -31 -73 -48 -63 -14 9 -12 69 2 83 20 20 43 9 46 -20z
M1699 1120 c-25 -15 -42 -65 -35 -104 7 -37 46 -76 75 -76 28 0 60 29 69 63
22 81 -46 154 -109 117z m59 -52 c16 -16 15 -40 -2 -63 -12 -16 -16 -17 -30
-6 -16 13 -22 62 -9 74 10 11 28 8 41 -5z M1954 1111 c-66 -30 -153 -187 -154
-274 0 -40 5 -53 29 -78 38 -38 60 -37 137 6 47 27 74 35 111 35 28 0 58 7 71
16 46 32 64 101 42 159 -12 33 -96 122 -132 141 -35 18 -54 17 -104 -5z m112
-58 c48 -36 84 -94 84 -135 0 -50 -36 -78 -98 -78 -32 0 -61 -9 -99 -30 -29
-16 -62 -30 -73 -30 -31 0 -42 40 -25 95 20 66 91 182 122 199 31 16 45 12 89
-21z"/>
</g>
</svg>
