<?xml version="1.0" standalone="no"?>
<!DOCTYPE svg PUBLIC "-//W3C//DTD SVG 20010904//EN"
 "http://www.w3.org/TR/2001/REC-SVG-20010904/DTD/svg10.dtd">
<svg version="1.0" xmlns="http://www.w3.org/2000/svg"
 width="280.000000pt" height="280.000000pt" viewBox="0 0 280.000000 280.000000"
 preserveAspectRatio="xMidYMid meet">
<metadata>
Created by potrace 1.16, written by Peter Selinger 2001-2019
</metadata>
<g transform="translate(0.000000,280.000000) scale(0.100000,-0.100000)"
fill="currentColor" stroke="currentColor" stroke-width="2" stroke-linejoin="round" stroke-linecap="round">
<path d="M1300 2501 c-41 -16 -129 -55 -195 -86 -556 -267 -744 -360 -770
-379 -17 -13 -41 -45 -55 -72 l-25 -49 0 -545 0 -545 25 -48 c35 -69 77 -102
209 -165 64 -30 162 -76 219 -103 56 -27 148 -71 205 -98 57 -26 170 -80 252
-119 83 -39 171 -76 196 -82 63 -16 133 -1 241 52 45 22 144 68 218 103 74 35
203 96 285 135 83 40 188 90 233 111 121 57 163 89 197 151 l30 53 3 529 c3
598 2 606 -66 674 -36 35 -195 116 -632 320 -58 27 -157 74 -221 105 -121 58
-205 87 -248 87 -14 -1 -60 -14 -101 -29z m173 -113 c38 -12 67 -27 67 -35 0
-7 -53 -38 -117 -68 -355 -166 -405 -192 -415 -208 -7 -13 -6 -28 3 -48 6 -16
10 -31 8 -33 -2 -2 -71 -36 -154 -75 l-150 -72 -118 57 c-64 32 -116 63 -114
68 4 13 10 16 157 85 69 32 188 89 265 126 363 176 469 224 490 225 6 0 40
-10 78 -22z m339 -150 c65 -29 117 -58 118 -64 0 -6 -30 -25 -67 -42 -302
-138 -317 -148 -294 -200 7 -13 10 -26 9 -27 -2 -1 -28 -16 -59 -33 -57 -32
-102 -41 -114 -22 -16 26 -80 8 -225 -65 -82 -41 -154 -75 -159 -75 -23 0
-161 71 -161 83 0 8 73 48 171 93 181 83 206 104 181 145 -7 10 -12 23 -12 27
0 5 51 33 113 62 61 29 166 79 232 111 66 32 127 58 135 58 8 1 68 -23 132
-51z m396 -189 c72 -34 132 -67 132 -73 0 -10 -189 -107 -405 -207 -44 -20
-179 -85 -300 -143 -120 -59 -224 -105 -231 -104 -38 9 -244 115 -244 125 0 7
44 34 97 59 88 42 100 45 128 35 54 -19 80 -13 206 49 149 73 173 92 164 137
l-6 33 153 74 c84 41 158 75 163 75 6 1 70 -26 143 -60z m240 -665 c2 -263 0
-498 -3 -521 -9 -60 -43 -90 -169 -146 -59 -27 -204 -95 -323 -153 -118 -57
-217 -104 -218 -104 -2 0 -54 -25 -117 -55 -62 -30 -121 -55 -130 -55 -17 0
-18 32 -18 531 l0 530 108 51 c59 28 172 82 252 120 80 38 195 93 255 121 61
29 162 77 225 109 63 31 120 55 125 54 6 -2 11 -173 13 -482z m-1922 419 l123
-56 3 -215 c3 -211 3 -214 27 -233 29 -23 58 -24 112 -3 l41 17 71 -71 c82
-80 114 -95 146 -63 20 20 21 32 21 186 0 135 3 165 14 165 13 0 224 -94 253
-113 9 -5 12 -141 12 -537 1 -461 -1 -530 -14 -530 -8 0 -54 19 -102 41 -602
285 -802 384 -828 410 l-30 29 -3 515 c-2 476 -1 515 14 515 9 0 72 -26 140
-57z m344 -162 l75 -37 3 -122 c3 -127 -3 -144 -34 -96 -24 36 -63 54 -93 42
-47 -17 -51 -8 -51 127 0 94 3 125 13 124 6 0 46 -17 87 -38z M2015 1386 c-13
-13 -29 -43 -35 -66 -33 -122 76 -186 131 -77 53 103 -23 216 -96 143z M1802
1320 c-50 -46 -45 -142 9 -182 22 -17 29 -17 53 -7 35 16 56 57 56 109 0 33
-6 48 -29 71 -34 34 -59 37 -89 9z M2181 1264 c-60 -50 -65 -158 -8 -178 55
-20 109 37 111 117 1 31 -5 44 -27 63 -35 30 -39 30 -76 -2z M1682 1113 c-19
-7 -42 -58 -42 -93 0 -39 47 -90 84 -90 70 0 94 109 36 163 -29 26 -50 31 -78
20z M1954 1106 c-47 -21 -90 -72 -134 -160 -50 -99 -55 -162 -14 -203 21 -21
32 -25 65 -20 22 3 58 17 79 32 29 20 58 29 110 35 76 8 93 18 116 63 34 66
15 137 -55 200 -73 65 -110 77 -167 53z"/>
</g>
</svg>
