<?xml version="1.0" standalone="no"?>
<!DOCTYPE svg PUBLIC "-//W3C//DTD SVG 20010904//EN"
 "http://www.w3.org/TR/2001/REC-SVG-20010904/DTD/svg10.dtd">
<svg version="1.0" xmlns="http://www.w3.org/2000/svg"
 width="280.000000pt" height="280.000000pt" viewBox="0 0 280.000000 280.000000"
 preserveAspectRatio="xMidYMid meet">
<metadata>
Created by potrace 1.16, written by Peter Selinger 2001-2019
</metadata>
<g transform="translate(0.000000,280.000000) scale(0.100000,-0.100000)"
fill="currentColor" stroke="currentColor" stroke-width="2" stroke-linejoin="round" stroke-linecap="round">
<path d="M877 2525 c-78 -20 -106 -56 -116 -145 l-6 -55 -121 -5 c-94 -4 -127
-9 -150 -24 -67 -43 -106 -92 -125 -160 -5 -16 -9 -371 -9 -789 -1 -836 -2
-813 61 -890 17 -21 50 -48 72 -60 l42 -22 845 -3 c618 -2 860 0 899 8 42 9
65 23 102 57 89 83 84 32 84 908 0 863 4 818 -73 898 -59 61 -84 70 -211 76
l-114 6 -12 58 c-6 32 -20 70 -31 85 -46 62 -150 82 -222 42 -48 -27 -70 -63
-80 -131 l-7 -54 -305 0 -305 0 -5 52 c-11 110 -105 175 -213 148z m90 -135
c20 -39 18 -254 -3 -274 -18 -19 -55 -21 -72 -4 -20 20 -16 257 4 286 20 29
54 25 71 -8z m950 0 c17 -34 18 -261 1 -278 -17 -17 -64 -15 -83 5 -15 14 -17
35 -13 146 3 114 6 131 23 143 28 20 57 14 72 -16z m-1171 -188 c6 -4 13 -33
16 -65 7 -89 59 -145 141 -154 61 -7 90 1 131 37 38 34 52 64 61 133 l6 47
303 0 303 0 6 -55 c3 -31 14 -70 24 -88 26 -43 87 -77 141 -77 94 0 155 59
167 163 l7 57 98 0 c90 0 101 -2 127 -24 41 -35 55 -85 51 -191 l-3 -90 -925
0 -925 0 1 106 c3 166 27 196 166 202 45 1 85 4 88 5 3 1 10 -2 16 -6z m1582
-987 c2 -308 0 -580 -3 -604 -5 -32 -16 -54 -40 -78 l-33 -33 -846 0 c-937 0
-877 -4 -914 64 -15 28 -17 88 -20 610 -2 318 -1 585 2 592 5 12 156 14 928
12 l923 -3 3 -560z M952 1677 c-47 -22 -77 -116 -86 -276 -5 -71 -13 -111 -34
-160 -24 -58 -27 -78 -26 -171 0 -91 3 -112 26 -160 67 -144 212 -252 385
-285 105 -21 291 -20 385 1 195 44 341 174 388 346 18 68 8 187 -23 278 -18
53 -27 107 -31 183 -11 178 -50 257 -129 257 -48 0 -135 -42 -194 -94 l-44
-39 -71 13 c-64 11 -143 9 -233 -6 -25 -4 -41 3 -90 42 -100 78 -166 99 -223
71z m161 -168 l81 -61 56 6 c148 17 207 17 269 2 75 -17 75 -17 177 60 39 30
78 54 87 54 22 0 27 -21 37 -160 7 -96 16 -147 41 -220 24 -75 30 -106 26
-147 -15 -147 -118 -252 -302 -309 -85 -26 -288 -26 -365 0 -93 31 -169 77
-219 132 -85 93 -104 205 -55 331 20 53 28 96 35 194 9 129 20 179 40 179 6 0
47 -27 92 -61z M1264 1319 c-37 -41 -17 -121 38 -150 42 -23 84 43 67 105 -18
63 -69 85 -105 45z M1450 1320 c-24 -24 -34 -62 -25 -97 10 -41 24 -53 61 -53
28 0 38 6 54 33 27 44 26 88 -3 115 -29 27 -61 28 -87 2z M1140 1190 c-46 -46
-8 -140 58 -140 37 0 56 22 56 67 0 27 -7 42 -32 64 -38 34 -55 36 -82 9z
M1575 1175 c-31 -30 -34 -84 -7 -108 45 -41 112 -1 112 65 0 67 -58 91 -105
43z M1355 1126 c-30 -13 -100 -89 -124 -133 -20 -39 -14 -97 14 -123 24 -22
34 -24 148 -25 137 -2 167 7 187 54 9 22 9 38 1 63 -15 45 -79 127 -120 155
-38 26 -63 28 -106 9z"/>
</g>
</svg>
