<?xml version="1.0" standalone="no"?>
<!DOCTYPE svg PUBLIC "-//W3C//DTD SVG 20010904//EN"
 "http://www.w3.org/TR/2001/REC-SVG-20010904/DTD/svg10.dtd">
<svg version="1.0" xmlns="http://www.w3.org/2000/svg"
 width="280.000000pt" height="280.000000pt" viewBox="0 0 280.000000 280.000000"
 preserveAspectRatio="xMidYMid meet">
<metadata>
Created by potrace 1.16, written by Peter Selinger 2001-2019
</metadata>
<g transform="translate(0.000000,280.000000) scale(0.100000,-0.100000)"
fill="currentColor" stroke="currentColor" stroke-width="2">
<path d="M915 2504 c-11 -3 -30 -7 -43 -10 -45 -9 -99 -71 -118 -135 l-18 -59
-81 1 c-66 2 -90 -2 -127 -20 -63 -30 -116 -84 -147 -150 l-26 -56 -3 -714
c-2 -630 -1 -720 13 -768 31 -108 99 -182 188 -208 47 -13 157 -15 868 -13
l814 3 51 27 c29 15 68 46 88 69 70 82 68 58 67 854 0 787 1 778 -61 863 -56
78 -155 121 -277 122 -48 0 -53 2 -53 23 -1 39 -45 111 -87 141 -57 40 -118
45 -178 16 -55 -27 -103 -87 -111 -142 l-7 -38 -272 0 -272 0 -7 38 c-14 91
-121 173 -201 156z m43 -156 c8 -8 12 -51 12 -129 0 -128 -9 -151 -49 -129
-19 10 -21 20 -21 128 0 115 7 142 35 142 6 0 16 -5 23 -12z m920 0 c8 -8 12
-51 12 -129 0 -128 -7 -145 -54 -133 -26 6 -26 7 -26 104 0 54 -3 105 -6 113
-6 16 31 57 51 57 6 0 16 -5 23 -12z m-1135 -244 c16 -99 95 -167 193 -166 98
1 166 58 182 154 l8 43 271 3 272 2 7 -45 c14 -93 91 -158 189 -158 90 0 160
59 181 150 l10 48 68 3 c113 5 146 -35 146 -178 l0 -80 -875 0 -875 0 0 85 c0
140 30 175 146 175 l71 0 6 -36z m1525 -924 c1 -372 -1 -563 -8 -581 -6 -14
-24 -33 -39 -42 -27 -16 -96 -17 -830 -17 l-801 0 -32 29 -33 29 -5 562 c-3
308 -2 564 2 568 4 4 398 7 875 7 l868 0 3 -555z"/>
<path d="M942 1660 c-43 -27 -57 -63 -72 -185 -19 -164 -27 -208 -46 -255 -14
-34 -19 -71 -19 -150 1 -97 3 -110 31 -170 61 -126 201 -234 364 -277 90 -25
310 -25 397 -1 161 45 296 146 355 266 28 56 33 78 36 159 4 80 1 107 -21 176
-14 45 -30 134 -36 197 -16 151 -27 192 -63 227 -25 24 -37 28 -81 27 -59 -1
-108 -23 -185 -83 -50 -40 -53 -41 -94 -31 -58 13 -165 13 -229 -1 -44 -9 -54
-9 -63 3 -18 24 -106 88 -144 103 -48 21 -91 19 -130 -5z m144 -163 c90 -75
106 -79 270 -62 56 5 102 4 148 -5 36 -7 77 -9 90 -6 14 3 55 29 91 56 66 50
95 61 95 38 1 -79 25 -251 45 -317 44 -150 26 -250 -61 -332 -98 -93 -203
-129 -368 -129 -164 0 -271 37 -366 126 -68 64 -94 129 -87 219 3 38 15 94 26
123 13 33 25 97 32 175 6 67 12 128 14 135 7 20 29 14 71 -21z"/>
<path d="M1256 1308 c-30 -43 -10 -114 38 -136 21 -9 29 -8 50 9 21 16 26 29
26 63 0 57 -22 86 -65 86 -24 0 -39 -7 -49 -22z"/>
<path d="M1437 1312 c-19 -21 -23 -92 -7 -123 8 -13 21 -19 45 -19 29 0 39 6
55 33 25 40 26 89 2 110 -25 22 -75 21 -95 -1z"/>
<path d="M1148 1196 c-18 -9 -24 -21 -26 -54 -3 -36 1 -47 27 -72 36 -37 54
-38 80 -4 26 34 27 74 1 106 -24 31 -51 39 -82 24z"/>
<path d="M1592 1194 c-38 -15 -56 -55 -47 -100 7 -41 28 -58 61 -50 43 11 74
50 74 94 0 57 -34 79 -88 56z"/>
<path d="M1338 1120 c-20 -11 -45 -31 -55 -45 -10 -14 -30 -42 -45 -62 -38
-49 -39 -113 -2 -142 25 -20 55 -22 263 -21 57 0 97 54 81 108 -10 38 -82 130
-123 160 -38 27 -70 27 -119 2z"/>
</g>
</svg>
