<?xml version="1.0" standalone="no"?>
<!DOCTYPE svg PUBLIC "-//W3C//DTD SVG 20010904//EN"
 "http://www.w3.org/TR/2001/REC-SVG-20010904/DTD/svg10.dtd">
<svg version="1.0" xmlns="http://www.w3.org/2000/svg"
 width="280.000000pt" height="280.000000pt" viewBox="0 0 280.000000 280.000000"
 preserveAspectRatio="xMidYMid meet">
<metadata>
Created by potrace 1.16, written by Peter Selinger 2001-2019
</metadata>
<g transform="translate(0.000000,280.000000) scale(0.100000,-0.100000)"
fill="#C8960C" stroke="#C8960C" stroke-width="3">
<path d="M478 2518 c-111 -30 -171 -220 -172 -543 0 -93 5 -208 12 -255 13
-82 12 -87 -12 -151 -37 -97 -57 -183 -64 -274 l-7 -80 -90 0 c-50 0 -96 -4
-103 -8 -17 -11 -15 -72 2 -86 8 -7 55 -15 105 -18 l91 -6 6 -36 c3 -20 14
-67 24 -106 10 -38 16 -73 12 -76 -4 -4 -43 -22 -87 -39 -44 -18 -88 -40 -97
-48 -36 -31 -12 -92 37 -92 12 0 54 13 91 29 116 48 108 49 150 -15 148 -222
407 -384 729 -455 133 -29 351 -36 495 -15 318 47 619 209 767 412 26 37 57
78 69 92 l20 25 85 -37 c123 -52 164 -46 157 25 -3 31 -8 35 -93 72 -49 21
-94 42 -98 46 -6 6 12 101 38 207 2 7 41 13 96 16 99 6 119 17 119 64 0 38
-26 49 -119 49 l-85 0 -13 94 c-14 102 -41 211 -70 280 -17 39 -17 51 -6 125
17 113 16 381 -2 496 -36 235 -90 314 -212 313 -41 0 -72 -10 -145 -46 -94
-47 -248 -156 -333 -236 l-46 -43 -63 16 c-96 24 -252 39 -336 31 -74 -6 -228
-31 -254 -41 -7 -3 -44 21 -82 54 -110 95 -222 172 -319 218 -101 48 -143 57
-197 42z m130 -182 c90 -46 189 -117 292 -210 47 -43 94 -82 106 -88 16 -7 48
-3 130 19 98 25 125 28 264 27 132 -1 167 -4 235 -24 129 -38 141 -35 225 44
87 82 205 171 291 218 95 53 105 54 123 20 41 -79 65 -353 47 -517 -26 -221
-26 -218 3 -291 37 -90 66 -217 66 -284 l0 -56 -141 -18 c-126 -17 -142 -21
-156 -42 -18 -28 -11 -69 15 -83 11 -6 59 -3 137 8 66 10 124 14 129 10 10 -9
-10 -100 -27 -124 -11 -14 -22 -13 -119 11 -105 27 -108 27 -128 9 -20 -18
-26 -60 -12 -83 5 -7 48 -23 95 -36 48 -13 90 -26 93 -29 9 -8 -55 -93 -108
-143 -138 -132 -337 -228 -557 -269 -160 -29 -407 -16 -571 32 -203 59 -404
192 -509 337 l-32 45 58 16 c151 42 162 49 149 99 -12 47 -40 50 -155 21 -57
-14 -106 -24 -108 -21 -10 10 -41 136 -35 139 4 2 61 -4 127 -13 138 -20 165
-14 165 40 0 27 -22 60 -40 60 -14 0 -222 30 -249 36 -22 5 -23 7 -16 72 8 86
29 167 67 266 l30 79 -16 116 c-20 143 -21 334 -1 462 14 99 40 179 56 179 5
0 40 -15 77 -34z"/>
<path d="M571 2202 c-21 -40 -33 -175 -26 -295 7 -125 11 -147 27 -147 5 0 40
27 76 61 37 34 104 86 150 116 45 30 82 62 82 70 0 22 -117 132 -181 170 -73
44 -114 52 -128 25z"/>
<path d="M2105 2187 c-69 -37 -211 -169 -201 -186 4 -6 42 -35 84 -63 42 -29
108 -81 145 -116 37 -35 73 -62 80 -59 7 2 15 17 18 33 11 50 8 316 -4 369
-10 42 -16 50 -37 52 -14 2 -52 -12 -85 -30z"/>
<path d="M875 1566 c-65 -29 -105 -94 -105 -171 0 -79 32 -130 102 -166 73
-37 159 -20 215 44 106 121 25 308 -133 307 -27 -1 -62 -7 -79 -14z m159 -77
c66 -52 -5 -152 -73 -102 -36 27 -39 66 -7 98 31 30 45 31 80 4z"/>
<path d="M1750 1561 c-135 -72 -132 -270 4 -332 84 -38 183 -13 232 60 46 69
43 162 -8 226 -48 61 -158 84 -228 46z m153 -62 c29 -16 37 -28 37 -61 0 -33
-31 -68 -60 -68 -27 0 -70 43 -70 70 0 22 41 70 60 70 6 0 21 -5 33 -11z"/>
<path d="M1270 1182 c-34 -10 -60 -46 -60 -80 0 -28 11 -45 61 -97 l61 -63
-20 -45 c-23 -52 -62 -77 -117 -77 -58 0 -94 25 -120 84 -26 59 -52 73 -95 53
-20 -10 -26 -20 -28 -58 -2 -38 3 -54 30 -94 84 -125 253 -151 374 -59 l42 33
19 -21 c38 -42 94 -62 173 -63 86 0 133 18 186 73 37 38 67 107 62 142 -1 13
-15 32 -30 43 -38 28 -72 12 -97 -46 -27 -62 -62 -87 -124 -87 -44 0 -53 4
-88 39 -56 56 -53 82 16 154 48 49 55 62 55 97 0 62 -26 74 -169 76 -64 0
-123 -1 -131 -4z"/>
</g>
</svg>
