<?xml version="1.0" standalone="no"?>
<!DOCTYPE svg PUBLIC "-//W3C//DTD SVG 20010904//EN"
 "http://www.w3.org/TR/2001/REC-SVG-20010904/DTD/svg10.dtd">
<svg version="1.0" xmlns="http://www.w3.org/2000/svg"
 width="280.000000pt" height="280.000000pt" viewBox="0 0 280.000000 280.000000"
 preserveAspectRatio="xMidYMid meet">
<metadata>
Created by potrace 1.16, written by Peter Selinger 2001-2019
</metadata>
<g transform="translate(0.000000,280.000000) scale(0.100000,-0.100000)"
fill="currentColor" stroke="currentColor" stroke-width="2" stroke-linejoin="round" stroke-linecap="round">
<path d="M1583 2396 c-18 -8 -45 -34 -60 -58 -15 -23 -52 -65 -81 -94 -61 -59
-74 -101 -48 -152 9 -18 20 -32 25 -32 23 0 61 -51 61 -82 1 -50 34 -114 69
-132 39 -21 96 -20 131 0 28 17 60 62 60 86 0 43 22 86 49 98 51 21 76 56 75
106 -1 39 -7 51 -46 92 -25 26 -55 68 -66 94 -11 25 -31 53 -44 61 -36 24 -89
29 -125 13z m88 -142 c12 -25 37 -64 56 -85 20 -22 34 -41 32 -42 -2 -2 -23
-15 -46 -30 -37 -24 -44 -35 -63 -97 -16 -54 -25 -70 -38 -68 -11 2 -19 22
-27 72 -12 69 -17 78 -76 117 l-24 17 41 38 c22 22 51 58 64 82 32 57 55 56
81 -4z M642 2195 c-21 -17 -33 -38 -37 -66 -5 -29 -19 -52 -51 -83 -35 -35
-44 -51 -44 -79 0 -41 27 -79 73 -100 24 -12 37 -27 47 -56 29 -90 103 -111
169 -48 28 28 47 37 90 42 97 13 127 71 83 164 -13 28 -13 40 -3 81 23 88 -24
137 -118 124 -40 -5 -53 -2 -85 20 -49 33 -86 33 -124 1z m101 -107 c24 -17
44 -22 80 -21 52 2 52 3 35 -43 -10 -28 -8 -37 10 -69 12 -20 20 -41 17 -46
-4 -5 -25 -9 -49 -9 -34 0 -48 -6 -71 -30 -35 -36 -45 -35 -60 11 -8 23 -23
41 -48 54 -41 22 -47 40 -17 50 25 8 50 55 50 95 0 36 11 38 53 8z M2215 1964
c-20 -6 -45 -20 -55 -29 -14 -13 -28 -16 -55 -11 -94 18 -146 -40 -125 -140
10 -47 9 -59 -4 -79 -19 -29 -21 -93 -3 -116 20 -26 53 -39 98 -39 34 0 49 -7
80 -35 30 -27 48 -35 78 -35 47 0 86 35 95 85 6 28 15 39 46 55 84 43 94 105
26 178 -27 30 -46 60 -50 83 -14 76 -62 107 -131 83z m41 -144 c4 -27 16 -48
35 -65 36 -29 36 -42 3 -57 -25 -12 -54 -54 -54 -80 0 -7 -4 -19 -9 -27 -7
-11 -16 -7 -44 22 -29 31 -41 37 -76 37 -46 0 -47 3 -26 53 11 27 12 43 5 62
-19 51 -14 58 35 52 38 -6 48 -3 72 18 39 34 52 31 59 -15z M925 1767 c-59
-28 -84 -76 -179 -342 -128 -356 -127 -354 -226 -618 -82 -221 -88 -248 -66
-314 39 -117 168 -174 292 -130 43 16 456 222 609 304 50 27 147 80 217 117
70 38 140 81 156 97 39 39 54 98 40 164 -24 115 -153 338 -204 351 -18 5 -48
-8 -120 -52 -53 -32 -103 -68 -111 -81 -14 -21 -14 -26 2 -49 14 -22 22 -25
51 -21 19 3 58 23 86 43 61 45 68 42 120 -44 45 -74 81 -177 73 -209 -13 -52
-136 -18 -276 78 -79 53 -209 177 -256 243 -20 28 -47 62 -59 76 -34 38 -91
143 -110 205 -23 71 -10 90 52 81 46 -6 184 -64 184 -77 0 -4 -23 -46 -51 -92
-57 -97 -61 -132 -17 -156 24 -14 28 -14 48 4 12 10 39 54 62 97 24 46 47 78
56 78 8 0 39 -22 67 -50 76 -71 123 -77 139 -17 4 18 -9 36 -69 94 -41 40 -75
77 -75 82 0 5 6 14 14 20 8 7 19 26 25 42 9 26 7 34 -13 54 -30 30 -57 24 -96
-23 l-30 -36 -84 43 c-69 36 -96 44 -152 47 -46 3 -79 0 -99 -9z m-15 -312 c0
-8 32 -63 72 -122 119 -178 312 -353 469 -425 27 -13 49 -28 49 -34 0 -7 -37
-31 -81 -54 -98 -51 -130 -51 -238 3 -93 46 -181 116 -248 197 -61 74 -123
189 -123 230 0 29 56 196 72 217 12 15 28 8 28 -12z m-116 -413 c69 -115 229
-257 347 -309 22 -9 39 -22 39 -28 0 -15 -225 -125 -256 -125 -81 0 -264 181
-264 260 0 44 79 260 96 260 1 0 18 -26 38 -58z m-135 -393 c24 -28 66 -67 92
-86 27 -19 49 -40 49 -47 0 -20 -99 -61 -146 -61 -34 0 -49 6 -73 29 -18 18
-31 40 -31 55 0 36 42 161 54 161 6 0 31 -23 55 -51z M1690 1689 c-71 -30
-103 -103 -75 -175 53 -139 247 -111 262 37 7 74 -46 137 -124 145 -21 2 -49
-1 -63 -7z m84 -95 c19 -18 20 -28 6 -55 -16 -28 -64 -25 -78 5 -21 47 35 87
72 50z M1977 1353 c-106 -40 -153 -111 -128 -193 17 -57 57 -80 139 -80 51 0
70 -5 102 -26 33 -22 48 -26 84 -22 62 7 111 40 136 94 28 56 21 101 -22 150
-71 80 -209 114 -311 77z m170 -95 c39 -17 83 -58 83 -79 0 -20 -36 -49 -59
-49 -8 0 -32 12 -53 26 -29 21 -54 28 -108 32 -83 6 -90 19 -27 56 47 29 116
34 164 14z M1886 925 c-45 -45 -77 -86 -81 -104 -8 -37 12 -78 54 -109 17 -12
38 -36 46 -52 20 -39 74 -55 121 -35 19 8 34 18 34 22 0 5 25 34 55 65 48 49
55 61 55 95 -1 33 -9 47 -74 116 -99 103 -110 103 -210 2z m139 -80 c42 -41
43 -48 10 -63 -14 -7 -28 -19 -31 -27 -4 -8 -10 -15 -14 -15 -9 0 -70 58 -70
67 0 3 11 14 25 25 14 11 25 26 25 34 0 23 18 16 55 -21z"/>
</g>
</svg>
