<?xml version="1.0" standalone="no"?>
<!DOCTYPE svg PUBLIC "-//W3C//DTD SVG 20010904//EN"
 "http://www.w3.org/TR/2001/REC-SVG-20010904/DTD/svg10.dtd">
<svg version="1.0" xmlns="http://www.w3.org/2000/svg"
 width="280.000000pt" height="280.000000pt" viewBox="0 0 280.000000 280.000000"
 preserveAspectRatio="xMidYMid meet">
<metadata>
Created by potrace 1.16, written by Peter Selinger 2001-2019
</metadata>
<g transform="translate(0.000000,280.000000) scale(0.100000,-0.100000)"
fill="currentColor" stroke="currentColor" stroke-width="2">
<path d="M141 1400 l1 -1250 107 1 c70 0 99 3 86 9 -13 6 -4 7 25 2 57 -9 103
-9 160 0 29 5 38 4 25 -2 -12 -5 413 -9 1033 -9 l1053 -1 -3 643 c-2 353 -7
651 -12 662 -6 16 -6 17 3 5 8 -11 11 154 11 588 l0 603 -667 -1 c-446 -1
-662 -5 -652 -11 10 -7 7 -8 -11 -2 -43 13 -89 7 -123 -16 l-32 -22 28 25 28
26 -531 0 -531 0 2 -1250z m1270 1225 c-37 -17 -67 -19 -75 -6 -3 4 5 6 18 4
14 -3 32 0 43 6 10 6 25 10 33 10 8 0 0 -6 -19 -14z m144 -15 c10 -11 16 -20
13 -20 -3 0 -13 9 -23 20 -10 11 -16 20 -13 20 3 0 13 -9 23 -20z m-413 -86
c-3 -57 -9 -73 -43 -121 -21 -31 -39 -66 -39 -79 0 -28 42 -79 92 -110 l38
-24 -1 -118 c-1 -64 -4 -130 -8 -147 -4 -16 -5 36 -3 117 l4 146 -29 15 c-42
22 -103 93 -103 120 0 13 18 49 40 81 35 50 40 63 40 115 0 46 5 71 14 71 1 0
-1 -30 -2 -66z m445 -30 c-5 -44 -2 -55 15 -71 11 -10 24 -27 30 -38 6 -11 -5
-2 -23 19 -30 36 -33 45 -34 107 0 44 3 62 9 52 5 -9 6 -39 3 -69z m-287 1
c14 -8 39 -14 55 -14 17 0 41 6 55 14 45 26 51 20 44 -36 -7 -48 -5 -52 31
-89 40 -41 39 -60 -1 -60 -34 0 -81 -26 -95 -51 -6 -12 -13 -56 -15 -98 -5
-106 -39 -291 -53 -291 -3 0 -6 83 -6 184 0 211 -6 228 -83 256 -23 8 -42 17
-42 21 0 4 16 23 35 42 31 31 35 41 35 86 0 55 2 57 40 36z m-794 -67 c19 -23
19 -23 -2 -5 -53 44 -156 1 -174 -73 -8 -34 -8 -34 -9 -6 -1 22 9 39 39 68 34
32 48 38 84 38 32 0 48 -6 62 -22z m167 -15 c-7 -2 -21 -2 -30 0 -10 3 -4 5
12 5 17 0 24 -2 18 -5z m-86 -15 c-22 -6 -42 -7 -47 -2 -5 5 12 10 38 10 l47
2 -38 -10z m148 -4 c13 -8 26 -23 30 -32 4 -11 -3 -8 -22 9 -15 15 -35 29 -43
32 -10 4 -11 6 -2 6 7 1 23 -6 37 -15z m912 -81 c-3 -10 -5 -2 -5 17 0 19 2
27 5 18 2 -10 2 -26 0 -35z m-870 -35 c-2 -13 -4 -3 -4 22 0 25 2 35 4 23 2
-13 2 -33 0 -45z m1650 56 c-3 -3 -12 -4 -19 -1 -8 3 -5 6 6 6 11 1 17 -2 13
-5z m-47 -11 c-8 -3 -30 -14 -47 -25 -18 -11 -33 -17 -33 -15 0 9 65 47 80 46
13 -1 13 -1 0 -6z m104 -19 c14 -15 26 -32 26 -38 0 -6 -7 -1 -15 11 -9 12
-26 29 -38 38 -12 8 -17 15 -11 15 6 0 23 -12 38 -26z m-214 -4 c18 -5 8 -7
-35 -8 -41 0 -54 3 -40 8 24 10 42 10 75 0z m-1673 -32 c45 14 55 8 43 -24
-17 -43 -12 -96 11 -120 31 -33 19 -54 -31 -54 -32 0 -48 -7 -79 -35 -44 -40
-51 -42 -51 -17 0 43 -61 101 -107 102 -28 0 -30 16 -4 30 31 16 62 66 66 107
2 21 4 39 4 40 1 1 26 -7 56 -19 47 -18 62 -19 92 -10z m1043 8 c0 -23 -49
-64 -85 -70 l-35 -7 0 -149 0 -150 -23 0 c-15 0 -29 -9 -36 -22 -9 -18 -10
-18 -5 -3 18 59 44 207 44 256 0 61 8 73 55 85 34 8 75 41 75 61 0 7 2 13 5
13 3 0 5 -6 5 -14z m512 -9 c-12 -13 -23 -32 -23 -43 -1 -18 -2 -18 -6 -1 -4
16 31 67 45 67 3 0 -4 -10 -16 -23z m-1822 3 c0 -5 -16 -24 -36 -42 -20 -18
-43 -46 -50 -63 -9 -21 -13 -25 -14 -11 0 11 21 43 48 72 53 58 52 58 52 44z
m436 -46 c-5 -19 1 -37 24 -72 30 -45 38 -93 21 -121 -6 -8 -7 3 -4 30 4 37 0
51 -27 91 -23 35 -29 53 -24 72 3 14 8 26 11 26 3 0 2 -12 -1 -26z m1156 -26
c16 -18 33 -36 36 -40 4 -4 22 -20 40 -34 17 -14 32 -30 32 -34 0 -11 -61 44
-114 103 -35 38 -100 38 -148 1 l-33 -26 33 31 c26 25 41 31 78 31 39 0 50 -5
76 -32z m629 -64 c16 -15 29 -32 29 -38 0 -5 -16 8 -35 30 -26 30 -34 47 -33
74 l1 35 4 -36 c3 -24 14 -46 34 -65z m-436 -44 c-9 -18 -19 -29 -22 -27 -3 3
2 16 11 29 9 12 17 43 18 68 l1 45 4 -42 c3 -26 -2 -54 -12 -73z m275 71 c0
-32 6 -44 35 -70 41 -35 44 -51 12 -51 -24 0 -56 -28 -76 -68 l-12 -23 -28 30
c-15 16 -46 35 -69 42 -23 7 -42 14 -42 16 0 2 10 17 21 33 17 22 21 38 16 69
-5 43 1 48 34 30 15 -8 28 -6 57 9 51 27 52 27 52 -17z m-725 -33 c-23 -27
-26 -38 -21 -75 3 -24 8 -64 11 -90 9 -80 14 -92 43 -107 15 -9 21 -15 14 -16
-7 0 -24 11 -37 25 -21 20 -25 34 -25 79 0 30 -4 58 -10 61 -5 3 -10 24 -10
46 0 55 25 100 58 108 2 1 -8 -13 -23 -31z m-1346 -110 c28 -18 51 -36 51 -40
0 -5 -23 8 -50 28 -52 37 -90 79 -90 98 0 6 9 -3 20 -21 11 -18 42 -47 69 -65z
m1581 32 c27 0 25 -16 -5 -36 -16 -10 -25 -26 -25 -41 0 -20 -3 -24 -17 -17
-10 4 -33 7 -52 6 -30 -2 -33 0 -27 21 3 14 -1 33 -10 45 -15 21 -14 23 16 28
17 4 35 15 41 26 10 19 11 18 34 -6 13 -14 33 -26 45 -26z m687 -22 c-2 -13
-4 -5 -4 17 -1 22 1 32 4 23 2 -10 2 -28 0 -40z m-557 -38 c-7 -16 -21 -37
-32 -47 -16 -14 -14 -9 6 21 15 22 27 55 27 75 2 32 2 33 6 7 3 -15 -1 -41 -7
-56z m55 26 c0 -19 -3 -32 -7 -29 -14 8 -8 63 6 63 1 0 1 -15 1 -34z m-1285
-11 c0 -9 -64 -45 -80 -45 -8 0 6 11 30 24 25 13 46 24 48 25 1 0 2 -1 2 -4z
m1770 -25 c-6 -11 -20 -25 -32 -31 -18 -9 -16 -5 7 19 35 37 39 39 25 12z
m-388 -59 c24 -4 43 -12 46 -21 4 -12 2 -13 -9 -2 -7 6 -26 12 -41 12 -17 0
-39 11 -56 28 -15 15 -18 18 -5 8 13 -11 42 -22 65 -25z m-1771 -32 c11 -16
18 -29 15 -29 -10 0 -56 75 -55 90 0 8 4 5 10 -9 5 -13 18 -36 30 -52z m261
64 c-23 -3 -41 -16 -65 -45 -49 -61 -114 -85 -157 -58 -10 6 -3 8 22 3 51 -8
88 10 132 63 31 36 42 44 69 42 l32 -1 -33 -4z m151 -30 c-13 -2 -33 -2 -45 0
-13 2 -3 4 22 4 25 0 35 -2 23 -4z m1641 -18 c-9 -14 -18 -25 -21 -25 -5 0 5
18 20 38 17 22 18 13 1 -13z m-1736 5 c-43 -13 -96 -49 -118 -81 -19 -26 -58
-124 -113 -286 -11 -35 -23 -61 -25 -58 -9 9 103 310 129 346 27 38 105 89
133 88 17 -1 15 -3 -6 -9z m177 0 c25 -11 -1 -11 -35 0 -20 6 -21 8 -5 8 11 0
29 -3 40 -8z m102 -36 c18 -8 33 -16 33 -19 0 -5 -102 34 -110 42 -6 7 33 -5
77 -23z m160 -31 c-3 -10 -5 -2 -5 17 0 19 2 27 5 18 2 -10 2 -26 0 -35z m785
-4 c-39 -35 -89 -38 -142 -9 -19 11 -30 19 -25 19 6 0 21 -6 35 -14 43 -24 97
-19 128 13 15 15 29 26 32 24 3 -2 -10 -17 -28 -33z m353 -17 c11 -6 14 -12 7
-12 -7 0 -27 15 -45 33 -18 17 -21 22 -7 11 14 -12 34 -26 45 -32z m-1230 18
c3 -6 -1 -7 -9 -4 -18 7 -21 14 -7 14 6 0 13 -4 16 -10z m366 -13 c-10 -9 -11
-8 -5 6 3 10 9 15 12 12 3 -3 0 -11 -7 -18z m970 3 c-13 -11 -28 -20 -35 -20
-6 0 3 9 19 19 39 25 46 25 16 1z m-644 4 c-3 -3 -12 -4 -19 -1 -8 3 -5 6 6 6
11 1 17 -2 13 -5z m-592 -31 c-6 21 -5 21 6 2 6 -11 21 -31 33 -44 l21 -25
-35 22 c-19 12 -52 30 -72 42 -21 11 -38 23 -38 26 0 3 20 -6 46 -20 45 -25
45 -25 39 -3z m235 -18 l-23 -25 161 0 c137 0 162 -2 162 -15 0 -11 11 -15 43
-15 23 0 48 -4 56 -9 8 -5 -4 -7 -31 -4 -60 7 -107 -10 -149 -53 -31 -33 -34
-40 -34 -98 0 -53 5 -69 28 -100 35 -45 74 -66 127 -66 50 0 89 19 124 60 14
18 26 28 26 23 0 -12 -59 -68 -87 -82 -12 -6 -40 -11 -62 -11 l-41 0 0 -61 c0
-48 5 -67 24 -92 24 -33 44 -66 34 -57 -3 3 -33 41 -65 85 -103 138 -127 154
-176 115 -14 -11 -30 -20 -36 -20 -15 0 -13 40 4 70 8 14 14 31 15 38 0 19
-149 171 -214 217 -59 43 -71 61 -32 51 39 -10 83 4 123 40 45 40 56 44 23 9z
m947 19 c-3 -3 -12 -4 -19 -1 -8 3 -5 6 6 6 11 1 17 -2 13 -5z m-1494 -64 c74
-23 211 -86 225 -103 7 -8 -9 -44 -49 -111 -33 -57 -59 -112 -59 -127 0 -30
40 -69 71 -69 27 0 73 52 118 135 23 41 45 75 49 75 22 0 182 -139 182 -158 0
-8 -34 -46 -75 -84 -41 -39 -77 -78 -80 -89 -8 -24 19 -75 44 -82 24 -6 90 23
116 53 11 12 37 36 58 52 l38 31 25 -24 c59 -55 171 -267 176 -331 3 -28 -1
-33 -21 -36 -36 -5 -194 56 -282 109 -133 79 -209 142 -349 286 -105 107 -148
160 -192 235 -59 99 -104 217 -94 243 7 20 21 19 99 -5z m1033 -102 c8 -15 14
-33 14 -40 -1 -7 -8 3 -16 22 -8 19 -27 48 -42 65 l-27 30 28 -25 c16 -14 35
-37 43 -52z m-132 -44 c18 -18 21 -50 5 -59 -5 -4 -21 -4 -35 -1 -26 7 -33 43
-12 64 16 16 23 15 42 -4z m661 -14 c17 -4 -10 -5 -60 -2 -49 3 -92 6 -94 8
-8 7 124 2 154 -6z m-508 -32 c-3 -7 -5 -2 -5 12 0 14 2 19 5 13 2 -7 2 -19 0
-25z m336 25 c-7 -2 -21 -2 -30 0 -10 3 -4 5 12 5 17 0 24 -2 18 -5z m-56 -9
c-3 -3 -12 -4 -19 -1 -8 3 -5 6 6 6 11 1 17 -2 13 -5z m328 -13 c22 -10 51
-31 65 -47 l25 -29 -31 28 c-17 15 -53 36 -80 47 -27 10 -42 19 -34 19 8 0 33
-8 55 -18z m-380 -1 c-27 -12 -43 -12 -25 0 8 5 22 9 30 9 10 0 8 -3 -5 -9z
m-101 -46 c-68 -41 -105 -73 -145 -128 -16 -21 -29 -35 -29 -31 0 11 49 75 75
98 31 28 137 97 148 97 6 0 -16 -16 -49 -36z m-1344 -46 c31 -49 141 -199 180
-243 10 -11 26 -58 35 -105 24 -124 69 -269 127 -403 27 -65 48 -120 47 -121
-2 -2 -36 -20 -74 -39 -49 -24 -76 -32 -86 -26 -34 18 -188 417 -237 614 -66
258 -67 272 -37 363 7 19 11 15 45 -40z m-255 -63 c-13 -39 -24 -62 -24 -53
-1 10 5 35 13 55 8 21 17 47 20 57 4 10 8 17 11 14 2 -2 -7 -35 -20 -73z
m1985 44 c28 -6 53 -16 56 -23 3 -7 -2 -29 -11 -49 -15 -36 -39 -47 -60 -29
-19 16 -93 32 -148 32 -67 0 -146 -16 -206 -42 -24 -10 -46 -16 -49 -13 -10
10 51 64 95 85 101 47 219 61 323 39z m180 -96 c-11 -17 -11 -17 -6 0 3 10 6
24 7 30 0 9 2 9 5 0 3 -7 0 -20 -6 -30z m-2199 -54 c-5 -13 -10 -19 -10 -12
-1 15 10 45 15 40 3 -2 0 -15 -5 -28z m1478 -44 c0 -5 -4 -3 -9 5 -5 8 -9 22
-9 30 0 16 17 -16 18 -35z m682 2 c-10 -9 -11 -8 -5 6 3 10 9 15 12 12 3 -3 0
-11 -7 -18z m-2182 -26 c-6 -18 -13 -30 -15 -28 -2 2 1 18 7 36 6 18 13 30 15
28 2 -2 -1 -18 -7 -36z m1899 12 c-16 -2 -40 -2 -55 0 -16 2 -3 4 27 4 30 0
43 -2 28 -4z m-307 -58 c24 -8 36 -14 26 -14 -28 -1 -80 24 -102 50 l-20 24
27 -23 c14 -13 45 -30 69 -37z m154 29 c-38 -14 -79 -28 -90 -30 l-20 -5 20
10 c50 24 122 50 140 50 11 0 -11 -11 -50 -25z m225 16 c18 -12 2 -12 -25 0
-13 6 -15 9 -5 9 8 0 22 -4 30 -9z m50 -20 c8 -5 11 -10 5 -10 -5 0 -17 5 -25
10 -8 5 -10 10 -5 10 6 0 17 -5 25 -10z m115 0 c-3 -5 -12 -10 -18 -10 -7 0
-6 4 3 10 19 12 23 12 15 0z m-47 -17 c-10 -2 -26 -2 -35 0 -10 3 -2 5 17 5
19 0 27 -2 18 -5z m-2114 -37 c-3 -15 -8 -25 -11 -23 -2 3 -1 17 3 31 3 15 8
25 11 23 2 -3 1 -17 -3 -31z m1440 -23 c15 -25 24 -48 22 -51 -3 -2 -16 19
-30 47 -33 64 -27 67 8 4z m-1463 -44 c-5 -13 -10 -19 -10 -12 -1 15 10 45 15
40 3 -2 0 -15 -5 -28z m-14 -51 c-3 -8 -6 -5 -6 6 -1 11 2 17 5 13 3 -3 4 -12
1 -19z m1532 -28 c0 -10 -3 -8 -9 5 -12 27 -12 43 0 25 5 -8 9 -22 9 -30z
m-1325 -52 c39 -163 128 -396 181 -472 23 -31 18 -41 -26 -61 -29 -14 -45 -16
-57 -9 -49 29 -177 350 -176 439 1 36 43 175 53 175 4 0 15 -33 25 -72z m-224
25 c-11 -17 -11 -17 -6 0 3 10 6 24 7 30 0 9 2 9 5 0 3 -7 0 -20 -6 -30z
m1877 19 c7 -5 -4 -8 -26 -7 -22 0 -37 3 -34 8 6 9 45 9 60 -1z m-308 -97 c0
-27 -3 -58 -7 -67 -4 -10 -7 21 -7 67 0 46 3 77 7 67 4 -9 7 -39 7 -67z m179
25 c-29 -33 -54 -60 -56 -60 -13 0 93 119 106 120 2 0 -21 -27 -50 -60z m213
-12 c11 -21 17 -38 14 -38 -2 0 -12 15 -21 33 -9 17 -26 43 -38 57 l-21 25 24
-20 c13 -11 32 -37 42 -57z m-1977 8 c-3 -15 -8 -25 -11 -23 -2 3 -1 17 3 31
3 15 8 25 11 23 2 -3 1 -17 -3 -31z m956 -32 c25 -18 87 -53 138 -79 52 -26
90 -51 85 -55 -20 -17 -173 -71 -184 -65 -14 9 -94 177 -105 219 -8 33 -8 33
66 -20z m-979 -35 c-5 -13 -10 -19 -10 -12 -1 15 10 45 15 40 3 -2 0 -15 -5
-28z m2064 -20 c20 -18 40 -41 46 -53 6 -11 -1 -7 -15 11 -15 17 -39 41 -54
52 -15 11 -24 21 -20 21 4 0 23 -14 43 -31z m-116 -59 l43 -45 -28 -20 c-15
-11 -45 -36 -67 -55 l-38 -35 -56 54 -57 55 30 20 c16 12 47 40 69 64 36 38
41 41 50 25 6 -10 30 -38 54 -63z m-315 3 c-14 -27 -22 -56 -19 -67 6 -20 5
-20 -6 -2 -12 19 -5 45 27 94 24 37 23 25 -2 -25z m-44 18 c0 -15 -63 -72
-102 -92 -21 -11 -38 -17 -38 -14 0 2 17 13 39 24 21 11 51 36 67 55 32 38 34
40 34 27z m-1619 -28 c-8 -15 -10 -15 -11 -2 0 17 10 32 18 25 2 -3 -1 -13 -7
-23z m2156 -60 c-3 -10 -5 -2 -5 17 0 19 2 27 5 18 2 -10 2 -26 0 -35z m-2188
-42 c-12 -34 -23 -60 -25 -58 -2 2 6 32 17 66 12 34 23 60 25 58 2 -2 -6 -32
-17 -66z m1496 9 c-3 -5 -12 -10 -18 -10 -7 0 -6 4 3 10 19 12 23 12 15 0z
m294 -110 l12 -25 -18 25 c-10 14 -32 38 -49 55 -16 16 -37 39 -45 50 -8 11 9
-2 37 -30 28 -27 57 -61 63 -75z m355 72 c-49 -43 -125 -92 -104 -67 7 9 31
25 52 36 20 10 47 33 60 49 12 16 24 27 27 24 3 -3 -13 -22 -35 -42z m-689 18
c-3 -5 -12 -10 -18 -10 -7 0 -6 4 3 10 19 12 23 12 15 0z m-68 -31 c-28 -16
-93 -42 -84 -33 9 10 79 42 92 43 6 0 2 -4 -8 -10z m-1428 -78 c-7 -23 -14
-39 -16 -37 -3 2 1 23 8 45 7 23 14 39 16 37 3 -2 -1 -23 -8 -45z m1301 19
c-19 -11 -39 -19 -45 -19 -5 0 6 8 25 19 19 11 40 19 45 19 6 0 -6 -8 -25 -19z
m770 -25 c0 -8 -62 -75 -69 -75 -4 0 8 18 28 39 37 41 41 44 41 36z m-880 -25
c-19 -11 -39 -19 -45 -19 -5 0 6 8 25 19 19 11 40 19 45 19 6 0 -6 -8 -25 -19z
m757 -50 c35 -7 35 -8 8 -9 -34 -1 -79 25 -102 60 -11 17 -5 14 20 -10 21 -20
52 -37 74 -41z m-1752 -4 c9 -24 30 -63 45 -87 16 -24 27 -45 25 -47 -7 -7
-79 20 -97 36 -13 10 -18 30 -18 63 0 88 19 103 45 35z m900 14 c-137 -65
-259 -120 -262 -117 -3 3 107 57 237 115 57 26 78 27 25 2z m-305 -140 c-8 -5
-19 -10 -25 -10 -5 0 -3 5 5 10 8 5 20 10 25 10 6 0 3 -5 -5 -10z m-748 -97
c6 -7 8 -13 4 -13 -9 0 -66 91 -66 104 0 6 12 -9 26 -34 14 -25 30 -51 36 -57z
m688 72 c-14 -8 -29 -14 -35 -14 -5 0 1 6 15 14 14 8 30 14 35 14 6 0 -1 -6
-15 -14z m-60 -25 c-8 -5 -19 -10 -25 -10 -5 0 -3 5 5 10 8 5 20 10 25 10 6 0
3 -5 -5 -10z m-40 -15 c0 -5 -90 -45 -99 -44 -5 0 89 48 97 49 1 0 2 -2 2 -5z
m-120 -55 c-8 -5 -19 -10 -25 -10 -5 0 -3 5 5 10 8 5 20 10 25 10 6 0 3 -5 -5
-10z m-371 -36 c14 -12 -19 -1 -35 12 -18 14 -18 14 6 3 14 -6 27 -13 29 -15z
m321 17 c-8 -5 -26 -11 -40 -15 -21 -5 -20 -3 5 9 32 15 60 20 35 6z"/>
</g>
</svg>
