<?xml version="1.0" standalone="no"?>
<!DOCTYPE svg PUBLIC "-//W3C//DTD SVG 20010904//EN"
 "http://www.w3.org/TR/2001/REC-SVG-20010904/DTD/svg10.dtd">
<svg version="1.0" xmlns="http://www.w3.org/2000/svg"
 width="280.000000pt" height="280.000000pt" viewBox="0 0 280.000000 280.000000"
 preserveAspectRatio="xMidYMid meet">
<metadata>
Created by potrace 1.16, written by Peter Selinger 2001-2019
</metadata>
<g transform="translate(0.000000,280.000000) scale(0.100000,-0.100000)"
fill="currentColor" stroke="none">
<path d="M1230 2393 c-18 -23 -21 -36 -16 -77 5 -41 2 -53 -20 -82 -47 -61
-31 -126 37 -154 39 -17 43 -38 35 -201 -7 -159 -3 -169 68 -169 31 0 48 6 63
23 46 50 73 141 73 250 0 69 5 81 38 91 12 4 36 19 52 33 35 29 40 74 13 113
-13 18 -17 41 -14 88 2 55 -1 68 -20 88 -27 28 -48 30 -111 7 -45 -16 -50 -16
-83 0 -53 25 -90 22 -115 -10z m116 -63 c35 -18 39 -18 73 -3 20 8 45 16 56
17 18 1 20 -4 17 -57 -3 -46 1 -63 17 -84 30 -37 26 -48 -20 -62 -65 -20 -79
-40 -79 -117 0 -81 -25 -196 -50 -226 -29 -36 -38 -13 -29 72 9 80 3 175 -13
227 -7 26 -16 34 -44 39 -47 9 -53 29 -19 65 25 26 28 36 27 89 -2 68 5 73 64
40z M591 2226 c-13 -14 -25 -42 -28 -68 -4 -30 -16 -55 -40 -81 -28 -31 -34
-45 -31 -75 3 -32 10 -41 49 -67 32 -20 51 -41 59 -65 18 -52 38 -70 78 -70
28 0 42 8 72 40 21 23 46 40 59 40 12 0 37 6 56 14 57 24 71 75 34 135 -18 30
-19 40 -10 77 20 79 -24 122 -111 109 -36 -5 -52 -3 -79 14 -45 28 -80 27
-108 -3z m91 -67 c25 -18 38 -21 85 -15 l55 6 -6 -53 c-6 -45 -3 -60 14 -90
12 -20 19 -41 15 -47 -3 -5 -24 -10 -47 -10 -35 0 -46 -6 -78 -41 -21 -23 -43
-39 -49 -35 -6 4 -15 25 -21 47 -9 34 -18 44 -51 58 -47 19 -49 34 -10 67 22
18 32 37 37 72 10 71 11 72 56 41z M2192 2144 c-18 -12 -35 -14 -68 -9 -69 10
-94 -11 -94 -78 0 -35 -7 -62 -20 -82 -30 -46 -26 -82 13 -105 17 -11 39 -20
48 -20 9 0 28 -18 43 -40 28 -42 68 -60 95 -43 9 5 28 27 42 48 14 21 39 44
55 53 72 36 82 76 36 135 -20 25 -29 48 -30 78 -1 23 -9 51 -19 61 -20 22 -71
23 -101 2z m58 -93 c0 -28 8 -49 26 -70 31 -37 26 -58 -13 -63 -21 -2 -33 -13
-48 -40 -11 -21 -24 -38 -30 -38 -5 0 -23 16 -38 35 -18 23 -36 35 -52 35 -32
0 -39 15 -21 42 9 13 16 43 16 71 l0 49 39 -7 c27 -4 48 -2 68 9 44 24 53 20
53 -23z M1727 2050 c-19 -16 -41 -30 -49 -30 -8 0 -23 -9 -33 -20 -14 -15 -16
-28 -10 -57 4 -21 7 -53 6 -71 -1 -40 28 -72 67 -72 16 0 37 -7 48 -15 61 -46
136 27 161 158 4 21 -1 35 -18 53 -12 13 -28 24 -34 24 -6 0 -24 14 -38 30
-15 17 -36 30 -47 30 -10 0 -35 -13 -53 -30z m63 -50 c0 -6 16 -20 35 -31 31
-19 33 -23 23 -42 -6 -12 -14 -35 -18 -52 -6 -32 -16 -34 -87 -19 -25 5 -32
12 -36 37 -3 18 -7 41 -9 52 -2 14 3 21 18 23 12 2 30 12 40 23 19 21 34 25
34 9z M832 1800 c-22 -13 -41 -39 -56 -73 -24 -53 -105 -297 -216 -647 -34
-107 -77 -242 -97 -300 -52 -160 -44 -248 28 -302 105 -79 193 -64 529 90 36
16 160 70 275 120 385 165 429 187 461 225 24 29 26 37 22 97 -4 48 -14 83
-40 135 -35 68 -131 210 -168 249 -18 18 -20 18 -45 2 -34 -22 -57 -7 -37 24
6 11 12 26 12 33 0 15 -93 107 -172 171 -31 25 -48 46 -48 61 0 30 -8 35 -35
23 -19 -8 -29 -6 -53 11 -17 12 -66 38 -109 58 -99 48 -198 57 -251 23z m236
-97 c39 -20 86 -48 103 -62 l31 -26 -62 -108 c-59 -103 -68 -137 -36 -137 19
0 74 65 116 139 19 33 41 61 47 61 14 0 113 -87 152 -132 27 -33 31 -24 -66
-130 -53 -57 -61 -88 -23 -88 17 0 133 80 145 101 13 21 46 6 87 -39 54 -61
123 -182 140 -245 17 -64 6 -81 -57 -85 -94 -6 -301 119 -481 291 -125 119
-189 202 -249 321 -46 91 -60 168 -32 180 28 12 116 -7 185 -41z m-221 -172
c18 -38 61 -105 95 -151 87 -114 92 -126 132 -291 19 -81 53 -195 76 -253 23
-59 40 -109 39 -110 -17 -15 -154 -66 -165 -62 -32 12 -129 260 -197 501 -72
254 -74 264 -52 348 28 111 29 111 72 18z m-137 -396 c41 -162 152 -468 181
-499 18 -20 8 -37 -37 -58 l-45 -23 -20 25 c-62 81 -141 243 -165 343 l-17 67
28 82 c42 125 45 132 54 122 4 -5 14 -31 21 -59z m632 -128 c54 -36 122 -75
153 -88 30 -12 54 -27 52 -32 -3 -10 -195 -96 -215 -97 -19 0 -47 71 -109 274
-7 26 4 21 119 -57z m-763 -313 c14 -31 42 -83 63 -115 21 -33 38 -62 38 -64
0 -3 -26 -5 -59 -5 -69 0 -106 26 -116 83 -8 40 21 157 39 157 6 0 22 -26 35
-56z M1673 1658 c-44 -11 -83 -61 -83 -104 0 -73 48 -120 121 -118 51 2 85 25
99 70 30 91 -46 176 -137 152z m71 -91 c19 -52 -34 -88 -75 -51 -23 21 -24 42
-2 66 25 28 65 20 77 -15z M2055 1531 c-48 -12 -126 -49 -162 -77 -70 -53 -84
-134 -32 -178 39 -33 53 -33 133 5 59 27 75 31 134 27 43 -2 84 -12 115 -27
66 -32 89 -21 129 65 26 56 30 72 22 102 -7 29 -18 40 -59 61 -42 21 -66 26
-150 28 -55 1 -113 -2 -130 -6z m193 -62 c28 -5 58 -16 68 -23 17 -13 17 -15
0 -61 -20 -52 -12 -50 -116 -20 -69 20 -140 14 -226 -21 -63 -25 -84 -25 -84
0 0 21 50 66 102 92 84 43 165 53 256 33z M1968 1009 c-29 -28 -72 -64 -95
-80 -58 -41 -60 -81 -5 -142 21 -23 51 -59 67 -80 46 -62 93 -60 135 8 13 21
40 44 68 58 57 27 86 64 77 99 -4 14 -23 46 -43 71 -20 25 -50 61 -65 81 -41
53 -73 49 -139 -15z m92 -28 c0 -5 20 -33 45 -62 25 -29 45 -59 45 -66 0 -7
-18 -17 -39 -23 -23 -6 -52 -24 -70 -45 -17 -19 -34 -35 -39 -35 -10 0 -102
97 -102 108 0 4 22 24 49 45 27 20 58 48 68 61 18 25 43 35 43 17z"/>
</g>
</svg>
