<?xml version="1.0" standalone="no"?>
<!DOCTYPE svg PUBLIC "-//W3C//DTD SVG 20010904//EN"
 "http://www.w3.org/TR/2001/REC-SVG-20010904/DTD/svg10.dtd">
<svg version="1.0" xmlns="http://www.w3.org/2000/svg"
 width="280.000000pt" height="280.000000pt" viewBox="0 0 280.000000 280.000000"
 preserveAspectRatio="xMidYMid meet">
<metadata>
Created by potrace 1.16, written by Peter Selinger 2001-2019
</metadata>
<g transform="translate(0.000000,280.000000) scale(0.100000,-0.100000)"
fill="currentColor" stroke="none">
<path d="M1295 2374 c-307 -43 -528 -164 -703 -384 -84 -106 -146 -226 -188
-365 -26 -83 -28 -103 -28 -270 0 -156 3 -190 22 -259 61 -220 196 -420 370
-550 161 -122 298 -177 500 -203 112 -15 133 -15 240 0 200 27 359 93 508 211
389 307 496 844 259 1295 -130 246 -400 445 -688 506 -71 16 -240 26 -292 19z
m320 -104 c88 -22 218 -81 293 -131 68 -47 198 -175 242 -239 53 -78 103 -181
136 -280 27 -81 28 -94 28 -270 0 -183 0 -186 -32 -280 -92 -265 -256 -452
-504 -570 -214 -102 -460 -116 -693 -39 -280 93 -504 323 -598 614 -31 97 -32
106 -32 270 0 147 3 181 23 249 84 293 289 526 559 635 64 26 169 55 238 65
65 10 262 -4 340 -24z M1715 1782 c-40 -19 -154 -132 -334 -329 -52 -57 -98
-103 -103 -103 -6 0 -47 34 -92 77 -91 86 -124 103 -194 103 -133 0 -228 -128
-192 -260 10 -38 36 -69 173 -207 188 -190 219 -214 287 -221 94 -9 119 8 328
226 273 285 380 403 397 439 8 17 15 58 15 90 0 110 -76 191 -188 199 -43 4
-67 0 -97 -14z m164 -87 c16 -14 35 -42 42 -62 20 -61 -1 -104 -99 -208 -48
-50 -172 -182 -276 -293 -207 -221 -226 -234 -298 -213 -31 10 -78 50 -209
180 l-169 168 0 55 c0 41 5 62 21 82 39 50 104 69 152 45 12 -6 68 -56 123
-111 77 -76 105 -98 117 -92 16 9 238 241 351 367 78 87 109 107 168 107 35 0
54 -6 77 -25z"/>
</g>
</svg>
