<?xml version="1.0" standalone="no"?>
<!DOCTYPE svg PUBLIC "-//W3C//DTD SVG 20010904//EN"
 "http://www.w3.org/TR/2001/REC-SVG-20010904/DTD/svg10.dtd">
<svg version="1.0" xmlns="http://www.w3.org/2000/svg"
 width="278.000000pt" height="280.000000pt" viewBox="0 0 278.000000 280.000000"
 preserveAspectRatio="xMidYMid meet">
<metadata>
Created by potrace 1.16, written by Peter Selinger 2001-2019
</metadata>
<g transform="translate(0.000000,280.000000) scale(0.100000,-0.100000)"
fill="currentColor" stroke="currentColor" stroke-width="2">
<path d="M2145 2201 c-56 -14 -122 -49 -211 -109 -93 -62 -314 -265 -450 -412
-179 -192 -210 -229 -330 -378 -69 -87 -130 -159 -136 -161 -5 -2 -78 65 -162
147 -185 185 -224 207 -356 207 -102 0 -151 -20 -237 -99 -80 -73 -107 -136
-107 -246 0 -142 5 -148 415 -561 134 -135 271 -263 303 -285 59 -39 60 -39
155 -39 77 1 106 5 144 22 66 30 146 109 242 238 214 288 480 594 652 750 51
46 164 138 251 203 166 125 201 161 248 252 24 48 28 66 27 140 0 71 -4 94
-27 141 -31 67 -107 142 -174 172 -51 22 -191 33 -247 18z m204 -199 c75 -60
91 -146 42 -224 -16 -25 -43 -55 -61 -68 l-32 -23 12 22 c25 48 -58 84 -102
44 -17 -15 -18 -15 -18 5 0 11 -12 34 -26 51 -24 29 -30 31 -93 31 -53 0 -72
-4 -88 -20 -30 -27 -36 -55 -21 -84 14 -27 134 -126 152 -126 21 0 45 24 65
64 18 38 19 39 30 18 6 -12 21 -22 31 -22 34 0 22 -15 -45 -58 -210 -135 -544
-482 -861 -894 -96 -125 -190 -239 -207 -252 -65 -49 -136 -43 -197 16 -229
224 -563 572 -575 601 -20 47 -19 110 1 153 32 67 134 102 211 73 15 -5 113
-95 218 -199 113 -112 201 -191 216 -195 50 -13 98 26 204 165 227 300 628
728 785 840 l28 20 -2 -32 c-1 -26 4 -35 26 -46 44 -21 68 -2 68 53 0 25 -4
45 -10 45 -24 0 -7 29 27 45 92 44 165 43 222 -3z"/>
<path d="M2155 1955 c-47 -46 -23 -121 30 -97 24 11 36 0 15 -13 -5 -3 -10
-15 -10 -26 0 -28 44 -43 86 -29 73 24 53 124 -22 106 -21 -6 -23 -4 -18 22 4
20 0 34 -11 45 -23 23 -42 21 -70 -8z"/>
</g>
</svg>
