<?xml version="1.0" standalone="no"?>
<!DOCTYPE svg PUBLIC "-//W3C//DTD SVG 20010904//EN"
 "http://www.w3.org/TR/2001/REC-SVG-20010904/DTD/svg10.dtd">
<svg version="1.0" xmlns="http://www.w3.org/2000/svg"
 width="280.000000pt" height="280.000000pt" viewBox="0 0 280.000000 280.000000"
 preserveAspectRatio="xMidYMid meet">
<metadata>
Created by potrace 1.16, written by Peter Selinger 2001-2019
</metadata>
<g transform="translate(0.000000,280.000000) scale(0.100000,-0.100000)"
fill="#000000" stroke="none">
<path d="M2175 2325 c-235 -87 -516 -346 -988 -909 -65 -78 -123 -143 -128
-145 -6 -2 -72 57 -147 131 -183 181 -261 228 -374 228 -173 0 -330 -181 -304
-351 14 -93 40 -126 355 -448 347 -354 369 -371 490 -371 115 1 187 49 293
199 105 148 378 480 514 626 167 179 251 254 438 391 161 117 209 169 240 255
50 138 -30 310 -174 377 -67 31 -157 38 -215 17z m175 -135 c84 -43 122 -149
84 -238 -21 -51 -55 -84 -159 -154 -282 -191 -546 -464 -935 -968 -184 -238
-186 -240 -275 -240 l-59 0 -311 316 c-170 174 -315 328 -322 342 -38 84 14
209 100 241 41 16 114 13 152 -5 18 -8 117 -101 219 -205 211 -214 221 -219
272 -151 50 65 324 392 412 491 193 218 397 411 540 515 103 75 205 95 282 56z
M2068 2092 c-22 -24 -27 -44 -16 -64 12 -25 55 -23 68 2 23 43 -23 96 -52 62z
M2166 2088 c-20 -28 -20 -52 -1 -68 25 -20 63 -4 70 30 12 55 -38 82 -69 38z
M2249 2024 c-24 -7 -43 -53 -28 -70 28 -34 103 5 97 49 -3 22 -33 31 -69 21z
M2015 1955 c-31 -30 -32 -50 -3 -73 12 -9 40 -34 63 -54 47 -42 65 -46 86 -20
41 51 45 98 13 150 -12 19 -23 22 -75 22 -50 0 -64 -4 -84 -25z M2229 1901
c-20 -16 -22 -23 -13 -38 17 -28 70 -29 85 -2 10 20 9 25 -11 41 -28 23 -32
22 -61 -1z"/>
</g>
</svg>
