<?xml version="1.0" standalone="no"?>
<!DOCTYPE svg PUBLIC "-//W3C//DTD SVG 20010904//EN"
 "http://www.w3.org/TR/2001/REC-SVG-20010904/DTD/svg10.dtd">
<svg version="1.0" xmlns="http://www.w3.org/2000/svg"
 width="280.000000pt" height="280.000000pt" viewBox="0 0 280.000000 280.000000"
 preserveAspectRatio="xMidYMid meet">
<metadata>
Created by potrace 1.16, written by Peter Selinger 2001-2019
</metadata>
<g transform="translate(0.000000,280.000000) scale(0.100000,-0.100000)"
fill="currentColor" stroke="currentColor" stroke-width="2" stroke-linejoin="round" stroke-linecap="round">
<path d="M1265 2443 c-224 -35 -416 -134 -581 -298 -172 -172 -266 -361 -302
-613 -19 -138 -8 -255 39 -414 54 -180 133 -314 264 -443 137 -137 292 -225
490 -278 65 -17 108 -21 230 -21 152 -1 215 8 330 45 494 161 799 680 695
1183 -82 401 -354 697 -745 812 -76 22 -113 27 -240 29 -82 2 -163 1 -180 -2z
m298 -128 c221 -38 420 -153 551 -317 297 -371 283 -872 -34 -1211 -201 -215
-460 -313 -756 -287 -405 36 -751 363 -815 770 -13 84 -6 290 11 355 54 197
176 386 323 504 206 163 466 230 720 186z M1800 1879 c-25 -5 -58 -19 -75 -31
-16 -12 -126 -120 -243 -240 l-214 -218 -76 71 c-86 80 -114 97 -174 105 -67
9 -123 -11 -178 -64 -76 -74 -90 -174 -35 -267 35 -60 333 -350 379 -369 47
-20 125 -21 169 -3 18 8 128 111 252 238 466 473 458 464 458 554 0 146 -122
250 -263 224z m103 -139 c33 -26 45 -81 26 -121 -11 -22 -482 -515 -598 -626
-17 -16 -36 -23 -64 -23 -39 0 -47 7 -195 153 -156 155 -182 187 -182 230 0
52 73 106 125 93 15 -4 73 -52 130 -106 57 -55 112 -100 123 -100 11 0 109 92
248 232 126 128 244 245 263 260 41 34 88 36 124 8z"/>
</g>
</svg>
