<?xml version="1.0" standalone="no"?>
<!DOCTYPE svg PUBLIC "-//W3C//DTD SVG 20010904//EN"
 "http://www.w3.org/TR/2001/REC-SVG-20010904/DTD/svg10.dtd">
<svg version="1.0" xmlns="http://www.w3.org/2000/svg"
 width="280.000000pt" height="280.000000pt" viewBox="0 0 280.000000 280.000000"
 preserveAspectRatio="xMidYMid meet">
<metadata>
Created by potrace 1.16, written by Peter Selinger 2001-2019
</metadata>
<g transform="translate(0.000000,280.000000) scale(0.100000,-0.100000)"
fill="#000000" stroke="none">
<path d="M1275 2656 c-69 -32 -109 -68 -145 -130 l-30 -53 -70 -5 c-82 -6
-127 -32 -160 -90 l-21 -38 -102 0 c-216 0 -300 -58 -327 -222 -16 -104 -13
-1731 4 -1794 27 -103 71 -151 162 -179 71 -22 1536 -22 1608 -1 67 20 114 61
142 120 l24 51 0 901 c0 1011 3 969 -72 1049 -52 57 -111 75 -250 75 l-103 1
-25 40 c-35 57 -77 80 -163 88 -70 6 -72 7 -93 45 -80 143 -245 205 -379 142z
m186 -126 c38 -20 99 -97 99 -126 0 -6 9 -23 21 -38 19 -24 26 -26 102 -26 45
0 87 -4 93 -8 32 -22 44 -59 44 -134 l0 -78 -427 2 -428 3 -3 60 c-4 80 12
133 44 145 14 6 58 10 98 10 83 0 84 1 126 87 54 114 137 151 231 103z m-630
-408 c4 -40 13 -69 25 -83 44 -49 43 -49 536 -49 441 0 464 1 495 20 46 28 67
66 69 124 l2 51 97 3 c114 3 139 -7 155 -67 7 -27 9 -324 8 -915 l-3 -875 -23
-23 -23 -23 -775 -3 -775 -2 -30 29 -29 29 0 887 c0 639 3 892 11 908 29 55
35 58 148 55 l106 -3 6 -63z M1335 2445 c-62 -62 2 -162 85 -134 82 29 57 159
-30 159 -19 0 -40 -9 -55 -25z M1013 1845 c-25 -18 -39 -78 -48 -205 -4 -47
-15 -106 -25 -131 -59 -143 -36 -276 65 -374 84 -81 215 -125 378 -125 290 0
470 121 484 328 4 54 0 82 -21 145 -14 42 -26 94 -26 115 0 53 -26 206 -39
231 -27 50 -86 33 -197 -56 l-62 -49 -71 10 c-47 6 -92 6 -132 0 l-61 -10 -57
44 c-97 75 -156 100 -188 77z M770 843 c-20 -8 -39 -34 -40 -54 0 -8 10 -25
23 -37 l23 -22 616 0 617 0 20 26 c27 34 26 40 -4 69 l-24 25 -608 -1 c-334 0
-615 -3 -623 -6z M774 583 c-12 -2 -27 -15 -35 -29 -11 -22 -11 -30 2 -52 l15
-27 634 0 635 0 13 27 c16 34 3 64 -34 78 -24 10 -1184 12 -1230 3z"/>
</g>
</svg>
