<?xml version="1.0" standalone="no"?>
<!DOCTYPE svg PUBLIC "-//W3C//DTD SVG 20010904//EN"
 "http://www.w3.org/TR/2001/REC-SVG-20010904/DTD/svg10.dtd">
<svg version="1.0" xmlns="http://www.w3.org/2000/svg"
 width="280.000000pt" height="280.000000pt" viewBox="0 0 280.000000 280.000000"
 preserveAspectRatio="xMidYMid meet">
<metadata>
Created by potrace 1.16, written by Peter Selinger 2001-2019
</metadata>
<g transform="translate(0.000000,280.000000) scale(0.100000,-0.100000)"
fill="currentColor" stroke="currentColor" stroke-width="2">
<path d="M1289 2717 c-79 -30 -158 -97 -193 -165 -13 -26 -23 -30 -86 -41 -40
-6 -84 -18 -99 -26 -29 -15 -95 -83 -103 -106 -3 -10 -31 -14 -119 -14 -107 0
-117 -2 -167 -29 -65 -36 -108 -92 -122 -160 -8 -36 -10 -328 -8 -976 l3 -925
22 -40 c11 -22 34 -52 50 -67 63 -60 26 -58 926 -58 l823 0 54 33 c39 24 61
46 84 87 l31 55 3 915 c2 655 0 931 -8 970 -17 78 -54 129 -123 164 -52 27
-70 30 -173 34 -104 4 -116 6 -126 26 -35 69 -135 126 -222 126 -39 0 -44 3
-59 35 -25 52 -90 118 -142 144 -58 29 -191 39 -246 18z m173 -175 c31 -21 55
-51 87 -112 37 -70 53 -80 133 -80 64 0 72 -3 99 -29 27 -27 29 -35 29 -100 0
-39 -3 -71 -7 -71 -5 0 -192 0 -418 -1 l-410 0 -3 79 c-3 76 -2 81 24 101 20
16 41 21 86 21 84 0 121 20 147 80 24 56 65 108 95 120 37 15 109 11 138 -8z
m-673 -410 c14 -71 31 -96 84 -125 41 -22 50 -22 444 -25 432 -3 559 4 601 35
41 31 63 66 69 112 5 34 11 45 32 53 34 13 138 2 168 -17 l23 -15 0 -912 0
-912 -22 -23 -21 -23 -773 0 -773 0 -28 24 -28 24 -3 902 -2 901 29 30 c28 27
34 29 109 29 l79 0 12 -58z"/>
<path d="M1363 2498 c-67 -18 -85 -97 -34 -149 44 -43 111 -37 136 12 41 79
-18 159 -102 137z"/>
<path d="M992 1845 c-33 -28 -37 -42 -57 -210 -8 -60 -21 -135 -30 -165 -25
-84 -16 -191 20 -259 88 -161 286 -239 539 -213 125 13 197 36 271 87 129 88
171 224 127 412 -11 48 -25 129 -31 179 -13 108 -31 157 -67 181 -23 14 -32
15 -73 4 -25 -6 -76 -32 -112 -56 l-66 -45 -130 0 -131 0 -59 45 c-97 72 -150
83 -201 40z m143 -160 c72 -53 88 -57 257 -59 l160 -2 64 43 c35 24 68 43 74
43 6 0 10 -34 10 -87 0 -68 6 -105 26 -165 33 -95 28 -146 -20 -215 -42 -61
-114 -99 -216 -114 -95 -14 -225 -4 -298 23 -66 25 -134 89 -152 143 -14 43
-9 125 14 205 9 30 16 89 16 131 0 100 1 101 65 54z"/>
<path d="M741 834 c-12 -15 -21 -34 -21 -44 0 -10 9 -29 21 -44 l20 -26 633 0
c600 0 634 1 649 18 23 25 21 74 -3 100 l-21 22 -629 0 -629 0 -20 -26z"/>
<path d="M740 570 c-27 -27 -25 -66 5 -95 l24 -25 629 0 c597 0 630 1 645 18
23 25 22 85 -1 105 -17 15 -77 17 -650 17 -619 0 -632 0 -652 -20z"/>
</g>
</svg>
