<?xml version="1.0" standalone="no"?>
<!DOCTYPE svg PUBLIC "-//W3C//DTD SVG 20010904//EN"
 "http://www.w3.org/TR/2001/REC-SVG-20010904/DTD/svg10.dtd">
<svg version="1.0" xmlns="http://www.w3.org/2000/svg"
 width="280.000000pt" height="280.000000pt" viewBox="0 0 280.000000 280.000000"
 preserveAspectRatio="xMidYMid meet">
<metadata>
Created by potrace 1.16, written by Peter Selinger 2001-2019
</metadata>
<g transform="translate(0.000000,280.000000) scale(0.100000,-0.100000)"
fill="currentColor" stroke="currentColor" stroke-width="2" stroke-linejoin="round" stroke-linecap="round">
<path d="M1285 2429 c-607 -78 -1027 -685 -879 -1274 117 -467 532 -796 1004
-796 232 0 442 71 632 214 190 143 328 364 384 617 22 98 22 298 1 405 -86
434 -432 764 -869 830 -107 16 -167 17 -273 4z m378 -153 c153 -46 252 -103
375 -220 182 -173 269 -367 279 -622 7 -157 -10 -254 -66 -389 -46 -112 -96
-189 -185 -283 -78 -82 -133 -124 -226 -174 -277 -148 -602 -142 -879 15 -87
49 -234 184 -296 272 -231 325 -216 775 36 1091 146 184 340 295 589 338 14 3
84 3 155 1 104 -3 148 -8 218 -29z M1003 1914 c-52 -23 -100 -78 -119 -139
-32 -102 6 -186 146 -319 33 -32 60 -62 60 -68 0 -6 -42 -54 -94 -107 -112
-117 -136 -169 -117 -256 16 -72 51 -118 113 -149 110 -55 195 -27 328 108 46
47 89 86 95 86 6 0 49 -40 97 -88 93 -96 137 -123 211 -130 159 -15 275 157
207 307 -12 25 -60 85 -112 138 l-92 93 91 93 c50 50 97 106 106 123 76 148
-27 324 -188 324 -76 0 -120 -27 -222 -133 -51 -54 -96 -97 -101 -97 -5 0 -50
43 -100 95 -56 59 -107 103 -134 115 -50 23 -128 25 -175 4z m123 -117 c12 -7
79 -67 149 -134 70 -68 133 -123 139 -123 6 0 67 56 136 125 68 68 136 129
152 136 60 25 128 -24 128 -93 0 -35 -10 -48 -127 -174 -71 -74 -129 -141
-131 -148 -1 -7 53 -70 120 -140 68 -71 126 -133 130 -140 4 -6 8 -26 8 -44 0
-46 -46 -92 -92 -92 -44 0 -65 16 -192 148 -69 71 -117 112 -130 112 -12 0
-69 -48 -151 -130 -121 -120 -135 -130 -169 -130 -48 0 -82 23 -96 66 -18 53
-3 76 130 209 76 75 120 127 120 140 0 12 -24 44 -56 75 -31 30 -87 90 -125
133 -59 66 -69 82 -69 115 0 75 67 123 126 89z"/>
</g>
</svg>
