<?xml version="1.0" standalone="no"?>
<!DOCTYPE svg PUBLIC "-//W3C//DTD SVG 20010904//EN"
 "http://www.w3.org/TR/2001/REC-SVG-20010904/DTD/svg10.dtd">
<svg version="1.0" xmlns="http://www.w3.org/2000/svg"
 width="280.000000pt" height="280.000000pt" viewBox="0 0 280.000000 280.000000"
 preserveAspectRatio="xMidYMid meet">
<metadata>
Created by potrace 1.16, written by Peter Selinger 2001-2019
</metadata>
<g transform="translate(0.000000,280.000000) scale(0.100000,-0.100000)"
fill="currentColor" stroke="currentColor" stroke-width="2" stroke-linejoin="round" stroke-linecap="round">
<path d="M1236 2379 c-399 -58 -719 -341 -843 -744 -25 -84 -27 -102 -27 -275
0 -174 2 -191 28 -274 119 -389 435 -668 826 -732 215 -35 416 -5 615 92 210
102 368 260 470 469 73 149 96 238 102 403 8 201 -21 340 -107 512 -195 388
-630 612 -1064 549z m414 -104 c269 -85 467 -255 591 -505 111 -223 120 -525
25 -760 -116 -285 -375 -502 -686 -575 -83 -19 -292 -19 -382 -1 -193 41 -341
122 -481 263 -249 249 -338 582 -246 922 73 270 288 509 559 621 142 59 207
70 380 66 134 -4 167 -8 240 -31z M1009 1870 c-45 -13 -79 -42 -107 -89 -22
-37 -27 -58 -26 -106 0 -33 6 -71 14 -85 7 -14 58 -71 113 -127 l100 -102 -37
-45 c-20 -25 -57 -62 -82 -82 -25 -21 -60 -58 -77 -83 -28 -41 -32 -54 -31
-112 0 -55 5 -72 30 -109 37 -55 101 -90 163 -90 74 1 127 32 222 131 47 49
90 89 96 89 5 0 54 -43 108 -96 105 -104 140 -124 211 -124 126 0 226 130 194
251 -10 35 -33 65 -116 150 -57 58 -104 109 -104 114 0 5 43 52 95 105 108
111 141 169 131 232 -23 141 -152 223 -274 173 -21 -9 -82 -61 -139 -117
l-102 -102 -109 106 c-80 78 -119 109 -148 117 -44 12 -87 13 -125 1z m241
-195 c69 -69 133 -125 141 -125 9 0 60 46 115 103 126 131 148 147 197 147
101 0 159 -103 106 -189 -11 -19 -67 -82 -125 -141 -57 -59 -104 -110 -104
-114 0 -4 53 -63 119 -130 125 -129 139 -154 127 -221 -7 -35 -48 -78 -87 -90
-55 -18 -89 3 -221 133 l-129 126 -117 -116 c-64 -63 -128 -123 -142 -132 -71
-47 -180 17 -180 106 0 56 17 82 120 183 50 50 101 103 112 118 l20 28 -116
119 c-117 120 -136 147 -136 201 0 71 51 118 129 119 43 0 47 -2 171 -125z"/>
</g>
</svg>
