<?xml version="1.0" standalone="no"?>
<!DOCTYPE svg PUBLIC "-//W3C//DTD SVG 20010904//EN"
 "http://www.w3.org/TR/2001/REC-SVG-20010904/DTD/svg10.dtd">
<svg version="1.0" xmlns="http://www.w3.org/2000/svg"
 width="280.000000pt" height="280.000000pt" viewBox="0 0 280.000000 280.000000"
 preserveAspectRatio="xMidYMid meet">
<metadata>
Created by potrace 1.16, written by Peter Selinger 2001-2019
</metadata>
<g transform="translate(0.000000,280.000000) scale(0.100000,-0.100000)"
fill="currentColor" stroke="currentColor" stroke-width="2">
<path d="M604 2334 c-48 -33 -431 -584 -440 -631 -13 -69 8 -102 183 -295 184
-203 329 -358 628 -673 110 -116 223 -236 252 -266 77 -83 134 -129 160 -129
28 0 55 26 379 365 462 484 788 836 827 895 10 14 17 44 17 70 0 43 -10 61
-126 231 -152 222 -286 401 -321 429 -25 20 -37 20 -782 19 -655 0 -759 -2
-777 -15z m606 -155 c0 -6 -60 -74 -133 -152 -74 -78 -150 -160 -170 -182 -19
-22 -38 -38 -40 -35 -8 8 -107 345 -107 363 0 15 23 17 225 17 155 0 225 -3
225 -11z m810 -9 c0 -10 -4 -29 -9 -42 -21 -49 -91 -282 -91 -300 0 -12 -6
-18 -14 -16 -8 2 -80 75 -161 163 -81 88 -155 167 -166 177 -41 35 -26 38 211
38 221 0 230 -1 230 -20z m-514 -137 c313 -333 346 -372 339 -400 -7 -29 -113
-262 -270 -593 -58 -124 -122 -262 -142 -308 -20 -45 -41 -81 -47 -79 -6 2
-17 14 -24 28 -21 41 -161 339 -209 444 -25 55 -72 159 -105 230 -80 171 -128
284 -128 299 0 21 445 496 465 496 6 0 60 -53 121 -117z m-866 52 c0 -8 6 -34
14 -57 36 -110 68 -222 73 -254 l6 -35 -172 2 c-120 2 -171 6 -171 14 0 6 34
60 76 121 41 60 92 135 112 166 36 55 62 74 62 43z m1545 -43 c16 -26 67 -100
112 -166 46 -65 80 -122 77 -127 -7 -11 -321 -12 -328 -1 -3 5 1 31 9 58 7 27
28 102 46 167 18 64 37 117 43 117 6 0 24 -21 41 -48z m-1340 -564 c29 -62 69
-151 88 -198 19 -47 76 -174 127 -284 50 -109 90 -200 87 -202 -2 -2 -136 139
-298 314 -162 174 -327 351 -366 393 -40 41 -73 78 -73 82 0 4 86 7 191 7
l190 0 54 -112z m1515 107 c0 -7 -191 -214 -465 -506 -236 -252 -256 -272
-262 -266 -4 4 33 90 120 277 19 41 46 100 60 130 13 30 53 116 87 190 34 74
66 145 71 158 8 22 11 22 199 22 104 0 190 -2 190 -5z"/>
<path d="M1233 1835 c-40 -17 -56 -47 -55 -101 2 -58 26 -101 68 -122 32 -15
38 -15 62 -1 34 19 52 54 52 104 0 87 -63 147 -127 120z"/>
<path d="M1472 1838 c-59 -29 -85 -142 -44 -197 39 -53 118 -34 147 35 25 60
20 111 -14 145 -31 31 -52 35 -89 17z"/>
<path d="M1062 1645 c-47 -33 -44 -137 6 -175 36 -29 86 -26 111 6 25 32 27
74 5 120 -29 61 -77 80 -122 49z"/>
<path d="M1610 1632 c-30 -31 -53 -93 -43 -120 11 -31 46 -62 70 -62 39 0 79
27 98 66 14 31 15 43 6 75 -21 71 -82 89 -131 41z"/>
<path d="M1315 1558 c-67 -36 -165 -169 -172 -232 -11 -91 49 -144 146 -131
73 10 125 10 183 1 85 -15 158 38 158 115 0 61 -102 204 -170 239 -43 22 -113
26 -145 8z"/>
</g>
</svg>
