<?xml version="1.0" standalone="no"?>
<!DOCTYPE svg PUBLIC "-//W3C//DTD SVG 20010904//EN"
 "http://www.w3.org/TR/2001/REC-SVG-20010904/DTD/svg10.dtd">
<svg version="1.0" xmlns="http://www.w3.org/2000/svg"
 width="280.000000pt" height="280.000000pt" viewBox="0 0 280.000000 280.000000"
 preserveAspectRatio="xMidYMid meet">
<metadata>
Created by potrace 1.16, written by Peter Selinger 2001-2019
</metadata>
<g transform="translate(0.000000,280.000000) scale(0.100000,-0.100000)"
fill="currentColor" stroke="currentColor" stroke-width="2" stroke-linejoin="round" stroke-linecap="round">
<path d="M613 2363 c-29 -6 -58 -43 -229 -288 -77 -110 -153 -219 -169 -243
-53 -75 -75 -116 -75 -142 0 -35 28 -77 108 -162 37 -40 176 -188 307 -328
132 -140 343 -365 470 -500 128 -135 249 -265 271 -289 50 -56 95 -77 129 -59
13 7 113 108 222 224 939 999 990 1055 995 1086 7 42 -11 80 -88 187 -43 58
-141 195 -218 305 -85 119 -150 202 -164 207 -23 9 -1515 11 -1559 2z m637
-128 c0 -20 -376 -433 -396 -434 -6 -1 -23 41 -38 92 -15 50 -44 144 -63 207
-19 63 -36 120 -37 125 0 6 74 12 199 15 285 8 335 8 335 -5z m824 4 c3 -3
-12 -62 -34 -130 -22 -69 -50 -166 -63 -215 -15 -55 -29 -90 -38 -91 -8 -1
-57 45 -109 103 -210 230 -289 319 -290 326 0 13 522 20 534 7z m-509 -206
c88 -97 200 -218 249 -270 l89 -94 -11 -37 c-7 -21 -50 -119 -97 -218 -47 -98
-90 -188 -95 -199 -5 -11 -60 -128 -123 -260 -62 -132 -127 -271 -143 -308
-18 -42 -34 -67 -43 -65 -7 2 -39 62 -71 133 -31 72 -68 155 -83 185 -236 502
-350 756 -345 774 4 18 491 536 503 535 6 0 82 -79 170 -176z m-937 100 c5
-21 33 -113 61 -205 28 -92 51 -172 51 -179 0 -9 -47 -11 -207 -6 -113 4 -209
9 -212 12 -3 4 1 17 9 30 32 52 275 385 281 385 4 0 11 -17 17 -37z m1659
-125 c142 -198 173 -244 173 -257 0 -13 -406 -16 -413 -3 -2 4 9 48 24 97 16
50 43 141 60 203 17 61 35 112 39 112 4 0 57 -69 117 -152z m-1468 -465 c21
-43 61 -130 89 -193 27 -63 78 -176 112 -250 87 -188 170 -383 166 -387 -1 -2
-126 128 -277 289 -151 161 -340 363 -421 449 -82 86 -148 160 -148 163 0 3
99 6 220 6 l220 0 39 -77z m1621 71 c0 -8 -26 -37 -420 -458 -179 -191 -346
-371 -371 -400 -26 -28 -49 -49 -52 -46 -5 5 88 225 155 370 75 159 112 238
150 325 21 50 53 118 69 153 l31 62 219 0 c120 0 219 -3 219 -6z M1222 1853
c-7 -3 -19 -18 -27 -33 -55 -106 68 -259 142 -177 43 47 35 159 -15 197 -23
19 -71 25 -100 13z M1463 1838 c-32 -36 -43 -63 -43 -108 0 -52 23 -98 54
-106 83 -21 163 131 109 205 -28 37 -90 41 -120 9z M1057 1660 c-34 -27 -42
-68 -21 -119 41 -104 147 -108 161 -5 6 47 -13 91 -53 123 -33 26 -54 26 -87
1z M1642 1655 c-35 -30 -65 -98 -56 -129 10 -33 45 -66 72 -66 62 0 112 79 98
154 -7 36 -37 66 -67 66 -10 0 -31 -11 -47 -25z M1325 1564 c-43 -22 -70 -50
-121 -124 -53 -78 -63 -123 -39 -174 28 -58 48 -64 237 -62 152 1 169 3 194
22 33 24 47 66 38 114 -6 36 -79 143 -131 192 -51 49 -122 62 -178 32z"/>
</g>
</svg>
