<?xml version="1.0" standalone="no"?>
<!DOCTYPE svg PUBLIC "-//W3C//DTD SVG 20010904//EN"
 "http://www.w3.org/TR/2001/REC-SVG-20010904/DTD/svg10.dtd">
<svg version="1.0" xmlns="http://www.w3.org/2000/svg"
 width="280.000000pt" height="280.000000pt" viewBox="0 0 280.000000 280.000000"
 preserveAspectRatio="xMidYMid meet">
<metadata>
Created by potrace 1.16, written by Peter Selinger 2001-2019
</metadata>
<g transform="translate(0.000000,280.000000) scale(0.100000,-0.100000)"
fill="currentColor" stroke="currentColor" stroke-width="2" stroke-linejoin="round" stroke-linecap="round">
<path d="M670 2389 c-101 -42 -158 -187 -167 -429 -3 -88 -1 -173 6 -215 l11
-70 -36 -68 c-65 -127 -96 -309 -75 -449 l12 -74 -39 -80 c-54 -107 -92 -207
-92 -238 0 -28 33 -56 67 -56 28 0 41 20 92 145 60 146 94 212 211 404 116
192 182 285 221 313 26 20 109 37 109 23 0 -4 -13 -24 -30 -45 -31 -40 -38
-78 -18 -98 21 -21 36 -14 98 43 66 61 92 67 134 34 34 -27 33 -45 -4 -64 -51
-27 -100 -75 -100 -100 0 -13 10 -31 22 -39 20 -14 25 -13 74 14 73 43 78 41
70 -26 -8 -73 -35 -107 -146 -188 -113 -83 -159 -141 -235 -301 -123 -255
-148 -343 -110 -371 47 -34 93 -2 115 79 7 27 18 47 26 47 8 0 53 -11 101 -26
255 -74 551 -74 788 1 115 36 116 35 141 -33 25 -70 61 -94 103 -71 14 8 27
24 29 36 4 27 -95 279 -156 397 -51 100 -128 189 -212 246 -63 43 -126 109
-140 146 -13 33 -13 91 0 99 5 3 30 -10 55 -30 53 -40 53 -40 83 -19 44 30 15
88 -65 128 -41 21 -45 58 -8 82 35 23 66 12 130 -46 57 -52 73 -58 93 -38 20
20 14 52 -18 88 -36 43 -38 60 -6 60 70 0 138 -61 213 -189 31 -53 85 -139
119 -192 85 -130 115 -188 175 -332 28 -67 55 -132 61 -145 26 -51 108 -30
108 28 0 34 -32 123 -81 225 l-33 70 -1 160 c0 176 -14 248 -76 379 l-30 65
11 118 c18 184 -8 374 -68 495 -31 62 -44 77 -82 96 -35 18 -55 22 -89 18 -85
-11 -240 -107 -354 -218 l-61 -60 -88 17 c-88 17 -178 17 -325 -1 l-52 -6 -58
52 c-167 153 -345 241 -423 209z m1401 -110 c56 -30 97 -304 78 -524 l-9 -99
34 -71 c38 -83 62 -165 71 -254 6 -58 5 -63 -9 -52 -9 8 -16 18 -16 23 0 5 -8
21 -19 36 -10 15 -51 77 -91 139 -81 126 -128 174 -207 210 -48 22 -65 25
-134 21 -55 -3 -84 -10 -98 -22 -10 -9 -36 -22 -57 -27 -92 -25 -151 -90 -179
-200 -21 -79 -16 -199 9 -248 26 -50 100 -125 190 -194 85 -65 134 -129 181
-242 33 -77 35 -74 -68 -106 -219 -66 -525 -65 -738 2 -37 12 -70 27 -73 35
-8 20 78 187 121 235 21 23 80 75 130 116 76 60 98 84 123 133 48 94 54 149
30 243 -36 138 -79 196 -163 217 -23 6 -49 15 -57 20 -58 37 -79 44 -135 44
-117 -1 -227 -77 -310 -214 -21 -36 -64 -103 -95 -150 l-55 -85 -3 38 c-4 50
28 176 72 279 l36 83 -8 100 c-13 152 -3 300 27 408 36 131 69 137 215 40 55
-37 133 -100 173 -140 80 -80 84 -81 178 -58 80 19 274 19 345 0 91 -24 99
-22 170 51 76 77 185 162 254 198 55 29 60 30 87 15z M723 2168 c-32 -36 -44
-84 -50 -209 -7 -129 5 -189 37 -189 10 0 49 25 87 56 37 31 98 74 136 96 37
22 69 44 72 48 9 15 -57 99 -110 140 -55 43 -121 80 -140 80 -6 0 -21 -10 -32
-22z M1965 2173 c-87 -47 -195 -155 -195 -195 0 -7 32 -33 72 -58 39 -24 101
-68 137 -97 36 -29 74 -53 83 -53 28 0 41 71 34 175 -12 171 -37 246 -84 245
-9 -1 -30 -8 -47 -17z M1300 1120 c-26 -26 -25 -47 5 -104 14 -26 25 -53 25
-61 0 -24 -61 -49 -119 -49 -66 -1 -84 -20 -58 -60 33 -49 124 -56 195 -15 33
19 33 19 75 -3 62 -31 147 -31 181 1 51 48 28 81 -55 81 -42 0 -63 5 -83 21
-33 26 -33 39 0 88 51 77 19 121 -88 121 -45 0 -63 -5 -78 -20z"/>
</g>
</svg>
