<?xml version="1.0" standalone="no"?>
<!DOCTYPE svg PUBLIC "-//W3C//DTD SVG 20010904//EN"
 "http://www.w3.org/TR/2001/REC-SVG-20010904/DTD/svg10.dtd">
<svg version="1.0" xmlns="http://www.w3.org/2000/svg"
 width="280.000000pt" height="280.000000pt" viewBox="0 0 280.000000 280.000000"
 preserveAspectRatio="xMidYMid meet">
<metadata>
Created by potrace 1.16, written by Peter Selinger 2001-2019
</metadata>
<g transform="translate(0.000000,280.000000) scale(0.100000,-0.100000)"
fill="currentColor" stroke="none">
<path d="M1127 2116 c-106 -29 -158 -133 -122 -239 l16 -47 -73 -81 c-94 -103
-163 -204 -218 -318 -24 -50 -47 -91 -51 -91 -5 0 -23 9 -41 19 -60 35 -161
62 -253 68 -111 7 -167 -7 -212 -52 -83 -83 -15 -222 195 -397 27 -22 31 -30
23 -50 -17 -48 -33 -191 -27 -245 8 -72 37 -137 70 -158 111 -73 265 29 378
252 45 89 56 104 73 99 11 -3 65 -21 120 -40 99 -33 257 -63 365 -68 52 -3 55
-4 64 -36 13 -48 56 -88 105 -102 90 -24 201 35 272 145 23 36 51 67 63 71 57
18 171 78 253 133 270 180 455 481 429 694 -15 120 -107 215 -301 312 -214
106 -415 134 -680 93 -65 -10 -76 -8 -150 16 -97 33 -227 43 -298 22z m197
-72 c25 -4 46 -10 46 -14 0 -3 -26 -17 -57 -30 -32 -13 -90 -43 -130 -67 -102
-61 -101 -61 -109 -18 -9 50 16 102 59 120 34 15 116 19 191 9z m730 -59 c178
-53 368 -172 413 -259 34 -64 15 -191 -45 -311 -59 -119 -185 -267 -280 -330
l-40 -26 -39 20 c-46 24 -116 82 -165 136 -127 142 -195 345 -186 552 4 80 2
106 -9 115 -46 38 -67 -121 -39 -293 22 -129 61 -229 132 -336 54 -81 152
-176 215 -209 17 -8 29 -20 27 -26 -6 -16 -114 -72 -196 -102 -98 -35 -177
-52 -305 -67 -251 -28 -597 51 -726 167 -55 50 -66 53 -81 23 -10 -17 -6 -26
31 -62 l42 -42 -16 -42 c-21 -58 -91 -176 -130 -220 -50 -57 -106 -93 -144
-93 -27 0 -37 6 -53 33 -27 44 -27 182 -1 290 11 43 18 84 15 90 -3 7 -27 27
-54 46 -61 41 -175 161 -197 206 -59 123 119 152 356 58 36 -14 82 -37 101
-49 19 -14 38 -20 43 -15 5 5 24 43 42 85 151 349 403 571 746 661 109 29 159
34 309 30 121 -3 160 -8 234 -30z m-324 -1193 c0 -13 -52 -58 -87 -76 -47 -23
-90 -20 -118 9 -34 33 -31 45 13 46 20 1 66 7 102 14 85 16 90 16 90 7z M2024
1752 c-86 -69 -42 -202 66 -202 101 0 144 118 70 192 -23 22 -37 28 -72 28
-26 0 -52 -7 -64 -18z M1322 1568 c-22 -22 -14 -77 16 -107 15 -15 34 -30 41
-32 15 -5 12 -19 -11 -50 -16 -24 -4 -47 37 -66 32 -15 35 -20 35 -60 0 -34 6
-50 26 -70 17 -17 29 -22 36 -15 12 12 38 152 38 210 0 58 -11 75 -78 121 -31
21 -66 48 -76 60 -21 23 -46 27 -64 9z M1100 1394 c-20 -23 -14 -107 10 -153
11 -23 25 -41 30 -41 5 0 12 -15 16 -34 7 -38 36 -70 73 -81 23 -7 23 -6 17
38 -4 28 -1 69 9 112 8 37 13 71 9 76 -3 5 -22 18 -42 28 -20 11 -48 31 -61
45 -28 30 -43 32 -61 10z"/>
</g>
</svg>
