<?xml version="1.0" standalone="no"?>
<!DOCTYPE svg PUBLIC "-//W3C//DTD SVG 20010904//EN"
 "http://www.w3.org/TR/2001/REC-SVG-20010904/DTD/svg10.dtd">
<svg version="1.0" xmlns="http://www.w3.org/2000/svg"
 width="280.000000pt" height="280.000000pt" viewBox="0 0 280.000000 280.000000"
 preserveAspectRatio="xMidYMid meet">
<metadata>
Created by potrace 1.16, written by Peter Selinger 2001-2019
</metadata>
<g transform="translate(0.000000,280.000000) scale(0.100000,-0.100000)"
fill="currentColor" stroke="currentColor" stroke-width="2">
<path d="M1170 2286 c-94 -26 -151 -70 -187 -144 -26 -52 -28 -66 -27 -165 l2
-109 -65 -66 c-63 -65 -194 -251 -229 -324 -9 -21 -23 -39 -30 -42 -7 -2 -50
8 -96 24 -161 55 -342 64 -427 21 -64 -33 -111 -111 -111 -185 0 -33 21 -99
47 -149 8 -17 63 -80 121 -139 l105 -107 -17 -90 c-22 -123 -21 -208 5 -276
50 -135 157 -192 281 -149 103 35 250 197 308 340 12 30 28 54 34 54 7 0 46
-11 87 -26 118 -40 269 -73 372 -80 93 -7 96 -8 107 -35 17 -41 89 -103 143
-124 119 -45 285 43 360 192 30 59 34 62 117 97 100 42 109 47 200 103 116 71
169 116 257 214 85 95 160 200 193 274 112 246 97 403 -53 562 -107 114 -343
236 -547 284 -81 19 -296 16 -423 -6 -89 -15 -112 -16 -135 -5 -131 61 -291
84 -392 56z m160 -165 c0 -7 -50 -35 -202 -109 -5 -2 -8 6 -8 18 0 61 58 100
148 100 34 0 62 -4 62 -9z m776 -56 c193 -40 439 -187 494 -296 66 -128 -27
-356 -230 -565 -68 -70 -142 -134 -157 -134 -5 0 -54 46 -110 103 -136 139
-184 217 -238 387 -22 72 -27 110 -32 240 -6 172 -14 200 -61 200 -49 0 -61
-18 -73 -110 -16 -128 6 -283 62 -440 50 -138 168 -314 262 -392 59 -49 69
-60 59 -69 -4 -4 -54 -25 -112 -48 -321 -125 -702 -129 -990 -10 -82 34 -100
45 -177 102 -60 44 -95 46 -125 7 -17 -24 -18 -28 -3 -63 8 -20 25 -41 36 -48
18 -9 21 -17 16 -51 -12 -87 -177 -308 -243 -324 -58 -15 -75 65 -50 235 9 64
19 128 23 143 5 25 -7 40 -116 144 -87 84 -128 131 -147 171 -25 51 -26 55
-10 71 13 14 35 17 104 16 104 -1 187 -22 299 -75 45 -21 91 -39 102 -39 33 0
59 33 94 117 45 107 146 259 239 358 161 172 414 313 657 365 111 24 322 26
427 5z m-376 -1365 c0 -16 -39 -31 -72 -28 -49 5 -46 26 4 31 24 2 49 4 56 5
6 1 12 -2 12 -8z"/>
<path d="M2189 1850 c-95 -28 -134 -121 -89 -209 71 -140 295 -50 260 105 -10
43 -52 90 -89 99 -14 3 -33 8 -41 10 -8 1 -27 0 -41 -5z"/>
<path d="M1377 1692 c-27 -6 -47 -55 -47 -116 0 -48 4 -60 32 -92 27 -30 31
-43 29 -80 -2 -39 2 -48 33 -77 25 -23 41 -51 56 -99 15 -49 29 -74 55 -97 44
-38 59 -39 82 -4 15 23 18 49 17 153 0 177 -7 196 -118 308 -98 100 -111 111
-139 104z"/>
<path d="M1090 1478 c-23 -25 -26 -85 -9 -185 8 -48 17 -68 37 -83 13 -11 39
-48 57 -83 33 -65 80 -107 121 -107 26 0 32 14 35 90 6 147 0 195 -28 237 -36
52 -150 153 -174 153 -10 0 -27 -10 -39 -22z"/>
</g>
</svg>
