<?xml version="1.0" standalone="no"?>
<!DOCTYPE svg PUBLIC "-//W3C//DTD SVG 20010904//EN"
 "http://www.w3.org/TR/2001/REC-SVG-20010904/DTD/svg10.dtd">
<svg version="1.0" xmlns="http://www.w3.org/2000/svg"
 width="280.000000pt" height="280.000000pt" viewBox="0 0 280.000000 280.000000"
 preserveAspectRatio="xMidYMid meet">
<metadata>
Created by potrace 1.16, written by Peter Selinger 2001-2019
</metadata>
<g transform="translate(0.000000,280.000000) scale(0.100000,-0.100000)"
fill="#2563A0" stroke="#2563A0" stroke-width="2" stroke-linejoin="round" stroke-linecap="round">
<path d="M1152 2141 c-56 -19 -96 -50 -117 -91 -19 -37 -27 -128 -16 -184 l9
-49 -80 -91 c-96 -108 -145 -179 -202 -289 -23 -45 -46 -81 -51 -80 -6 1 -39
14 -75 29 -101 42 -158 54 -255 54 -104 0 -155 -18 -198 -69 -49 -59 -46 -144
10 -241 28 -46 137 -162 186 -196 l28 -19 -16 -80 c-18 -96 -19 -213 -3 -268
17 -56 73 -112 126 -127 120 -32 258 75 363 283 27 53 52 97 55 97 4 0 47 -15
98 -34 101 -37 226 -62 358 -71 85 -7 87 -7 99 -37 31 -76 91 -118 166 -118
91 0 185 60 254 162 38 55 47 62 153 112 146 69 220 120 333 229 245 237 351
523 260 703 -56 111 -263 251 -468 318 -146 47 -386 59 -536 26 -42 -9 -61 -8
-105 5 -155 47 -289 56 -376 26z m205 -105 c4 -5 1 -12 -7 -17 -157 -94 -201
-119 -210 -119 -11 0 -14 69 -3 95 12 32 82 56 150 52 34 -1 66 -7 70 -11z
m756 -60 c49 -15 121 -43 161 -62 96 -48 225 -141 254 -184 22 -32 23 -43 20
-120 -5 -101 -31 -171 -103 -281 -57 -88 -231 -265 -269 -275 -33 -8 -85 26
-172 112 -73 72 -133 170 -173 280 -40 110 -54 189 -55 324 l-1 115 -27 3
c-37 4 -43 -22 -42 -183 2 -161 23 -248 95 -393 42 -87 64 -117 132 -185 45
-45 99 -91 120 -102 20 -11 36 -24 34 -30 -5 -16 -125 -73 -212 -101 -149 -47
-301 -67 -475 -61 -229 7 -362 47 -532 158 -64 42 -80 49 -97 40 -42 -23 -34
-71 18 -107 12 -9 21 -22 21 -30 0 -22 -83 -180 -124 -235 -36 -48 -117 -109
-147 -109 -26 0 -56 44 -63 92 -3 24 1 86 9 138 9 52 19 115 22 141 l5 45 -84
71 c-127 107 -201 211 -178 253 35 65 217 46 402 -44 50 -24 97 -42 105 -39 8
3 36 53 63 110 157 333 404 549 749 653 110 34 157 39 311 36 121 -3 160 -8
233 -30z m-370 -1258 c-39 -45 -122 -61 -155 -31 -25 23 -23 33 10 33 15 1 54
7 87 14 70 15 83 12 58 -16z M2092 1751 c-52 -33 -67 -102 -37 -161 19 -38 63
-60 116 -60 33 0 47 6 75 34 29 29 34 41 34 83 0 39 -6 56 -28 82 -36 44 -109
54 -160 22z M1370 1570 c-37 -37 -17 -122 37 -151 25 -14 29 -29 12 -46 -17
-17 -3 -58 26 -73 26 -14 29 -21 39 -81 12 -67 66 -111 93 -76 14 17 33 143
33 213 0 54 -2 58 -42 96 -24 21 -66 61 -95 89 -58 54 -73 59 -103 29z M1139
1393 c-9 -10 -14 -41 -14 -82 0 -58 4 -71 32 -111 18 -25 35 -57 39 -73 11
-49 90 -98 109 -67 3 5 8 61 10 125 l4 115 -53 35 c-29 19 -61 44 -71 55 -22
24 -38 25 -56 3z"/>
</g>
</svg>
