<?xml version="1.0" standalone="no"?>
<!DOCTYPE svg PUBLIC "-//W3C//DTD SVG 20010904//EN"
 "http://www.w3.org/TR/2001/REC-SVG-20010904/DTD/svg10.dtd">
<svg version="1.0" xmlns="http://www.w3.org/2000/svg"
 width="280.000000pt" height="280.000000pt" viewBox="0 0 280.000000 280.000000"
 preserveAspectRatio="xMidYMid meet">
<metadata>
Created by potrace 1.16, written by Peter Selinger 2001-2019
</metadata>
<g transform="translate(0.000000,280.000000) scale(0.100000,-0.100000)"
fill="currentColor" stroke="currentColor" stroke-width="2" stroke-linejoin="round" stroke-linecap="round">
<path d="M1366 2380 c-34 -11 -72 -45 -91 -81 -11 -21 -24 -28 -60 -32 -82
-12 -136 -61 -150 -139 -10 -51 22 -115 76 -154 110 -79 126 -101 54 -75 -40
14 -49 14 -87 1 -27 -10 -50 -27 -64 -47 -26 -38 -34 -28 -34 43 0 59 -19 103
-63 141 -51 44 -104 51 -165 21 -36 -17 -52 -33 -67 -65 -19 -41 -21 -42 -56
-37 -47 8 -118 -23 -146 -62 -42 -59 -40 -142 3 -189 13 -14 24 -28 24 -30 0
-2 -11 -21 -25 -41 -50 -74 -24 -177 55 -216 51 -26 96 -22 170 13 79 38 120
51 120 38 0 -5 -17 -20 -39 -33 -72 -46 -74 -115 -5 -174 24 -20 44 -39 44
-43 0 -10 -44 4 -112 36 -81 37 -117 41 -171 17 -82 -37 -113 -142 -62 -216
l25 -37 -27 -36 c-36 -47 -39 -136 -7 -179 39 -53 71 -69 135 -69 59 0 61 -1
82 -38 29 -50 92 -81 153 -74 76 8 119 63 130 164 9 86 12 92 34 55 34 -55
100 -74 163 -47 35 15 15 -11 -42 -54 -92 -69 -124 -149 -87 -219 30 -58 107
-100 159 -86 23 5 28 1 40 -29 21 -50 70 -80 136 -85 70 -4 117 19 144 71 17
33 23 37 60 37 55 1 106 27 133 68 55 81 34 174 -52 233 -90 62 -112 90 -49
63 19 -7 44 -14 55 -14 34 0 79 28 95 60 9 17 20 28 24 26 5 -3 11 -35 13 -70
10 -115 61 -171 157 -171 47 0 64 5 93 27 19 15 41 40 47 57 12 28 15 29 64
25 42 -4 60 0 91 18 85 50 102 172 35 244 l-20 21 25 38 c63 93 4 220 -108
232 -33 4 -59 -3 -134 -37 -52 -23 -95 -40 -98 -38 -2 3 14 19 36 36 73 59 73
153 -1 196 -56 33 -20 29 65 -8 91 -39 128 -44 180 -22 84 35 114 161 54 226
-17 18 -19 26 -10 39 7 9 21 34 33 55 37 69 16 148 -55 200 -21 16 -42 21 -86
21 l-58 -1 -21 44 c-16 32 -32 48 -64 62 -55 25 -83 25 -137 -2 -59 -30 -80
-74 -87 -179 -3 -44 -10 -82 -14 -85 -5 -3 -9 7 -9 21 0 17 -12 39 -34 61 -39
39 -82 44 -143 19 -19 -8 -38 -15 -41 -15 -13 0 37 45 86 78 58 38 78 62 92
113 27 94 -77 217 -165 195 -20 -5 -27 0 -47 36 -37 69 -116 100 -192 78z m88
-122 c11 -15 16 -45 16 -89 0 -89 15 -103 70 -63 84 60 114 65 126 18 10 -38
0 -49 -94 -113 -49 -33 -92 -67 -96 -76 -3 -9 -6 -63 -6 -120 0 -81 3 -107 16
-119 8 -9 20 -16 25 -16 20 0 70 32 119 75 28 25 55 45 60 45 13 0 12 -29 0
-107 -12 -70 -1 -113 27 -113 27 0 170 87 187 113 8 12 20 73 27 137 7 63 17
121 22 128 6 7 24 12 41 10 l31 -3 5 -90 c5 -89 5 -90 30 -88 14 1 51 17 84
37 47 28 63 33 78 25 50 -27 31 -75 -47 -119 -31 -18 -59 -39 -62 -47 -8 -19
24 -52 75 -75 50 -24 67 -49 52 -77 -19 -36 -45 -34 -139 14 -50 25 -103 45
-119 45 -33 0 -198 -86 -206 -107 -11 -29 17 -56 100 -94 47 -22 83 -43 80
-48 -3 -5 -40 -21 -81 -36 -83 -30 -98 -43 -93 -77 4 -30 160 -128 204 -128
16 0 67 18 113 40 93 45 125 50 141 19 16 -29 -7 -61 -70 -95 -68 -37 -66 -55
10 -102 62 -38 82 -70 63 -101 -17 -27 -49 -23 -106 13 -61 39 -91 45 -101 20
-3 -9 -6 -47 -6 -85 0 -64 -2 -70 -25 -81 -40 -18 -65 12 -65 76 -1 100 -19
190 -43 209 -46 37 -154 97 -174 97 -34 0 -44 -56 -27 -162 8 -51 -13 -50 -75
1 -77 64 -107 74 -135 45 -20 -20 -23 -211 -3 -237 6 -9 50 -43 97 -75 68 -46
86 -63 88 -85 4 -32 -12 -57 -37 -57 -9 0 -39 16 -68 36 -75 52 -87 46 -93
-47 -5 -82 -19 -109 -56 -109 -32 0 -38 14 -44 105 -6 97 -18 104 -94 51 -60
-41 -76 -44 -101 -16 -29 32 -7 61 93 129 49 33 92 67 96 76 3 9 6 61 6 115 0
76 -4 102 -16 114 -29 30 -53 20 -146 -56 -68 -57 -72 -53 -63 53 7 94 0 119
-33 119 -28 0 -190 -103 -196 -124 -4 -12 -9 -69 -13 -128 -5 -86 -10 -111
-24 -124 -17 -15 -20 -15 -44 0 -23 15 -25 22 -25 96 0 75 -1 80 -21 80 -12 0
-47 -16 -79 -35 -66 -40 -93 -44 -114 -14 -19 28 -5 59 37 84 64 36 96 65 90
81 -3 8 -26 25 -52 38 -66 34 -84 57 -72 90 14 36 44 34 136 -9 110 -52 123
-53 200 -14 37 19 83 48 103 65 35 30 36 32 20 56 -10 16 -44 36 -89 54 -78
32 -94 48 -57 60 102 31 166 81 148 114 -15 29 -162 113 -196 113 -16 -1 -72
-22 -123 -48 -99 -49 -134 -53 -146 -15 -10 30 11 58 63 84 85 43 89 67 19
106 -80 44 -107 86 -75 118 20 20 47 14 109 -24 85 -51 93 -46 97 51 3 86 12
105 48 105 29 0 44 -27 44 -80 0 -71 21 -184 38 -203 27 -31 160 -109 179
-105 31 6 44 49 33 108 -13 67 -13 110 0 110 5 0 24 -13 42 -29 87 -75 158
-102 172 -65 3 9 6 63 6 120 0 120 4 114 -115 194 -90 61 -109 90 -77 122 24
24 28 23 127 -37 54 -33 65 -21 65 71 0 53 4 77 16 88 22 22 50 20 68 -6z
M1286 1538 c-23 -33 -20 -75 9 -103 44 -45 95 -20 95 46 0 47 -24 79 -60 79
-18 0 -34 -8 -44 -22z M1466 1544 c-40 -39 -30 -112 18 -129 25 -8 31 -6 52
18 43 51 23 127 -34 127 -11 0 -28 -7 -36 -16z M1185 1420 c-25 -27 -22 -80 6
-102 29 -24 55 -23 73 4 28 40 16 81 -31 106 -28 15 -27 15 -48 -8z M1584
1417 c-35 -31 -38 -82 -5 -109 30 -24 37 -23 66 7 31 30 34 84 7 108 -25 22
-36 21 -68 -6z M1386 1370 c-37 -11 -71 -43 -107 -99 -35 -55 -37 -91 -5 -128
23 -26 25 -27 82 -18 36 6 82 7 117 1 53 -8 60 -7 83 15 18 17 24 33 24 65 0
36 -7 49 -47 94 -38 42 -99 84 -115 79 -2 0 -16 -5 -32 -9z"/>
</g>
</svg>
