<?xml version="1.0" standalone="no"?>
<!DOCTYPE svg PUBLIC "-//W3C//DTD SVG 20010904//EN"
 "http://www.w3.org/TR/2001/REC-SVG-20010904/DTD/svg10.dtd">
<svg version="1.0" xmlns="http://www.w3.org/2000/svg"
 width="277.000000pt" height="280.000000pt" viewBox="0 0 277.000000 280.000000"
 preserveAspectRatio="xMidYMid meet">
<metadata>
Created by potrace 1.16, written by Peter Selinger 2001-2019
</metadata>
<g transform="translate(0.000000,280.000000) scale(0.100000,-0.100000)"
fill="currentColor" stroke="currentColor" stroke-width="2" stroke-linejoin="round" stroke-linecap="round">
<path d="M1292 2383 c-36 -18 -57 -50 -67 -104 l-7 -36 -52 5 c-48 4 -55 2
-84 -27 -69 -70 -49 -141 66 -236 71 -59 72 -61 72 -107 0 -27 -2 -48 -4 -48
-2 0 -27 16 -56 35 -62 42 -101 45 -135 10 -22 -21 -25 -33 -25 -90 0 -70 -4
-74 -50 -50 -32 16 -33 20 -51 135 -19 121 -50 160 -130 160 -33 0 -47 -6 -75
-34 -19 -19 -34 -43 -34 -55 0 -25 -6 -26 -53 -6 -49 20 -86 19 -121 -4 -40
-26 -55 -57 -56 -110 0 -40 5 -49 46 -89 l46 -44 -21 -22 c-75 -80 -28 -196
81 -196 24 0 77 13 121 31 78 30 79 30 115 12 20 -10 37 -23 39 -28 2 -6 -19
-18 -46 -28 -52 -18 -101 -65 -101 -97 0 -27 46 -78 92 -101 44 -22 45 -39 4
-54 -21 -7 -45 -3 -112 19 -130 45 -189 33 -221 -42 -18 -44 -5 -102 30 -127
l22 -16 -25 -20 c-55 -43 -70 -62 -76 -94 -7 -42 19 -100 58 -128 33 -24 98
-26 133 -3 31 20 41 16 48 -24 9 -45 59 -72 120 -67 77 7 95 32 116 161 10 58
20 108 22 109 24 19 68 47 73 47 3 0 6 -32 6 -71 0 -81 9 -103 50 -124 41 -21
60 -19 113 15 26 17 50 30 52 30 3 0 5 -17 5 -37 -1 -35 -6 -42 -66 -88 -86
-65 -104 -92 -104 -149 0 -36 6 -52 29 -78 27 -31 34 -33 90 -32 l61 1 0 -30
c0 -75 87 -140 156 -117 44 15 82 62 90 110 l6 39 48 -6 c56 -6 84 6 110 50
43 69 19 125 -89 211 -63 51 -71 61 -71 91 0 42 7 43 56 10 50 -34 103 -34
138 1 23 24 26 35 26 95 0 75 4 79 51 52 29 -17 30 -21 49 -139 18 -112 54
-154 131 -154 55 0 108 43 109 88 0 27 5 27 55 2 95 -49 200 30 181 134 -7 35
-34 70 -76 97 l-24 16 27 24 c58 50 43 150 -27 183 -46 22 -57 20 -156 -14
-91 -32 -129 -37 -148 -18 -19 19 -15 26 37 53 114 57 109 141 -11 190 -27 11
-48 25 -48 31 0 6 16 18 35 27 34 16 38 16 108 -9 90 -33 139 -40 178 -24 80
34 94 135 25 193 -15 13 -17 20 -8 24 27 11 70 54 82 83 18 44 4 98 -35 137
-27 27 -40 33 -77 33 -23 -1 -54 -7 -68 -15 -35 -20 -50 -18 -50 6 0 28 -62
89 -92 90 -96 5 -135 -36 -149 -158 -13 -113 -15 -119 -55 -142 -19 -12 -37
-21 -40 -21 -2 0 -4 30 -4 66 0 59 -3 68 -29 95 -38 38 -73 37 -131 -1 -25
-16 -48 -30 -52 -30 -5 0 -8 18 -8 40 0 44 11 58 95 122 84 64 106 129 65 195
-30 50 -80 67 -138 49 -18 -6 -22 -4 -22 16 0 13 -9 42 -19 65 -31 68 -99 91
-169 56z m94 -57 c15 -12 20 -31 24 -105 3 -50 9 -93 12 -96 3 -4 27 10 53 30
57 43 92 44 114 3 21 -37 5 -64 -73 -125 -102 -80 -96 -68 -96 -198 0 -63 4
-115 8 -115 5 0 44 25 88 55 45 32 88 54 99 53 19 -3 20 -9 16 -109 -2 -67 1
-109 7 -113 6 -4 40 12 77 34 36 22 69 40 73 40 4 0 17 8 30 18 19 15 25 35
37 122 17 118 32 150 73 150 43 0 52 -17 52 -92 0 -48 4 -68 13 -68 6 0 41 18
77 40 36 22 72 40 81 40 27 0 69 -40 69 -65 0 -27 -13 -38 -94 -86 -75 -43
-82 -64 -29 -85 45 -19 83 -52 83 -72 0 -25 -31 -52 -59 -52 -14 0 -66 16
-115 35 l-89 35 -58 -30 c-78 -39 -139 -78 -139 -89 0 -4 44 -30 98 -57 56
-28 98 -56 100 -66 2 -11 -24 -31 -92 -68 -53 -28 -96 -55 -96 -59 0 -11 162
-101 182 -101 9 0 52 14 95 30 97 37 145 39 162 6 19 -34 1 -61 -60 -92 -28
-14 -49 -30 -46 -37 2 -7 37 -32 78 -57 60 -37 75 -51 77 -74 5 -37 -23 -66
-62 -66 -18 1 -58 17 -95 40 -36 21 -68 37 -73 34 -4 -3 -8 -33 -8 -68 0 -69
-10 -86 -52 -86 -37 0 -55 29 -67 115 -22 144 -12 128 -117 189 -53 31 -100
53 -106 50 -6 -4 -8 -50 -6 -117 4 -134 -2 -139 -90 -79 -32 22 -72 47 -90 56
l-32 17 0 -110 0 -110 84 -70 c93 -78 106 -99 82 -136 -22 -34 -56 -32 -110 6
-24 17 -49 28 -55 25 -6 -4 -11 -39 -11 -86 0 -88 -12 -110 -60 -110 -45 0
-60 31 -60 122 0 44 -4 78 -10 78 -5 0 -31 -14 -57 -30 -26 -17 -54 -30 -62
-30 -23 0 -51 31 -51 56 0 21 13 36 130 142 l45 41 3 96 c5 122 -2 130 -65 85
-27 -18 -67 -47 -90 -63 -64 -45 -73 -32 -73 104 0 67 -4 109 -10 109 -25 0
-182 -94 -189 -114 -5 -11 -14 -59 -21 -106 -15 -103 -30 -130 -70 -130 -38 0
-50 23 -50 99 0 34 -3 61 -7 61 -5 0 -35 -16 -68 -36 -77 -46 -116 -53 -144
-25 -40 40 -22 80 52 117 59 30 87 52 87 68 -1 6 -24 22 -53 36 -42 20 -53 30
-55 53 -8 65 33 71 165 25 l92 -32 88 46 c48 25 88 52 88 59 0 8 -42 36 -92
62 -51 26 -93 54 -93 61 0 7 43 35 96 62 53 27 98 55 102 63 6 15 3 17 -106
78 l-75 41 -95 -34 c-115 -41 -146 -43 -168 -9 -15 23 -15 27 0 50 9 14 39 36
66 50 28 14 50 28 50 30 0 3 -33 26 -72 52 -106 67 -116 86 -73 129 30 30 44
27 128 -22 82 -48 87 -46 87 27 0 75 12 99 49 99 43 0 56 -26 74 -145 9 -64
21 -113 29 -118 7 -4 51 -30 97 -58 46 -27 86 -47 90 -43 3 3 6 54 6 112 0 87
3 107 15 110 8 1 53 -22 99 -53 46 -31 89 -54 95 -52 7 2 11 44 11 116 l0 113
-30 25 c-122 101 -145 125 -145 150 0 32 26 63 52 63 10 0 37 -13 60 -30 64
-47 68 -43 68 59 0 82 2 91 22 105 28 20 49 20 74 2z M1166 1663 c-8 -9 -7
-115 2 -129 11 -17 90 -64 107 -64 24 0 21 115 -3 136 -32 27 -99 64 -106 57z
M1466 1632 c-22 -15 -43 -39 -47 -54 -8 -33 0 -108 12 -108 5 0 31 14 59 31
l50 31 0 64 c0 75 -11 80 -74 36z M1032 1392 c-29 -14 -51 -31 -49 -37 2 -5
28 -23 59 -39 l55 -30 57 29 c31 15 56 33 56 39 0 13 -91 66 -111 65 -8 0 -38
-12 -67 -27z M1537 1390 c-26 -16 -47 -32 -47 -34 0 -13 95 -59 120 -58 36 1
110 38 110 56 0 15 -89 66 -117 66 -10 0 -40 -13 -66 -30z M1213 1210 l-53
-30 0 -75 c0 -41 3 -75 8 -75 4 0 32 17 62 38 l55 37 0 64 c0 35 -4 66 -10 68
-5 1 -34 -11 -62 -27z M1420 1177 c0 -53 4 -67 23 -83 29 -27 74 -54 87 -54
11 0 14 108 4 135 -5 13 -91 65 -109 65 -3 0 -5 -28 -5 -63z"/>
</g>
</svg>
