<?xml version="1.0" standalone="no"?>
<!DOCTYPE svg PUBLIC "-//W3C//DTD SVG 20010904//EN"
 "http://www.w3.org/TR/2001/REC-SVG-20010904/DTD/svg10.dtd">
<svg version="1.0" xmlns="http://www.w3.org/2000/svg"
 width="280.000000pt" height="280.000000pt" viewBox="0 0 280.000000 280.000000"
 preserveAspectRatio="xMidYMid meet">
<metadata>
Created by potrace 1.16, written by Peter Selinger 2001-2019
</metadata>
<g transform="translate(0.000000,280.000000) scale(0.100000,-0.100000)"
fill="currentColor" stroke="currentColor" stroke-width="2">
<path d="M1313 2734 c-61 -22 -113 -84 -113 -133 l0 -39 -49 0 c-56 -1 -94
-18 -132 -59 -65 -69 -72 -128 -28 -219 16 -34 45 -64 105 -112 76 -60 105
-94 90 -109 -2 -3 -17 4 -33 15 -127 89 -264 15 -251 -136 1 -19 -2 -37 -8
-39 -20 -7 -45 73 -59 190 -9 70 -53 141 -105 169 -46 25 -138 21 -178 -9 -25
-19 -66 -71 -74 -95 -3 -7 -16 -5 -38 7 -51 26 -130 17 -178 -22 -56 -46 -77
-88 -77 -158 0 -62 -1 -60 80 -171 6 -9 3 -19 -10 -34 -13 -15 -20 -40 -23
-83 -4 -76 16 -119 75 -161 74 -52 158 -45 290 25 62 33 76 35 92 15 10 -12 1
-20 -48 -46 -33 -18 -68 -44 -77 -58 -44 -67 -21 -156 52 -201 23 -14 50 -31
60 -38 17 -10 17 -12 2 -18 -9 -4 -64 13 -133 40 -136 54 -169 54 -237 2 -60
-46 -80 -89 -75 -160 2 -31 0 -52 -5 -45 -4 7 -8 32 -8 56 0 39 -2 42 -26 42
l-27 0 6 -182 c3 -101 8 -194 12 -208 5 -21 4 -22 -4 -5 -6 13 -10 -107 -10
-347 l-1 -368 1221 0 1221 0 -4 403 c-2 221 -8 411 -12 422 -6 16 -6 17 3 5 8
-11 11 24 11 133 l0 147 -30 0 c-28 0 -30 -2 -31 -42 l-2 -43 -6 50 c-9 67
-33 109 -84 146 -39 29 -47 31 -107 26 -47 -3 -86 -14 -143 -41 -74 -34 -137
-47 -137 -27 0 5 16 15 35 21 71 23 125 89 125 150 0 61 -53 125 -125 151 -19
7 -34 18 -32 24 7 19 58 16 100 -6 103 -53 210 -73 260 -48 73 38 123 131 108
201 -10 42 -29 78 -41 78 -20 0 -9 21 26 52 60 53 83 119 64 188 -12 45 -68
113 -111 136 -37 19 -113 18 -152 -2 -20 -11 -32 -13 -35 -6 -10 30 -51 78
-82 96 -27 16 -50 20 -99 19 -54 -2 -70 -6 -100 -31 -50 -39 -70 -85 -82 -187
-11 -86 -32 -155 -48 -155 -4 0 -11 27 -14 60 -16 149 -103 198 -231 131 -31
-17 -56 -25 -56 -20 0 25 25 52 95 104 86 63 124 116 132 185 12 102 -75 200
-177 200 l-46 0 -25 62 c-20 53 -31 67 -71 91 -56 35 -117 42 -175 21z m121
-136 c12 -17 16 -48 16 -118 0 -135 18 -148 110 -80 29 22 58 40 64 40 20 0
56 -44 56 -68 0 -29 -47 -77 -145 -147 l-70 -50 -3 -156 c-2 -122 0 -159 11
-167 11 -9 38 4 127 62 62 41 119 72 126 69 11 -4 14 -33 14 -133 0 -94 4
-130 13 -139 10 -8 42 6 132 57 64 37 123 76 131 87 7 11 23 76 35 145 12 69
26 131 32 138 12 15 59 16 75 0 7 -7 12 -41 12 -83 0 -110 19 -118 128 -51 96
60 108 63 138 35 26 -25 31 -66 12 -91 -7 -9 -40 -33 -73 -53 -65 -41 -105
-74 -105 -87 0 -4 23 -19 51 -34 91 -46 120 -92 82 -129 -23 -24 -82 -15 -168
25 -97 46 -138 49 -206 15 -93 -47 -189 -113 -184 -127 7 -18 56 -49 163 -103
65 -33 92 -52 92 -65 0 -13 -28 -31 -102 -68 -57 -27 -114 -58 -128 -70 -21
-17 -23 -22 -11 -36 19 -23 222 -136 243 -136 15 0 83 25 205 75 48 20 87 14
103 -15 18 -34 2 -58 -71 -101 -38 -23 -69 -47 -69 -54 0 -7 41 -39 91 -71 50
-31 95 -67 101 -80 15 -32 2 -73 -27 -86 -24 -11 -43 -4 -181 73 -62 35 -78
23 -69 -51 8 -73 -6 -117 -41 -126 -56 -14 -81 24 -95 142 -19 172 -10 160
-174 253 -131 75 -129 77 -135 -99 -3 -88 -9 -144 -15 -143 -5 1 -57 31 -115
67 -58 37 -114 65 -125 64 -19 -3 -20 -13 -26 -138 -8 -162 -5 -171 83 -227
126 -82 163 -139 121 -185 -23 -26 -39 -23 -115 23 -91 55 -98 49 -98 -80 0
-111 -13 -141 -60 -141 -32 0 -58 21 -65 53 -3 12 -6 60 -7 107 -3 81 -4 85
-27 88 -14 2 -40 -8 -66 -27 -69 -49 -135 -40 -135 19 0 37 25 67 89 109 143
92 144 94 136 263 -4 73 -10 137 -15 142 -9 9 -59 -17 -170 -90 -100 -65 -94
-70 -100 90 -4 111 -8 141 -21 149 -11 7 -39 -4 -111 -43 -148 -81 -146 -78
-165 -195 -24 -149 -31 -173 -58 -191 -53 -35 -85 13 -85 129 0 54 -1 57 -25
57 -13 0 -56 -20 -94 -45 -101 -65 -161 -61 -161 12 0 39 21 63 82 94 57 29
108 68 108 84 0 6 -31 32 -70 56 -59 37 -70 48 -70 71 0 36 37 62 76 52 16 -4
69 -25 117 -46 106 -47 112 -47 245 29 130 73 135 78 98 108 -16 13 -74 47
-128 75 -55 29 -97 57 -95 63 2 7 53 38 113 70 60 31 118 66 129 77 19 20 19
20 0 39 -40 39 -218 135 -249 135 -17 -1 -75 -19 -128 -42 -105 -45 -138 -51
-162 -26 -38 37 -5 88 85 135 22 11 39 22 39 25 0 20 -27 47 -75 74 -112 64
-139 107 -98 152 22 24 49 22 103 -7 158 -86 160 -86 160 15 0 90 10 110 55
110 46 0 63 -27 75 -123 20 -161 28 -178 109 -231 120 -80 168 -102 188 -90
16 10 18 25 15 142 -3 89 0 132 7 137 7 4 61 -25 122 -64 60 -39 117 -71 125
-71 25 0 32 41 29 174 l-3 128 -39 40 c-21 22 -64 58 -95 79 -76 52 -108 115
-76 147 21 21 61 13 121 -23 92 -56 97 -52 97 89 0 109 13 136 65 136 24 0 39
-7 49 -22z m1091 -1577 c-21 -43 -29 -39 -8 4 9 19 18 33 21 31 2 -2 -4 -18
-13 -35z m-2291 -83 c-24 -26 -44 -55 -45 -65 0 -11 -3 -13 -6 -6 -6 17 33 80
63 99 22 15 23 17 7 42 l-15 27 20 -25 21 -25 -45 -47z m2320 2 c20 -22 36
-43 36 -47 0 -4 -14 9 -31 30 -16 20 -38 41 -47 47 -9 5 -12 10 -6 10 7 0 28
-18 48 -40z m-645 -93 c5 -18 12 -61 16 -97 10 -107 24 -147 66 -184 92 -84
240 -65 287 37 11 25 22 36 32 33 93 -30 99 -30 153 -13 61 19 100 56 121 112
8 22 15 34 15 27 3 -43 -77 -142 -114 -142 -13 0 -15 -33 -15 -220 l0 -220
-444 0 -444 0 -12 -29 c-6 -16 -23 -40 -38 -53 l-26 -23 27 33 c26 33 33 51
39 101 3 22 8 24 58 26 67 2 105 22 145 78 26 37 30 51 30 108 0 87 -28 130
-135 205 -72 50 -109 88 -97 100 2 2 16 -5 30 -16 31 -25 100 -50 136 -50 37
0 87 33 106 70 9 17 19 63 22 101 5 55 9 67 19 58 7 -6 17 -25 23 -42z m-1009
1 c2 -123 79 -202 173 -178 23 7 59 23 80 36 88 57 45 -17 -45 -77 -78 -53
-105 -82 -129 -137 -25 -57 -24 -86 5 -149 32 -68 87 -105 158 -108 l51 -2 12
-47 c13 -52 52 -98 96 -117 17 -6 28 -14 25 -16 -16 -17 -126 81 -126 112 0
13 -61 15 -445 15 l-445 0 0 220 c0 191 -2 220 -15 220 -18 0 -105 84 -105
101 0 7 13 -6 29 -28 51 -71 145 -100 207 -64 29 18 39 19 45 9 5 -7 9 -16 9
-20 0 -17 67 -82 97 -94 75 -32 162 -9 215 57 29 37 42 82 56 202 9 72 23 107
43 107 5 0 9 -19 9 -42z m586 -783 c-11 -8 -25 -15 -30 -15 -6 1 0 7 14 15 32
19 40 18 16 0z"/>
<path d="M1137 1793 c-4 -3 -7 -44 -7 -89 0 -82 0 -83 33 -108 19 -15 37 -26
41 -26 3 0 24 -11 47 -25 22 -14 44 -23 49 -20 6 4 10 48 10 99 l0 93 -37 26
c-37 26 -104 57 -121 57 -5 0 -12 -3 -15 -7z"/>
<path d="M1555 1774 c-91 -47 -95 -54 -95 -161 0 -105 3 -108 62 -68 20 14 40
25 44 25 4 0 22 12 41 26 l34 26 -3 86 c-3 101 -8 104 -83 66z"/>
<path d="M1670 1478 c-136 -80 -138 -88 -38 -145 l72 -41 55 25 c145 64 149
80 36 140 -44 23 -82 42 -85 42 -3 0 -21 -10 -40 -21z"/>
<path d="M980 1450 c-96 -47 -97 -61 -10 -112 77 -46 98 -45 185 4 82 46 80
61 -15 109 -41 21 -77 38 -80 37 -3 -1 -39 -18 -80 -38z"/>
<path d="M1459 1248 c-2 -41 3 -172 7 -183 7 -18 151 -88 164 -80 5 3 10 44
10 91 0 98 -5 106 -99 154 -66 33 -81 36 -82 18z"/>
<path d="M1225 1229 c-96 -51 -95 -50 -95 -155 0 -78 3 -94 15 -94 28 0 154
74 164 97 5 12 8 52 6 90 -3 37 -5 71 -5 76 0 14 -46 7 -85 -14z"/>
</g>
</svg>
