<?xml version="1.0" standalone="no"?>
<!DOCTYPE svg PUBLIC "-//W3C//DTD SVG 20010904//EN"
 "http://www.w3.org/TR/2001/REC-SVG-20010904/DTD/svg10.dtd">
<svg version="1.0" xmlns="http://www.w3.org/2000/svg"
 width="280.000000pt" height="280.000000pt" viewBox="0 0 280.000000 280.000000"
 preserveAspectRatio="xMidYMid meet">
<metadata>
Created by potrace 1.16, written by Peter Selinger 2001-2019
</metadata>
<g transform="translate(0.000000,280.000000) scale(0.100000,-0.100000)"
fill="currentColor" stroke="currentColor" stroke-width="2">
<path d="M1622 2290 c-23 -14 -35 -33 -49 -76 -18 -60 -41 -83 -120 -124 -70
-36 -122 -112 -138 -202 -6 -33 -11 -38 -35 -38 -33 0 -70 12 -175 55 -164 69
-283 70 -413 5 -190 -95 -287 -270 -376 -670 -58 -260 -70 -419 -40 -521 55
-184 243 -302 405 -255 108 32 202 108 330 269 121 153 92 141 370 145 190 2
244 0 272 -12 24 -10 58 -44 110 -113 137 -179 248 -268 368 -293 107 -23 206
15 296 113 109 120 124 250 67 577 -23 130 -89 376 -123 457 -89 216 -245 338
-446 350 -88 6 -139 -7 -269 -67 -37 -18 -92 -34 -122 -37 l-54 -6 0 40 c0 45
13 60 100 115 72 45 114 94 135 157 18 56 14 100 -13 123 -29 25 -48 27 -80 8z
m-657 -504 c33 -8 92 -27 131 -44 177 -75 440 -71 629 10 90 38 108 43 180 43
65 0 89 -4 128 -24 62 -32 126 -94 159 -156 67 -126 159 -554 161 -751 0 -80
-3 -98 -26 -145 -37 -75 -67 -94 -143 -94 -90 0 -138 36 -276 209 -67 84 -129
150 -155 166 -75 48 -108 52 -379 48 l-250 -3 -60 -30 c-49 -26 -73 -48 -145
-138 -168 -211 -236 -264 -330 -255 -82 8 -142 68 -155 156 -15 96 33 420 91
623 71 245 147 348 285 385 59 16 83 16 155 0z"/>
<path d="M1818 1640 c-84 -65 -39 -190 68 -190 80 0 127 78 92 155 -24 53
-113 73 -160 35z"/>
<path d="M783 1609 c-49 -18 -58 -90 -17 -138 48 -57 114 -28 114 50 0 22 -4
49 -10 59 -13 24 -59 39 -87 29z"/>
<path d="M945 1590 c-9 -10 -20 -39 -22 -63 -4 -36 -1 -49 16 -66 30 -30 64
-27 95 10 49 58 24 139 -42 139 -16 0 -37 -9 -47 -20z"/>
<path d="M1633 1479 c-22 -12 -53 -65 -53 -92 0 -89 110 -140 177 -83 24 21
28 32 28 75 0 41 -5 55 -26 77 -29 29 -91 40 -126 23z"/>
<path d="M2044 1476 c-43 -19 -64 -53 -64 -101 0 -90 106 -130 171 -66 40 40
41 98 2 140 -34 37 -68 45 -109 27z"/>
<path d="M632 1468 c-30 -38 -15 -115 26 -137 30 -16 68 -13 83 5 22 27 17 89
-10 118 -27 28 -81 36 -99 14z"/>
<path d="M1076 1464 c-28 -28 -38 -55 -32 -89 10 -53 46 -71 93 -48 76 37 67
153 -12 153 -18 0 -41 -7 -49 -16z"/>
<path d="M845 1401 c-36 -22 -111 -109 -124 -144 -22 -57 23 -127 80 -127 260
-2 274 3 274 87 0 41 -6 55 -43 103 -76 97 -126 119 -187 81z"/>
<path d="M1844 1310 c-11 -4 -33 -22 -47 -40 -38 -45 -37 -101 2 -141 25 -24
37 -29 80 -29 41 0 56 5 82 28 54 48 42 132 -24 172 -34 21 -59 24 -93 10z"/>
</g>
</svg>
