<?xml version="1.0" standalone="no"?>
<!DOCTYPE svg PUBLIC "-//W3C//DTD SVG 20010904//EN"
 "http://www.w3.org/TR/2001/REC-SVG-20010904/DTD/svg10.dtd">
<svg version="1.0" xmlns="http://www.w3.org/2000/svg"
 width="280.000000pt" height="280.000000pt" viewBox="0 0 280.000000 280.000000"
 preserveAspectRatio="xMidYMid meet">
<metadata>
Created by potrace 1.16, written by Peter Selinger 2001-2019
</metadata>
<g transform="translate(0.000000,280.000000) scale(0.100000,-0.100000)"
fill="currentColor" stroke="currentColor" stroke-width="2" stroke-linejoin="round" stroke-linecap="round">
<path d="M1606 2408 c-9 -12 -16 -37 -16 -54 0 -42 -27 -74 -103 -122 -35 -22
-77 -56 -95 -76 -32 -37 -62 -118 -62 -169 l0 -30 -70 6 c-53 4 -84 13 -124
37 -271 155 -560 71 -693 -201 -83 -171 -165 -487 -195 -757 -10 -98 -10 -120
6 -194 21 -97 49 -150 107 -202 66 -60 121 -81 214 -81 66 0 90 5 136 26 76
36 193 149 286 276 41 57 88 110 104 118 23 12 81 15 301 15 l274 0 35 -38
c20 -20 57 -68 84 -107 60 -86 176 -203 238 -240 89 -52 185 -66 268 -41 95
29 153 79 194 168 65 143 55 322 -40 713 -68 284 -120 400 -215 488 -160 148
-362 174 -563 71 -67 -34 -104 -46 -153 -51 -76 -7 -83 1 -62 74 12 41 21 53
63 80 135 85 177 134 191 222 9 57 -14 91 -61 91 -24 0 -39 -7 -49 -22z m-541
-507 c109 -52 176 -60 410 -51 l160 7 95 47 95 47 95 -3 c79 -4 104 -9 148
-31 161 -83 229 -247 327 -792 30 -164 14 -309 -41 -375 -38 -44 -75 -60 -141
-60 -104 0 -179 59 -328 257 -94 126 -148 168 -228 178 -29 4 -168 5 -308 3
-326 -4 -310 3 -477 -220 -137 -183 -235 -245 -345 -218 -54 14 -102 58 -131
120 -17 37 -20 64 -20 155 1 123 18 225 75 462 65 267 123 391 215 456 79 55
119 67 219 64 83 -2 97 -6 180 -46z M1819 1751 c-23 -23 -29 -38 -29 -71 0
-61 41 -100 105 -100 64 0 105 39 105 100 0 91 -115 136 -181 71z M741 1714
c-31 -39 -28 -89 8 -125 36 -35 54 -36 86 -4 34 33 34 92 0 129 -31 34 -67 34
-94 0z M955 1730 c-30 -11 -47 -50 -43 -100 2 -36 8 -47 30 -59 49 -28 98 19
98 93 0 47 -44 81 -85 66z M623 1592 c-20 -13 -30 -55 -21 -89 15 -57 78 -82
111 -45 51 56 -28 173 -90 134z M1059 1571 c-50 -50 -30 -131 32 -131 66 0
106 93 59 140 -28 28 -57 25 -91 -9z M1629 1571 c-23 -23 -29 -38 -29 -71 0
-111 155 -140 190 -35 15 44 4 80 -32 110 -42 35 -91 34 -129 -4z M2029 1571
c-41 -42 -41 -98 2 -140 85 -85 209 12 154 120 -30 56 -109 66 -156 20z M829
1515 c-39 -21 -118 -122 -125 -160 -14 -75 45 -121 132 -103 28 6 61 6 89 0
59 -13 91 -5 116 27 30 37 19 91 -32 159 -65 85 -121 109 -180 77z M1844 1411
c-58 -35 -70 -116 -25 -162 26 -25 37 -29 86 -29 46 0 60 4 80 25 43 42 23
128 -37 165 -41 25 -64 25 -104 1z"/>
</g>
</svg>
