<?xml version="1.0" standalone="no"?>
<!DOCTYPE svg PUBLIC "-//W3C//DTD SVG 20010904//EN"
 "http://www.w3.org/TR/2001/REC-SVG-20010904/DTD/svg10.dtd">
<svg version="1.0" xmlns="http://www.w3.org/2000/svg"
 width="280.000000pt" height="280.000000pt" viewBox="0 0 280.000000 280.000000"
 preserveAspectRatio="xMidYMid meet">
<metadata>
Created by potrace 1.16, written by Peter Selinger 2001-2019
</metadata>
<g transform="translate(0.000000,280.000000) scale(0.100000,-0.100000)"
fill="currentColor" stroke="currentColor" stroke-width="2">
<path d="M1199 2691 c-74 -24 -111 -81 -130 -203 -6 -40 -15 -81 -20 -90 -5
-9 -34 -28 -65 -42 -47 -22 -60 -24 -73 -14 -9 7 -38 31 -66 54 -67 55 -106
74 -155 74 -62 0 -106 -29 -211 -137 -206 -212 -207 -226 -40 -454 12 -17 10
-26 -9 -72 -29 -69 -47 -87 -84 -87 -17 0 -62 -7 -101 -15 -129 -28 -155 -82
-155 -325 0 -129 11 -180 47 -229 32 -41 70 -58 175 -74 l83 -13 28 -65 29
-66 -50 -63 c-28 -35 -61 -83 -72 -107 -18 -38 -19 -50 -9 -85 16 -60 52 -113
143 -207 102 -106 155 -141 213 -141 58 0 94 17 177 80 l68 52 63 -26 62 -27
17 -102 c20 -121 37 -154 97 -187 43 -24 50 -25 229 -25 167 0 188 2 219 20
48 28 70 62 81 125 6 30 15 81 21 113 10 54 13 58 52 76 80 36 80 36 152 -19
89 -67 119 -82 171 -82 63 0 115 34 221 146 138 144 148 159 147 225 0 60 -22
104 -91 185 -18 22 -33 47 -33 55 0 21 33 109 46 120 5 5 49 16 98 25 181 33
208 75 208 329 1 227 -35 275 -226 307 -28 5 -58 11 -66 14 -15 6 -60 109 -60
136 0 8 27 48 60 89 61 77 78 123 65 181 -10 45 -174 222 -279 301 -73 55
-157 37 -264 -55 -30 -25 -60 -46 -68 -46 -20 0 -96 31 -115 47 -10 8 -20 44
-27 94 -15 101 -40 159 -83 190 -33 23 -41 24 -214 26 -99 1 -192 -2 -206 -6z
m315 -210 c3 -14 8 -55 12 -91 8 -79 27 -131 55 -148 11 -7 80 -35 152 -63
l130 -49 56 31 c31 18 78 50 104 72 58 48 55 49 171 -60 l77 -72 -64 -78 c-72
-87 -87 -112 -87 -142 0 -20 66 -203 97 -268 19 -41 58 -58 173 -73 52 -7 98
-18 102 -24 9 -13 10 -157 2 -208 -6 -35 -9 -37 -53 -43 -25 -4 -78 -13 -117
-21 -81 -17 -105 -36 -124 -99 -7 -22 -28 -77 -46 -123 -19 -45 -34 -92 -34
-105 0 -30 26 -69 94 -146 l58 -64 -88 -88 c-49 -49 -96 -89 -105 -89 -10 0
-41 21 -71 46 -29 25 -70 54 -90 65 -39 20 -103 25 -113 9 -3 -5 -50 -23 -104
-40 -59 -18 -106 -39 -119 -53 -28 -30 -49 -90 -61 -177 -5 -39 -15 -78 -21
-86 -15 -16 -189 -20 -219 -4 -13 6 -21 31 -30 87 -18 112 -31 160 -50 177 -9
8 -57 29 -106 47 -50 17 -107 40 -127 50 -53 27 -88 16 -185 -58 -45 -34 -88
-63 -94 -63 -15 0 -169 160 -169 175 0 7 21 41 48 75 58 75 92 130 92 150 0 8
-16 45 -35 83 -19 37 -42 93 -51 124 -23 79 -44 96 -134 112 -41 6 -93 15
-115 19 l-40 7 -3 119 c-1 66 1 123 5 127 5 5 51 13 103 19 142 16 154 25 202
145 22 55 46 122 53 150 14 47 13 51 -11 93 -14 23 -45 67 -70 97 -24 30 -44
63 -44 74 0 21 152 171 174 171 7 0 19 -7 26 -15 7 -9 46 -38 87 -65 86 -57
108 -61 191 -26 31 13 82 31 112 41 106 34 124 61 135 197 4 48 12 92 19 97
12 10 193 20 228 12 9 -1 19 -15 22 -30z"/>
<path d="M880 1972 c-65 -32 -93 -118 -109 -333 -5 -74 -15 -127 -25 -148 -10
-18 -24 -63 -32 -99 -46 -218 30 -401 217 -525 136 -90 257 -121 469 -119 168
1 260 20 378 78 82 40 181 126 219 192 67 113 80 268 38 437 -14 55 -25 118
-25 141 0 78 -30 255 -51 299 -55 117 -168 114 -332 -7 l-68 -51 -170 0 c-139
0 -172 2 -186 15 -40 35 -177 118 -211 128 -51 14 -72 13 -112 -8z m244 -291
c54 -39 64 -40 207 -26 59 5 113 4 167 -5 79 -12 80 -12 128 16 27 15 75 47
106 71 31 24 61 43 67 43 6 0 11 -12 12 -27 0 -16 4 -86 8 -158 7 -103 13
-140 32 -180 33 -71 34 -221 2 -280 -76 -142 -281 -227 -508 -211 -277 19
-429 129 -461 331 -6 43 13 123 45 191 13 28 21 74 25 159 4 66 10 135 13 153
l5 32 52 -37 c28 -20 73 -53 100 -72z"/>
</g>
</svg>
