<?xml version="1.0" standalone="no"?>
<!DOCTYPE svg PUBLIC "-//W3C//DTD SVG 20010904//EN"
 "http://www.w3.org/TR/2001/REC-SVG-20010904/DTD/svg10.dtd">
<svg version="1.0" xmlns="http://www.w3.org/2000/svg"
 width="280.000000pt" height="280.000000pt" viewBox="0 0 280.000000 280.000000"
 preserveAspectRatio="xMidYMid meet">
<metadata>
Created by potrace 1.16, written by Peter Selinger 2001-2019
</metadata>
<g transform="translate(0.000000,280.000000) scale(0.100000,-0.100000)"
fill="#000000" stroke="none">
<path d="M1173 2635 c-43 -18 -54 -42 -78 -173 l-21 -113 -59 -25 c-86 -34
-103 -32 -176 27 -139 112 -158 109 -316 -44 -123 -118 -173 -184 -173 -227 0
-27 28 -74 97 -158 48 -60 52 -85 23 -139 -11 -21 -20 -43 -20 -49 0 -23 -28
-34 -111 -45 -185 -24 -202 -47 -207 -270 -4 -170 5 -227 42 -264 22 -22 64
-34 216 -62 41 -7 46 -12 72 -63 41 -83 37 -104 -27 -178 -89 -102 -104 -148
-66 -206 11 -16 74 -84 141 -152 164 -165 180 -168 318 -64 43 33 87 60 97 60
9 0 47 -12 84 -26 l67 -26 17 -111 c28 -182 43 -191 292 -191 241 0 258 12
290 198 l17 104 59 26 c32 14 69 26 82 26 13 0 60 -27 105 -61 101 -76 143
-85 200 -45 51 35 244 242 266 284 23 45 11 78 -64 172 -68 85 -71 100 -39
184 24 62 33 67 149 81 83 11 126 32 152 74 22 34 23 46 23 216 0 155 -3 185
-18 213 -24 43 -77 66 -190 82 l-88 12 -29 65 c-17 36 -30 72 -30 80 0 8 27
49 60 92 79 102 93 135 74 179 -16 38 -245 277 -286 298 -57 30 -87 19 -189
-63 -86 -69 -102 -69 -229 -4 -10 5 -21 43 -32 107 -34 193 -36 194 -283 194
-130 -1 -189 -5 -212 -15z m349 -160 c4 -16 12 -70 19 -118 6 -48 17 -94 25
-101 7 -8 35 -22 61 -31 27 -9 88 -34 137 -56 l90 -39 50 34 c28 18 73 52 101
75 27 22 54 41 59 41 13 0 171 -157 186 -184 14 -26 21 -15 -86 -146 -60 -74
-60 -77 -21 -166 19 -44 42 -102 51 -130 9 -29 25 -59 35 -68 11 -10 58 -22
126 -31 60 -9 114 -20 122 -26 19 -17 19 -252 -1 -268 -8 -7 -63 -19 -123 -26
-116 -16 -137 -27 -149 -84 -3 -14 -26 -70 -52 -124 -45 -97 -45 -97 -29 -130
10 -17 42 -61 72 -97 30 -36 58 -73 61 -84 5 -14 -16 -41 -87 -112 -52 -52
-99 -94 -105 -94 -7 0 -43 24 -81 54 -37 29 -83 63 -102 74 l-34 21 -51 -26
c-28 -14 -91 -41 -140 -59 -49 -18 -93 -39 -97 -45 -4 -7 -13 -58 -19 -113 -7
-56 -17 -109 -22 -118 -8 -16 -25 -18 -137 -18 -91 0 -131 4 -139 13 -5 6 -13
50 -17 97 -12 142 -15 147 -121 185 -50 18 -114 45 -142 60 l-51 27 -33 -23
c-18 -12 -64 -47 -102 -76 -37 -29 -74 -53 -81 -53 -14 0 -195 185 -195 199 0
5 31 48 70 95 38 48 73 98 76 112 5 18 -5 50 -34 112 -22 48 -45 103 -51 123
-18 56 -37 67 -152 85 -57 9 -110 21 -117 28 -15 15 -26 166 -15 226 l8 45 90
13 c50 7 107 18 129 25 36 11 40 17 66 87 15 41 39 101 54 133 17 35 26 67 22
80 -3 12 -37 62 -77 111 -85 105 -87 96 38 217 97 94 84 94 197 4 90 -70 108
-74 193 -37 37 17 94 38 127 48 32 11 64 28 71 39 7 11 20 69 29 128 8 59 18
112 22 118 3 6 59 8 137 7 l131 -3 8 -30z M889 1935 c-51 -28 -89 -152 -89
-292 0 -72 -5 -107 -24 -160 -71 -201 -57 -355 48 -496 29 -39 141 -121 207
-151 151 -69 391 -89 564 -47 177 43 325 143 384 258 59 117 67 258 22 392
-23 68 -30 110 -34 201 -6 115 -29 215 -61 264 -48 73 -141 52 -311 -73 l-50
-36 -167 1 -166 1 -69 51 c-131 97 -195 119 -254 87z m166 -187 c37 -29 84
-65 104 -80 l36 -28 60 16 c58 16 173 15 290 -1 37 -5 45 -2 115 54 41 34 89
67 105 76 29 14 30 14 43 -16 7 -17 15 -81 18 -142 5 -87 12 -132 35 -199 39
-116 44 -161 26 -231 -34 -129 -121 -214 -270 -264 -73 -24 -97 -27 -227 -27
-125 -1 -156 3 -220 23 -105 32 -164 67 -221 129 -83 91 -103 219 -53 349 15
37 28 88 30 113 14 160 26 265 30 272 11 17 33 7 99 -44z"/>
</g>
</svg>
