<?xml version="1.0" standalone="no"?>
<!DOCTYPE svg PUBLIC "-//W3C//DTD SVG 20010904//EN"
 "http://www.w3.org/TR/2001/REC-SVG-20010904/DTD/svg10.dtd">
<svg version="1.0" xmlns="http://www.w3.org/2000/svg"
 width="280.000000pt" height="280.000000pt" viewBox="0 0 280.000000 280.000000"
 preserveAspectRatio="xMidYMid meet">
<metadata>
Created by potrace 1.16, written by Peter Selinger 2001-2019
</metadata>
<g transform="translate(0.000000,280.000000) scale(0.100000,-0.100000)"
fill="currentColor" stroke="currentColor" stroke-width="2">
<path d="M613 2640 c-79 -39 -133 -100 -188 -211 -103 -204 -110 -315 -25
-421 17 -20 30 -39 30 -42 0 -3 -20 -6 -44 -6 -81 0 -137 -36 -179 -115 -20
-37 -22 -54 -22 -230 0 -178 1 -193 23 -232 21 -40 83 -93 109 -93 9 0 13
-118 15 -522 3 -497 4 -524 22 -553 33 -50 69 -86 111 -108 40 -22 41 -22 879
-25 952 -3 913 -6 991 72 33 33 45 55 54 95 7 34 11 221 11 545 l0 494 30 12
c39 16 84 68 101 117 10 26 14 90 14 203 0 151 -2 169 -23 215 -40 86 -79 115
-175 129 l-48 7 27 32 c41 48 54 89 54 165 0 171 -137 419 -265 478 -69 33
-178 33 -255 1 -126 -52 -266 -178 -351 -316 l-44 -71 -96 0 -97 0 -68 96
c-83 117 -193 220 -285 269 -60 31 -81 37 -157 42 -83 5 -90 3 -149 -27z
m1451 -183 c53 -55 93 -126 74 -131 -7 -2 -44 -11 -83 -20 -93 -22 -177 -64
-309 -153 -60 -41 -113 -70 -117 -66 -4 4 -10 24 -14 43 -5 30 0 44 33 95 76
118 195 229 279 260 68 24 92 20 137 -28z m-1222 1 c65 -34 176 -146 242 -242
37 -55 38 -58 27 -96 -6 -22 -16 -40 -21 -40 -5 0 -46 27 -92 60 -105 76 -262
154 -355 176 l-72 18 16 30 c23 44 49 76 85 103 45 33 97 30 170 -9z m-98
-375 c241 -121 247 -146 22 -92 -109 26 -236 99 -236 135 0 38 88 21 214 -43z
m1456 56 c0 -28 -104 -104 -180 -131 -54 -20 -182 -42 -201 -36 -25 8 187 138
265 163 52 16 116 19 116 4z m-753 -81 c22 -18 16 -115 -7 -138 -23 -23 -73
-26 -132 -9 l-38 10 0 63 c0 39 5 68 13 74 26 22 138 22 164 0z m-477 -283 c0
-3 -20 -29 -44 -59 -24 -29 -67 -97 -95 -150 l-53 -96 -201 2 -202 3 -3 139
c-2 93 1 143 9 152 9 11 66 14 300 14 159 0 289 -2 289 -5z m1381 -16 c12 -24
9 -256 -4 -276 -6 -10 -58 -13 -203 -13 l-194 0 -28 51 c-15 27 -54 92 -87
142 -33 51 -63 98 -68 105 -6 9 52 12 282 12 286 0 290 0 302 -21z m-1114 -33
c10 -8 3 -41 -28 -146 -41 -140 -92 -338 -103 -402 -9 -52 -20 -54 -49 -9 -34
52 -73 67 -133 52 -26 -7 -48 -11 -49 -9 -8 9 99 237 155 330 82 139 144 211
174 202 11 -3 26 -11 33 -18z m371 -51 c29 -38 71 -100 92 -136 40 -68 133
-274 145 -322 7 -28 -3 -35 -22 -16 -6 6 -30 15 -53 19 -38 7 -45 5 -75 -22
-19 -16 -37 -38 -40 -49 -9 -27 -24 -24 -31 9 -6 29 -48 186 -90 341 -14 51
-35 121 -46 154 l-20 61 23 19 c36 29 60 17 117 -58z m-911 -407 c-2 -13 -13
-52 -22 -88 -10 -36 -18 -91 -19 -122 -1 -47 3 -61 22 -80 29 -29 88 -29 154
0 26 12 63 24 82 27 29 6 35 4 41 -14 3 -11 24 -43 46 -71 l39 -50 -2 -297 -3
-298 -235 -3 c-192 -2 -239 0 -255 12 -19 14 -20 30 -23 497 -1 266 0 489 2
496 4 9 30 13 92 13 84 0 86 -1 81 -22z m1509 -4 c8 -33 -3 -944 -12 -967 -10
-26 -31 -28 -274 -25 l-225 3 -3 298 -2 298 39 57 c61 90 60 89 142 57 104
-41 142 -43 173 -12 38 38 35 99 -13 274 -5 18 -6 34 -3 37 3 3 43 6 88 6 82
0 84 -1 90 -26z m-801 6 c7 -12 49 -166 73 -270 14 -63 17 -128 17 -400 l0
-325 -132 -3 -133 -3 0 315 0 315 36 156 c48 208 55 225 99 225 18 0 37 -4 40
-10z"/>
</g>
</svg>
