<?xml version="1.0" standalone="no"?>
<!DOCTYPE svg PUBLIC "-//W3C//DTD SVG 20010904//EN"
 "http://www.w3.org/TR/2001/REC-SVG-20010904/DTD/svg10.dtd">
<svg version="1.0" xmlns="http://www.w3.org/2000/svg"
 width="280.000000pt" height="280.000000pt" viewBox="0 0 280.000000 280.000000"
 preserveAspectRatio="xMidYMid meet">
<metadata>
Created by potrace 1.16, written by Peter Selinger 2001-2019
</metadata>
<g transform="translate(0.000000,280.000000) scale(0.100000,-0.100000)"
fill="#000000" stroke="none">
<path d="M699 2631 c-86 -28 -137 -88 -233 -277 -89 -173 -86 -244 14 -359
l43 -50 -64 -7 c-86 -10 -101 -14 -133 -39 -58 -45 -66 -80 -66 -279 0 -162 2
-185 20 -221 21 -40 71 -79 103 -79 16 0 17 -31 17 -509 0 -431 2 -515 15
-552 19 -54 49 -86 100 -110 38 -18 85 -19 874 -19 l834 0 45 22 c27 14 55 39
71 63 l26 40 3 531 3 531 39 12 c25 7 50 25 67 48 l28 36 3 191 c2 104 1 200
-2 212 -8 31 -53 82 -88 100 -16 9 -56 16 -88 18 -33 1 -62 4 -65 8 -3 3 11
25 30 48 58 70 69 98 70 176 0 68 -3 76 -69 207 -77 152 -109 196 -169 234
-155 98 -411 -37 -581 -304 l-57 -90 -105 1 -105 2 -35 59 c-93 153 -205 265
-334 330 -59 30 -161 42 -211 26z m1371 -140 c22 -15 120 -173 120 -193 0 -5
-20 -8 -43 -8 -89 0 -199 -51 -382 -175 -68 -47 -126 -81 -128 -77 -2 4 -12
33 -22 64 l-17 57 48 73 c61 92 165 202 222 235 93 55 149 61 202 24z m-1207
-2 c100 -51 175 -126 272 -271 l38 -58 -13 -60 c-7 -33 -16 -63 -21 -65 -4 -3
-45 22 -90 54 -187 134 -325 201 -415 201 -42 0 -45 1 -38 23 14 46 56 119 91
157 32 36 40 40 85 40 30 0 65 -8 91 -21z m-184 -335 c76 -22 339 -182 349
-212 8 -25 -187 -4 -284 31 -114 41 -194 106 -194 157 0 43 40 51 129 24z
m1535 10 c9 -4 16 -18 16 -34 0 -38 -73 -104 -158 -142 -67 -30 -200 -58 -279
-58 -74 0 -62 13 117 128 69 44 145 87 170 95 47 17 107 21 134 11z m-765 -84
c36 0 51 -32 51 -110 0 -74 -9 -80 -124 -80 -100 0 -106 6 -106 92 0 73 18 96
78 101 26 2 53 2 60 0 8 -2 26 -3 41 -3z m-399 -285 c0 -3 -22 -33 -49 -68
-26 -34 -70 -100 -96 -147 -27 -47 -55 -95 -62 -108 -14 -22 -15 -22 -226 -20
l-212 3 -3 160 c-1 87 0 165 2 172 4 10 73 13 326 13 176 0 320 -2 320 -5z
m1320 -14 c15 -28 13 -304 -2 -319 -9 -9 -70 -12 -215 -12 l-203 0 -23 38
c-13 20 -42 69 -64 107 -23 39 -62 97 -87 129 -25 33 -46 63 -46 68 0 4 142 8
315 8 300 0 315 -1 325 -19z m-747 -69 c69 -84 113 -154 171 -269 48 -95 111
-261 102 -270 -3 -3 -30 4 -60 17 -30 12 -63 20 -72 18 -10 -2 -40 -30 -66
-63 -27 -33 -52 -61 -57 -63 -4 -1 -27 77 -51 175 -23 98 -62 241 -87 318 -24
77 -42 151 -41 164 2 19 12 27 43 36 22 6 45 10 52 7 7 -2 37 -34 66 -70z
m-330 46 c11 -5 16 -16 13 -26 -3 -9 -12 -42 -20 -72 -8 -30 -37 -136 -64
-235 -28 -99 -58 -217 -67 -262 -10 -46 -22 -83 -26 -83 -4 0 -16 12 -26 26
-10 15 -35 45 -55 68 l-37 41 -66 -23 c-37 -13 -69 -21 -72 -19 -2 3 7 39 21
81 52 154 172 364 272 475 42 47 50 51 78 45 17 -3 39 -11 49 -16z m109 -278
c2 -17 -2 -26 -14 -28 -14 -3 -18 3 -18 26 0 50 25 53 32 2z m-632 -172 c0 -7
-9 -41 -19 -74 -11 -34 -25 -89 -31 -124 -14 -76 2 -110 51 -110 27 0 126 35
171 60 10 6 22 10 28 10 5 0 37 -42 70 -92 l60 -93 -2 -310 -3 -310 -248 -3
c-207 -2 -252 0 -277 13 l-30 16 0 514 0 515 115 0 c85 0 115 -3 115 -12z
m689 -30 c6 -24 27 -114 46 -201 l35 -158 -2 -327 -3 -327 -150 0 -150 0 -3
335 -3 335 42 170 c55 231 47 215 117 215 l59 0 12 -42z m779 -470 c2 -498 2
-508 -18 -528 -20 -20 -31 -20 -283 -18 l-262 3 -2 315 -3 315 61 85 c33 47
62 87 65 89 2 2 32 -8 66 -22 146 -61 188 -57 187 16 0 35 -27 150 -54 235
l-7 23 123 -3 124 -3 3 -507z"/>
</g>
</svg>
