<?xml version="1.0" standalone="no"?>
<!DOCTYPE svg PUBLIC "-//W3C//DTD SVG 20010904//EN"
 "http://www.w3.org/TR/2001/REC-SVG-20010904/DTD/svg10.dtd">
<svg version="1.0" xmlns="http://www.w3.org/2000/svg"
 width="280.000000pt" height="280.000000pt" viewBox="0 0 280.000000 280.000000"
 preserveAspectRatio="xMidYMid meet">
<metadata>
Created by potrace 1.16, written by Peter Selinger 2001-2019
</metadata>
<g transform="translate(0.000000,280.000000) scale(0.100000,-0.100000)"
fill="currentColor" stroke="currentColor" stroke-width="2">
<path d="M666 2375 c-131 -47 -226 -117 -321 -238 -283 -357 -167 -837 313
-1295 103 -98 304 -267 383 -321 304 -210 323 -219 382 -198 47 16 87 40 246
151 311 217 598 493 738 709 154 236 211 484 159 686 -22 86 -80 217 -121 273
-38 51 -146 142 -215 180 -110 61 -164 73 -315 72 -117 0 -148 -4 -192 -21
-80 -32 -172 -86 -252 -148 -39 -30 -76 -55 -81 -55 -6 0 -46 27 -89 60 -163
124 -290 170 -465 170 -81 -1 -115 -6 -170 -25z m296 -166 c97 -20 204 -85
299 -181 119 -121 125 -120 257 5 64 60 121 104 164 126 281 142 576 27 689
-270 17 -43 21 -78 22 -169 1 -143 -13 -197 -92 -355 -96 -191 -241 -350 -546
-600 -113 -93 -347 -255 -368 -255 -18 0 -131 74 -246 160 -319 239 -563 490
-670 690 -153 287 -110 599 107 763 116 87 242 116 384 86z"/>
<path d="M1142 1810 c-89 -54 -84 -216 8 -293 38 -33 63 -40 104 -33 62 12 96
70 96 163 0 140 -107 224 -208 163z"/>
<path d="M1493 1806 c-51 -43 -76 -109 -70 -185 6 -73 26 -107 80 -134 30 -15
43 -17 70 -8 87 29 141 149 112 248 -20 66 -52 95 -113 101 -41 3 -52 0 -79
-22z"/>
<path d="M898 1573 c-30 -19 -58 -77 -58 -122 0 -16 7 -48 15 -72 58 -163 255
-156 255 9 0 73 -12 104 -60 154 -40 42 -52 48 -86 48 -21 0 -51 -8 -66 -17z"/>
<path d="M1761 1573 c-41 -21 -88 -84 -97 -129 -10 -57 4 -120 36 -154 23 -25
36 -30 74 -30 37 0 52 6 81 32 56 49 78 100 73 170 -4 49 -9 64 -34 89 -38 37
-87 46 -133 22z"/>
<path d="M1332 1449 c-46 -9 -94 -46 -161 -121 -142 -160 -155 -185 -149 -286
4 -81 32 -128 95 -157 44 -21 136 -23 204 -5 34 10 63 9 131 0 154 -22 226 -1
279 84 28 43 22 157 -10 211 -40 68 -174 216 -220 243 -49 29 -118 41 -169 31z"/>
</g>
</svg>
