<?xml version="1.0" standalone="no"?>
<!DOCTYPE svg PUBLIC "-//W3C//DTD SVG 20010904//EN"
 "http://www.w3.org/TR/2001/REC-SVG-20010904/DTD/svg10.dtd">
<svg version="1.0" xmlns="http://www.w3.org/2000/svg"
 width="280.000000pt" height="280.000000pt" viewBox="0 0 280.000000 280.000000"
 preserveAspectRatio="xMidYMid meet">
<metadata>
Created by potrace 1.16, written by Peter Selinger 2001-2019
</metadata>
<g transform="translate(0.000000,280.000000) scale(0.100000,-0.100000)"
fill="#999" stroke="#999" stroke-width="2" stroke-linejoin="round" stroke-linecap="round">
<path d="M632 2400 c-229 -60 -392 -223 -453 -455 -29 -107 -29 -259 0 -370
25 -97 118 -286 185 -375 124 -164 360 -389 563 -536 228 -165 405 -275 444
-276 39 -1 208 103 330 204 26 21 51 38 57 38 13 0 40 -71 78 -203 31 -108 51
-137 94 -137 29 0 60 22 60 44 0 29 -140 437 -172 501 -37 72 -59 95 -149 156
-96 64 -119 95 -119 157 0 32 7 46 34 73 34 34 34 34 24 86 -13 64 -6 92 29
127 29 29 27 29 128 14 13 -2 24 6 33 27 28 58 51 75 103 75 43 0 51 -4 83
-42 20 -23 36 -45 36 -50 0 -4 27 -5 59 -1 57 5 61 4 90 -24 38 -39 46 -86 32
-187 -17 -123 -14 -177 15 -258 32 -89 204 -443 234 -480 36 -47 110 -30 110
24 0 11 -42 102 -94 202 -100 190 -156 320 -156 356 0 12 30 68 67 123 191
288 238 510 164 769 -31 109 -71 178 -146 253 -220 222 -586 246 -824 54 -71
-57 -161 -179 -218 -296 l-45 -93 25 -34 c14 -18 55 -57 91 -86 36 -30 66 -60
66 -68 0 -8 -33 -53 -72 -99 -127 -147 -130 -151 -114 -182 20 -38 58 -70 86
-73 23 -3 25 1 30 48 6 59 8 62 123 189 115 128 115 128 -4 238 l-92 84 39 73
c45 84 143 195 211 238 242 154 577 52 698 -211 57 -125 71 -283 36 -419 -21
-80 -90 -233 -106 -233 -5 0 -13 18 -17 39 -19 88 -89 150 -184 162 -36 5 -58
15 -84 39 -49 46 -74 57 -134 57 -57 1 -116 -24 -154 -65 -16 -16 -40 -27 -70
-32 -93 -14 -155 -65 -182 -148 -7 -22 -10 -52 -6 -67 4 -21 -4 -49 -27 -97
-63 -134 -37 -212 110 -330 83 -67 133 -127 133 -161 0 -24 -283 -223 -297
-209 -11 12 -133 342 -133 362 0 11 22 65 50 120 34 68 52 118 56 157 l7 56
-41 29 c-22 15 -72 50 -111 78 -39 27 -71 53 -71 59 0 5 17 32 38 60 21 28 62
88 91 134 43 67 51 85 41 97 -7 8 -54 43 -106 77 -52 34 -94 69 -94 77 0 16
19 55 98 203 51 95 47 113 -39 193 -148 136 -376 195 -567 145z m306 -129 c80
-28 187 -96 199 -127 3 -8 -29 -83 -71 -166 l-77 -151 27 -28 c15 -16 63 -52
106 -80 43 -28 78 -53 78 -55 0 -2 -34 -53 -75 -114 -78 -114 -94 -152 -78
-179 5 -9 56 -51 114 -94 57 -43 105 -86 107 -95 1 -9 -25 -64 -60 -122 -39
-66 -62 -116 -62 -135 0 -16 28 -99 63 -184 34 -84 59 -156 56 -159 -8 -8
-182 112 -341 236 -237 183 -428 387 -535 570 -96 163 -129 342 -94 507 20 94
56 165 121 235 145 156 332 207 522 141z M1870 1470 c-23 -23 -27 -95 -7 -121
36 -46 88 -39 106 13 12 33 -3 80 -33 111 -23 22 -42 21 -66 -3z M1676 1387
c-22 -16 -24 -58 -5 -94 13 -25 56 -53 82 -53 24 0 50 38 49 72 -2 59 -82 107
-126 75z M2055 1375 c-40 -39 -30 -120 15 -125 36 -5 50 2 65 30 21 40 19 76
-5 100 -26 26 -46 25 -75 -5z M1859 1243 c-34 -21 -48 -44 -60 -101 -23 -111
-23 -116 5 -149 38 -45 66 -48 134 -14 31 16 77 34 100 41 56 14 82 41 82 83
0 46 -18 67 -99 115 -77 46 -119 52 -162 25z M1617 1182 c-24 -26 -21 -55 8
-86 43 -47 125 -27 125 31 0 28 -55 73 -89 73 -15 0 -35 -8 -44 -18z"/>
</g>
</svg>
