<?xml version="1.0" standalone="no"?>
<!DOCTYPE svg PUBLIC "-//W3C//DTD SVG 20010904//EN"
 "http://www.w3.org/TR/2001/REC-SVG-20010904/DTD/svg10.dtd">
<svg version="1.0" xmlns="http://www.w3.org/2000/svg"
 width="280.000000pt" height="280.000000pt" viewBox="0 0 280.000000 280.000000"
 preserveAspectRatio="xMidYMid meet">
<metadata>
Created by potrace 1.16, written by Peter Selinger 2001-2019
</metadata>
<g transform="translate(0.000000,280.000000) scale(0.100000,-0.100000)"
fill="currentColor" stroke="currentColor" stroke-width="2">
<path d="M705 2366 c-67 -14 -174 -57 -220 -89 -171 -116 -295 -348 -295 -553
0 -116 59 -300 146 -454 78 -138 259 -341 434 -487 207 -172 571 -413 625
-413 33 0 209 112 309 197 22 18 45 33 52 33 7 0 32 -60 59 -139 48 -146 71
-181 118 -181 28 0 67 31 67 52 0 19 -140 429 -160 468 -38 73 -81 119 -163
173 -85 56 -117 96 -117 146 0 31 24 83 48 104 17 16 19 23 10 49 -16 47 -4
109 28 137 23 19 35 22 73 18 45 -6 47 -4 92 44 37 39 52 49 78 49 42 0 80
-21 113 -63 25 -32 29 -34 77 -29 46 4 53 2 82 -27 l32 -32 -9 -112 c-13 -170
-9 -254 14 -312 56 -141 219 -451 248 -472 40 -29 104 3 104 52 0 13 -33 90
-74 172 -104 207 -135 277 -146 329 -12 50 -8 60 64 172 119 185 178 354 179
517 2 189 -58 339 -188 471 -67 69 -95 89 -175 127 -115 55 -202 72 -312 63
-223 -19 -408 -159 -533 -406 -56 -110 -53 -122 54 -224 74 -70 74 -72 -4
-171 -115 -146 -122 -164 -80 -213 50 -59 115 -50 115 16 0 41 11 59 106 174
111 133 111 143 9 246 -87 86 -87 86 -19 189 103 153 240 233 404 233 128 0
233 -46 329 -142 128 -129 169 -311 116 -513 -19 -72 -64 -175 -77 -175 -4 0
-13 12 -19 28 -23 62 -118 131 -181 132 -15 0 -44 15 -69 36 -103 86 -209 85
-311 -5 -20 -17 -46 -31 -59 -31 -28 0 -94 -30 -126 -57 -34 -28 -63 -107 -63
-170 0 -39 -6 -63 -20 -84 -15 -21 -23 -51 -27 -111 -5 -73 -3 -89 16 -125 11
-23 42 -59 68 -80 80 -64 165 -151 159 -162 -9 -14 -205 -165 -234 -180 -18
-9 -23 -9 -27 1 -2 7 -29 81 -60 164 -30 83 -55 157 -55 163 0 6 20 52 45 101
37 74 46 101 48 152 l2 62 -95 74 c-52 41 -96 80 -98 86 -1 6 18 43 44 81 52
79 104 178 104 198 0 14 -28 36 -122 99 -34 23 -58 46 -58 56 0 10 31 78 69
152 l69 134 -18 37 c-37 72 -175 166 -307 208 -79 25 -213 33 -288 17z m233
-162 c96 -28 202 -91 202 -120 0 -7 -29 -73 -66 -146 -83 -170 -83 -170 38
-260 37 -28 68 -58 68 -66 0 -8 -22 -49 -49 -91 -63 -99 -81 -135 -81 -162 0
-25 55 -81 148 -151 34 -27 62 -55 62 -64 0 -8 -20 -48 -44 -87 -71 -118 -76
-131 -66 -163 5 -16 29 -80 53 -141 25 -62 41 -113 36 -113 -16 0 -105 60
-259 175 -266 198 -464 421 -560 629 -52 114 -63 172 -58 307 3 100 8 123 35
186 17 39 47 92 68 117 48 59 157 132 226 150 73 20 179 20 247 0z"/>
<path d="M1866 1441 c-25 -27 -24 -85 1 -118 53 -73 132 -10 97 78 -24 59 -66
76 -98 40z"/>
<path d="M1682 1357 c-38 -41 -21 -97 40 -128 l38 -20 25 25 c14 14 25 32 25
41 0 25 -28 72 -52 89 -31 22 -51 20 -76 -7z"/>
<path d="M2048 1350 c-25 -26 -29 -36 -24 -63 8 -44 51 -81 76 -67 21 11 50
60 50 84 0 17 -48 76 -62 76 -5 0 -23 -14 -40 -30z"/>
<path d="M1864 1221 c-34 -21 -66 -78 -86 -153 -10 -41 -10 -52 5 -83 10 -21
30 -42 52 -52 34 -16 36 -16 96 15 34 18 74 32 89 32 41 0 92 39 102 78 14 51
-14 89 -102 139 -84 47 -111 52 -156 24z"/>
<path d="M1632 1170 c-66 -62 37 -159 108 -102 21 17 22 21 9 47 -12 26 -71
75 -89 75 -3 0 -16 -9 -28 -20z"/>
</g>
</svg>
