<?xml version="1.0" standalone="no"?>
<!DOCTYPE svg PUBLIC "-//W3C//DTD SVG 20010904//EN"
 "http://www.w3.org/TR/2001/REC-SVG-20010904/DTD/svg10.dtd">
<svg version="1.0" xmlns="http://www.w3.org/2000/svg"
 width="280.000000pt" height="246.000000pt" viewBox="0 0 280.000000 246.000000"
 preserveAspectRatio="xMidYMid meet">
<metadata>
Created by potrace 1.16, written by Peter Selinger 2001-2019
</metadata>
<g transform="translate(0.000000,246.000000) scale(0.100000,-0.100000)"
fill="#E85D75" stroke="#E85D75" stroke-width="2" stroke-linejoin="round" stroke-linecap="round">
<path d="M731 2270 c-223 -47 -403 -184 -488 -370 -49 -108 -67 -190 -67 -310
0 -308 160 -597 516 -929 222 -207 635 -511 695 -511 35 0 269 161 493 339
168 134 399 360 487 478 166 221 246 454 230 663 -9 104 -30 180 -82 289 -75
156 -195 258 -382 324 -78 28 -101 32 -198 32 -89 0 -124 -5 -179 -23 -125
-42 -250 -117 -325 -196 -19 -20 -39 -36 -43 -36 -5 0 -43 30 -86 66 -92 79
-170 124 -276 159 -88 29 -221 41 -295 25z m267 -161 c89 -29 173 -89 278
-196 50 -51 98 -93 107 -93 9 0 63 46 119 103 160 159 278 212 462 205 94 -3
107 -6 187 -45 145 -71 252 -206 290 -363 29 -126 5 -308 -63 -459 -99 -223
-375 -516 -732 -780 -219 -163 -255 -185 -280 -173 -29 13 -270 189 -384 280
-122 97 -347 315 -421 407 -85 106 -158 233 -199 343 -29 81 -35 114 -39 202
-6 131 7 204 54 300 68 140 226 264 369 290 69 12 178 3 252 -21z M1139 1673
c-93 -58 -82 -232 20 -300 43 -29 79 -29 122 0 43 29 63 83 56 155 -12 121
-115 197 -198 145z M1514 1671 c-108 -66 -123 -255 -24 -306 91 -47 181 23
197 155 7 64 -23 131 -71 154 -44 21 -64 20 -102 -3z M900 1422 c-66 -32 -83
-119 -40 -207 27 -56 70 -85 126 -85 59 0 90 28 105 95 11 51 10 57 -15 109
-20 42 -39 63 -70 81 -51 30 -60 30 -106 7z M1773 1420 c-129 -58 -136 -264
-11 -294 96 -23 198 133 155 236 -27 64 -82 86 -144 58z M1293 1275 c-62 -31
-198 -170 -242 -246 -38 -67 -42 -140 -10 -206 41 -85 120 -112 254 -86 68 13
93 13 161 3 45 -7 104 -11 132 -8 119 12 190 132 148 251 -19 53 -54 99 -144
194 -119 124 -195 149 -299 98z"/>
</g>
</svg>
