<?xml version="1.0" standalone="no"?>
<!DOCTYPE svg PUBLIC "-//W3C//DTD SVG 20010904//EN"
 "http://www.w3.org/TR/2001/REC-SVG-20010904/DTD/svg10.dtd">
<svg version="1.0" xmlns="http://www.w3.org/2000/svg"
 width="280.000000pt" height="280.000000pt" viewBox="0 0 280.000000 280.000000"
 preserveAspectRatio="xMidYMid meet">
<metadata>
Created by potrace 1.16, written by Peter Selinger 2001-2019
</metadata>
<g transform="translate(0.000000,280.000000) scale(0.100000,-0.100000)"
fill="currentColor" stroke="currentColor" stroke-width="2">
<path d="M757 2446 c-126 -46 -159 -208 -58 -287 31 -24 32 -28 41 -135 11
-130 28 -192 83 -298 56 -109 104 -165 208 -248 54 -43 89 -77 89 -89 0 -10
-28 -41 -67 -72 -218 -175 -313 -354 -313 -593 0 -54 -3 -74 -13 -74 -18 0
-74 -60 -86 -93 -30 -79 8 -166 91 -208 35 -18 68 -19 653 -19 595 0 617 1
655 20 73 37 120 129 98 193 -17 48 -37 74 -73 97 l-32 20 -6 112 c-12 244
-85 368 -330 561 -62 50 -60 68 18 126 199 150 311 348 323 571 4 90 6 97 38
132 46 51 56 75 57 128 1 60 -28 108 -85 140 l-43 25 -605 2 c-495 2 -612 0
-643 -11z m1232 -145 c7 -13 7 -23 -2 -35 -11 -15 -64 -16 -607 -14 l-595 3
-3 24 c-2 13 2 28 10 32 7 5 277 9 600 9 563 0 588 -1 597 -19z m-109 -268
c-1 -156 -63 -288 -189 -402 -152 -137 -169 -155 -180 -199 -25 -91 2 -141
133 -246 52 -42 109 -94 125 -115 70 -88 110 -213 111 -339 0 -62 0 -63 -26
-60 -22 2 -30 13 -46 55 -33 90 -116 162 -295 254 -117 60 -133 60 -252 1
-174 -87 -276 -174 -303 -258 -13 -41 -20 -49 -39 -49 -24 0 -24 1 -20 90 8
192 64 291 254 443 78 62 104 98 113 159 10 66 -22 120 -120 202 -192 161
-240 247 -253 448 l-6 103 496 0 497 0 0 -87z m98 -1505 c17 -17 15 -45 -4
-52 -28 -11 -1154 -7 -1175 4 -22 12 -25 30 -7 48 17 17 1169 17 1186 0z"/>
<path d="M1034 1926 c-49 -22 -57 -62 -25 -133 25 -54 84 -117 185 -198 86
-68 117 -106 139 -170 18 -52 45 -70 74 -50 12 8 27 32 33 53 21 65 57 110
150 183 99 78 150 137 176 205 15 41 15 45 0 69 -20 31 -26 31 -112 3 -55 -18
-92 -23 -179 -23 -97 1 -121 4 -205 32 -116 39 -193 49 -236 29z"/>
<path d="M1348 1304 c-14 -31 -1 -57 31 -62 28 -4 51 14 51 42 0 50 -62 65
-82 20z"/>
<path d="M1351 1163 c-19 -23 -20 -29 -7 -47 21 -32 66 -28 86 7 14 27 14 29
-9 48 -31 26 -46 24 -70 -8z"/>
</g>
</svg>
