<?xml version="1.0" standalone="no"?>
<!DOCTYPE svg PUBLIC "-//W3C//DTD SVG 20010904//EN"
 "http://www.w3.org/TR/2001/REC-SVG-20010904/DTD/svg10.dtd">
<svg version="1.0" xmlns="http://www.w3.org/2000/svg"
 width="280.000000pt" height="280.000000pt" viewBox="0 0 280.000000 280.000000"
 preserveAspectRatio="xMidYMid meet">
<metadata>
Created by potrace 1.16, written by Peter Selinger 2001-2019
</metadata>
<g transform="translate(0.000000,280.000000) scale(0.100000,-0.100000)"
fill="currentColor" stroke="currentColor" stroke-width="2" stroke-linejoin="round" stroke-linecap="round">
<path d="M681 2448 c-59 -31 -84 -76 -78 -146 4 -60 27 -98 74 -121 30 -16 30
-16 36 -121 10 -181 68 -340 159 -436 29 -31 94 -88 143 -126 50 -39 94 -76
98 -84 15 -26 -3 -51 -86 -117 -220 -174 -309 -337 -311 -574 -1 -90 -1 -93
-26 -102 -38 -13 -79 -59 -91 -103 -18 -70 12 -146 73 -183 32 -19 53 -20 663
-23 552 -2 635 -1 671 13 53 20 82 52 98 106 22 74 -4 140 -73 183 l-38 25 -6
123 c-5 134 -20 190 -79 300 -37 69 -128 167 -203 217 -74 50 -115 92 -115
118 0 16 20 37 78 79 155 113 233 208 282 343 30 82 50 197 50 287 0 30 4 54
10 54 5 0 25 14 44 30 60 53 75 142 35 206 -43 70 -13 67 -724 72 l-640 3 -44
-23z m1297 -100 c17 -17 15 -53 -3 -68 -12 -10 -148 -14 -616 -18 -566 -5
-600 -4 -619 13 -22 20 -26 55 -8 73 17 17 1229 17 1246 0z m-98 -260 c0 -105
-19 -188 -62 -277 -47 -99 -113 -173 -213 -241 -108 -74 -135 -111 -135 -188
0 -54 38 -100 153 -185 151 -112 217 -210 244 -363 7 -46 13 -110 11 -141 l-3
-58 -35 0 c-34 0 -34 0 -47 62 -6 34 -19 78 -28 98 -8 21 -15 52 -15 69 0 46
-33 169 -54 200 -27 42 -60 50 -109 26 -23 -11 -58 -31 -77 -45 -30 -23 -42
-25 -110 -23 -41 2 -93 -1 -116 -5 -38 -8 -44 -5 -84 28 -45 38 -100 65 -130
65 -44 0 -90 -95 -106 -219 -3 -30 -15 -79 -25 -109 -10 -30 -21 -76 -25 -103
l-7 -49 -40 0 -40 0 7 110 c14 215 78 326 272 472 67 50 90 74 111 117 24 49
26 57 15 100 -13 51 -67 108 -157 166 -148 95 -245 291 -245 495 l0 60 525 0
525 0 0 -62z m-265 -1118 c4 -6 10 -45 14 -88 5 -45 20 -107 35 -146 15 -37
26 -75 24 -84 -3 -15 -33 -17 -331 -20 l-327 -2 0 35 c0 20 9 61 19 93 11 31
23 85 27 119 3 35 12 70 19 80 11 15 16 14 55 -17 l44 -34 155 -2 c149 -1 158
0 193 23 20 14 39 31 42 39 6 16 22 18 31 4z m353 -461 c34 -13 28 -70 -8 -79
-14 -4 -293 -6 -621 -6 -641 1 -629 0 -629 52 0 13 8 28 18 33 21 13 1206 13
1240 0z M1081 2094 c-12 -15 -25 -43 -30 -63 -59 -222 -60 -237 -26 -306 28
-57 89 -114 178 -167 52 -31 74 -59 98 -132 32 -93 85 -93 108 1 18 70 31 85
132 154 99 68 142 118 160 183 10 36 7 58 -21 174 -18 73 -41 144 -52 157 -25
33 -70 32 -127 0 -38 -22 -55 -25 -148 -25 -95 0 -107 2 -141 25 -50 34 -104
34 -131 -1z m119 -126 c28 -20 40 -22 163 -19 118 2 134 4 154 23 13 12 25 20
27 17 12 -12 46 -183 40 -202 -12 -41 -51 -82 -105 -112 -43 -23 -67 -29 -119
-29 -106 -1 -218 66 -237 142 -3 14 1 54 10 88 10 34 17 74 17 88 0 32 12 33
50 4z M1328 1309 c-38 -21 -11 -74 34 -67 26 3 37 41 18 64 -14 16 -28 17 -52
3z M1322 1168 c-17 -17 -15 -53 3 -68 20 -17 62 -5 70 20 14 44 -41 80 -73 48z"/>
</g>
</svg>
