<?xml version="1.0" standalone="no"?>
<!DOCTYPE svg PUBLIC "-//W3C//DTD SVG 20010904//EN"
 "http://www.w3.org/TR/2001/REC-SVG-20010904/DTD/svg10.dtd">
<svg version="1.0" xmlns="http://www.w3.org/2000/svg"
 width="280.000000pt" height="280.000000pt" viewBox="0 0 280.000000 280.000000"
 preserveAspectRatio="xMidYMid meet">
<metadata>
Created by potrace 1.16, written by Peter Selinger 2001-2019
</metadata>
<g transform="translate(0.000000,280.000000) scale(0.100000,-0.100000)"
fill="currentColor" stroke="currentColor" stroke-width="2" stroke-linejoin="round" stroke-linecap="round">
<path d="M1335 2534 c-11 -2 -45 -9 -75 -15 -146 -29 -309 -145 -394 -282 -71
-116 -97 -202 -104 -340 l-5 -117 -39 -22 c-75 -42 -107 -151 -115 -388 -4
-134 -8 -162 -28 -205 -50 -110 -57 -152 -58 -393 -2 -291 12 -344 118 -441
93 -86 63 -83 725 -86 370 -3 607 0 644 6 121 21 221 102 261 210 18 49 20 79
20 299 0 257 -4 286 -54 410 -14 34 -20 84 -24 205 -9 234 -45 344 -130 395
-31 19 -31 19 -33 120 -2 56 -10 129 -19 163 -45 181 -175 339 -352 426 -85
42 -258 70 -338 55z m183 -129 c151 -36 274 -132 341 -269 23 -45 46 -109 51
-142 12 -69 13 -214 2 -230 -9 -15 -89 -64 -103 -64 -6 0 -8 11 -5 28 3 15 2
82 -3 149 -7 104 -13 131 -39 187 -119 254 -452 307 -641 101 -90 -99 -121
-193 -121 -366 0 -112 -2 -114 -65 -71 l-40 28 -3 114 c-3 137 16 212 78 307
123 187 339 277 548 228z m-3 -259 c62 -29 107 -76 136 -141 19 -41 23 -73 26
-170 2 -66 0 -154 -4 -195 l-8 -75 -40 1 c-22 0 -80 6 -128 12 -71 9 -114 8
-214 -3 -98 -12 -129 -13 -140 -3 -12 10 -14 45 -11 202 3 176 6 195 27 239
27 55 105 129 153 144 61 20 148 15 203 -11z m-628 -525 c33 -21 91 -66 128
-100 99 -90 105 -92 195 -74 123 24 320 19 441 -12 22 -5 42 7 135 83 262 214
285 202 300 -165 5 -143 9 -167 40 -261 l34 -103 0 -230 c0 -185 -3 -237 -15
-267 -22 -50 -52 -81 -103 -103 -41 -18 -78 -19 -640 -19 -556 0 -600 2 -637
19 -51 23 -101 79 -114 128 -6 21 -11 130 -11 242 0 215 6 258 53 376 21 51
25 84 30 210 9 231 31 315 81 315 12 0 50 -17 83 -39z M1208 1250 c-85 -66
-35 -240 69 -240 72 0 109 74 84 167 -16 59 -39 83 -86 90 -31 4 -46 0 -67
-17z M1481 1244 c-55 -46 -66 -162 -19 -211 24 -26 82 -31 108 -10 50 39 75
112 59 170 -20 73 -92 98 -148 51z M1019 1041 c-36 -36 -39 -92 -9 -151 24
-46 45 -60 94 -60 60 0 84 38 77 119 -4 39 -30 80 -64 101 -44 27 -63 25 -98
-9z M1691 1054 c-71 -30 -98 -158 -45 -211 21 -21 32 -24 61 -20 44 8 62 22
84 72 48 106 -9 197 -100 159z M1304 932 c-51 -37 -131 -133 -155 -187 -10
-22 -19 -59 -19 -83 0 -34 6 -49 34 -80 l35 -37 78 3 c136 5 166 5 234 -3 77
-9 119 7 144 55 38 73 5 163 -103 280 l-69 74 -69 4 c-64 3 -72 2 -110 -26z"/>
</g>
</svg>
