<?xml version="1.0" standalone="no"?>
<!DOCTYPE svg PUBLIC "-//W3C//DTD SVG 20010904//EN"
 "http://www.w3.org/TR/2001/REC-SVG-20010904/DTD/svg10.dtd">
<svg version="1.0" xmlns="http://www.w3.org/2000/svg"
 width="280.000000pt" height="280.000000pt" viewBox="0 0 280.000000 280.000000"
 preserveAspectRatio="xMidYMid meet">
<metadata>
Created by potrace 1.16, written by Peter Selinger 2001-2019
</metadata>
<g transform="translate(0.000000,280.000000) scale(0.100000,-0.100000)"
fill="currentColor" stroke="currentColor" stroke-width="2">
<path d="M1275 2553 c-155 -32 -270 -99 -375 -218 -111 -128 -170 -279 -170
-439 l0 -91 -35 -28 c-75 -60 -115 -202 -115 -409 0 -87 -4 -109 -29 -171 -48
-120 -53 -162 -49 -407 l3 -225 34 -73 c41 -87 98 -142 178 -172 54 -20 70
-21 677 -18 l621 3 43 23 c103 55 171 150 193 267 7 37 9 138 7 265 -5 203 -5
206 -38 290 -30 79 -33 97 -40 250 -10 217 -31 293 -100 360 l-48 47 -10 119
c-11 134 -36 219 -88 306 -129 213 -327 329 -554 327 -47 -1 -94 -3 -105 -6z
m273 -183 c84 -30 170 -95 225 -172 60 -86 76 -133 87 -268 9 -124 9 -126 -43
-148 -35 -15 -35 -15 -39 118 -3 95 -7 111 -36 171 -66 132 -153 203 -287 234
-89 21 -149 13 -242 -31 -84 -40 -147 -105 -196 -204 -30 -60 -32 -73 -36
-187 -2 -77 -7 -123 -14 -123 -5 0 -26 12 -45 27 l-35 26 6 101 c7 137 27 195
101 293 71 93 173 161 279 183 66 14 204 4 275 -20z m-78 -241 c55 -25 95 -62
123 -114 20 -37 22 -55 22 -220 l0 -180 -45 2 c-72 3 -362 4 -395 1 l-30 -3 0
170 c1 193 11 238 68 293 40 39 117 71 172 71 22 0 60 -9 85 -20z m-603 -501
c22 -18 69 -57 104 -87 35 -30 87 -65 115 -78 46 -21 56 -22 105 -12 63 13
301 14 374 1 28 -4 64 -5 80 0 17 4 86 53 155 108 188 150 198 144 212 -133
10 -202 14 -230 52 -334 25 -69 26 -82 26 -276 0 -213 -6 -253 -44 -296 -46
-51 -42 -51 -673 -51 l-588 0 -40 23 c-26 14 -48 38 -63 67 -22 44 -23 51 -20
270 l4 225 33 85 c30 78 34 99 42 245 10 193 14 215 40 249 26 34 38 33 86 -6z"/>
<path d="M1192 1300 c-37 -23 -52 -54 -52 -111 0 -56 23 -105 59 -123 44 -23
77 -20 112 12 61 54 48 179 -23 222 -41 25 -55 25 -96 0z"/>
<path d="M1451 1295 c-38 -32 -55 -83 -48 -148 7 -78 64 -114 131 -82 43 21
76 83 76 144 0 36 -6 49 -34 77 -42 42 -82 45 -125 9z"/>
<path d="M1013 1100 c-46 -28 -62 -84 -39 -143 23 -61 49 -82 101 -82 48 0 72
16 91 62 12 27 11 38 -1 74 -19 53 -40 78 -82 95 -39 17 -32 18 -70 -6z"/>
<path d="M1655 1101 c-47 -29 -64 -54 -71 -104 -8 -59 9 -102 46 -117 75 -31
150 36 150 135 0 37 -5 51 -26 70 -15 14 -30 25 -35 25 -4 0 -13 2 -21 5 -7 3
-26 -3 -43 -14z"/>
<path d="M1321 1013 c-31 -6 -135 -110 -184 -183 -32 -47 -37 -63 -37 -112 0
-50 4 -60 30 -87 35 -35 83 -47 143 -36 49 10 138 10 222 1 90 -10 141 27 152
111 7 56 -20 113 -100 205 -85 97 -133 118 -226 101z"/>
</g>
</svg>
