<?xml version="1.0" standalone="no"?>
<!DOCTYPE svg PUBLIC "-//W3C//DTD SVG 20010904//EN"
 "http://www.w3.org/TR/2001/REC-SVG-20010904/DTD/svg10.dtd">
<svg version="1.0" xmlns="http://www.w3.org/2000/svg"
 width="280.000000pt" height="280.000000pt" viewBox="0 0 280.000000 280.000000"
 preserveAspectRatio="xMidYMid meet">
<metadata>
Created by potrace 1.16, written by Peter Selinger 2001-2019
</metadata>
<g transform="translate(0.000000,280.000000) scale(0.100000,-0.100000)"
fill="#000000" stroke="none">
<path d="M1295 2643 c-145 -12 -340 -69 -475 -139 -107 -55 -282 -186 -350
-261 -62 -69 -160 -213 -202 -297 -37 -74 -83 -214 -105 -321 -21 -102 -23
-342 -4 -440 120 -608 629 -1037 1231 -1038 188 0 306 23 479 97 318 135 579
401 696 712 31 82 31 89 0 119 -39 39 -68 32 -138 -33 -95 -88 -247 -185 -264
-168 -4 3 -1 16 5 29 57 117 69 261 33 377 -14 45 -21 92 -21 153 0 182 -32
293 -90 317 -43 18 -91 2 -212 -72 l-99 -60 -52 13 c-29 7 -94 13 -146 12
l-94 0 -76 64 c-42 35 -99 75 -127 89 -50 25 -52 25 -88 8 -27 -13 -43 -31
-60 -68 -33 -69 -57 -166 -64 -256 -5 -75 -40 -158 -70 -168 -16 -5 -37 47
-64 156 -30 125 -30 324 1 442 65 252 228 456 451 566 97 48 118 72 106 119
-12 46 -67 60 -201 48z m0 -1013 c17 -10 53 -45 81 -76 l51 -57 139 2 c82 1
152 -2 168 -9 62 -23 90 -16 168 42 95 71 117 83 123 66 3 -7 9 -78 14 -158 6
-99 16 -167 31 -215 65 -211 -66 -392 -310 -427 -186 -27 -396 58 -572 233
-61 60 -68 71 -68 106 0 45 33 153 60 198 10 17 21 57 24 90 12 106 38 225 50
225 6 0 25 -9 41 -20z M2157 2558 c-8 -13 -20 -45 -27 -73 -17 -66 -42 -92
-109 -112 -31 -9 -64 -23 -74 -32 -15 -13 -16 -16 -2 -31 8 -9 42 -25 75 -35
72 -22 93 -43 114 -116 20 -70 39 -89 65 -65 10 9 21 32 24 49 3 18 12 49 20
69 13 32 23 38 84 58 37 12 76 30 86 39 17 17 17 18 0 33 -10 8 -43 23 -73 32
-73 24 -87 38 -110 114 -29 94 -47 112 -73 70z M1613 2218 c-5 -7 -15 -32 -22
-55 -10 -37 -17 -44 -51 -54 -72 -22 -76 -49 -10 -65 37 -10 57 -31 64 -69 7
-34 31 -63 44 -51 4 4 14 28 22 54 14 42 19 48 64 64 26 9 51 19 53 22 11 11
-20 36 -53 42 -40 7 -51 19 -67 75 -13 45 -28 58 -44 37z M2452 1753 c-5 -10
-13 -32 -16 -50 -5 -23 -15 -34 -39 -43 -69 -26 -78 -30 -72 -39 3 -5 22 -15
43 -22 50 -16 60 -25 68 -65 7 -36 27 -59 43 -49 6 3 15 24 21 46 10 36 17 43
61 61 27 11 49 24 49 28 0 13 -24 27 -57 34 -38 9 -48 20 -57 63 -10 43 -31
61 -44 36z"/>
</g>
</svg>
