<?xml version="1.0" standalone="no"?>
<!DOCTYPE svg PUBLIC "-//W3C//DTD SVG 20010904//EN"
 "http://www.w3.org/TR/2001/REC-SVG-20010904/DTD/svg10.dtd">
<svg version="1.0" xmlns="http://www.w3.org/2000/svg"
 width="280.000000pt" height="280.000000pt" viewBox="0 0 280.000000 280.000000"
 preserveAspectRatio="xMidYMid meet">
<metadata>
Created by potrace 1.16, written by Peter Selinger 2001-2019
</metadata>
<g transform="translate(0.000000,280.000000) scale(0.100000,-0.100000)"
fill="currentColor" stroke="currentColor" stroke-width="2">
<path d="M1310 2683 c-420 -44 -721 -206 -951 -512 -118 -158 -177 -286 -231
-501 -18 -71 -22 -116 -22 -270 0 -119 4 -205 12 -240 8 -30 20 -84 29 -120
42 -180 197 -429 360 -579 218 -202 456 -308 772 -343 314 -35 674 77 935 290
191 156 393 463 404 614 4 55 3 59 -28 88 -53 50 -78 42 -186 -60 -72 -68
-160 -128 -171 -117 -3 4 3 23 13 44 26 56 31 209 9 288 -17 60 -26 123 -44
311 -15 170 -63 230 -175 220 -50 -5 -72 -15 -158 -71 l-100 -66 -56 11 c-30
5 -94 10 -141 10 l-86 0 -80 60 c-162 123 -227 136 -297 62 -43 -46 -53 -78
-73 -232 -16 -120 -43 -230 -56 -230 -8 0 -25 54 -50 160 -8 32 -14 111 -14
190 0 120 4 145 29 225 81 259 239 451 467 566 107 53 127 86 93 150 -26 51
-82 65 -204 52z m-240 -229 c0 -3 -20 -26 -45 -51 -92 -94 -183 -249 -233
-398 -82 -244 -62 -567 48 -786 77 -152 222 -326 346 -415 146 -105 341 -170
536 -181 160 -8 277 11 456 75 45 16 82 25 82 19 0 -22 -179 -185 -264 -241
-117 -77 -211 -120 -338 -153 -94 -25 -118 -27 -283 -27 -166 1 -187 3 -270
28 -96 29 -273 113 -351 167 -64 44 -185 159 -243 233 -171 215 -256 506 -230
785 16 176 79 350 185 512 58 90 213 243 306 305 112 74 298 154 298 128z
m241 -862 c111 -98 108 -97 254 -97 72 0 164 -4 205 -8 l75 -9 88 62 c49 34
90 60 92 58 2 -2 7 -57 10 -123 4 -72 14 -147 26 -188 31 -107 34 -159 14
-232 -41 -153 -210 -255 -403 -243 -241 15 -547 220 -526 353 10 60 28 121 45
157 13 25 23 82 31 177 8 87 16 141 23 141 6 0 36 -22 66 -48z"/>
<path d="M2174 2620 c-15 -6 -29 -29 -44 -77 -33 -98 -43 -109 -117 -134 -63
-21 -103 -48 -103 -69 0 -19 52 -60 77 -60 69 0 125 -63 148 -165 9 -41 23
-55 56 -55 29 0 59 31 59 61 0 30 41 109 64 124 12 8 46 22 74 30 55 17 87 50
76 78 -6 18 -98 67 -124 67 -9 0 -26 10 -37 23 -21 24 -53 102 -53 130 0 17
-34 58 -47 56 -5 0 -18 -4 -29 -9z"/>
<path d="M1602 2258 c-5 -7 -15 -32 -21 -56 -11 -39 -17 -45 -66 -67 -45 -19
-55 -28 -55 -48 0 -23 9 -30 73 -56 15 -6 31 -21 36 -33 5 -13 15 -38 22 -56
10 -27 16 -33 38 -30 19 2 33 16 56 58 26 46 38 57 75 70 39 14 45 19 45 44 0
16 -7 32 -15 36 -86 42 -94 49 -112 99 -16 41 -24 51 -42 51 -13 0 -28 -6 -34
-12z"/>
<path d="M2446 1777 c-7 -19 -16 -43 -20 -53 -3 -12 -28 -29 -57 -41 -45 -20
-50 -25 -47 -49 2 -21 10 -30 32 -35 40 -11 61 -33 80 -84 28 -73 60 -68 100
14 22 45 31 54 79 71 20 7 27 16 27 35 0 21 -8 30 -44 45 -50 23 -61 34 -70
75 -16 64 -57 75 -80 22z"/>
</g>
</svg>
