<?xml version="1.0" standalone="no"?>
<!DOCTYPE svg PUBLIC "-//W3C//DTD SVG 20010904//EN"
 "http://www.w3.org/TR/2001/REC-SVG-20010904/DTD/svg10.dtd">
<svg version="1.0" xmlns="http://www.w3.org/2000/svg"
 width="280.000000pt" height="280.000000pt" viewBox="0 0 280.000000 280.000000"
 preserveAspectRatio="xMidYMid meet">
<metadata>
Created by potrace 1.16, written by Peter Selinger 2001-2019
</metadata>
<g transform="translate(0.000000,280.000000) scale(0.100000,-0.100000)"
fill="currentColor" stroke="currentColor" stroke-width="2" stroke-linejoin="round" stroke-linecap="round">
<path d="M1337 2706 l-27 -25 0 -195 0 -195 -27 -26 c-43 -40 -340 -265 -351
-265 -5 0 -17 9 -28 21 -46 51 -207 119 -281 119 -66 0 -123 -48 -154 -129
-18 -46 -23 -86 -28 -220 l-6 -165 -80 -60 c-109 -83 -119 -106 -120 -261 0
-109 2 -123 24 -158 28 -46 30 -29 -45 -407 -81 -405 -81 -433 -2 -494 178
-135 1146 -198 1843 -121 436 49 575 108 575 242 0 41 -18 145 -49 293 -42
202 -81 408 -81 433 0 14 10 43 23 64 19 34 22 51 21 153 0 151 -9 171 -111
246 -43 32 -79 59 -80 59 -1 1 -5 66 -7 146 -9 285 -66 387 -208 375 -65 -5
-164 -47 -241 -102 -27 -19 -54 -33 -60 -30 -12 4 -228 172 -303 234 -32 27
-36 34 -24 42 8 5 22 10 32 10 32 0 202 61 254 91 140 80 138 170 -3 202 -38
8 -133 43 -213 77 -176 76 -205 81 -243 46z m174 -145 c35 -16 94 -39 132 -51
37 -13 67 -28 67 -35 0 -12 -190 -73 -240 -78 -25 -2 -25 -2 -28 96 -1 53 -1
97 1 97 2 0 33 -13 68 -29z m140 -741 c81 -107 190 -242 243 -300 52 -58 96
-111 96 -117 0 -8 -14 -13 -37 -13 -21 0 -82 -3 -135 -7 l-97 -6 -30 65 c-17
36 -49 85 -70 109 -28 32 -45 67 -64 129 -37 121 -75 276 -82 335 -6 50 -6 50
12 25 10 -13 84 -112 164 -220z m-471 221 c0 -6 -57 -85 -126 -178 -111 -148
-170 -219 -339 -410 l-40 -45 -75 16 c-41 9 -101 22 -132 28 -32 6 -58 15 -58
18 0 4 109 88 243 187 133 99 305 228 382 286 77 58 141 106 143 106 1 1 2 -3
2 -8z m126 -8 c-3 -10 -8 -36 -11 -58 -4 -22 -25 -116 -47 -209 l-41 -169 -51
-56 c-28 -31 -62 -80 -75 -109 -24 -50 -26 -52 -65 -52 -48 0 -218 19 -224 25
-2 2 29 41 69 87 147 165 345 419 411 526 21 34 43 44 34 15z m529 -158 c127
-96 296 -223 377 -283 81 -59 147 -112 147 -118 1 -13 -107 -40 -199 -50 l-56
-6 -90 94 c-124 130 -235 270 -413 519 -7 10 -10 19 -5 19 5 -1 113 -79 239
-175z m-1070 111 c43 -24 80 -47 82 -52 4 -11 -279 -224 -297 -224 -10 0 -12
23 -7 108 10 172 30 212 101 212 29 0 64 -13 121 -44z m1439 17 c7 -16 19 -52
25 -81 12 -59 15 -222 4 -222 -5 0 -42 27 -83 60 -41 33 -105 82 -142 108 -37
26 -67 55 -68 64 0 26 152 98 207 98 36 0 45 -4 57 -27z m-709 -454 c50 -24
104 -79 135 -138 28 -56 28 -165 -1 -226 -31 -65 -107 -130 -170 -145 -171
-41 -315 63 -327 237 -5 75 18 151 61 199 75 86 206 118 302 73z m-1010 -187
c50 -11 107 -23 129 -27 l38 -6 -4 -71 c-4 -80 -18 -96 -103 -124 -62 -20
-119 -8 -168 36 -30 27 -32 33 -35 109 -5 97 0 115 31 108 12 -2 63 -14 112
-25z m1955 -58 c0 -119 -40 -166 -145 -172 -70 -4 -112 17 -145 70 -23 37 -27
116 -7 123 16 7 258 53 280 54 15 1 17 -9 17 -75z m-396 -47 c-1 -43 -8 -66
-27 -96 -28 -43 -96 -81 -143 -81 -42 0 -128 27 -153 48 -22 17 -22 17 -5 89
l18 72 50 5 c172 18 233 23 246 22 12 -1 15 -15 14 -59z m-1058 37 l61 -6 11
-57 c5 -31 13 -64 17 -74 6 -14 -3 -22 -46 -41 -110 -50 -182 -43 -250 25 -38
38 -39 41 -39 105 l0 67 93 -7 c50 -4 119 -9 153 -12z m-494 -271 c66 -6 67
-6 62 -32 -2 -14 -13 -89 -24 -166 -34 -241 -103 -530 -128 -540 -19 -7 -138
50 -146 70 -3 10 5 79 19 154 29 151 92 473 101 510 4 18 9 22 27 16 12 -3 52
-9 89 -12z m1924 -53 c6 -36 26 -139 43 -230 75 -390 74 -380 56 -400 -10 -11
-43 -28 -76 -39 -76 -25 -71 -32 -119 144 -38 142 -90 458 -90 553 0 32 1 33
33 28 17 -3 48 -2 67 3 67 18 74 13 86 -59z m-1320 33 c-3 -16 -8 -62 -12
-103 -6 -75 -6 -75 -68 -140 -103 -110 -185 -252 -247 -429 -32 -91 -50 -114
-71 -93 -8 8 -1 63 26 199 40 207 76 438 76 495 0 65 3 67 88 61 62 -4 87 -1
127 15 73 29 88 28 81 -5z m664 6 c43 -16 72 -20 135 -17 l80 3 3 -60 c1 -33
9 -112 18 -175 15 -115 23 -158 68 -390 15 -73 21 -129 16 -134 -18 -18 -39 5
-60 71 -66 198 -134 322 -244 441 l-76 82 0 63 c0 34 -3 79 -6 100 -4 20 -3
37 2 37 5 0 34 -9 64 -21z m-255 -198 c95 -43 150 -148 196 -371 11 -58 31
-133 44 -168 12 -34 20 -64 16 -66 -18 -10 -358 -17 -537 -10 l-206 7 5 26 c3
14 14 58 25 96 11 39 31 118 45 177 43 182 91 262 182 304 64 30 170 33 230 5z
m-479 -207 c-4 -14 -16 -69 -27 -122 -22 -107 -39 -169 -62 -224 -15 -36 -18
-38 -61 -38 -39 0 -46 3 -46 19 0 23 59 180 91 243 59 116 121 189 105 122z
m828 -113 c42 -80 107 -251 100 -263 -3 -4 -25 -8 -48 -8 -42 0 -44 1 -64 47
-11 27 -25 66 -31 88 -12 42 -51 243 -50 260 0 19 59 -59 93 -124z M1296 1464
c-35 -35 -7 -104 42 -104 41 0 56 66 22 100 -24 24 -43 25 -64 4z M1432 1464
c-26 -18 -30 -75 -7 -94 24 -20 62 -4 74 30 12 35 6 57 -20 70 -23 13 -21 13
-47 -6z M1202 1358 c-31 -31 5 -97 47 -83 24 7 38 51 24 74 -13 20 -54 26 -71
9z M1512 1358 c-30 -30 -5 -94 35 -86 27 5 51 54 37 75 -14 22 -55 28 -72 11z
M1360 1329 c-57 -23 -100 -85 -100 -143 0 -53 25 -64 138 -62 81 1 96 4 109
21 34 46 -14 152 -83 181 -18 8 -35 14 -36 13 -2 0 -14 -5 -28 -10z"/>
</g>
</svg>
