<?xml version="1.0" standalone="no"?>
<!DOCTYPE svg PUBLIC "-//W3C//DTD SVG 20010904//EN"
 "http://www.w3.org/TR/2001/REC-SVG-20010904/DTD/svg10.dtd">
<svg version="1.0" xmlns="http://www.w3.org/2000/svg"
 width="280.000000pt" height="280.000000pt" viewBox="0 0 280.000000 280.000000"
 preserveAspectRatio="xMidYMid meet">
<metadata>
Created by potrace 1.16, written by Peter Selinger 2001-2019
</metadata>
<g transform="translate(0.000000,280.000000) scale(0.100000,-0.100000)"
fill="currentColor" stroke="currentColor" stroke-width="2" stroke-linejoin="round" stroke-linecap="round">
<path d="M1235 2685 c-158 -22 -265 -54 -390 -117 -311 -156 -540 -416 -648
-738 -49 -144 -62 -232 -61 -415 0 -138 5 -186 22 -256 64 -261 164 -441 343
-620 184 -184 390 -296 631 -344 45 -9 99 -27 119 -40 45 -29 101 -45 160 -45
35 0 60 9 110 39 43 25 82 40 119 45 224 29 475 159 656 340 240 241 367 546
367 886 1 436 -221 847 -581 1077 -150 96 -336 163 -522 188 -125 17 -204 17
-325 0z m435 -84 c233 -60 414 -162 570 -320 132 -133 211 -254 275 -421 93
-239 107 -483 44 -740 -26 -109 -124 -309 -200 -410 -66 -87 -209 -226 -263
-255 -34 -18 -36 -18 -55 -1 -27 25 -61 96 -61 128 0 21 16 39 73 85 39 32 94
88 121 123 44 58 53 65 80 62 80 -9 91 -8 91 13 0 14 -14 27 -46 42 l-46 22
22 78 23 78 46 5 c52 7 70 19 60 43 -4 11 -21 17 -52 19 l-47 3 -8 90 c-5 60
-19 119 -39 175 -29 77 -31 94 -29 188 4 192 -33 406 -87 506 -33 61 -92 92
-155 82 -95 -16 -237 -116 -331 -234 l-50 -62 -55 8 c-73 9 -230 9 -308 -1
l-61 -8 -61 75 c-106 130 -248 220 -349 221 -52 0 -56 -2 -96 -46 -33 -37 -48
-65 -69 -135 -35 -118 -51 -264 -42 -391 5 -89 4 -106 -13 -140 -32 -61 -51
-141 -60 -238 l-7 -90 -52 -3 c-36 -2 -53 -8 -57 -19 -10 -24 7 -35 64 -41 44
-4 51 -8 56 -31 3 -14 12 -50 20 -80 9 -29 14 -54 12 -56 -2 -1 -22 -12 -46
-24 -27 -14 -42 -28 -42 -40 0 -28 19 -30 67 -10 l43 18 44 -58 c48 -63 130
-141 189 -181 20 -14 37 -30 37 -36 0 -46 -65 -154 -93 -154 -15 0 -130 92
-186 150 -169 174 -271 363 -317 590 -82 402 37 800 326 1091 198 199 399 301
700 353 14 3 97 3 185 1 116 -3 181 -10 235 -24z m-823 -490 c87 -40 211 -150
273 -243 14 -21 30 -40 36 -42 6 -2 37 2 70 10 75 18 271 18 346 0 67 -15 67
-15 122 61 53 74 158 168 229 203 99 50 140 38 175 -52 44 -111 56 -185 57
-368 1 -164 3 -179 27 -240 34 -83 50 -170 46 -240 l-3 -55 -38 -6 c-44 -7
-62 -21 -54 -43 4 -11 19 -16 47 -16 39 0 40 -1 40 -32 -1 -18 -7 -46 -14 -63
-11 -27 -17 -30 -57 -30 -52 0 -60 -22 -16 -43 32 -15 32 -19 9 -53 -76 -113
-217 -218 -354 -263 -130 -43 -166 -49 -248 -48 -86 2 -152 3 -295 1 -137 -2
-339 71 -460 165 -54 42 -155 151 -155 167 0 4 11 14 25 23 14 9 25 26 25 38
0 19 -4 20 -44 15 l-44 -6 -16 46 c-25 73 -22 83 23 83 48 0 69 21 46 44 -9 9
-27 16 -40 16 -46 0 -55 9 -55 59 0 64 23 163 57 251 29 72 30 80 25 200 -6
190 33 391 89 451 32 34 66 37 126 10z m1078 -1567 c8 -20 12 -40 9 -45 -17
-28 -245 -119 -299 -119 -20 0 -27 6 -32 30 -3 17 -10 33 -14 36 -22 13 -7 34
29 40 75 13 188 46 237 69 28 13 51 24 52 24 2 1 10 -15 18 -35z m-955 -3 c41
-16 111 -37 155 -46 44 -9 81 -18 83 -20 3 -2 -6 -24 -18 -49 -14 -30 -28 -46
-40 -46 -26 0 -152 46 -227 82 -65 32 -75 48 -53 89 13 24 11 24 100 -10z
m500 -71 c46 -24 80 -81 80 -136 0 -66 -62 -144 -115 -144 -16 0 -17 8 -11 69
5 57 3 73 -10 86 -14 14 -19 14 -38 2 -30 -21 -31 -51 -2 -103 30 -53 27 -64
-15 -64 -45 0 -109 64 -119 119 -12 66 3 111 51 154 36 32 48 37 91 37 29 0
65 -8 88 -20z m-562 -69 c31 -15 101 -41 156 -57 77 -23 101 -34 109 -52 19
-42 -3 -44 -113 -11 -131 38 -250 95 -250 119 0 39 22 39 98 1z m1076 12 c5
-11 0 -22 -11 -31 -75 -56 -351 -149 -367 -123 -11 16 13 61 32 61 29 0 203
59 252 85 53 29 85 31 94 8z M950 1297 c-33 -16 -62 -74 -56 -109 18 -97 131
-128 182 -51 34 53 10 144 -43 164 -32 12 -53 11 -83 -4z M1784 1299 c-17 -5
-52 -27 -78 -50 -37 -33 -46 -47 -44 -68 3 -28 4 -28 103 -15 36 4 61 2 89
-10 56 -23 68 -21 64 12 -3 23 -11 29 -52 43 -58 18 -69 36 -29 44 58 12 78
21 78 35 0 18 -83 24 -131 9z M1327 1144 c-14 -14 -7 -48 15 -71 21 -22 21
-26 7 -51 -18 -32 -68 -41 -103 -19 -33 22 -54 7 -38 -27 22 -48 100 -61 146
-25 l28 22 40 -23 c48 -27 98 -23 134 11 46 43 22 86 -27 50 -35 -26 -71 -27
-92 -3 -21 23 -21 36 -1 67 8 13 14 34 12 47 -3 20 -9 23 -58 26 -31 2 -59 0
-63 -4z"/>
</g>
</svg>
