<?xml version="1.0" standalone="no"?>
<!DOCTYPE svg PUBLIC "-//W3C//DTD SVG 20010904//EN"
 "http://www.w3.org/TR/2001/REC-SVG-20010904/DTD/svg10.dtd">
<svg version="1.0" xmlns="http://www.w3.org/2000/svg"
 width="280.000000pt" height="280.000000pt" viewBox="0 0 280.000000 280.000000"
 preserveAspectRatio="xMidYMid meet">
<metadata>
Created by potrace 1.16, written by Peter Selinger 2001-2019
</metadata>
<g transform="translate(0.000000,280.000000) scale(0.100000,-0.100000)"
fill="currentColor" stroke="none">
<path d="M203 2464 c-46 -23 -100 -86 -112 -131 -15 -52 -14 -83 4 -134 39
-109 151 -162 266 -127 34 10 42 9 58 -7 24 -21 31 -55 91 -430 29 -184 41
-261 95 -615 16 -105 34 -183 49 -215 22 -49 75 -113 108 -131 15 -8 14 -15
-14 -72 -25 -51 -31 -74 -31 -131 0 -84 27 -143 94 -206 108 -101 295 -95 390
13 55 62 73 110 74 192 0 41 -4 87 -9 103 l-8 27 272 0 272 0 -7 -22 c-29 -95
-23 -171 20 -243 29 -51 85 -102 134 -123 48 -21 174 -21 222 0 55 24 119 87
145 143 26 56 32 158 13 214 -10 28 -8 34 19 65 61 70 62 149 4 203 l-25 23
30 33 c54 56 69 105 127 402 32 160 65 332 76 384 16 84 22 98 54 128 35 33
56 83 56 133 0 42 -42 113 -80 135 -34 20 -50 20 -954 20 l-919 0 -12 47 c-22
87 -95 165 -176 189 -24 7 -43 24 -65 56 -40 62 -98 93 -173 93 -31 0 -71 -8
-88 -16z m147 -74 c88 -45 95 -165 14 -229 -19 -15 -41 -21 -77 -21 -44 0 -53
4 -88 39 -35 34 -39 44 -39 87 0 58 24 100 72 126 43 23 70 22 118 -2z m206
-156 c39 -26 72 -93 90 -180 9 -43 22 -85 29 -93 12 -12 17 -9 35 22 l22 37
904 0 905 0 24 -25 c31 -30 33 -82 4 -119 l-20 -26 -927 -2 -927 -3 -3 -26
c-2 -15 17 -150 42 -300 24 -151 52 -323 61 -384 34 -222 44 -252 108 -299 28
-21 38 -21 704 -26 l675 -5 19 -24 c25 -30 24 -63 -2 -87 -18 -16 -23 -16 -42
-4 -74 47 -113 62 -167 67 -74 7 -136 -9 -197 -53 l-46 -33 -325 6 -326 6 -40
27 c-79 52 -171 64 -251 34 -22 -8 -48 -18 -57 -21 -24 -7 -84 42 -114 93 -18
31 -31 82 -50 196 -60 370 -84 520 -98 618 -16 101 -27 169 -61 364 -10 62
-22 99 -39 121 -17 22 -22 36 -15 46 5 8 14 31 19 52 12 41 27 46 66 21z
m1941 -486 c-3 -13 -38 -182 -76 -375 -39 -194 -77 -365 -85 -380 -18 -35 -51
-66 -94 -87 -29 -15 -101 -17 -626 -22 -618 -6 -657 -4 -694 36 -16 18 -44
169 -149 818 l-5 32 867 0 867 0 -5 -22z m-1434 -1074 c88 -30 159 -145 141
-228 -23 -106 -103 -176 -202 -176 -86 0 -152 42 -193 122 -53 105 11 246 129
282 61 19 70 19 125 0z m1050 5 c49 -13 115 -73 138 -124 60 -131 -43 -285
-191 -285 -115 0 -210 98 -210 215 1 74 74 166 151 190 55 17 65 17 112 4z
M1435 1595 c-35 -34 -34 -93 1 -134 62 -74 156 -3 124 94 -21 65 -82 84 -125
40z M1670 1607 c-31 -16 -50 -52 -50 -99 0 -45 31 -78 72 -78 75 0 110 115 52
168 -29 25 -39 27 -74 9z M1289 1441 c-35 -28 -32 -96 5 -128 36 -30 70 -29
95 3 30 38 27 80 -8 115 -34 34 -59 37 -92 10z M1799 1421 c-37 -38 -39 -82
-4 -116 27 -28 33 -29 70 -15 31 12 59 71 49 103 -18 62 -69 74 -115 28z
M1522 1363 c-44 -21 -109 -102 -128 -157 -19 -56 -6 -108 34 -134 35 -23 272
-27 315 -5 74 37 59 158 -32 251 -63 64 -122 79 -189 45z M964 560 c-86 -34
-62 -170 29 -170 96 0 125 138 37 169 -38 13 -38 13 -66 1z M2023 555 c-54
-23 -69 -95 -28 -139 51 -55 149 -18 149 57 0 66 -61 107 -121 82z"/>
</g>
</svg>
