<?xml version="1.0" standalone="no"?>
<!DOCTYPE svg PUBLIC "-//W3C//DTD SVG 20010904//EN"
 "http://www.w3.org/TR/2001/REC-SVG-20010904/DTD/svg10.dtd">
<svg version="1.0" xmlns="http://www.w3.org/2000/svg"
 width="280.000000pt" height="280.000000pt" viewBox="0 0 280.000000 280.000000"
 preserveAspectRatio="xMidYMid meet">
<metadata>
Created by potrace 1.16, written by Peter Selinger 2001-2019
</metadata>
<g transform="translate(0.000000,280.000000) scale(0.100000,-0.100000)"
fill="currentColor" stroke="currentColor" stroke-width="2" stroke-linejoin="round" stroke-linecap="round">
<path d="M1348 2679 c-29 -16 -38 -77 -38 -250 l0 -166 -72 -56 c-109 -84
-290 -217 -295 -217 -3 0 -18 11 -35 25 -16 13 -67 43 -113 66 -92 46 -169 56
-218 30 -64 -34 -97 -156 -97 -352 l0 -119 -62 -48 c-125 -94 -139 -121 -141
-263 0 -64 4 -86 25 -129 l26 -51 -39 -207 c-21 -114 -52 -277 -69 -362 -17
-85 -28 -167 -25 -182 9 -38 41 -75 83 -97 144 -73 611 -125 1117 -124 433 1
760 29 988 87 116 30 152 48 178 89 24 38 22 79 -15 267 -14 69 -42 216 -63
327 l-37 202 24 43 c18 32 25 62 28 123 7 138 -18 189 -138 276 l-60 44 0 115
c0 196 -30 308 -93 354 -66 48 -233 1 -345 -98 -28 -25 -15 -33 -234 136 -158
121 -193 158 -150 158 40 0 181 43 248 75 95 46 126 76 122 118 -3 28 -8 33
-48 45 -67 20 -319 112 -366 133 -46 21 -61 23 -86 8z m252 -151 c69 -27 129
-53 133 -58 19 -18 -211 -100 -280 -100 -23 0 -23 1 -23 111 0 129 -21 123
170 47z m-285 -529 c-8 -52 -34 -161 -57 -243 -40 -144 -43 -152 -93 -206 -28
-31 -60 -77 -71 -103 l-19 -47 -55 0 c-60 0 -220 17 -227 24 -3 2 37 53 89
113 144 168 198 236 312 398 123 174 129 182 133 168 2 -5 -3 -52 -12 -104z
m197 36 c107 -164 253 -352 406 -523 41 -45 72 -85 69 -88 -9 -9 -136 -23
-213 -24 l-71 0 -24 52 c-13 29 -44 76 -70 103 -40 45 -49 65 -82 175 -32 111
-87 343 -87 370 0 28 30 1 72 -65z m-292 49 c0 -8 -53 -85 -160 -229 -83 -113
-146 -188 -320 -387 l-36 -40 -64 11 c-130 23 -210 45 -210 57 0 7 53 52 118
98 64 47 239 177 387 290 256 193 285 214 285 200z m472 -87 c62 -48 234 -178
382 -290 148 -111 271 -207 273 -213 4 -12 -9 -16 -162 -44 -55 -10 -105 -15
-111 -12 -22 13 -183 194 -264 295 -100 128 -250 336 -250 349 0 16 15 7 132
-85z m-955 32 c61 -26 145 -79 141 -89 -6 -16 -301 -231 -312 -227 -24 8 -12
238 15 289 28 53 76 61 156 27z m1449 -16 c24 -35 30 -68 40 -215 5 -80 4 -98
-7 -98 -8 0 -44 24 -80 53 -36 28 -102 79 -147 112 -45 32 -82 66 -82 75 0 33
155 111 215 107 32 -2 43 -8 61 -34z m-680 -451 c87 -45 143 -136 144 -235 0
-97 -47 -178 -134 -228 -45 -25 -61 -29 -131 -29 -71 0 -86 4 -133 31 -116 66
-161 226 -98 346 62 119 234 175 352 115z m-1030 -151 c44 -11 103 -23 131
-27 70 -9 76 -18 66 -100 -8 -65 -10 -70 -51 -101 -37 -28 -51 -33 -100 -33
-58 0 -111 23 -139 59 -24 30 -35 94 -28 158 8 73 5 72 121 44z m1942 -77 c3
-87 1 -93 -24 -123 -36 -43 -74 -61 -131 -61 -61 0 -119 33 -144 80 -19 35
-26 124 -10 134 4 3 66 17 136 31 71 14 131 28 134 31 3 2 12 3 21 2 12 -3 16
-22 18 -94z m-1476 6 c54 -6 104 -10 113 -10 10 0 15 -10 15 -28 0 -16 7 -51
15 -78 l15 -49 -27 -22 c-93 -76 -250 -62 -310 27 -19 27 -23 47 -23 107 l0
73 53 -5 c28 -3 96 -10 149 -15z m1096 -39 c4 -70 -2 -92 -34 -131 -72 -84
-204 -92 -299 -16 -28 23 -29 26 -18 57 7 19 15 53 19 76 l6 42 52 5 c143 16
233 23 251 22 17 -1 20 -9 23 -55z m-1562 -221 c23 -5 56 -7 73 -4 29 6 31 5
31 -22 0 -47 -39 -300 -65 -424 -36 -168 -54 -252 -60 -277 -3 -13 -11 -23
-18 -23 -32 0 -119 33 -144 54 l-27 24 18 98 c10 55 35 187 56 294 21 107 41
215 45 240 9 56 13 63 33 55 8 -3 35 -10 58 -15z m1912 -37 c61 -322 96 -499
108 -557 20 -90 9 -107 -82 -136 -36 -11 -72 -20 -79 -20 -13 0 -56 159 -90
335 -13 67 -55 380 -55 409 0 5 17 6 38 3 20 -3 57 1 82 8 25 7 50 13 56 14 6
0 16 -25 22 -56z m-519 0 c37 2 73 6 81 8 12 3 17 -28 32 -166 16 -162 52
-385 84 -524 16 -70 11 -85 -27 -79 -20 2 -28 16 -50 78 -73 210 -146 339
-244 428 l-54 50 -10 118 c-5 65 -7 122 -5 125 2 4 32 -5 66 -18 51 -21 73
-25 127 -20z m-763 0 c-3 -21 -8 -74 -12 -118 l-7 -79 -54 -56 c-97 -97 -177
-237 -243 -422 -16 -44 -31 -82 -34 -85 -3 -3 -17 -2 -32 1 -31 8 -33 -11 20
276 20 107 42 262 51 344 8 82 16 151 18 153 2 1 19 -2 38 -7 52 -15 129 -11
179 10 72 29 83 27 76 -17z m405 -180 c54 -25 106 -75 129 -128 9 -22 32 -108
50 -190 18 -83 43 -179 56 -215 13 -35 21 -67 18 -70 -8 -8 -741 -6 -749 2 -4
4 2 31 13 60 11 29 36 125 56 213 42 182 59 225 115 279 76 74 208 95 312 49z
m-497 -318 c-19 -88 -45 -184 -57 -215 l-22 -55 -48 -3 c-33 -2 -49 1 -53 11
-10 28 90 267 148 351 26 38 60 77 64 73 2 -2 -12 -75 -32 -162z m765 113 c47
-64 102 -172 142 -280 40 -108 40 -108 -25 -108 l-54 0 -21 49 c-11 27 -37
119 -56 203 -19 84 -37 161 -39 171 -7 31 13 18 53 -35z M1290 1481 c-15 -29
-12 -56 8 -74 36 -33 72 -14 72 38 0 17 -5 36 -12 43 -18 18 -56 14 -68 -7z
M1427 1482 c-33 -37 -13 -98 30 -90 9 2 24 15 32 30 30 53 -23 104 -62 60z
M1200 1384 c-21 -24 -1 -68 32 -72 38 -4 56 30 33 64 -18 27 -47 31 -65 8z
M1511 1386 c-20 -24 -10 -70 17 -74 31 -5 52 15 52 48 0 39 -45 55 -69 26z
M1338 1344 c-33 -17 -78 -91 -78 -127 0 -41 32 -55 130 -55 101 0 120 11 120
70 0 32 -7 46 -45 83 -48 49 -78 56 -127 29z"/>
</g>
</svg>
