<?xml version="1.0" standalone="no"?>
<!DOCTYPE svg PUBLIC "-//W3C//DTD SVG 20010904//EN"
 "http://www.w3.org/TR/2001/REC-SVG-20010904/DTD/svg10.dtd">
<svg version="1.0" xmlns="http://www.w3.org/2000/svg"
 width="280.000000pt" height="280.000000pt" viewBox="0 0 280.000000 280.000000"
 preserveAspectRatio="xMidYMid meet">
<metadata>
Created by potrace 1.16, written by Peter Selinger 2001-2019
</metadata>
<g transform="translate(0.000000,280.000000) scale(0.100000,-0.100000)"
fill="currentColor" stroke="currentColor" stroke-width="2" stroke-linejoin="round" stroke-linecap="round">
<path d="M1337 2609 c-59 -14 -106 -43 -187 -115 -467 -415 -706 -630 -822
-738 -125 -116 -139 -133 -153 -180 -14 -46 -14 -57 0 -103 28 -94 102 -152
193 -153 l43 0 -2 -473 c-1 -406 1 -478 15 -515 24 -65 63 -109 124 -139 l57
-28 930 -3 c660 -2 941 0 968 8 50 15 113 72 128 117 15 48 14 103 -6 149 -20
49 -41 71 -87 95 -27 14 -40 28 -47 55 -13 46 -52 97 -96 124 l-35 22 0 298 0
299 48 -6 c109 -13 218 82 221 191 1 16 -5 47 -11 70 -15 49 -30 64 -413 402
-154 136 -355 315 -448 397 -201 180 -234 205 -294 223 -51 16 -71 16 -126 3z
m150 -156 c48 -37 223 -190 408 -359 55 -50 136 -122 180 -160 147 -126 308
-268 367 -323 51 -47 58 -59 58 -92 0 -29 -6 -42 -26 -58 -52 -41 -61 -35
-304 183 -102 92 -255 228 -340 304 -85 75 -198 176 -250 225 -139 128 -198
143 -294 74 -24 -18 -145 -124 -268 -237 -301 -275 -597 -542 -620 -558 -40
-29 -108 17 -108 71 0 38 18 56 435 427 176 157 369 331 430 386 147 135 176
154 236 154 39 0 56 -6 96 -37z m63 -420 c78 -71 191 -172 252 -225 61 -54
173 -155 250 -225 78 -70 149 -134 159 -141 18 -12 19 -33 19 -347 l0 -335
-45 -11 c-25 -6 -63 -24 -85 -40 -22 -16 -44 -29 -48 -29 -5 0 -12 44 -16 97
-6 95 -30 206 -57 268 -7 18 -15 96 -19 190 -6 136 -10 168 -29 212 -28 63
-87 119 -135 128 -61 12 -143 -25 -225 -100 l-44 -40 -146 -1 -146 -1 -52 49
c-166 155 -325 114 -373 -94 -5 -24 -10 -99 -10 -167 0 -110 -3 -135 -30 -218
-63 -197 -63 -480 0 -636 17 -39 30 -73 30 -74 0 -2 -43 -3 -95 -3 -89 0 -96
2 -125 28 -19 16 -35 43 -40 67 -10 44 -13 926 -3 988 6 40 62 94 513 497 59
52 155 139 214 193 59 53 116 97 126 97 10 0 82 -57 160 -127z m-494 -608 c21
-15 62 -52 91 -83 l51 -56 71 12 c90 15 142 15 231 0 l69 -12 57 62 c60 66
123 107 153 97 40 -12 67 -143 57 -276 -5 -70 -3 -96 10 -126 44 -104 56 -167
61 -333 l5 -165 -36 -44 c-51 -61 -67 -95 -73 -157 l-6 -54 -418 0 -418 0 -24
33 c-67 88 -87 167 -87 342 0 134 16 237 51 330 19 52 22 80 23 210 1 132 4
156 23 198 26 56 49 61 109 22z m1251 -812 c41 -19 68 -59 77 -112 7 -44 16
-54 68 -70 65 -21 88 -81 48 -121 -19 -19 -33 -20 -283 -20 -191 0 -266 3
-275 12 -19 19 -14 72 8 95 20 23 32 27 92 38 40 6 51 20 62 73 18 96 116 147
203 105z M1213 1075 c-70 -49 -38 -189 49 -210 22 -6 33 -1 59 24 29 30 31 36
27 88 -4 48 -10 61 -37 85 -35 31 -66 35 -98 13z M1448 1061 c-29 -26 -32 -34
-33 -89 0 -75 20 -102 76 -102 29 0 43 6 63 31 38 44 39 128 4 167 -30 31 -71
28 -110 -7z M1042 887 c-16 -16 -22 -36 -22 -66 0 -36 6 -49 34 -77 73 -73
151 -22 125 83 -19 74 -93 107 -137 60z M1615 888 c-47 -41 -50 -144 -4 -169
61 -32 129 25 129 109 0 76 -68 108 -125 60z M1315 801 c-45 -28 -144 -136
-160 -175 -25 -58 -19 -111 14 -148 28 -32 32 -33 98 -30 126 6 168 5 219 -3
151 -23 183 136 56 277 -86 96 -159 121 -227 79z"/>
</g>
</svg>
