<?xml version="1.0" standalone="no"?>
<!DOCTYPE svg PUBLIC "-//W3C//DTD SVG 20010904//EN"
 "http://www.w3.org/TR/2001/REC-SVG-20010904/DTD/svg10.dtd">
<svg version="1.0" xmlns="http://www.w3.org/2000/svg"
 width="280.000000pt" height="280.000000pt" viewBox="0 0 280.000000 280.000000"
 preserveAspectRatio="xMidYMid meet">
<metadata>
Created by potrace 1.16, written by Peter Selinger 2001-2019
</metadata>
<g transform="translate(0.000000,280.000000) scale(0.100000,-0.100000)"
fill="currentColor" stroke="currentColor" stroke-width="2" stroke-linejoin="round" stroke-linecap="round">
<path d="M208 2531 c-87 -29 -160 -103 -174 -178 -20 -106 25 -215 110 -267
43 -27 57 -30 125 -29 42 0 85 2 96 4 13 3 23 -4 32 -22 11 -22 71 -374 163
-949 51 -318 74 -389 148 -450 32 -26 33 -29 19 -51 -23 -38 -40 -127 -34
-180 12 -103 78 -198 171 -247 44 -24 63 -27 141 -27 81 0 96 3 144 30 68 37
125 103 147 167 15 46 22 149 13 188 -4 13 28 15 241 15 l245 0 -3 -80 c-3
-71 0 -87 26 -140 33 -68 88 -127 147 -158 60 -33 201 -31 270 3 63 31 122 90
147 148 25 56 34 153 19 207 -9 34 -8 42 8 60 55 60 68 160 30 238 l-21 44 26
26 c15 15 33 42 41 60 12 29 69 308 140 687 24 130 27 136 65 175 81 83 79
209 -6 286 -59 54 -37 53 -1020 45 -732 -5 -913 -4 -921 6 -5 7 -18 35 -28 63
-24 65 -107 149 -164 166 -31 9 -52 25 -79 60 -63 82 -182 126 -264 100z m122
-126 c76 -39 80 -169 8 -219 -36 -26 -111 -21 -147 10 -116 97 5 278 139 209z
m233 -194 c33 -37 77 -145 77 -189 0 -21 29 -52 50 -52 9 0 26 11 38 25 l22
25 914 0 c909 0 913 0 940 -21 33 -26 35 -75 6 -107 l-21 -22 -853 0 c-469 0
-895 -3 -945 -7 -84 -6 -94 -8 -103 -29 -9 -18 5 -120 61 -461 40 -241 80
-455 89 -476 18 -43 59 -78 111 -96 24 -8 228 -11 697 -11 l663 0 20 -26 c25
-31 27 -67 6 -84 -13 -10 -22 -8 -55 15 -57 40 -106 54 -185 54 -75 1 -136
-21 -202 -71 l-33 -25 -309 -2 -308 -2 -29 24 c-102 86 -242 104 -357 45 l-39
-20 -30 29 c-44 42 -64 88 -82 193 -14 89 -66 403 -151 925 -26 161 -42 233
-60 267 l-24 48 20 45 c11 25 24 45 28 45 5 0 25 -18 44 -39z m1967 -473 c0
-7 -5 -33 -11 -58 -6 -25 -35 -166 -65 -315 -29 -148 -58 -292 -64 -319 -14
-66 -40 -99 -100 -125 -50 -22 -53 -22 -674 -19 -737 4 -673 -8 -693 124 -6
43 -34 213 -62 377 -28 165 -51 310 -51 323 l0 24 860 0 c681 0 860 -3 860
-12z m-1455 -1117 c53 -24 83 -55 106 -105 33 -72 18 -149 -39 -209 -40 -43
-75 -57 -137 -57 -117 0 -195 78 -195 192 1 139 144 235 265 179z m1129 -19
c152 -105 91 -337 -93 -350 -108 -8 -190 63 -199 172 -6 72 12 119 60 160 71
62 160 68 232 18z M1453 1606 c-24 -21 -28 -32 -28 -74 0 -42 5 -56 29 -81 67
-70 151 -10 132 93 -8 41 -50 86 -82 86 -12 0 -36 -11 -51 -24z M1674 1597
c-22 -19 -28 -34 -32 -79 -4 -50 -2 -57 23 -76 37 -30 76 -28 108 4 43 42 48
121 11 158 -23 24 -78 20 -110 -7z M1302 1443 c-35 -30 -33 -98 3 -137 32 -34
87 -36 109 -4 27 38 20 95 -13 129 -34 33 -69 37 -99 12z M1829 1421 c-56 -57
-30 -151 41 -151 47 0 80 41 80 100 0 81 -64 108 -121 51z M1529 1356 c-20
-14 -57 -53 -83 -87 -41 -55 -46 -66 -46 -115 0 -45 5 -59 29 -86 l28 -31 149
-2 c163 -3 191 4 212 50 30 65 -4 159 -87 239 -47 46 -55 50 -108 53 -49 4
-63 1 -94 -21z M973 528 c-36 -9 -63 -49 -63 -92 0 -40 46 -86 86 -86 88 0
130 92 72 156 -24 27 -52 33 -95 22z M2035 505 c-56 -55 -16 -155 61 -155 51
0 89 38 89 90 0 34 -6 47 -28 66 -38 32 -90 32 -122 -1z"/>
</g>
</svg>
