<?xml version="1.0" standalone="no"?>
<!DOCTYPE svg PUBLIC "-//W3C//DTD SVG 20010904//EN"
 "http://www.w3.org/TR/2001/REC-SVG-20010904/DTD/svg10.dtd">
<svg version="1.0" xmlns="http://www.w3.org/2000/svg"
 width="280.000000pt" height="280.000000pt" viewBox="0 0 280.000000 280.000000"
 preserveAspectRatio="xMidYMid meet">
<metadata>
Created by potrace 1.16, written by Peter Selinger 2001-2019
</metadata>
<g transform="translate(0.000000,280.000000) scale(0.100000,-0.100000)"
fill="currentColor" stroke="currentColor" stroke-width="2" stroke-linejoin="round" stroke-linecap="round">
<path d="M535 2458 c-46 -27 -97 -105 -119 -182 -32 -112 -40 -186 -40 -391
l-1 -210 -77 -77 c-51 -52 -87 -98 -108 -142 -30 -60 -32 -72 -28 -131 11
-135 99 -221 241 -234 4 -1 6 -65 5 -143 l-3 -143 -53 -7 c-38 -4 -65 -15 -90
-35 -43 -34 -92 -123 -92 -166 0 -17 -14 -53 -32 -81 -27 -41 -33 -60 -33
-106 0 -66 17 -103 68 -144 l39 -31 1177 0 1178 0 37 29 c74 56 88 160 36 253
-17 29 -30 65 -30 80 0 16 -11 51 -24 80 -31 65 -90 110 -157 119 -47 6 -48 7
-54 48 -3 22 -5 88 -3 146 l3 105 47 7 c134 19 213 133 193 278 -9 67 -49 130
-142 223 l-81 82 10 100 c17 174 -6 415 -52 539 -24 64 -74 124 -116 142 -106
44 -310 -29 -458 -166 l-43 -40 -84 50 c-112 68 -170 84 -280 78 -94 -6 -171
-34 -265 -98 l-45 -30 -66 55 c-36 30 -113 78 -170 107 -93 47 -112 53 -176
56 -61 2 -78 -1 -112 -20z m180 -109 c62 -23 186 -103 225 -144 l24 -26 -29
-24 c-17 -13 -34 -24 -38 -25 -5 0 -36 19 -70 43 -34 24 -75 49 -90 55 -41 17
-91 15 -110 -5 -20 -23 -34 -107 -42 -253 -7 -111 -8 -116 -38 -147 -53 -56
-57 -49 -57 100 0 272 57 447 146 447 13 0 48 -9 79 -21z m1484 -4 c40 -34 66
-109 80 -227 13 -117 15 -315 2 -323 -6 -3 -26 9 -45 26 -34 30 -36 34 -36 98
0 36 -7 116 -15 176 -13 96 -18 113 -40 133 -19 16 -33 20 -53 16 -42 -10
-103 -43 -149 -80 -23 -19 -48 -34 -55 -34 -8 0 -27 13 -42 29 l-27 28 46 40
c88 75 220 142 282 143 12 0 35 -11 52 -25z m-682 -95 c65 -29 148 -89 278
-201 634 -545 705 -618 705 -717 0 -55 -28 -97 -76 -112 -45 -15 -59 -6 -249
159 -130 113 -377 323 -569 484 -104 87 -172 121 -227 114 -50 -7 -126 -52
-230 -137 -241 -198 -301 -250 -486 -412 -111 -97 -216 -184 -232 -193 -47
-24 -88 -19 -122 14 -26 26 -29 37 -29 89 0 69 18 99 121 198 136 129 550 485
727 623 23 18 76 51 118 72 68 36 82 39 152 39 54 0 90 -6 119 -20z m-52 -424
c28 -18 91 -69 140 -113 50 -43 146 -126 215 -183 114 -96 327 -279 408 -351
l32 -29 0 -210 c0 -133 -4 -211 -10 -215 -6 -4 -25 -31 -41 -61 -18 -31 -38
-54 -47 -54 -34 0 -120 -49 -145 -81 -25 -33 -44 -92 -49 -154 -2 -16 -6 -29
-10 -27 -5 1 -48 2 -97 2 l-89 0 -4 233 -3 232 -32 66 c-40 81 -102 140 -191
182 -59 28 -77 32 -152 31 -156 -1 -275 -75 -342 -212 l-33 -67 -3 -232 -3
-233 -93 0 -93 0 -11 66 c-18 108 -72 167 -169 188 -24 6 -40 20 -63 56 -17
27 -38 54 -46 60 -11 10 -14 51 -14 221 l0 208 148 128 c81 70 183 159 227
198 244 217 460 385 495 385 14 0 48 -15 75 -34z m18 -832 c55 -19 131 -83
157 -133 38 -75 47 -186 33 -404 l-6 -107 -284 0 -283 0 0 203 c0 239 8 280
72 352 81 92 202 126 311 89z m-1032 -341 c17 -15 44 -55 60 -90 15 -35 34
-63 41 -64 7 -1 30 0 50 1 51 2 94 -30 109 -80 22 -72 27 -70 -227 -70 -198 0
-230 2 -246 17 -26 24 -22 58 12 96 25 29 30 43 30 86 0 56 19 104 47 120 34
20 90 13 124 -16z m2010 -2 c25 -26 29 -37 29 -85 0 -50 4 -60 35 -95 24 -26
35 -48 35 -68 0 -54 -14 -58 -237 -61 -113 -2 -215 -1 -229 2 -20 5 -24 12
-24 46 0 30 8 48 31 75 28 31 37 35 79 35 40 0 52 4 69 25 11 14 22 39 26 55
3 16 24 45 46 64 51 47 97 49 140 7z M1330 1621 c-48 -15 -87 -40 -119 -77
-42 -47 -51 -72 -62 -167 -10 -87 1 -151 27 -161 9 -3 105 -6 214 -6 251 0
246 -3 243 129 -2 112 -27 175 -89 230 -62 54 -142 74 -214 52z m146 -110 c45
-27 66 -78 62 -154 l-3 -62 -50 0 -50 0 -3 118 c-1 64 1 117 5 117 4 0 22 -9
39 -19z m-128 -46 c2 -28 1 -78 -3 -112 l-7 -63 -48 0 c-58 0 -63 8 -51 95 12
85 49 139 91 132 10 -1 16 -17 18 -52z M1167 682 c-23 -25 -22 -85 1 -105 61
-55 138 41 82 101 -25 27 -61 28 -83 4z"/>
</g>
</svg>
