<?xml version="1.0" standalone="no"?>
<!DOCTYPE svg PUBLIC "-//W3C//DTD SVG 20010904//EN"
 "http://www.w3.org/TR/2001/REC-SVG-20010904/DTD/svg10.dtd">
<svg version="1.0" xmlns="http://www.w3.org/2000/svg"
 width="280.000000pt" height="280.000000pt" viewBox="0 0 280.000000 280.000000"
 preserveAspectRatio="xMidYMid meet">
<metadata>
Created by potrace 1.16, written by Peter Selinger 2001-2019
</metadata>
<g transform="translate(0.000000,280.000000) scale(0.100000,-0.100000)"
fill="currentColor" stroke="none">
<path d="M572 2414 c-43 -22 -66 -53 -92 -120 -39 -106 -52 -214 -48 -424 l3
-195 -85 -85 c-101 -100 -132 -157 -132 -240 1 -123 80 -210 192 -210 l40 0 0
-175 0 -175 -44 0 c-81 0 -134 -33 -167 -105 -10 -22 -19 -57 -19 -77 0 -25
-8 -45 -25 -64 -78 -84 -38 -219 71 -245 22 -5 524 -9 1132 -9 1180 0 1130 -2
1180 53 49 52 47 147 -2 200 -17 18 -27 44 -31 82 -4 31 -17 70 -29 88 -27 41
-98 77 -153 77 l-43 0 0 175 0 175 43 0 c84 1 158 55 186 139 32 98 -1 181
-125 311 l-94 98 10 98 c12 113 6 270 -16 394 -31 175 -91 250 -199 250 -90 0
-232 -65 -331 -152 -86 -76 -77 -73 -129 -38 -92 63 -152 84 -255 88 -114 5
-189 -16 -288 -80 l-63 -41 -42 40 c-144 139 -349 216 -445 167z m156 -69 c54
-16 170 -89 237 -149 l40 -36 -35 -30 c-54 -46 -63 -46 -121 0 -110 86 -177
103 -204 50 -19 -36 -35 -162 -35 -275 l0 -80 -40 -32 c-21 -18 -43 -33 -48
-33 -23 0 -30 186 -12 327 17 130 39 200 75 239 37 39 63 42 143 19z m1435 4
c62 -28 96 -149 104 -370 8 -232 0 -253 -69 -181 l-36 37 -4 150 c-5 186 -18
225 -73 225 -43 0 -94 -25 -163 -79 -28 -23 -55 -41 -59 -41 -4 0 -26 16 -48
34 l-40 34 30 32 c70 74 243 169 307 170 15 0 38 -5 51 -11z m-621 -126 c103
-46 332 -230 663 -534 251 -231 275 -260 275 -346 0 -46 -4 -58 -32 -88 -22
-23 -45 -38 -68 -41 -44 -7 -74 13 -266 181 -75 66 -202 174 -282 240 -368
306 -395 324 -465 311 -42 -8 -144 -76 -256 -170 -46 -39 -112 -93 -145 -120
-97 -78 -304 -254 -386 -327 -98 -87 -136 -109 -185 -109 -68 1 -105 45 -105
127 0 37 7 60 28 94 45 70 334 335 638 585 179 148 270 205 359 228 50 13 165
-3 227 -31z m-97 -370 c84 -56 601 -491 738 -620 l67 -63 0 -214 c0 -204 -1
-214 -21 -232 -12 -10 -32 -38 -45 -60 -20 -34 -32 -43 -62 -49 -92 -17 -152
-91 -152 -188 l0 -57 -110 0 -110 0 0 203 c0 287 -23 362 -136 451 -67 52
-139 76 -232 76 -106 0 -173 -28 -248 -104 -97 -98 -104 -127 -104 -401 l0
-225 -110 0 -110 0 0 52 c0 101 -63 179 -157 194 -33 5 -44 12 -53 35 -7 16
-27 44 -45 63 l-32 35 -2 213 -1 214 72 65 c223 198 686 580 752 620 41 25 54
24 101 -8z m87 -856 c55 -32 94 -76 121 -137 19 -41 21 -66 21 -265 l1 -220
-288 -3 -288 -2 3 232 c3 216 5 236 25 273 19 36 59 79 105 114 39 29 94 41
174 38 66 -3 89 -8 126 -30z m-1078 -291 c40 -16 79 -66 96 -121 16 -49 24
-55 63 -44 70 20 147 -60 133 -136 -8 -40 27 -36 -291 -35 l-190 0 -22 26
c-32 36 -29 61 16 105 36 36 38 42 37 98 -1 46 3 64 19 81 37 41 83 49 139 26z
m1991 -23 c25 -25 27 -33 22 -83 -5 -54 -5 -56 34 -90 46 -40 55 -86 24 -120
-17 -19 -31 -20 -247 -20 l-228 0 -12 25 c-16 36 5 97 44 130 26 22 39 26 76
23 l45 -3 31 60 c37 72 81 105 141 105 33 0 48 -6 70 -27z M1295 1591 c-52
-23 -112 -91 -119 -133 -3 -18 -8 -67 -11 -109 -10 -116 -8 -117 190 -123 163
-5 231 2 246 26 12 19 11 152 -2 202 -14 56 -62 114 -113 137 -53 24 -139 24
-191 0z m223 -111 c18 -27 22 -47 22 -112 l0 -79 -57 3 -58 3 -3 109 c-1 61 0
116 2 123 9 22 67 -8 94 -47z m-168 -70 l0 -121 -57 3 -58 3 -3 40 c-6 75 7
126 43 162 18 18 42 33 54 33 20 0 21 -5 21 -120z M1172 708 c-19 -19 -15 -82
7 -102 15 -14 24 -15 40 -6 30 16 32 85 3 108 -20 15 -35 15 -50 0z"/>
</g>
</svg>
