<?xml version="1.0" standalone="no"?>
<!DOCTYPE svg PUBLIC "-//W3C//DTD SVG 20010904//EN"
 "http://www.w3.org/TR/2001/REC-SVG-20010904/DTD/svg10.dtd">
<svg version="1.0" xmlns="http://www.w3.org/2000/svg"
 width="280.000000pt" height="280.000000pt" viewBox="0 0 280.000000 280.000000"
 preserveAspectRatio="xMidYMid meet">
<metadata>
Created by potrace 1.16, written by Peter Selinger 2001-2019
</metadata>
<g transform="translate(0.000000,280.000000) scale(0.100000,-0.100000)"
fill="currentColor" stroke="currentColor" stroke-width="2" stroke-linejoin="round" stroke-linecap="round">
<path d="M1270 2614 c-472 -58 -864 -360 -1025 -790 -66 -177 -79 -248 -79
-449 0 -154 3 -193 22 -269 43 -169 139 -373 229 -485 64 -79 209 -216 285
-268 137 -95 268 -151 433 -188 44 -9 107 -30 139 -46 80 -40 151 -40 232 0
32 15 91 34 129 41 284 51 570 232 753 475 152 202 242 475 242 730 0 187 -31
340 -104 511 -155 367 -472 623 -891 719 -68 16 -295 28 -365 19z m267 -84
c317 -42 592 -200 778 -448 217 -290 287 -664 191 -1022 -58 -216 -194 -421
-390 -588 -69 -59 -80 -56 -126 30 -34 63 -28 81 49 142 38 31 91 83 117 116
39 50 51 59 68 53 12 -4 37 -7 56 -8 32 0 35 2 35 30 0 25 -7 33 -38 49 -41
20 -42 26 -13 116 10 31 16 36 54 41 50 6 65 18 60 50 -2 20 -10 25 -48 29
-42 5 -45 7 -47 35 -7 82 -28 187 -48 245 -19 55 -24 92 -28 235 -7 239 -42
383 -111 458 -32 35 -37 37 -92 37 -101 -1 -215 -68 -336 -200 l-75 -82 -94
12 c-72 8 -119 8 -202 -1 l-109 -13 -25 35 c-59 78 -166 169 -247 210 -72 36
-87 40 -138 37 -66 -5 -84 -17 -122 -87 -48 -89 -67 -188 -76 -396 -7 -169
-11 -198 -34 -263 -17 -47 -29 -106 -34 -165 l-7 -92 -49 -5 c-63 -6 -83 -32
-47 -61 13 -10 38 -19 57 -19 39 0 44 -6 65 -83 l17 -59 -44 -19 c-35 -14 -44
-23 -44 -42 0 -41 22 -50 71 -31 l43 18 25 -35 c62 -82 104 -121 230 -215 2
-2 -4 -22 -14 -46 -16 -42 -60 -98 -77 -98 -12 0 -138 107 -181 153 -150 162
-246 341 -288 532 -68 315 -10 634 165 905 60 93 208 245 299 308 238 164 532
238 804 202z m-655 -515 c72 -36 133 -90 201 -175 33 -41 65 -78 72 -83 8 -4
42 0 77 8 79 19 254 19 332 1 33 -8 64 -12 70 -10 6 3 31 32 56 66 79 106 192
194 282 218 68 19 92 -11 129 -166 17 -72 21 -119 21 -249 0 -157 0 -162 35
-265 26 -76 36 -123 37 -174 l1 -70 -35 -6 c-46 -8 -60 -17 -60 -39 0 -25 20
-41 51 -41 36 0 39 -7 25 -55 -11 -37 -14 -40 -45 -37 -58 4 -83 -41 -40 -70
32 -21 19 -46 -68 -128 -58 -56 -97 -83 -167 -115 -184 -87 -303 -113 -401
-89 -56 14 -69 14 -121 1 -66 -17 -112 -12 -242 23 -180 50 -337 147 -407 254
-18 26 -17 27 9 55 24 25 26 32 16 51 -9 17 -19 21 -51 18 -39 -3 -41 -2 -54
36 -17 49 -13 56 30 56 29 0 36 4 41 27 8 31 -15 53 -58 53 -28 0 -28 1 -28
61 0 69 20 157 56 242 22 53 24 66 18 165 -10 180 30 393 85 448 30 30 55 28
133 -11z m1012 -1491 c15 -40 6 -54 -56 -83 -59 -27 -217 -76 -222 -69 -8 10
-28 69 -25 71 2 2 49 16 104 31 55 15 116 36 135 46 43 24 56 24 64 4z m-910
-18 c34 -13 96 -32 139 -42 42 -10 77 -23 77 -29 0 -5 -9 -21 -19 -34 -23 -31
-55 -26 -183 24 -111 44 -124 54 -109 84 15 27 21 26 95 -3z m459 -60 c18 -7
45 -28 60 -45 51 -61 27 -191 -38 -207 -37 -9 -40 0 -25 58 12 49 12 52 -10
70 -27 22 -39 23 -68 2 -26 -18 -28 -47 -7 -97 8 -20 15 -39 15 -42 0 -10 -45
-4 -60 8 -67 53 -82 149 -33 208 46 55 105 71 166 45z m-536 -71 c28 -13 93
-36 145 -51 105 -31 118 -38 118 -65 0 -25 -13 -24 -112 7 -119 37 -228 92
-228 116 0 24 16 23 77 -7z m1053 7 c0 -22 -89 -68 -202 -106 -106 -36 -148
-42 -148 -23 0 21 27 47 48 47 27 0 171 49 222 75 55 29 80 31 80 7z M1766
1278 c-51 -14 -136 -95 -136 -129 0 -14 6 -34 14 -44 13 -18 17 -18 71 -5 50
12 65 12 115 -2 65 -17 90 -10 90 27 0 17 -11 32 -36 49 l-37 25 26 6 c55 14
58 56 5 74 -36 13 -59 13 -112 -1z M954 1270 c-62 -25 -91 -108 -59 -170 41
-80 169 -78 211 2 50 97 -51 209 -152 168z M1360 1122 c-53 -9 -64 -41 -29
-86 39 -50 3 -95 -52 -63 -37 21 -63 22 -79 2 -46 -55 89 -122 166 -80 30 16
34 16 55 1 56 -39 161 -1 167 61 4 40 -20 50 -63 23 -41 -25 -57 -25 -80 0
-16 18 -16 20 4 53 24 39 26 60 9 74 -17 13 -66 21 -98 15z"/>
</g>
</svg>
