<?xml version="1.0" standalone="no"?>
<!DOCTYPE svg PUBLIC "-//W3C//DTD SVG 20010904//EN"
 "http://www.w3.org/TR/2001/REC-SVG-20010904/DTD/svg10.dtd">
<svg version="1.0" xmlns="http://www.w3.org/2000/svg"
 width="280.000000pt" height="280.000000pt" viewBox="0 0 280.000000 280.000000"
 preserveAspectRatio="xMidYMid meet">
<metadata>
Created by potrace 1.16, written by Peter Selinger 2001-2019
</metadata>
<g transform="translate(0.000000,280.000000) scale(0.100000,-0.100000)"
fill="currentColor" stroke="none">
<path d="M1340 2650 c-58 -11 -110 -45 -212 -137 -53 -48 -231 -209 -395 -358
-432 -390 -549 -502 -563 -535 -18 -43 -8 -130 18 -167 30 -42 86 -67 152 -68
l55 0 5 -520 c6 -581 1 -548 79 -618 22 -20 58 -41 80 -47 27 -7 344 -9 1008
-8 l968 3 34 24 c46 33 75 101 67 155 -10 60 -44 103 -103 132 -37 18 -53 32
-53 46 0 44 -60 127 -112 154 l-28 15 0 344 c0 191 4 345 9 345 5 0 26 -7 47
-16 49 -21 104 -13 156 21 67 44 88 137 48 214 -11 22 -65 79 -127 133 -59 53
-223 198 -363 323 -140 125 -326 291 -413 369 -206 184 -261 214 -357 196z
m108 -79 c42 -22 92 -65 442 -381 47 -42 126 -112 175 -155 82 -72 131 -116
385 -344 97 -88 117 -124 96 -175 -26 -63 -92 -85 -148 -48 -14 9 -127 107
-250 216 -377 337 -391 350 -463 411 -38 33 -102 90 -142 127 -40 37 -91 77
-114 89 -61 31 -97 17 -200 -79 -46 -42 -145 -131 -219 -196 -74 -66 -164
-147 -200 -180 -36 -34 -79 -72 -95 -86 -17 -14 -93 -84 -170 -154 -77 -71
-153 -137 -170 -147 -44 -28 -81 -24 -116 10 -24 24 -29 38 -29 77 0 45 3 50
62 108 35 34 119 111 188 171 68 61 275 247 460 414 184 166 351 311 370 322
45 24 92 24 138 0z m13 -367 c35 -31 111 -98 169 -149 58 -51 170 -150 250
-220 80 -70 200 -177 268 -239 l122 -111 0 -373 c0 -289 -3 -374 -12 -377 -7
-2 -30 -6 -50 -10 -61 -10 -129 -63 -161 -125 -15 -30 -32 -55 -38 -55 -7 0
-10 52 -10 156 2 168 -13 271 -51 357 -18 40 -21 69 -23 187 -1 170 -20 240
-77 297 -32 32 -45 38 -82 38 -57 0 -127 -37 -197 -107 -56 -54 -56 -55 -95
-44 -50 14 -149 14 -214 0 l-50 -11 -58 59 c-70 71 -131 103 -195 103 -41 0
-52 -5 -84 -38 -59 -58 -77 -127 -79 -297 -1 -124 -4 -149 -28 -219 -37 -105
-50 -231 -42 -406 6 -156 25 -236 72 -305 13 -20 24 -40 24 -45 0 -6 -51 -10
-123 -10 -114 0 -125 2 -160 25 -74 51 -72 28 -75 610 -1 286 -1 529 2 541 5
19 111 119 426 399 80 71 168 150 195 176 152 141 279 249 295 249 10 0 46
-25 81 -56z m-425 -715 c17 -10 58 -48 90 -83 l60 -65 60 16 c57 15 215 14
284 -2 21 -5 31 1 63 43 59 78 102 106 162 107 l50 0 25 -50 c23 -46 25 -61
26 -205 2 -136 5 -161 23 -203 38 -83 51 -170 51 -356 l0 -173 -31 -36 c-46
-52 -61 -96 -57 -166 l3 -61 -435 -3 c-239 -1 -445 0 -458 3 -30 7 -88 69
-117 125 -40 79 -48 141 -43 345 4 185 5 192 37 280 31 86 33 97 34 245 2 139
4 160 25 201 34 70 76 81 148 38z m1306 -845 c37 -19 66 -64 74 -115 9 -56 19
-69 56 -69 21 0 41 -11 64 -34 45 -45 47 -92 5 -138 l-29 -33 -271 -3 c-187
-2 -277 1 -292 8 -11 7 -27 27 -35 47 -31 72 29 153 112 153 27 0 46 5 49 13
2 6 9 31 15 55 29 111 150 167 252 116z M1202 1093 c-7 -3 -19 -18 -27 -33
-43 -83 21 -196 100 -176 28 7 65 59 65 92 0 34 -28 91 -52 108 -22 16 -60 20
-86 9z m68 -53 c27 -27 28 -95 1 -110 -45 -23 -94 76 -56 113 21 22 31 21 55
-3z M1438 1083 c-39 -45 -50 -112 -27 -156 16 -30 28 -37 70 -37 85 0 125 123
62 192 -21 24 -85 24 -105 1z m80 -35 c17 -17 15 -69 -4 -96 -28 -41 -74 -22
-74 30 0 57 47 97 78 66z M1021 894 c-57 -73 19 -197 100 -164 56 24 63 113
12 164 -35 36 -84 35 -112 0z m81 -31 c22 -26 26 -45 17 -70 -11 -29 -43 -30
-63 -1 -38 54 5 119 46 71z M1603 905 c-44 -31 -53 -116 -16 -157 16 -18 66
-24 98 -12 44 17 61 128 25 164 -24 24 -76 26 -107 5z m81 -41 c18 -46 -8 -94
-50 -94 -41 0 -41 75 0 102 19 13 44 9 50 -8z M1294 821 c-47 -29 -153 -159
-165 -203 -15 -56 4 -114 44 -139 27 -17 42 -19 92 -14 72 8 129 8 211 0 58
-6 64 -5 94 22 43 39 51 101 21 160 -25 51 -124 159 -162 179 -39 20 -98 18
-135 -5z m124 -47 c15 -9 53 -48 85 -86 67 -82 76 -127 32 -168 -21 -20 -30
-22 -67 -15 -54 10 -139 10 -200 0 -42 -7 -49 -5 -73 20 -37 36 -29 80 26 151
85 110 136 135 197 98z"/>
</g>
</svg>
