<?xml version="1.0" standalone="no"?>
<!DOCTYPE svg PUBLIC "-//W3C//DTD SVG 20010904//EN"
 "http://www.w3.org/TR/2001/REC-SVG-20010904/DTD/svg10.dtd">
<svg version="1.0" xmlns="http://www.w3.org/2000/svg"
 width="280.000000pt" height="280.000000pt" viewBox="0 0 280.000000 280.000000"
 preserveAspectRatio="xMidYMid meet">
<metadata>
Created by potrace 1.16, written by Peter Selinger 2001-2019
</metadata>
<g transform="translate(0.000000,280.000000) scale(0.100000,-0.100000)"
fill="currentColor" stroke="currentColor" stroke-width="2">
<path d="M543 2555 c-85 -51 -104 -129 -137 -575 -3 -30 -17 -84 -32 -120 -50
-120 -33 -212 63 -355 22 -33 58 -94 79 -135 21 -41 65 -102 96 -136 32 -34
58 -66 58 -71 0 -20 -59 -64 -135 -98 -289 -133 -330 -165 -401 -310 -73 -150
-89 -285 -42 -362 34 -57 135 -103 292 -133 243 -45 448 -63 683 -59 166 4
184 6 210 25 40 30 45 98 9 137 l-25 27 -208 0 c-223 0 -366 13 -585 54 -157
29 -208 47 -208 73 0 10 6 41 14 68 38 141 71 177 234 256 296 142 305 148
337 238 33 95 15 161 -71 254 -38 41 -70 90 -96 147 -22 47 -56 108 -77 135
-71 95 -77 128 -36 218 21 45 28 81 35 184 14 199 30 337 41 348 7 7 14 5 22
-5 17 -22 157 -135 185 -149 16 -8 33 -9 60 -2 51 14 132 16 224 6 91 -9 120
2 230 91 59 47 88 64 88 50 0 -2 7 -40 16 -83 8 -43 19 -152 23 -243 7 -136
12 -173 29 -210 12 -25 22 -65 22 -92 0 -38 -6 -54 -34 -90 -19 -24 -59 -87
-88 -142 -29 -54 -79 -128 -111 -163 -68 -75 -77 -96 -77 -167 0 -58 14 -108
41 -146 22 -32 108 -84 201 -121 143 -58 254 -120 307 -171 46 -45 56 -50 84
-44 17 3 42 16 55 29 20 19 23 28 17 67 -17 114 -67 150 -450 320 -42 19 -65
40 -65 59 0 9 23 40 50 69 28 29 68 87 89 130 22 42 58 102 80 132 70 93 95
154 94 235 0 39 -7 86 -15 105 -19 46 -36 143 -43 255 -15 220 -56 394 -105
442 -73 71 -159 62 -271 -30 -112 -92 -97 -87 -257 -87 l-143 0 -77 58 c-156
118 -202 133 -279 87z"/>
<path d="M2094 2449 c-27 -17 -73 -49 -102 -71 -49 -38 -55 -40 -108 -36 -77
7 -145 -7 -166 -33 -33 -40 -16 -135 26 -144 12 -2 66 -6 121 -8 122 -5 166 8
235 70 28 25 53 43 57 40 3 -4 12 -62 19 -129 7 -68 18 -152 23 -188 6 -36 15
-105 21 -155 25 -202 39 -262 75 -322 37 -61 43 -83 23 -83 -20 0 -224 -67
-256 -84 -50 -26 -82 -72 -82 -119 0 -122 59 -191 215 -250 55 -21 110 -43
122 -48 36 -14 110 -87 124 -122 7 -17 29 -50 48 -73 20 -22 46 -52 58 -67 29
-35 67 -35 89 -2 38 58 -13 243 -89 324 -50 53 -137 105 -252 151 -58 23 -108
46 -110 51 -5 7 25 18 100 35 98 21 184 62 214 100 52 66 46 123 -25 245 -31
53 -44 87 -44 114 0 21 -11 124 -25 229 -62 484 -69 514 -126 569 -53 50 -111
52 -185 6z"/>
<path d="M2066 769 c-30 -36 -32 -58 -9 -106 27 -58 91 -74 129 -32 26 29 13
117 -21 147 -36 31 -68 28 -99 -9z"/>
<path d="M2255 776 c-31 -31 -40 -69 -29 -115 18 -70 96 -81 134 -18 29 47 26
93 -9 128 -36 35 -64 37 -96 5z"/>
<path d="M1642 749 c-31 -12 -62 -67 -62 -111 0 -28 7 -42 31 -62 41 -35 61
-33 99 11 28 32 32 41 27 80 -7 66 -46 100 -95 82z"/>
<path d="M1424 729 c-40 -44 -15 -156 39 -175 32 -10 66 5 83 37 45 88 -60
206 -122 138z"/>
<path d="M1945 645 c-34 -33 -33 -84 0 -124 45 -52 93 -53 120 -1 23 45 18 69
-24 111 -45 45 -63 48 -96 14z"/>
<path d="M2376 627 c-34 -44 -34 -95 -1 -131 32 -35 51 -33 91 10 47 49 49 94
8 132 -36 32 -68 28 -98 -11z"/>
<path d="M1306 599 c-30 -24 -34 -61 -12 -114 16 -37 42 -55 79 -55 75 0 72
136 -3 175 -36 19 -32 19 -64 -6z"/>
<path d="M1744 586 c-71 -71 -28 -174 62 -152 52 13 72 119 29 161 -32 33 -51
31 -91 -9z"/>
<path d="M2148 572 c-35 -23 -123 -139 -132 -175 -7 -29 11 -73 39 -97 23 -19
270 -22 308 -3 38 19 60 73 47 109 -16 41 -109 153 -141 169 -38 20 -88 19
-121 -3z"/>
<path d="M1488 503 c-23 -21 -59 -65 -80 -97 -48 -75 -50 -113 -7 -155 34 -34
61 -38 134 -19 35 9 55 9 93 0 40 -11 54 -10 84 2 46 19 68 50 68 94 0 38 -20
68 -101 153 -52 55 -59 59 -102 59 -40 0 -53 -6 -89 -37z"/>
</g>
</svg>
