<?xml version="1.0" standalone="no"?>
<!DOCTYPE svg PUBLIC "-//W3C//DTD SVG 20010904//EN"
 "http://www.w3.org/TR/2001/REC-SVG-20010904/DTD/svg10.dtd">
<svg version="1.0" xmlns="http://www.w3.org/2000/svg"
 width="280.000000pt" height="280.000000pt" viewBox="0 0 280.000000 280.000000"
 preserveAspectRatio="xMidYMid meet">
<metadata>
Created by potrace 1.16, written by Peter Selinger 2001-2019
</metadata>
<g transform="translate(0.000000,280.000000) scale(0.100000,-0.100000)"
fill="#27AE60" stroke="none">
<path d="M604 2530 c-34 -13 -62 -58 -84 -129 -24 -81 -50 -294 -50 -407 0
-72 -4 -89 -31 -140 -28 -53 -31 -66 -26 -124 4 -68 44 -158 92 -210 13 -14
42 -62 65 -106 26 -50 65 -105 102 -144 60 -62 60 -63 54 -108 -3 -25 -10 -49
-14 -53 -4 -4 -54 -26 -112 -49 -330 -131 -404 -204 -452 -442 -19 -95 -20
-101 -3 -144 21 -56 60 -86 155 -117 88 -29 337 -72 500 -86 159 -14 427 -13
470 2 29 10 36 18 38 43 2 18 -4 39 -15 53 -18 22 -23 23 -195 21 -235 -1
-425 18 -668 66 -124 25 -150 35 -156 61 -8 31 3 105 28 178 34 104 91 145
346 251 57 24 119 55 139 70 48 37 73 94 73 172 l0 64 -68 66 c-67 66 -101
122 -136 222 -8 24 -28 54 -46 68 -39 30 -57 66 -65 128 -7 47 -5 52 29 93
l36 43 0 117 c0 107 19 309 35 374 12 47 40 34 173 -81 56 -49 66 -53 95 -47
67 14 221 17 277 5 l58 -12 93 81 c52 44 103 81 115 81 18 0 22 -10 33 -77 24
-140 30 -206 30 -328 1 -121 1 -121 32 -155 30 -32 31 -37 27 -103 -4 -67 -5
-71 -47 -109 -30 -28 -50 -60 -67 -105 -31 -81 -72 -143 -141 -209 -53 -51
-53 -51 -53 -115 0 -75 27 -138 74 -173 17 -14 72 -41 121 -61 221 -89 260
-110 320 -169 57 -56 80 -65 116 -46 58 32 -27 158 -155 230 -22 12 -101 46
-175 76 -74 30 -143 61 -153 71 -12 11 -18 30 -18 58 0 33 6 47 31 71 39 36
109 135 139 194 13 25 40 65 61 90 96 114 112 247 43 353 -21 31 -24 46 -19
80 8 51 -10 263 -32 372 -21 110 -50 165 -96 188 -32 16 -42 17 -74 6 -43 -14
-140 -76 -196 -126 -42 -38 -38 -37 -125 -22 -48 9 -82 8 -139 -1 -82 -13 -71
-17 -168 60 -55 44 -159 100 -184 99 -9 0 -26 -4 -37 -9z M2114 2414 c-32 -19
-74 -50 -92 -67 -33 -32 -34 -32 -140 -32 -59 -1 -119 -6 -133 -12 l-27 -12
16 -55 c14 -53 17 -55 41 -48 38 11 155 6 179 -7 28 -15 43 -7 129 69 37 33
74 60 83 60 12 0 20 -23 33 -97 10 -54 17 -121 17 -150 0 -28 4 -62 9 -75 5
-13 17 -100 26 -193 18 -177 28 -218 77 -323 16 -34 28 -69 26 -78 -3 -19 -41
-32 -199 -70 -64 -15 -115 -33 -128 -45 -47 -44 -10 -188 61 -236 18 -12 86
-43 150 -69 134 -53 190 -95 223 -166 12 -26 32 -55 44 -65 12 -10 34 -41 49
-68 15 -27 32 -48 37 -45 6 3 10 41 10 85 0 68 -5 89 -29 139 -33 67 -82 126
-132 156 -18 12 -91 46 -160 75 -70 30 -131 60 -136 67 -18 29 -8 47 30 54
155 26 293 85 329 140 16 26 16 28 -30 119 -66 130 -74 158 -87 297 -6 68 -18
161 -26 208 -8 47 -14 104 -14 127 0 99 -53 287 -91 325 -37 38 -72 36 -145
-8z M2095 785 c-36 -35 -34 -88 5 -126 30 -31 55 -32 88 -7 29 24 4 137 -33
152 -27 10 -35 7 -60 -19z M2271 783 c-41 -51 -37 -117 9 -140 76 -38 136 116
61 156 -31 17 -48 13 -70 -16z M1449 738 c-27 -44 -19 -95 18 -125 37 -30 57
-29 83 5 29 36 22 98 -15 129 -36 32 -62 29 -86 -9z M1647 758 c-29 -22 -48
-82 -36 -116 11 -32 49 -58 73 -49 23 9 56 67 56 98 0 32 -35 79 -59 79 -9 0
-25 -6 -34 -12z M1975 660 c-35 -39 -17 -109 35 -130 28 -12 33 -11 55 10 14
13 25 32 25 42 0 32 -30 78 -56 88 -35 14 -38 13 -59 -10z M2396 657 c-37 -30
-42 -95 -10 -128 20 -20 23 -20 52 -5 61 32 78 83 41 130 -25 32 -45 33 -83 3z
M1352 629 c-35 -13 -46 -49 -29 -92 21 -48 60 -74 92 -59 73 33 12 179 -63
151z M1774 618 c-39 -30 -44 -38 -44 -74 0 -36 16 -59 48 -69 17 -5 30 1 57
28 42 42 45 78 10 112 -30 31 -35 31 -71 3z M2180 599 c-36 -15 -59 -37 -102
-103 -42 -65 -47 -102 -19 -137 18 -22 25 -23 160 -24 131 -2 142 0 160 19 31
35 34 61 10 108 -25 49 -70 100 -115 128 -34 22 -56 24 -94 9z M1544 551 c-40
-24 -99 -94 -125 -147 -19 -41 -20 -45 -4 -78 22 -46 56 -59 123 -46 34 6 70
6 104 0 38 -8 61 -7 81 1 26 11 57 54 57 79 0 19 -100 168 -123 183 -40 26
-79 29 -113 8z"/>
</g>
</svg>
