<?xml version="1.0" standalone="no"?>
<!DOCTYPE svg PUBLIC "-//W3C//DTD SVG 20010904//EN"
 "http://www.w3.org/TR/2001/REC-SVG-20010904/DTD/svg10.dtd">
<svg version="1.0" xmlns="http://www.w3.org/2000/svg"
 width="280.000000pt" height="280.000000pt" viewBox="0 0 280.000000 280.000000"
 preserveAspectRatio="xMidYMid meet">
<metadata>
Created by potrace 1.16, written by Peter Selinger 2001-2019
</metadata>
<g transform="translate(0.000000,280.000000) scale(0.100000,-0.100000)"
fill="currentColor" stroke="currentColor" stroke-width="2">
<path d="M241 1932 c1 -416 5 -746 9 -732 6 16 7 3 5 -40 -3 -36 -7 -281 -10
-545 l-6 -480 1128 0 1128 0 3 1277 3 1278 -1131 0 -1130 0 1 -758z m1250 720
c24 -16 66 -54 92 -85 l49 -57 114 0 114 0 0 -137 c0 -135 0 -137 27 -165 15
-15 24 -28 20 -28 -4 0 -33 31 -64 69 -275 328 -322 379 -374 405 -29 14 -46
26 -38 26 8 0 35 -13 60 -28z m-238 -11 c-21 -15 -101 -100 -178 -187 -76 -88
-149 -170 -162 -184 l-23 -25 0 133 0 132 110 0 109 0 79 80 c44 44 85 80 92
80 7 0 -5 -13 -27 -29z m168 -179 c77 -83 399 -467 423 -504 13 -21 15 -31 7
-47 -10 -18 -23 -20 -152 -23 -140 -3 -141 -3 -165 -31 l-24 -28 0 -262 c0
-147 -5 -278 -10 -299 -12 -41 -66 -94 -107 -104 -37 -10 -112 31 -137 75 -17
30 -20 59 -24 313 -6 356 8 331 -188 338 -211 8 -212 5 66 330 205 240 250
290 261 290 3 0 26 -21 50 -48z m-531 -225 c0 -2 -12 -14 -27 -28 l-28 -24 24
28 c23 25 31 32 31 24z m-93 -114 c-24 -32 -51 -71 -60 -88 -9 -16 -16 -26
-17 -22 -1 19 102 167 116 167 3 0 -15 -26 -39 -57z m1175 -15 c30 -44 16 -33
-27 20 -21 26 -28 38 -16 27 13 -11 32 -32 43 -47z m48 -79 c12 -22 20 -44 18
-49 -2 -4 -13 14 -25 41 -26 59 -21 65 7 8z m-1304 -97 c0 -64 0 -65 -9 -25
-8 34 -4 93 6 93 1 0 2 -30 3 -68z m1331 -9 c-3 -10 -5 -4 -5 12 0 17 2 24 5
18 2 -7 2 -21 0 -30z m-17 -70 c-11 -17 -11 -17 -6 0 3 10 6 24 7 30 0 9 2 9
5 0 3 -7 0 -20 -6 -30z m-1246 -72 c22 -24 30 -36 16 -26 -31 23 -68 67 -76
91 -5 16 -4 16 7 -1 6 -11 30 -40 53 -64z m1227 30 c-16 -30 -77 -78 -115 -92
l-36 -13 0 -229 0 -229 45 4 c38 3 44 1 38 -12 -4 -8 -9 -97 -11 -196 l-4
-182 -376 -5 c-712 -9 -713 -9 -728 4 -11 9 -14 47 -14 183 0 159 -2 174 -24
221 -25 53 -69 100 -126 134 -19 11 -30 21 -25 21 27 0 128 -88 151 -132 13
-24 21 -28 59 -28 l45 0 0 224 c0 170 -3 226 -12 230 -7 4 -2 4 12 1 14 -2 58
-5 98 -5 l72 0 0 -222 c0 -243 9 -302 54 -367 34 -48 88 -90 145 -112 25 -10
38 -18 29 -19 -15 0 -18 -10 -18 -65 l0 -65 105 0 105 0 0 69 0 68 -27 -4
c-16 -2 -5 4 24 15 74 27 136 82 170 150 l28 57 3 246 3 246 101 7 c115 8 161
26 205 81 31 39 39 44 24 16z m-1156 -89 c-3 -3 -11 0 -18 7 -9 10 -8 11 6 5
10 -3 15 -9 12 -12z m-255 -292 c16 -5 2 -6 -35 -3 -33 3 -62 7 -64 9 -8 7 74
2 99 -6z m1706 -9 c16 -9 14 -10 -11 -4 -16 5 -61 8 -98 8 -41 -1 -61 2 -50 7
25 11 136 3 159 -11z m-1857 -7 c-58 -17 -139 -89 -164 -143 -10 -23 -20 -39
-22 -37 -10 10 39 86 82 125 48 45 96 70 130 70 11 0 -1 -7 -26 -15z m1671 2
c0 -2 -9 -6 -20 -9 -11 -3 -18 -1 -14 4 5 9 34 13 34 5z m291 -65 c32 -33 59
-65 59 -72 0 -6 -14 7 -30 29 -17 23 -49 55 -72 72 -22 16 -35 30 -29 30 7 0
39 -27 72 -59z m-341 45 c0 -2 -8 -10 -17 -17 -16 -13 -17 -12 -4 4 13 16 21
21 21 13z m-76 -73 c-44 -59 -54 -67 -30 -28 18 29 56 75 63 75 1 0 -13 -21
-33 -47z m-1417 -83 c17 -10 36 -27 41 -37 6 -10 12 -111 14 -225 3 -191 5
-209 24 -235 45 -61 57 -63 334 -66 l254 -2 1 -42 c2 -70 51 -106 89 -64 20
22 24 54 12 89 -7 20 -4 22 23 22 30 0 30 0 17 -32 -16 -39 -7 -71 25 -88 48
-26 89 23 75 90 l-5 30 270 0 c372 0 359 -11 359 306 l0 196 34 34 c46 46 86
46 132 0 l34 -34 0 -344 0 -343 -30 -52 c-35 -62 -79 -97 -140 -113 -33 -9
-235 -12 -783 -12 l-737 0 -54 26 c-30 15 -66 42 -81 61 -54 72 -55 78 -55
439 l0 334 27 32 c43 52 73 59 120 30z m1913 -24 c0 -26 -6 -18 -14 19 -5 22
-4 26 4 15 5 -8 10 -24 10 -34z m-1097 -233 c-13 -2 -35 -2 -50 0 -16 2 -5 4
22 4 28 0 40 -2 28 -4z m-1136 -520 c-3 -10 -5 -4 -5 12 0 17 2 24 5 18 2 -7
2 -21 0 -30z m2223 -30 c-11 -17 -11 -17 -6 0 3 10 7 28 7 40 2 22 2 22 6 0 2
-12 -1 -30 -7 -40z m-2092 -184 c31 -29 43 -43 26 -31 -64 44 -129 132 -148
202 -4 14 9 -7 28 -47 25 -49 54 -88 94 -124z m2074 129 c-8 -8 -9 -4 -5 13 4
13 8 18 11 10 2 -7 -1 -18 -6 -23z m-30 -55 c-11 -15 -37 -44 -58 -63 -26 -24
-22 -17 14 23 29 32 52 63 52 69 0 6 3 9 6 5 3 -3 -3 -18 -14 -34z m-127 -118
c-16 -14 -34 -25 -40 -25 -9 0 55 49 65 49 3 0 -8 -11 -25 -24z m-1830 -23
c-3 -3 -11 0 -18 7 -9 10 -8 11 6 5 10 -3 15 -9 12 -12z m70 -22 c13 -6 15 -9
5 -9 -8 0 -22 4 -30 9 -18 12 -2 12 25 0z m1670 0 c-27 -12 -43 -12 -25 0 8 5
22 9 30 9 10 0 8 -3 -5 -9z m-1602 -17 c-7 -2 -21 -2 -30 0 -10 3 -4 5 12 5
17 0 24 -2 18 -5z m1550 0 c-7 -2 -21 -2 -30 0 -10 3 -4 5 12 5 17 0 24 -2 18
-5z"/>
<path d="M1160 581 c-5 -11 -10 -33 -10 -50 0 -36 43 -75 73 -65 17 5 19 3 12
-12 -21 -49 -18 -74 12 -101 28 -26 33 -27 134 -24 117 3 129 9 129 72 0 27
-10 49 -40 87 -54 68 -83 77 -149 47 -50 -24 -51 -24 -51 -4 0 26 -47 69 -76
69 -13 0 -28 -9 -34 -19z"/>
<path d="M1491 564 c-27 -34 -26 -55 2 -82 30 -28 42 -28 72 3 30 29 32 58 5
85 -27 27 -55 25 -79 -6z"/>
</g>
</svg>
