<?xml version="1.0" standalone="no"?>
<!DOCTYPE svg PUBLIC "-//W3C//DTD SVG 20010904//EN"
 "http://www.w3.org/TR/2001/REC-SVG-20010904/DTD/svg10.dtd">
<svg version="1.0" xmlns="http://www.w3.org/2000/svg"
 width="280.000000pt" height="280.000000pt" viewBox="0 0 280.000000 280.000000"
 preserveAspectRatio="xMidYMid meet">
<metadata>
Created by potrace 1.16, written by Peter Selinger 2001-2019
</metadata>
<g transform="translate(0.000000,280.000000) scale(0.100000,-0.100000)"
fill="currentColor" stroke="currentColor" stroke-width="2" stroke-linejoin="round" stroke-linecap="round">
<path d="M1340 2433 c-8 -3 -26 -16 -40 -28 -46 -42 -186 -131 -271 -172 -115
-57 -221 -91 -369 -119 -215 -41 -210 -32 -210 -436 0 -348 12 -472 61 -633
50 -161 113 -273 222 -395 121 -133 274 -247 442 -326 178 -85 235 -87 395
-19 322 138 584 401 686 688 64 179 79 308 79 682 0 268 -3 315 -17 347 -21
48 -65 74 -136 83 -148 17 -365 90 -506 169 -34 19 -101 64 -151 100 -77 56
-95 66 -130 65 -22 0 -47 -3 -55 -6z m172 -139 c182 -123 372 -209 531 -239
166 -31 185 -36 201 -54 25 -27 25 -558 1 -729 -37 -256 -144 -476 -308 -635
-153 -148 -434 -307 -542 -307 -52 0 -95 15 -214 74 -255 127 -446 314 -552
542 -86 182 -113 382 -107 787 l3 249 26 22 c19 16 54 27 128 39 206 34 401
117 606 258 55 38 103 69 108 69 4 0 57 -34 119 -76z M1295 2103 c-175 -111
-344 -177 -553 -218 -62 -12 -62 -14 -62 -253 0 -240 10 -356 41 -471 23 -86
82 -218 127 -283 79 -115 249 -253 402 -327 127 -61 164 -62 280 -2 305 156
485 375 546 664 20 98 33 280 34 468 0 196 5 190 -145 223 -170 38 -317 99
-471 198 -38 25 -79 48 -90 52 -14 4 -46 -11 -109 -51z m167 -52 c170 -103
365 -185 508 -212 36 -7 68 -17 72 -23 13 -18 -2 -455 -18 -546 -34 -193 -100
-326 -224 -451 -92 -92 -251 -204 -340 -239 -68 -27 -99 -22 -200 31 -210 109
-384 290 -451 468 -49 131 -61 230 -63 495 l-1 249 100 22 c55 13 129 34 165
48 82 31 248 114 320 161 30 20 58 36 61 36 4 0 36 -18 71 -39z M1158 1721
c-27 -24 -32 -36 -36 -88 -7 -101 45 -173 125 -173 104 0 141 171 57 255 -46
46 -99 49 -146 6z M1485 1728 c-36 -28 -55 -76 -55 -140 0 -71 26 -113 79
-129 34 -10 44 -9 73 8 91 53 107 211 26 267 -32 23 -90 20 -123 -6z M937
1499 c-65 -50 -50 -173 26 -219 79 -49 157 -2 157 95 0 110 -108 183 -183 124z
M1745 1511 c-78 -34 -112 -158 -59 -220 47 -57 140 -36 179 39 25 49 19 115
-12 150 -30 32 -75 45 -108 31z M1322 1382 c-144 -52 -264 -232 -232 -351 13
-49 57 -95 107 -112 29 -9 54 -9 120 1 69 11 96 11 149 1 78 -16 123 -9 164
26 95 79 78 217 -40 341 -93 98 -175 126 -268 94z"/>
</g>
</svg>
