<?xml version="1.0" standalone="no"?>
<!DOCTYPE svg PUBLIC "-//W3C//DTD SVG 20010904//EN"
 "http://www.w3.org/TR/2001/REC-SVG-20010904/DTD/svg10.dtd">
<svg version="1.0" xmlns="http://www.w3.org/2000/svg"
 width="280.000000pt" height="280.000000pt" viewBox="0 0 280.000000 280.000000"
 preserveAspectRatio="xMidYMid meet">
<metadata>
Created by potrace 1.16, written by Peter Selinger 2001-2019
</metadata>
<g transform="translate(0.000000,280.000000) scale(0.100000,-0.100000)"
fill="currentColor" stroke="currentColor" stroke-width="2" stroke-linejoin="round" stroke-linecap="round">
<path d="M1345 2405 c-16 -7 -64 -46 -105 -86 -154 -149 -306 -224 -534 -264
-111 -19 -143 -37 -176 -100 -24 -48 -25 -55 -28 -286 -3 -180 0 -263 12 -346
42 -280 159 -517 349 -702 113 -111 175 -158 286 -215 161 -83 228 -101 304
-81 154 40 352 160 491 299 159 159 247 318 316 571 37 137 52 456 30 658 -15
144 -47 177 -202 203 -216 36 -373 113 -528 259 -106 101 -151 120 -215 90z
m110 -156 c155 -157 350 -261 576 -304 46 -9 94 -18 106 -21 14 -3 26 -15 30
-32 5 -15 8 -139 7 -277 0 -264 -10 -347 -55 -486 -25 -76 -87 -203 -137 -277
-107 -162 -309 -321 -495 -390 -81 -31 -119 -28 -218 17 -262 116 -474 340
-574 606 -60 159 -70 235 -70 536 0 210 3 280 13 291 7 9 38 19 70 23 107 13
251 59 362 116 89 46 168 104 255 188 35 33 68 61 73 61 4 0 30 -23 57 -51z
M1367 2131 c-14 -9 -62 -44 -107 -79 -121 -92 -278 -163 -443 -198 -68 -14
-80 -20 -89 -43 -6 -16 -8 -113 -5 -261 5 -240 12 -293 60 -426 84 -232 278
-438 516 -547 75 -34 109 -36 171 -11 244 97 445 300 536 540 58 155 66 203
71 449 5 272 4 273 -77 294 -231 57 -376 126 -524 249 -59 49 -77 55 -109 33z
m68 -121 c31 -34 161 -119 232 -151 92 -42 186 -74 257 -89 l58 -12 -5 -211
c-3 -146 -10 -232 -21 -277 -69 -275 -223 -468 -472 -592 l-83 -41 -75 36
c-105 50 -180 104 -257 183 -177 186 -244 369 -249 679 -3 205 -2 225 14 225
8 0 54 11 102 25 115 33 312 132 389 194 67 55 84 60 110 31z M1194 1741 c-60
-37 -69 -137 -19 -213 43 -65 131 -70 172 -10 22 34 22 125 0 169 -36 69 -95
90 -153 54z M1485 1729 c-62 -55 -71 -165 -18 -221 59 -62 158 -21 184 74 15
58 3 106 -36 145 -43 43 -82 44 -130 2z M987 1529 c-47 -27 -60 -114 -28 -178
40 -78 123 -98 173 -42 84 94 -39 282 -145 220z M1730 1533 c-50 -19 -90 -83
-90 -147 0 -93 85 -139 158 -87 32 22 62 85 62 127 0 76 -66 130 -130 107z
M1310 1393 c-46 -20 -154 -134 -185 -196 -18 -36 -25 -67 -25 -106 0 -124 84
-173 230 -135 67 17 74 17 134 1 81 -22 122 -21 165 1 67 34 92 141 52 228
-25 56 -143 178 -195 203 -50 25 -125 26 -176 4z"/>
</g>
</svg>
