<?xml version="1.0" standalone="no"?>
<!DOCTYPE svg PUBLIC "-//W3C//DTD SVG 20010904//EN"
 "http://www.w3.org/TR/2001/REC-SVG-20010904/DTD/svg10.dtd">
<svg version="1.0" xmlns="http://www.w3.org/2000/svg"
 width="280.000000pt" height="280.000000pt" viewBox="0 0 280.000000 280.000000"
 preserveAspectRatio="xMidYMid meet">
<metadata>
Created by potrace 1.16, written by Peter Selinger 2001-2019
</metadata>
<g transform="translate(0.000000,280.000000) scale(0.100000,-0.100000)"
fill="currentColor" stroke="currentColor" stroke-width="2">
<path d="M1933 2286 c-85 -28 -223 -116 -314 -203 l-35 -33 -70 10 c-92 13
-171 12 -270 -2 l-82 -12 -53 48 c-162 145 -309 216 -403 192 -33 -8 -92 -60
-122 -107 -51 -81 -80 -303 -65 -489 8 -96 7 -119 -6 -144 -29 -57 -76 -201
-82 -256 l-6 -55 -47 -1 c-48 -1 -94 -23 -105 -50 -8 -23 16 -61 46 -73 14 -5
44 -13 66 -16 40 -6 41 -7 59 -71 10 -35 17 -66 15 -68 -2 -2 -29 -15 -61 -29
-58 -26 -95 -66 -85 -91 3 -8 18 -23 33 -32 25 -17 29 -17 88 4 80 29 91 28
115 -10 11 -18 44 -56 73 -84 163 -156 350 -234 640 -265 290 -32 643 69 823
234 39 36 84 84 100 107 28 41 31 42 71 36 23 -3 58 -13 78 -23 35 -16 37 -16
64 4 15 11 28 29 30 40 4 25 -58 82 -99 90 -16 3 -32 9 -34 14 -3 4 0 37 7 73
l12 65 46 7 c96 14 135 61 89 110 -18 19 -32 24 -74 24 l-52 0 -6 60 c-7 61
-26 129 -66 227 -18 47 -20 72 -20 235 2 217 -14 321 -63 418 -53 105 -139
147 -235 116z m87 -136 c46 -25 76 -218 66 -435 l-7 -150 29 -71 c42 -100 60
-169 64 -239 l3 -60 -54 -6 c-56 -7 -71 -19 -71 -56 0 -33 27 -53 71 -53 38 0
40 -2 37 -27 -3 -26 -7 -28 -56 -33 -54 -6 -72 -19 -72 -54 0 -23 27 -56 47
-56 29 0 10 -41 -39 -85 -161 -144 -345 -218 -582 -234 -295 -19 -559 59 -724
216 -40 37 -72 73 -72 80 0 7 14 20 30 30 35 20 38 41 9 77 -16 21 -29 26 -64
26 -35 0 -45 4 -50 20 -9 29 2 40 39 40 37 0 61 16 71 47 9 33 -23 59 -85 67
l-52 7 7 56 c8 63 21 103 70 219 l35 82 -6 169 c-8 189 4 311 38 381 17 37 24
42 53 42 58 0 183 -82 317 -207 37 -35 71 -63 76 -63 5 0 31 7 58 15 98 29
210 29 380 -1 28 -5 40 2 124 81 101 95 177 149 237 170 47 17 50 17 73 5z"/>
<path d="M740 2075 c-46 -55 -53 -405 -8 -405 12 0 207 135 258 179 l35 30
-20 36 c-10 20 -48 61 -84 91 -97 80 -154 102 -181 69z"/>
<path d="M1912 2075 c-36 -16 -161 -135 -181 -173 -14 -27 -13 -28 129 -137
90 -69 144 -99 165 -91 37 14 31 304 -8 386 -15 30 -57 36 -105 15z"/>
<path d="M920 1651 c-73 -23 -146 -88 -175 -157 -23 -55 -19 -140 9 -200 75
-162 309 -204 428 -77 103 110 97 283 -15 378 -63 54 -171 79 -247 56z m155
-104 c86 -49 110 -164 51 -241 -35 -47 -74 -66 -132 -66 -56 0 -111 28 -142
74 -26 38 -30 121 -8 164 45 86 147 117 231 69z"/>
<path d="M950 1431 c-15 -29 -12 -46 10 -66 43 -39 107 13 75 61 -20 30 -69
33 -85 5z"/>
<path d="M1642 1642 c-94 -36 -172 -165 -159 -263 17 -127 137 -239 257 -239
115 0 233 85 264 190 21 70 20 88 -5 156 -53 141 -214 211 -357 156z m189 -95
c52 -35 79 -82 79 -139 0 -56 -15 -91 -59 -132 -25 -24 -42 -30 -89 -34 -70
-5 -108 11 -148 63 -28 37 -41 104 -30 149 9 34 54 86 91 102 48 21 117 17
156 -9z"/>
<path d="M1716 1447 c-23 -16 -24 -63 -3 -84 21 -21 65 -9 76 20 8 22 -5 67
-20 67 -4 0 -13 2 -21 5 -7 3 -22 -1 -32 -8z"/>
<path d="M1311 1273 c-50 -26 -56 -53 -21 -100 16 -21 30 -44 30 -50 0 -7 -17
-21 -39 -32 -84 -43 -140 -137 -161 -269 -9 -55 -8 -69 9 -107 23 -52 46 -61
129 -50 71 10 147 10 234 0 55 -6 72 -5 92 9 100 65 9 365 -130 428 -30 14
-30 26 2 73 43 63 20 100 -68 111 -31 4 -53 0 -77 -13z"/>
<path d="M1958 1182 c-14 -9 -44 -30 -67 -45 -48 -32 -59 -51 -40 -73 29 -35
147 14 169 70 16 44 -22 74 -62 48z"/>
<path d="M730 1165 c0 -44 27 -82 75 -105 43 -21 47 -21 70 -6 35 23 32 52 -7
72 -18 9 -46 27 -61 40 -16 13 -39 24 -53 24 -19 0 -24 -5 -24 -25z"/>
<path d="M395 2066 c-37 -16 -54 -41 -83 -122 -25 -68 -28 -136 -11 -229 11
-58 10 -66 -11 -110 -18 -37 -20 -51 -12 -70 25 -55 76 -49 116 12 42 66 51
105 38 163 -7 28 -12 85 -12 126 0 60 5 84 25 125 27 52 26 76 -3 102 -14 13
-22 13 -47 3z"/>
<path d="M2296 2039 c-15 -21 -7 -66 17 -96 16 -21 20 -136 8 -208 -15 -86 4
-162 54 -212 38 -38 48 -40 75 -13 26 26 25 64 -1 107 -21 34 -21 36 -5 131
13 83 14 105 3 152 -14 58 -39 113 -65 143 -21 24 -67 22 -86 -4z"/>
<path d="M414 715 c-11 -17 -14 -34 -9 -56 9 -41 131 -169 191 -200 l45 -24
25 28 c32 37 30 54 -8 85 -42 35 -115 108 -155 155 -36 43 -66 47 -89 12z"/>
<path d="M2240 708 c-12 -18 -60 -69 -107 -114 -79 -77 -83 -83 -72 -106 6
-14 21 -31 34 -38 19 -10 27 -9 51 6 100 63 194 171 194 221 0 64 -65 84 -100
31z"/>
</g>
</svg>
