<?xml version="1.0" standalone="no"?>
<!DOCTYPE svg PUBLIC "-//W3C//DTD SVG 20010904//EN"
 "http://www.w3.org/TR/2001/REC-SVG-20010904/DTD/svg10.dtd">
<svg version="1.0" xmlns="http://www.w3.org/2000/svg"
 width="280.000000pt" height="280.000000pt" viewBox="0 0 280.000000 280.000000"
 preserveAspectRatio="xMidYMid meet">
<metadata>
Created by potrace 1.16, written by Peter Selinger 2001-2019
</metadata>
<g transform="translate(0.000000,280.000000) scale(0.100000,-0.100000)"
fill="currentColor" stroke="currentColor" stroke-width="2" stroke-linejoin="round" stroke-linecap="round">
<path d="M2010 2375 c-108 -28 -208 -92 -327 -208 l-62 -61 -64 12 c-85 16
-226 15 -305 -2 l-63 -14 -62 60 c-118 114 -298 218 -378 218 -40 0 -95 -26
-119 -57 -65 -83 -105 -296 -97 -521 5 -152 5 -153 -23 -215 -37 -82 -66 -179
-74 -249 l-7 -58 -58 0 c-63 0 -91 -18 -91 -57 0 -30 20 -42 83 -49 32 -4 61
-12 65 -18 6 -9 17 -46 38 -131 4 -16 -7 -26 -63 -55 -69 -36 -80 -51 -69 -96
9 -33 56 -32 118 1 26 14 53 25 60 25 7 0 25 -18 40 -38 134 -190 354 -309
648 -352 96 -14 308 -14 412 0 260 36 510 170 623 334 21 31 44 56 51 56 8 0
39 -11 70 -25 69 -31 100 -32 114 -4 22 40 4 67 -71 104 -42 22 -68 41 -65 48
3 7 12 37 22 67 9 30 20 60 25 66 5 6 32 14 60 17 61 7 79 20 79 56 0 41 -18
51 -87 51 l-63 0 0 38 c0 56 -34 179 -74 273 l-35 80 8 119 c17 246 -30 472
-116 552 -39 36 -87 47 -143 33z m67 -123 c58 -37 104 -376 73 -540 -9 -49 -7
-58 35 -161 44 -111 65 -194 65 -262 0 -37 0 -38 -47 -45 -67 -9 -83 -20 -83
-54 0 -36 29 -54 76 -47 42 7 49 -3 34 -49 -12 -34 -13 -35 -50 -29 -80 14
-112 -47 -45 -86 19 -12 35 -25 35 -31 0 -38 -157 -172 -265 -226 -68 -34
-197 -75 -295 -93 -84 -16 -336 -16 -420 0 -228 43 -421 142 -517 263 -38 47
-41 64 -14 73 10 3 26 14 36 25 15 17 16 24 7 45 -10 22 -18 25 -66 25 -57 0
-66 7 -66 56 0 22 4 24 50 24 44 0 52 3 62 24 16 36 4 54 -44 66 -78 20 -88
27 -88 62 0 56 29 158 71 251 l40 88 -7 172 c-8 197 11 352 51 411 51 77 172
26 357 -151 47 -46 90 -83 95 -83 4 0 43 7 86 15 117 22 306 17 399 -11 12 -3
38 18 85 67 138 145 296 235 350 201z M1975 2164 c-65 -34 -162 -123 -190
-175 -13 -24 -12 -28 8 -46 12 -11 36 -28 52 -38 17 -10 69 -47 117 -82 48
-36 95 -63 105 -61 25 5 36 68 29 178 -9 163 -33 240 -75 240 -9 0 -29 -7 -46
-16z M736 2130 c-41 -103 -45 -380 -5 -380 5 0 51 31 102 69 51 37 104 74 117
81 39 20 70 52 70 72 0 25 -101 132 -159 169 -26 17 -59 29 -77 29 -28 0 -34
-5 -48 -40z M953 1721 c-70 -18 -135 -65 -167 -122 -28 -48 -31 -63 -31 -134
0 -69 4 -86 27 -127 32 -54 96 -104 153 -119 57 -16 158 -4 208 23 27 15 56
45 82 83 34 52 40 69 43 126 5 82 -8 123 -54 178 -63 74 -176 114 -261 92z
m145 -98 c34 -16 74 -75 86 -125 10 -44 -13 -114 -50 -152 -38 -39 -79 -51
-155 -44 -83 8 -142 80 -142 174 0 134 132 208 261 147z M976 1504 c-23 -23
-20 -51 8 -69 46 -31 97 25 60 66 -21 23 -47 24 -68 3z M1707 1716 c-99 -37
-160 -104 -178 -199 -18 -95 22 -187 109 -254 55 -42 112 -57 185 -49 87 9
138 43 195 128 24 37 27 51 27 127 0 95 -12 126 -66 180 -68 69 -188 98 -272
67z m176 -100 c15 -11 39 -39 54 -63 47 -81 16 -195 -67 -238 -43 -22 -135
-19 -176 6 -100 61 -107 221 -13 291 52 39 146 40 202 4z M1758 1509 c-33 -19
-10 -89 30 -89 38 0 56 72 23 90 -24 12 -31 12 -53 -1z M1353 1333 c-23 -4
-63 -47 -63 -66 0 -5 16 -24 35 -43 19 -18 35 -39 35 -47 0 -8 -18 -22 -40
-32 -80 -36 -142 -139 -162 -271 -9 -57 -9 -79 2 -103 23 -57 88 -75 170 -46
54 19 96 19 150 0 88 -31 151 -11 167 53 9 38 -12 174 -37 230 -26 58 -79 114
-131 137 -21 10 -39 23 -39 29 0 7 16 26 35 45 42 39 46 74 10 97 -26 17 -93
26 -132 17z M740 1222 c0 -34 13 -53 64 -86 42 -28 75 -33 94 -14 22 22 12 37
-55 83 -80 53 -103 57 -103 17z M1963 1212 c-74 -52 -77 -56 -64 -81 17 -32
62 -27 113 12 36 28 43 39 43 68 0 47 -26 47 -92 1z M365 2106 c-60 -79 -79
-198 -49 -306 l16 -57 -30 -56 c-32 -60 -32 -91 0 -108 30 -16 55 -2 90 54 36
57 38 85 23 253 -6 69 -5 87 12 125 29 66 36 99 22 115 -20 25 -56 16 -84 -20z
M2355 2116 c-15 -23 -15 -28 10 -83 25 -53 27 -65 21 -138 -3 -44 -9 -98 -12
-121 -5 -33 0 -52 24 -100 52 -103 103 -129 131 -68 10 23 8 32 -20 75 -28 45
-31 55 -25 102 19 155 19 181 -4 247 -35 104 -89 141 -125 86z M429 767 c-49
-25 -34 -76 48 -167 54 -61 126 -110 159 -110 28 0 54 34 47 61 -3 12 -28 37
-55 57 -27 21 -69 63 -94 95 -55 69 -72 80 -105 64z M2279 718 c-30 -35 -78
-85 -106 -112 -29 -26 -53 -56 -53 -65 0 -23 31 -51 57 -51 57 0 223 175 223
236 0 22 -33 54 -56 54 -6 0 -35 -28 -65 -62z"/>
</g>
</svg>
