<?xml version="1.0" standalone="no"?>
<!DOCTYPE svg PUBLIC "-//W3C//DTD SVG 20010904//EN"
 "http://www.w3.org/TR/2001/REC-SVG-20010904/DTD/svg10.dtd">
<svg version="1.0" xmlns="http://www.w3.org/2000/svg"
 width="280.000000pt" height="280.000000pt" viewBox="0 0 280.000000 280.000000"
 preserveAspectRatio="xMidYMid meet">
<metadata>
Created by potrace 1.16, written by Peter Selinger 2001-2019
</metadata>
<g transform="translate(0.000000,280.000000) scale(0.100000,-0.100000)"
fill="currentColor" stroke="currentColor" stroke-width="2" stroke-linejoin="round" stroke-linecap="round">
<path d="M1851 2244 c-32 -26 -51 -76 -51 -131 0 -33 0 -33 -49 -33 -82 0
-222 -29 -285 -60 -74 -35 -167 -113 -237 -197 -29 -35 -55 -63 -58 -63 -3 0
-32 34 -64 74 -141 180 -312 252 -580 244 -100 -2 -129 -7 -162 -24 -58 -30
-85 -88 -85 -179 0 -82 16 -128 57 -168 40 -38 80 -47 203 -47 129 -1 172 -10
219 -48 45 -36 133 -144 162 -198 l22 -41 -54 -79 c-114 -165 -150 -186 -344
-194 -147 -7 -179 -16 -222 -62 -33 -35 -43 -72 -43 -152 0 -81 26 -146 70
-178 88 -64 397 -40 554 43 59 30 186 124 186 137 1 4 20 28 44 55 l42 47 53
-62 c132 -157 277 -232 486 -247 l80 -6 6 -51 c8 -64 22 -90 62 -114 40 -25
93 -25 132 -1 43 26 322 278 341 307 25 37 29 105 10 146 -17 36 -288 278
-349 310 -38 22 -76 23 -122 4 -46 -19 -68 -57 -70 -119 l-2 -52 -54 -3 c-117
-7 -189 39 -284 183 -64 96 -65 86 20 208 88 127 152 167 263 167 51 0 52 -1
52 -29 0 -82 31 -132 94 -149 70 -20 87 -9 318 195 118 104 148 146 148 205 0
51 -27 86 -155 199 -192 171 -219 189 -275 189 -37 0 -55 -6 -79 -26z m119
-61 c40 -27 276 -240 299 -269 13 -17 19 -35 16 -48 -7 -24 -116 -131 -248
-242 -64 -54 -95 -74 -116 -74 -36 0 -41 13 -41 100 0 48 -4 71 -15 80 -23 19
-179 6 -251 -21 -106 -40 -155 -101 -363 -450 -165 -277 -262 -385 -406 -454
-85 -40 -168 -55 -309 -55 -129 0 -160 12 -175 68 -22 77 -5 169 36 190 10 5
79 12 153 15 94 4 150 11 184 24 99 36 183 137 356 428 162 272 240 370 352
445 83 55 172 80 305 83 60 2 114 7 121 11 8 5 12 35 12 86 0 65 3 81 18 89
25 15 44 13 72 -6z m-1176 -206 c38 -14 93 -42 123 -63 57 -39 165 -151 195
-202 l17 -29 -67 -111 c-37 -61 -70 -112 -74 -112 -4 0 -24 26 -45 57 -21 32
-63 83 -94 114 -81 81 -133 98 -305 102 -131 2 -135 3 -162 30 -25 25 -27 34
-27 106 0 70 3 82 24 105 31 33 43 35 206 31 120 -2 150 -6 209 -28z m630
-767 c94 -133 170 -176 336 -186 76 -5 98 -4 107 8 7 8 13 49 15 92 5 119 39
127 145 34 33 -29 98 -87 146 -128 47 -41 94 -90 104 -107 17 -32 17 -33 -3
-60 -30 -41 -283 -269 -322 -290 -51 -28 -66 -12 -72 78 -3 41 -9 80 -13 87
-6 8 -36 12 -90 12 -211 1 -380 82 -502 240 -25 32 -45 64 -45 71 0 15 123
228 132 229 3 0 32 -36 62 -80z"/>
</g>
</svg>
