<?xml version="1.0" standalone="no"?>
<!DOCTYPE svg PUBLIC "-//W3C//DTD SVG 20010904//EN"
 "http://www.w3.org/TR/2001/REC-SVG-20010904/DTD/svg10.dtd">
<svg version="1.0" xmlns="http://www.w3.org/2000/svg"
 width="280.000000pt" height="280.000000pt" viewBox="0 0 280.000000 280.000000"
 preserveAspectRatio="xMidYMid meet">
<metadata>
Created by potrace 1.16, written by Peter Selinger 2001-2019
</metadata>
<g transform="translate(0.000000,280.000000) scale(0.100000,-0.100000)"
fill="currentColor" stroke="currentColor" stroke-width="2">
<path d="M2105 2568 c-44 -15 -93 -55 -110 -88 -8 -16 -18 -53 -23 -82 l-7
-53 -115 -13 c-128 -14 -224 -43 -345 -105 -64 -32 -100 -61 -183 -144 -56
-57 -106 -103 -110 -103 -4 0 -32 25 -62 56 -117 119 -222 190 -360 243 -106
41 -192 57 -350 66 -234 13 -345 -30 -404 -155 -17 -37 -21 -63 -21 -155 1
-129 14 -182 58 -232 56 -63 100 -76 288 -84 149 -6 172 -9 222 -32 69 -31
131 -88 215 -195 l65 -84 -15 -31 c-27 -57 -129 -185 -167 -210 -99 -66 -115
-70 -296 -77 -93 -4 -183 -12 -198 -18 -17 -7 -26 -8 -22 -2 3 6 13 10 21 10
8 0 14 10 14 25 l0 25 -100 0 -100 0 0 -460 0 -460 1073 1 c685 0 1065 4 1052
10 -17 8 -16 8 5 3 14 -4 166 -9 337 -11 l313 -5 -1 461 0 461 -95 0 -94 0 0
-41 c0 -36 6 -45 62 -97 67 -62 118 -134 118 -166 -1 -13 -6 -6 -15 18 -25 70
-41 86 -343 343 -157 134 -201 153 -288 128 -90 -26 -139 -82 -153 -174 l-7
-46 -49 0 c-77 1 -154 42 -240 127 -40 40 -82 92 -94 116 -25 49 -25 50 54
159 108 148 152 186 245 207 90 22 90 22 90 -21 0 -64 18 -109 59 -146 48 -43
99 -61 161 -55 68 7 102 28 267 168 292 247 309 269 301 398 -3 59 -8 75 -39
118 -42 58 -393 356 -461 390 -50 25 -103 29 -153 12z m102 -190 c47 -34 383
-331 383 -339 0 -18 -58 -74 -222 -215 -99 -85 -185 -154 -192 -154 -14 0 -26
62 -26 137 0 34 -6 50 -26 70 -26 25 -27 26 -147 20 -271 -11 -359 -77 -575
-428 -49 -80 -103 -170 -120 -201 -50 -94 -177 -282 -241 -355 -89 -104 -231
-203 -336 -235 -121 -36 -411 -52 -465 -25 -22 11 -26 21 -32 92 -5 64 -3 87
10 115 l17 35 160 6 c183 7 267 29 363 95 89 62 150 141 301 391 289 476 353
563 481 648 118 79 218 106 440 120 110 7 115 9 142 37 26 28 28 36 28 119 0
99 4 104 57 67z m-1557 -252 c147 -41 225 -83 323 -175 57 -53 117 -132 117
-154 0 -14 -77 -151 -113 -201 -13 -19 -15 -17 -45 26 -45 65 -173 181 -241
217 -82 44 -159 61 -296 67 -157 7 -161 8 -174 45 -14 41 -14 144 0 170 18 34
48 39 199 34 112 -3 164 -10 230 -29z m875 -1001 c130 -167 274 -233 490 -223
92 4 99 6 121 32 21 24 24 37 24 117 0 49 4 89 8 89 18 0 408 -334 417 -358 3
-7 -1 -22 -8 -32 -29 -42 -344 -314 -384 -333 -13 -6 -26 -7 -30 -4 -3 4 -9
46 -12 93 -8 119 -13 122 -197 134 -200 12 -290 40 -410 126 -85 60 -202 176
-209 207 -5 20 7 49 56 131 34 58 63 106 65 106 1 0 32 -38 69 -85z m-1376
-67 c-2 -2 -27 -23 -54 -48 -27 -25 -41 -34 -30 -21 27 34 68 70 79 71 5 0 7
-1 5 -2z m-109 -117 c-5 -11 -14 -37 -19 -58 -6 -24 -9 -30 -10 -15 -1 24 24
92 34 92 3 0 1 -9 -5 -19z m1242 -196 c154 -165 360 -268 560 -281 126 -8 128
-9 128 -50 0 -39 22 -98 48 -129 9 -12 5 -8 -11 7 -15 16 -33 49 -39 73 l-12
45 -318 0 -318 0 0 115 0 115 -143 0 c-114 0 -148 -3 -167 -16 -14 -9 -5 1 20
22 25 21 74 67 110 101 36 34 69 63 73 63 4 0 35 -29 69 -65z m1480 -57 c-6
-6 -7 0 -4 19 5 21 7 23 10 9 2 -10 0 -22 -6 -28z m-2713 -96 c6 -12 9 -22 7
-22 -11 0 -34 57 -40 95 l-6 40 13 -45 c8 -25 19 -55 26 -68z m2682 45 l-24
-22 19 27 c10 14 21 24 23 22 3 -3 -6 -15 -18 -27z m-83 -90 c-53 -48 -58 -56
-58 -95 l0 -42 -52 0 c-39 0 -58 -5 -77 -22 -19 -16 -21 -17 -8 -3 22 25 240
214 247 214 3 0 -21 -23 -52 -52z m-1698 38 c0 -2 -10 -9 -22 -15 -22 -11 -22
-10 -4 4 21 17 26 19 26 11z m-800 -94 c19 -11 30 -21 24 -21 -15 0 -85 52
-104 76 -8 10 -1 7 15 -7 17 -15 46 -36 65 -48z m700 39 c-8 -5 -19 -10 -25
-10 -5 0 -3 5 5 10 8 5 20 10 25 10 6 0 3 -5 -5 -10z m-50 -20 c-8 -5 -22 -9
-30 -9 -10 0 -8 3 5 9 27 12 43 12 25 0z m-100 -30 c-14 -4 -34 -8 -45 -8 -16
0 -15 2 5 8 14 4 34 8 45 8 16 0 15 -2 -5 -8z m-421 -26 c9 -8 -55 -2 -74 6
-13 6 -5 7 25 3 25 -3 47 -7 49 -9z m321 6 c-14 -4 -45 -8 -70 -7 l-45 0 50 7
c73 10 96 10 65 0z m-233 -16 c-3 -3 -12 -4 -19 -1 -8 3 -5 6 6 6 11 1 17 -2
13 -5z m2013 -124 c-49 -44 -130 -98 -130 -87 0 3 19 17 43 30 23 14 62 44 87
66 25 22 47 40 50 40 3 0 -20 -22 -50 -49z m-281 -86 c14 -12 -19 -1 -35 12
-18 14 -18 14 6 3 14 -6 27 -13 29 -15z"/>
</g>
</svg>
