<?xml version="1.0" standalone="no"?>
<!DOCTYPE svg PUBLIC "-//W3C//DTD SVG 20010904//EN"
 "http://www.w3.org/TR/2001/REC-SVG-20010904/DTD/svg10.dtd">
<svg version="1.0" xmlns="http://www.w3.org/2000/svg"
 width="280.000000pt" height="280.000000pt" viewBox="0 0 280.000000 280.000000"
 preserveAspectRatio="xMidYMid meet">
<metadata>
Created by potrace 1.16, written by Peter Selinger 2001-2019
</metadata>
<g transform="translate(0.000000,280.000000) scale(0.100000,-0.100000)"
fill="currentColor" stroke="currentColor" stroke-width="2" stroke-linejoin="round" stroke-linecap="round">
<path d="M2031 2322 c-51 -25 -75 -64 -81 -130 l-5 -57 -69 -8 c-213 -23 -374
-103 -520 -259 -47 -49 -89 -88 -94 -86 -5 1 -30 28 -57 58 -118 135 -263 226
-430 270 -103 27 -309 38 -385 20 -66 -16 -133 -76 -149 -135 -24 -87 -9 -152
48 -218 44 -49 99 -65 256 -70 155 -5 207 -24 298 -106 54 -50 177 -203 177
-220 0 -21 -90 -142 -150 -202 -94 -95 -146 -117 -312 -130 -174 -14 -205 -22
-250 -70 -89 -93 -70 -263 36 -328 55 -34 138 -44 268 -33 239 22 418 109 578
279 42 46 81 83 86 82 5 0 27 -24 50 -52 117 -150 322 -263 524 -292 101 -14
100 -13 100 -53 0 -81 67 -152 142 -152 51 0 89 20 168 89 36 32 113 99 172
149 115 100 135 131 125 204 -3 21 -13 50 -22 64 -23 36 -330 296 -373 316
-48 23 -77 22 -130 -2 -50 -23 -81 -79 -82 -147 0 -42 -1 -43 -33 -43 -88 0
-211 69 -287 161 -59 71 -110 144 -110 158 0 18 93 144 146 197 62 62 165 115
234 122 l50 5 0 -42 c0 -52 19 -99 54 -131 23 -21 37 -25 90 -25 73 0 67 -4
301 199 140 121 165 154 165 216 0 51 -25 94 -81 142 -30 26 -108 92 -173 148
-155 134 -199 151 -275 112z m233 -233 c86 -72 162 -142 169 -156 11 -24 8
-29 -38 -70 -115 -105 -285 -243 -299 -243 -20 0 -26 22 -26 103 0 101 -2 103
-111 99 -184 -5 -321 -78 -443 -235 -35 -45 -116 -167 -180 -272 -65 -104
-143 -223 -173 -263 -152 -199 -322 -292 -576 -313 -132 -12 -175 -4 -201 36
-23 36 -20 88 7 117 21 23 33 25 135 31 314 18 420 99 667 512 112 187 167
266 236 340 144 153 291 222 502 234 71 4 122 12 130 20 7 7 13 48 15 101 3
63 8 90 16 90 7 0 84 -59 170 -131z m-1504 -99 c94 -28 180 -71 245 -122 55
-43 184 -186 185 -204 0 -16 -91 -164 -101 -164 -4 0 -28 28 -52 63 -136 190
-292 267 -542 267 -77 0 -88 2 -110 24 -13 13 -27 36 -31 51 -9 34 18 92 48
105 42 18 275 5 358 -20z m753 -815 c123 -160 258 -230 459 -237 99 -4 104 1
100 98 -3 84 3 114 23 114 15 0 220 -165 298 -239 31 -30 47 -53 45 -66 -3
-18 -204 -201 -303 -276 -37 -28 -40 -29 -52 -13 -8 11 -13 47 -13 89 0 42 -5
76 -12 83 -7 7 -37 12 -67 12 -56 0 -188 21 -248 39 -88 26 -225 114 -293 187
-60 65 -100 118 -100 133 0 19 83 151 95 151 6 0 36 -34 68 -75z"/>
</g>
</svg>
