<?xml version="1.0" standalone="no"?>
<!DOCTYPE svg PUBLIC "-//W3C//DTD SVG 20010904//EN"
 "http://www.w3.org/TR/2001/REC-SVG-20010904/DTD/svg10.dtd">
<svg version="1.0" xmlns="http://www.w3.org/2000/svg"
 width="280.000000pt" height="280.000000pt" viewBox="0 0 280.000000 280.000000"
 preserveAspectRatio="xMidYMid meet">
<metadata>
Created by potrace 1.16, written by Peter Selinger 2001-2019
</metadata>
<g transform="translate(0.000000,280.000000) scale(0.100000,-0.100000)"
fill="currentColor" stroke="currentColor" stroke-width="2" stroke-linejoin="round" stroke-linecap="round">
<path d="M1170 2590 c-188 -34 -384 -117 -521 -220 -139 -104 -289 -287 -368
-447 -156 -318 -160 -707 -10 -1033 80 -173 244 -370 401 -480 78 -56 216
-128 301 -160 283 -104 653 -85 926 46 344 164 575 443 668 803 34 135 43 359
18 498 -66 375 -285 683 -606 857 -250 135 -546 185 -809 136z m-187 -232
c-10 -11 -52 -43 -93 -71 -41 -28 -128 -90 -193 -139 -95 -71 -125 -88 -153
-88 -22 0 -34 5 -34 14 0 19 130 150 205 207 75 58 157 104 227 129 l53 19 3
-26 c2 -14 -4 -34 -15 -45z m864 43 c179 -85 438 -310 400 -348 -14 -14 -91
26 -177 92 -52 40 -138 100 -190 134 -107 70 -120 83 -120 123 0 35 10 35 87
-1z m-666 -192 c159 -60 149 -45 149 -220 0 -124 9 -108 -110 -196 -191 -140
-270 -193 -291 -193 -12 0 -72 18 -133 41 l-112 40 -16 147 c-14 133 -14 149
0 165 37 42 344 266 366 267 5 0 71 -23 147 -51z m597 16 c32 -19 118 -79 192
-134 134 -98 135 -98 134 -137 -2 -110 -18 -265 -28 -272 -17 -13 -223 -82
-245 -82 -19 0 -334 219 -379 264 -23 23 -24 25 -17 159 l8 135 111 41 c61 23
118 46 126 51 24 16 39 12 98 -25z m-473 -571 c24 -9 45 -58 45 -103 0 -108
-125 -89 -137 21 -7 65 36 103 92 82z m216 -15 c18 -18 21 -30 17 -71 -6 -57
-32 -90 -72 -90 -69 0 -92 97 -37 153 35 34 63 37 92 8z m-744 -100 c52 -17
105 -41 118 -53 21 -19 90 -209 146 -402 l11 -41 -78 -107 c-90 -121 -65 -113
-239 -74 -147 33 -134 24 -177 125 -36 87 -108 318 -108 346 0 7 26 42 58 78
31 35 74 86 96 112 22 28 47 47 58 47 11 0 63 -14 115 -31z m1438 -80 c50 -61
91 -119 93 -129 6 -35 -115 -402 -140 -426 -13 -12 -295 -81 -301 -73 -31 39
-150 204 -153 214 -6 14 119 397 140 429 13 20 204 94 246 95 20 1 43 -21 115
-110z m-552 28 c37 -43 -5 -137 -61 -137 -66 0 -86 88 -32 141 34 34 62 33 93
-4z m-469 -3 c34 -35 37 -95 4 -118 -33 -23 -53 -20 -82 15 -28 33 -36 95 -14
117 20 20 64 14 92 -14z m277 -94 c112 -115 137 -183 86 -234 -23 -23 -30 -24
-174 -24 -155 1 -170 4 -191 45 -28 52 -5 112 77 199 50 52 70 62 120 63 29 1
43 -7 82 -49z m-1144 -42 c12 -14 32 -65 47 -123 27 -106 61 -208 96 -290 23
-54 29 -130 10 -149 -14 -14 -37 14 -89 114 -48 93 -76 179 -96 294 -27 160
-18 208 32 154z m2155 -39 c-8 -142 -42 -269 -111 -409 -52 -106 -66 -124 -86
-117 -25 10 -18 79 20 179 19 51 52 156 74 233 30 104 46 144 63 157 34 26 43
17 40 -43z m-791 -425 c41 -53 78 -102 83 -109 6 -8 -21 -58 -78 -148 l-88
-137 -228 0 -229 0 -29 43 c-45 68 -132 223 -132 237 0 15 112 165 142 193 18
15 45 17 253 17 l233 0 73 -96z m-26 -518 l30 -24 -55 -16 c-132 -37 -364 -38
-503 -1 -32 8 -61 15 -65 15 -4 1 7 12 23 25 l30 25 255 0 c254 0 255 0 285
-24z"/>
</g>
</svg>
