<?xml version="1.0" standalone="no"?>
<!DOCTYPE svg PUBLIC "-//W3C//DTD SVG 20010904//EN"
 "http://www.w3.org/TR/2001/REC-SVG-20010904/DTD/svg10.dtd">
<svg version="1.0" xmlns="http://www.w3.org/2000/svg"
 width="280.000000pt" height="280.000000pt" viewBox="0 0 280.000000 280.000000"
 preserveAspectRatio="xMidYMid meet">
<metadata>
Created by potrace 1.16, written by Peter Selinger 2001-2019
</metadata>
<g transform="translate(0.000000,280.000000) scale(0.100000,-0.100000)"
fill="currentColor" stroke="currentColor" stroke-width="2">
<path d="M1245 2563 c-81 -13 -211 -45 -267 -67 -406 -152 -698 -508 -772
-941 -37 -213 0 -451 104 -671 128 -272 286 -433 555 -565 263 -129 545 -160
810 -89 352 94 660 353 797 671 159 370 123 805 -95 1131 -75 113 -256 288
-367 355 -205 124 -364 171 -590 177 -80 3 -158 2 -175 -1z m-225 -204 c0 -26
-26 -51 -132 -124 -62 -44 -150 -108 -196 -142 -78 -59 -122 -77 -137 -54 -9
16 77 113 163 182 127 103 302 182 302 138z m879 -36 c137 -74 311 -229 311
-276 0 -37 -58 -10 -199 91 -75 54 -159 113 -188 130 -52 34 -63 48 -63 84 0
18 4 19 38 13 20 -3 66 -22 101 -42z m-709 -176 c47 -21 94 -43 106 -47 20 -8
20 -14 16 -122 -2 -65 -9 -118 -16 -125 -6 -7 -85 -69 -176 -138 -138 -105
-169 -125 -190 -120 -26 6 -191 66 -200 72 -2 2 -7 32 -11 66 -4 34 -12 95
-17 135 -5 50 -5 77 2 86 18 21 124 98 239 175 124 81 114 80 247 18z m650
-31 c69 -47 148 -102 175 -124 l50 -38 -4 -111 c-6 -185 3 -171 -132 -217
l-115 -39 -177 133 c-106 79 -179 141 -183 154 -2 11 -4 66 -2 121 3 114 -12
96 143 165 50 22 97 40 105 40 8 0 71 -38 140 -84z m-525 -482 c40 -16 58
-101 29 -142 -36 -52 -124 -10 -124 60 0 66 42 102 95 82z m205 -16 c29 -32
27 -92 -5 -123 -33 -34 -78 -37 -102 -7 -17 22 -11 93 11 127 21 32 67 34 96
3z m653 -172 c108 -134 103 -120 77 -201 -12 -39 -37 -122 -56 -185 -20 -63
-41 -120 -47 -127 -14 -14 -229 -73 -268 -73 -22 0 -38 16 -89 86 l-63 86 12
52 c6 28 32 118 58 200 45 139 50 151 82 170 30 18 194 84 212 85 3 1 40 -41
82 -93z m-1365 48 c57 -20 107 -44 111 -53 12 -23 109 -342 116 -383 5 -29 -1
-41 -49 -100 -30 -37 -61 -77 -70 -89 l-15 -22 -83 21 c-46 11 -102 23 -126
27 -29 5 -48 14 -58 31 -20 29 -85 212 -115 322 l-22 83 40 42 c22 23 61 68
87 100 27 31 56 57 65 57 9 0 62 -16 119 -36z m386 -21 c33 -32 42 -67 27 -99
-13 -30 -33 -38 -67 -30 -45 12 -71 108 -38 140 23 23 48 20 78 -11z m456 7
c43 -43 8 -140 -50 -140 -48 0 -76 62 -50 110 10 18 55 49 73 50 4 0 16 -9 27
-20z m-198 -87 c23 -21 59 -60 80 -86 47 -60 53 -120 15 -155 -21 -20 -35 -22
-128 -23 -57 -1 -121 -2 -143 -2 -51 -1 -86 37 -86 92 0 32 10 50 56 107 96
117 136 130 206 67z m998 -87 c0 -131 -67 -343 -148 -473 -36 -57 -52 -56 -52
5 0 62 134 480 162 505 32 27 38 21 38 -37z m-2086 22 c8 -13 28 -68 44 -123
17 -55 49 -154 71 -220 33 -93 40 -128 36 -157 -4 -21 -12 -38 -18 -38 -28 0
-120 209 -151 340 -15 64 -36 183 -36 208 0 21 39 13 54 -10z m1283 -420 c79
-106 93 -127 93 -138 0 -6 -15 -37 -33 -68 -18 -31 -41 -74 -52 -95 -11 -21
-31 -52 -45 -69 l-25 -30 -203 -1 c-242 0 -224 -10 -308 160 l-56 113 28 38
c15 20 48 61 73 90 l45 52 222 0 222 0 39 -52z m-8 -527 c35 -19 25 -28 -50
-45 -98 -22 -311 -22 -406 1 -75 17 -90 32 -50 50 31 15 477 9 506 -6z"/>
</g>
</svg>
