<?xml version="1.0" standalone="no"?>
<!DOCTYPE svg PUBLIC "-//W3C//DTD SVG 20010904//EN"
 "http://www.w3.org/TR/2001/REC-SVG-20010904/DTD/svg10.dtd">
<svg version="1.0" xmlns="http://www.w3.org/2000/svg"
 width="280.000000pt" height="280.000000pt" viewBox="0 0 280.000000 280.000000"
 preserveAspectRatio="xMidYMid meet">
<metadata>
Created by potrace 1.16, written by Peter Selinger 2001-2019
</metadata>
<g transform="translate(0.000000,280.000000) scale(0.100000,-0.100000)"
fill="currentColor" stroke="currentColor" stroke-width="2">
<path d="M1358 2578 c-16 -6 -39 -29 -58 -59 -16 -27 -30 -51 -30 -53 0 -2
-25 -57 -56 -122 -30 -66 -62 -135 -71 -154 -8 -19 -40 -88 -71 -152 -53 -113
-57 -118 -86 -118 -43 0 -95 -34 -111 -74 -16 -38 -14 -38 -315 -71 -256 -28
-369 -44 -387 -54 -50 -26 -69 -82 -45 -128 12 -21 226 -221 455 -422 86 -77
117 -110 117 -128 0 -12 -22 -134 -49 -270 -68 -337 -89 -467 -84 -497 8 -39
50 -76 87 -76 37 0 24 -6 554 295 161 91 175 97 200 86 14 -7 150 -86 302
-176 152 -90 301 -175 332 -191 51 -25 59 -26 88 -14 36 15 60 55 60 103 0 31
-49 302 -85 472 -20 89 -45 242 -45 267 0 10 19 36 43 57 23 21 111 101 196
177 84 76 192 172 238 213 115 101 131 136 93 198 -13 21 -31 35 -57 42 -39
11 -563 71 -620 71 -23 0 -37 7 -50 26 -52 75 -69 88 -114 89 -43 0 -44 1 -71
55 -23 48 -60 130 -128 285 -54 121 -125 273 -137 292 -19 29 -61 42 -95 31z
m-48 -627 l0 -189 -39 -7 c-33 -5 -46 -2 -80 21 -23 14 -41 34 -41 43 0 9 31
79 68 156 71 147 80 165 88 165 2 0 4 -85 4 -189z m228 22 c40 -87 72 -161 72
-165 0 -4 -20 -19 -43 -33 -43 -25 -82 -31 -103 -17 -16 10 -24 372 -8 372 6
0 43 -71 82 -157z m244 -299 c3 -27 11 -85 17 -130 5 -44 21 -115 35 -158 53
-160 30 -281 -70 -378 -93 -89 -210 -128 -388 -128 -353 0 -542 213 -451 510
14 47 33 140 42 208 15 103 20 122 35 122 9 0 56 -31 104 -70 47 -38 93 -70
100 -70 8 0 45 5 83 12 55 9 92 9 176 -1 l106 -13 46 39 c99 83 138 112 148
109 6 -1 13 -25 17 -52z m-956 -65 c-3 -17 -6 -41 -6 -53 -1 -50 -10 -51 -151
-6 -122 39 -169 59 -143 61 5 0 54 6 109 13 55 7 122 14 149 15 l49 1 -7 -31z
m1307 10 c53 -6 97 -15 97 -20 0 -4 -17 -13 -37 -18 -21 -6 -81 -24 -133 -40
-52 -17 -98 -27 -103 -22 -4 4 -11 34 -14 66 l-6 58 49 -6 c27 -3 93 -11 147
-18z m-1497 -190 c65 -24 120 -44 122 -45 9 -5 -12 -134 -23 -134 -15 0 -231
194 -239 216 -4 11 -2 15 7 11 7 -3 67 -24 133 -48z m1554 -43 c-93 -89 -158
-142 -166 -134 -9 10 -24 122 -16 130 11 11 256 97 262 91 3 -2 -33 -42 -80
-87z m-1314 -470 c3 -7 25 -28 50 -47 24 -18 42 -38 40 -45 -10 -26 -168 -234
-178 -234 -6 0 -8 6 -5 14 3 8 18 85 34 170 19 108 31 156 41 156 7 0 15 -6
18 -14z m1068 -146 c41 -215 37 -219 -62 -72 -45 68 -82 126 -82 130 -1 12
105 101 111 94 3 -4 18 -72 33 -152z m-754 -26 c82 -17 92 -22 70 -35 -122
-74 -337 -199 -342 -199 -16 0 -6 20 59 111 110 156 96 148 213 123z m577
-103 c79 -108 92 -131 76 -131 -15 0 -326 195 -327 205 -1 12 110 45 144 42
19 -2 43 -28 107 -116z"/>
</g>
</svg>
