<?xml version="1.0" standalone="no"?>
<!DOCTYPE svg PUBLIC "-//W3C//DTD SVG 20010904//EN"
 "http://www.w3.org/TR/2001/REC-SVG-20010904/DTD/svg10.dtd">
<svg version="1.0" xmlns="http://www.w3.org/2000/svg"
 width="280.000000pt" height="280.000000pt" viewBox="0 0 280.000000 280.000000"
 preserveAspectRatio="xMidYMid meet">
<metadata>
Created by potrace 1.16, written by Peter Selinger 2001-2019
</metadata>
<g transform="translate(0.000000,280.000000) scale(0.100000,-0.100000)"
fill="currentColor" stroke="currentColor" stroke-width="2" stroke-linejoin="round" stroke-linecap="round">
<path d="M1357 2608 c-9 -7 -59 -110 -112 -228 -53 -118 -122 -271 -153 -338
l-56 -124 -34 6 c-52 8 -97 -16 -121 -63 -11 -22 -29 -42 -38 -45 -10 -3 -162
-24 -338 -46 -176 -22 -330 -42 -342 -45 -13 -3 -30 -17 -39 -31 -30 -45 -55
-19 394 -425 l213 -192 -6 -41 c-4 -23 -26 -147 -50 -276 -99 -536 -95 -508
-69 -534 35 -35 52 -27 587 288 109 64 200 116 202 116 2 0 122 -70 267 -156
523 -311 468 -283 503 -260 19 13 25 25 25 55 0 32 -52 324 -124 696 -9 44
-16 87 -16 96 0 8 78 85 172 170 95 85 204 183 243 219 39 36 101 93 138 127
49 45 67 68 67 87 0 40 -33 63 -103 70 -34 4 -96 11 -137 17 -41 5 -169 21
-284 35 -115 14 -213 27 -217 30 -5 2 -18 22 -30 44 -25 45 -61 63 -115 58
l-37 -3 -53 115 c-29 63 -98 216 -153 340 -99 219 -117 250 -151 250 -9 0 -24
-6 -33 -12z m201 -554 c51 -110 92 -205 92 -211 0 -6 -21 -27 -47 -48 -45 -34
-52 -36 -97 -31 -27 3 -53 11 -58 18 -4 7 -8 123 -8 258 0 204 2 242 13 230 8
-8 55 -105 105 -216z m-222 -270 c-2 -6 -27 -14 -55 -18 -49 -6 -53 -5 -96 31
-25 20 -45 43 -45 51 0 17 156 369 178 402 16 24 17 14 20 -215 1 -132 0 -245
-2 -251z m-289 -21 c26 -20 73 -58 103 -84 l56 -47 64 13 c85 19 152 18 240 0
l72 -15 67 58 c82 72 135 112 148 112 16 0 32 -77 39 -191 5 -75 13 -119 29
-155 62 -141 58 -297 -11 -395 -40 -58 -108 -117 -162 -140 -109 -48 -141 -54
-297 -53 -135 1 -158 3 -227 27 -102 35 -171 79 -219 139 -78 99 -92 234 -40
385 20 55 32 114 36 171 6 84 22 189 32 205 8 13 21 8 70 -30z m-207 -92 c0
-15 -3 -56 -6 -90 -6 -48 -10 -61 -24 -61 -9 0 -68 18 -131 39 -63 21 -140 47
-171 56 -96 27 -83 33 125 56 54 5 117 14 140 19 66 12 67 12 67 -19z m1318
-2 c94 -12 172 -26 172 -30 0 -4 -51 -24 -112 -44 -62 -20 -144 -48 -181 -62
-38 -14 -72 -21 -77 -17 -4 5 -10 46 -14 92 -8 98 -31 91 212 61z m-1561 -190
l184 -62 -7 -31 c-4 -17 -10 -60 -13 -96 -3 -36 -10 -64 -16 -62 -23 8 -355
311 -340 312 5 0 92 -28 192 -61z m1776 47 c-16 -28 -324 -296 -340 -296 -6 0
-13 33 -16 73 -4 39 -9 81 -12 93 -6 19 9 25 172 81 197 67 208 70 196 49z
m-1457 -614 l71 -69 -111 -166 c-61 -91 -114 -166 -118 -167 -13 0 -10 27 22
190 16 85 35 183 42 218 6 34 14 62 17 62 3 0 38 -31 77 -68z m1073 -163 c37
-198 44 -257 27 -238 -12 14 -208 312 -212 323 -5 13 112 142 131 145 7 0 29
-97 54 -230z m-691 2 c17 -1 32 -5 32 -10 0 -9 -415 -262 -453 -277 -9 -3 -17
-2 -17 3 0 14 170 261 212 309 l18 20 87 -22 c49 -13 103 -23 121 -23z m517
-121 c59 -88 106 -162 104 -164 -2 -3 -69 33 -149 80 -80 46 -182 105 -227
132 -45 26 -83 52 -83 58 0 7 26 14 59 18 33 4 79 13 103 20 80 26 75 30 193
-144z"/>
</g>
</svg>
