<?xml version="1.0" standalone="no"?>
<!DOCTYPE svg PUBLIC "-//W3C//DTD SVG 20010904//EN"
 "http://www.w3.org/TR/2001/REC-SVG-20010904/DTD/svg10.dtd">
<svg version="1.0" xmlns="http://www.w3.org/2000/svg"
 width="280.000000pt" height="280.000000pt" viewBox="0 0 280.000000 280.000000"
 preserveAspectRatio="xMidYMid meet">
<metadata>
Created by potrace 1.16, written by Peter Selinger 2001-2019
</metadata>
<g transform="translate(0.000000,280.000000) scale(0.100000,-0.100000)"
fill="#E8A030" stroke="#E8A030" stroke-width="2">
<path d="M1338 2591 l-33 -29 -3 -125 c-4 -141 6 -175 57 -196 24 -11 34 -10
60 4 44 22 51 48 51 181 0 127 -11 162 -55 182 -36 17 -40 16 -77 -17z"/>
<path d="M909 2497 c-15 -12 -29 -30 -32 -39 -6 -16 44 -142 93 -237 23 -47
52 -65 86 -57 32 8 64 41 64 66 0 28 -103 243 -129 269 -27 27 -49 27 -82 -2z"/>
<path d="M1781 2493 c-14 -16 -48 -81 -75 -145 -47 -114 -48 -119 -32 -143 24
-36 60 -51 89 -38 22 10 46 52 110 193 42 91 42 97 8 130 -37 37 -65 38 -100
3z"/>
<path d="M535 2245 c-17 -16 -25 -35 -25 -57 0 -29 12 -45 97 -125 54 -51 106
-96 116 -99 50 -16 105 33 93 82 -8 29 -158 189 -198 210 -38 20 -55 18 -83
-11z"/>
<path d="M2163 2250 c-44 -27 -182 -176 -189 -205 -4 -16 0 -34 10 -51 39 -58
76 -45 192 70 102 100 111 122 74 168 -26 34 -53 39 -87 18z"/>
<path d="M1275 2160 c-27 -4 -84 -20 -125 -35 -213 -75 -360 -210 -460 -420
-66 -139 -75 -179 -75 -325 0 -142 16 -206 87 -342 155 -299 518 -481 823
-413 166 37 293 104 405 215 172 170 235 324 235 570 -1 120 -4 143 -27 208
-43 119 -105 218 -193 307 -96 97 -186 153 -325 202 -84 29 -120 36 -199 38
-53 2 -118 0 -146 -5z m320 -155 c281 -95 444 -326 445 -630 0 -219 -102 -405
-294 -533 -204 -136 -472 -141 -693 -11 -90 53 -192 161 -235 249 -53 107 -71
187 -72 310 -1 162 41 288 139 413 83 106 231 195 365 221 58 11 296 -2 345
-19z"/>
<path d="M1030 1803 c-58 -21 -85 -91 -95 -240 -4 -57 -14 -117 -25 -143 -44
-109 -30 -230 37 -328 102 -149 347 -224 581 -176 164 33 292 126 340 247 27
69 30 182 7 248 -9 24 -20 91 -26 149 -16 170 -34 213 -99 240 -38 16 -109 -7
-183 -58 l-52 -36 -124 -1 -123 -2 -57 42 c-76 57 -134 75 -181 58z m124 -191
c28 -21 60 -43 71 -49 11 -5 88 -9 171 -8 163 1 185 8 243 69 28 29 56 34 65
10 3 -9 6 -48 6 -89 0 -50 8 -96 25 -149 31 -95 31 -118 1 -183 -60 -127 -224
-190 -426 -163 -146 19 -242 82 -274 178 -21 61 -20 85 9 167 14 39 25 91 25
116 0 70 11 139 23 139 6 0 33 -17 61 -38z"/>
<path d="M286 1869 c-52 -62 -24 -95 135 -163 121 -51 147 -53 175 -11 21 32
14 74 -16 97 -33 24 -227 108 -250 108 -10 0 -30 -14 -44 -31z"/>
<path d="M2323 1854 c-118 -53 -153 -81 -153 -122 0 -31 36 -72 63 -72 17 0
167 58 225 87 48 24 64 59 47 100 -13 31 -42 54 -67 52 -7 0 -59 -20 -115 -45z"/>
<path d="M269 1471 c-52 -7 -77 -24 -90 -58 -11 -31 7 -71 42 -89 42 -21 256
-20 287 2 54 37 46 115 -14 140 -34 14 -141 17 -225 5z"/>
<path d="M2344 1471 c-86 -7 -114 -27 -114 -78 0 -23 8 -42 25 -58 23 -24 29
-25 155 -25 l132 0 29 29 c31 32 34 45 19 86 -19 50 -73 60 -246 46z"/>
<path d="M425 1070 c-55 -27 -105 -50 -112 -50 -16 0 -53 -54 -53 -78 0 -10
12 -32 27 -46 35 -36 51 -32 200 41 109 53 118 60 121 88 3 41 -31 95 -60 94
-13 0 -68 -23 -123 -49z"/>
<path d="M2201 1101 c-69 -69 -21 -128 163 -201 79 -31 80 -31 105 -12 14 10
30 31 35 46 16 43 -16 74 -135 127 -141 63 -144 64 -168 40z"/>
<path d="M719 812 c-30 -13 -177 -154 -194 -186 -33 -61 11 -127 72 -111 42
10 223 200 223 233 0 18 -55 72 -72 71 -7 0 -20 -3 -29 -7z"/>
<path d="M1986 799 c-51 -40 -32 -82 93 -202 80 -77 95 -88 123 -85 42 4 73
46 64 85 -5 16 -47 68 -105 126 -105 105 -126 114 -175 76z"/>
<path d="M1012 606 c-12 -7 -28 -21 -36 -31 -22 -33 -96 -216 -96 -239 1 -44
55 -81 97 -65 29 10 42 32 97 161 45 103 46 109 32 137 -19 36 -63 53 -94 37z"/>
<path d="M1703 600 c-51 -31 -51 -56 -2 -173 52 -122 72 -155 105 -163 28 -7
67 15 85 47 25 48 -102 309 -151 309 -3 0 -20 -9 -37 -20z"/>
<path d="M1347 529 c-37 -21 -47 -63 -47 -189 0 -121 0 -122 29 -151 43 -42
101 -37 126 12 21 39 21 259 0 298 -20 41 -67 54 -108 30z"/>
</g>
</svg>
