<?xml version="1.0" standalone="no"?>
<!DOCTYPE svg PUBLIC "-//W3C//DTD SVG 20010904//EN"
 "http://www.w3.org/TR/2001/REC-SVG-20010904/DTD/svg10.dtd">
<svg version="1.0" xmlns="http://www.w3.org/2000/svg"
 width="280.000000pt" height="280.000000pt" viewBox="0 0 280.000000 280.000000"
 preserveAspectRatio="xMidYMid meet">
<metadata>
Created by potrace 1.16, written by Peter Selinger 2001-2019
</metadata>
<g transform="translate(0.000000,280.000000) scale(0.100000,-0.100000)"
fill="#E8A030" stroke="#E8A030" stroke-width="2" stroke-linejoin="round" stroke-linecap="round">
<path d="M1354 2639 c-16 -18 -20 -40 -22 -146 -4 -139 6 -179 46 -194 34 -13
69 11 77 55 4 18 5 88 3 156 -3 107 -5 123 -22 136 -28 20 -60 17 -82 -7z
M1822 2554 c-26 -18 -40 -44 -87 -160 -43 -106 -44 -137 -9 -161 45 -29 70 -5
125 122 65 150 67 158 35 189 -29 30 -34 31 -64 10z M912 2544 c-31 -21 -28
-48 18 -161 60 -147 89 -180 138 -152 39 22 35 62 -22 197 -56 131 -81 153
-134 116z M527 2282 c-35 -38 -22 -63 82 -165 81 -80 103 -97 129 -97 36 0 63
31 54 63 -3 12 -48 66 -100 119 -101 104 -130 118 -165 80z M2122 2215 c-99
-95 -117 -122 -108 -159 9 -36 47 -43 88 -18 53 33 188 177 188 201 0 27 -34
61 -60 61 -12 0 -57 -35 -108 -85z M1283 2205 c-333 -58 -584 -289 -663 -610
-31 -125 -25 -302 15 -420 87 -263 306 -466 574 -535 72 -19 104 -22 220 -18
122 4 145 8 223 37 163 61 292 153 383 275 190 255 217 566 74 849 -12 23 -47
75 -77 116 -169 225 -481 352 -749 306z m268 -120 c198 -42 376 -186 469 -380
53 -111 65 -170 64 -305 -1 -97 -6 -128 -28 -195 -70 -205 -246 -382 -446
-446 -83 -27 -247 -36 -344 -19 -88 15 -222 76 -290 132 -108 88 -193 211
-236 338 -35 106 -36 289 -2 400 35 113 86 195 176 285 170 170 402 239 637
190z M1022 1804 c-12 -8 -28 -27 -36 -42 -14 -27 -31 -133 -40 -237 -2 -27
-12 -70 -21 -95 -12 -30 -19 -72 -19 -125 0 -133 59 -233 171 -293 182 -97
443 -103 617 -15 71 36 103 62 141 113 67 92 81 213 37 340 -10 30 -22 98 -26
150 -8 117 -21 165 -51 196 -43 42 -106 27 -219 -53 l-49 -35 -129 0 c-128 1
-129 1 -167 31 -50 40 -133 81 -163 81 -13 0 -34 -7 -46 -16z m124 -123 c21
-15 49 -39 61 -52 21 -24 25 -24 190 -24 l169 1 62 52 c35 29 69 52 77 52 25
0 37 -39 42 -138 4 -66 14 -117 30 -160 67 -179 -23 -316 -240 -367 -188 -45
-414 14 -493 127 -49 72 -53 136 -14 263 10 33 21 102 25 153 3 51 8 99 11
107 9 23 37 18 80 -14z M282 1904 c-30 -21 -29 -67 2 -92 35 -27 233 -104 259
-100 12 2 28 15 36 30 25 44 -4 71 -141 129 -65 27 -121 49 -126 49 -4 0 -18
-7 -30 -16z M2335 1862 c-90 -39 -111 -52 -119 -74 -13 -38 6 -78 38 -78 37 0
256 86 272 107 18 24 17 44 -2 71 -23 33 -64 27 -189 -26z M180 1460 c-26 -26
-25 -62 1 -86 18 -16 40 -20 150 -23 156 -4 182 6 177 67 -4 53 -28 62 -180
62 -115 0 -130 -2 -148 -20z M2301 1461 c-24 -24 -27 -59 -7 -87 13 -17 27
-19 156 -19 137 0 142 1 161 24 23 28 24 50 5 77 -13 17 -29 19 -154 22 -131
3 -142 2 -161 -17z M520 1112 c-8 -2 -46 -18 -85 -34 -176 -73 -184 -80 -171
-134 13 -49 47 -49 169 2 121 51 157 76 157 109 0 38 -37 68 -70 57z M2231
1101 c-45 -45 -18 -94 67 -126 26 -10 70 -28 97 -41 81 -37 109 -35 130 7 25
47 5 67 -121 121 -145 62 -149 63 -173 39z M2022 804 c-45 -31 -31 -64 74
-173 53 -55 105 -103 115 -106 24 -8 65 17 74 45 4 12 0 31 -8 44 -31 47 -196
206 -214 206 -10 0 -29 -7 -41 -16z M625 724 c-102 -92 -115 -109 -115 -148 0
-27 33 -56 64 -56 24 0 201 182 215 221 7 20 5 33 -5 48 -28 39 -58 26 -159
-65z M1016 599 c-19 -12 -96 -167 -117 -238 -10 -34 -9 -44 5 -66 22 -33 69
-34 91 -2 19 29 91 206 99 244 11 47 -37 85 -78 62z M1732 599 c-46 -17 -45
-50 4 -172 49 -120 75 -157 109 -157 29 0 55 30 55 63 0 26 -67 191 -95 233
-21 32 -46 43 -73 33z M1362 522 c-21 -14 -32 -78 -32 -193 0 -93 3 -110 21
-133 26 -33 71 -35 93 -4 21 29 23 269 3 308 -13 26 -60 38 -85 22z"/>
</g>
</svg>
