<?xml version="1.0" standalone="no"?>
<!DOCTYPE svg PUBLIC "-//W3C//DTD SVG 20010904//EN"
 "http://www.w3.org/TR/2001/REC-SVG-20010904/DTD/svg10.dtd">
<svg version="1.0" xmlns="http://www.w3.org/2000/svg"
 width="280.000000pt" height="280.000000pt" viewBox="0 0 280.000000 280.000000"
 preserveAspectRatio="xMidYMid meet">
<metadata>
Created by potrace 1.16, written by Peter Selinger 2001-2019
</metadata>
<g transform="translate(0.000000,280.000000) scale(0.100000,-0.100000)"
fill="currentColor" stroke="currentColor" stroke-width="2">
<path d="M1794 2628 c-6 -7 -18 -47 -28 -88 -38 -155 -110 -239 -226 -263 -87
-18 -125 -34 -128 -53 -4 -28 12 -38 93 -59 39 -10 96 -32 128 -48 72 -38 100
-82 131 -207 36 -146 71 -157 101 -32 10 42 22 81 27 86 4 6 8 17 9 25 0 9 15
36 33 61 36 50 110 96 171 105 54 9 107 26 124 41 15 14 9 42 -11 48 -7 3 -40
12 -73 21 -181 50 -225 98 -282 300 -16 54 -25 71 -40 73 -11 2 -24 -3 -29
-10z"/>
<path d="M666 2524 c-18 -17 -20 -29 -16 -91 3 -75 1 -78 -130 -136 -64 -29
-132 -95 -156 -152 -9 -22 -41 -66 -71 -98 -59 -62 -57 -53 -32 -151 15 -54
91 -128 149 -143 25 -6 58 -21 73 -33 24 -19 27 -28 27 -78 0 -31 -7 -78 -14
-104 -22 -70 -29 -175 -17 -245 10 -66 54 -169 103 -242 16 -23 40 -66 55 -94
l25 -51 -5 -211 c-3 -115 -8 -219 -12 -231 -4 -12 -25 -29 -48 -39 -50 -21
-84 -50 -104 -89 -13 -26 -13 -32 3 -67 22 -49 62 -63 167 -57 68 3 79 7 108
33 30 29 72 108 103 198 76 215 77 216 159 91 59 -89 64 -114 27 -114 -12 0
-34 -7 -50 -15 -71 -37 -93 -120 -44 -166 l26 -24 431 0 c383 0 437 2 477 18
25 9 52 17 61 17 65 0 225 101 289 182 71 90 107 178 118 293 15 155 0 237
-78 430 -71 174 -85 257 -55 328 17 41 66 85 103 93 65 13 110 44 126 85 16
38 16 43 -1 78 -37 75 -122 88 -230 35 -115 -56 -195 -169 -215 -304 -14 -92
5 -185 68 -343 86 -214 100 -312 64 -429 -26 -86 -65 -141 -128 -183 -80 -54
-93 -48 -81 39 12 84 9 276 -5 356 -30 163 -113 352 -203 465 -82 100 -295
245 -362 245 -11 0 -22 4 -26 9 -3 5 -20 13 -38 16 -108 24 -198 123 -227 250
-37 160 -56 219 -97 295 -53 98 -70 123 -172 243 -93 110 -114 123 -145 91z"/>
</g>
</svg>
