<?xml version="1.0" standalone="no"?>
<!DOCTYPE svg PUBLIC "-//W3C//DTD SVG 20010904//EN"
 "http://www.w3.org/TR/2001/REC-SVG-20010904/DTD/svg10.dtd">
<svg version="1.0" xmlns="http://www.w3.org/2000/svg"
 width="276.000000pt" height="280.000000pt" viewBox="0 0 276.000000 280.000000"
 preserveAspectRatio="xMidYMid meet">
<metadata>
Created by potrace 1.16, written by Peter Selinger 2001-2019
</metadata>
<g transform="translate(0.000000,280.000000) scale(0.100000,-0.100000)"
fill="currentColor" stroke="currentColor" stroke-width="2" stroke-linejoin="round" stroke-linecap="round">
<path d="M1274 2521 c-79 -14 -122 -59 -135 -141 -13 -84 24 -170 73 -170 34
0 19 -28 -19 -34 -21 -4 -79 -21 -130 -38 l-92 -31 -45 41 c-60 56 -100 74
-173 80 -78 6 -136 -14 -186 -65 -41 -41 -77 -125 -77 -182 0 -52 25 -131 56
-177 l26 -38 -35 -65 c-90 -166 -133 -344 -124 -511 21 -411 302 -760 714
-887 82 -25 100 -27 273 -27 173 0 191 2 273 27 162 50 297 131 418 250 123
121 201 252 256 432 25 82 27 104 27 250 -1 144 -3 169 -27 248 -15 48 -49
131 -76 185 l-49 98 19 24 c51 67 72 187 48 275 -15 54 -100 139 -154 154 -97
27 -204 -3 -273 -76 l-34 -37 -92 32 c-50 17 -106 34 -123 37 -42 8 -51 23
-21 34 43 16 62 48 66 112 6 82 -17 142 -68 175 -35 23 -50 26 -157 29 -65 2
-137 1 -159 -4z m281 -102 c22 -27 25 -40 23 -83 l-3 -51 -169 -3 c-197 -3
-200 -2 -193 72 3 38 11 55 31 73 25 21 36 23 156 23 l128 0 27 -31z m-718
-295 c27 -17 49 -37 51 -46 2 -11 -17 -29 -55 -54 -32 -20 -93 -72 -137 -115
-43 -44 -80 -79 -82 -79 -2 0 -12 17 -23 38 -55 108 -27 221 67 272 51 28 118
22 179 -16z m1286 20 c69 -35 107 -95 107 -168 0 -51 -33 -136 -52 -136 -8 0
-43 29 -78 65 -36 37 -95 87 -132 112 -38 26 -68 51 -68 56 0 14 41 46 85 67
49 24 96 25 138 4z m-483 -53 c41 -11 120 -43 175 -70 456 -230 626 -796 369
-1222 -98 -161 -189 -253 -341 -340 -156 -89 -311 -126 -491 -116 -283 15
-539 155 -705 388 -267 375 -188 902 179 1194 110 88 269 160 410 185 84 15
319 4 404 -19z M1235 1946 c-147 -34 -277 -106 -382 -211 -126 -128 -203 -320
-203 -505 0 -203 104 -420 267 -555 209 -173 483 -219 743 -125 102 37 180 89
271 179 85 85 139 173 177 289 22 66 25 96 26 212 1 152 -11 205 -71 325 -91
179 -236 305 -429 371 -66 23 -100 27 -209 30 -86 3 -150 -1 -190 -10z m382
-84 c111 -39 185 -85 263 -163 130 -128 192 -281 193 -474 0 -112 -10 -162
-52 -258 -117 -270 -441 -446 -731 -397 -221 37 -422 191 -515 392 -41 90 -56
163 -57 270 -1 111 16 187 62 283 120 250 363 392 650 381 83 -4 122 -11 187
-34z M1377 1864 c-4 -4 -7 -29 -7 -55 0 -34 4 -49 16 -53 29 -11 45 13 42 63
-2 37 -7 47 -23 49 -12 2 -24 0 -28 -4z M996 1725 c-7 -20 7 -56 33 -79 17
-15 23 -16 36 -6 20 17 19 36 -6 71 -22 31 -53 38 -63 14z M1742 1710 c-26
-35 -28 -53 -6 -71 14 -12 20 -9 45 21 32 38 35 50 17 68 -19 19 -32 14 -56
-18z M1374 1660 c-32 -13 -44 -61 -44 -171 0 -97 0 -99 -29 -120 -102 -75 -91
-233 19 -289 43 -22 109 -26 143 -9 12 6 38 26 57 44 32 30 42 33 113 37 64 4
82 9 102 28 33 31 33 73 0 105 -22 23 -32 25 -108 25 -83 0 -83 0 -119 38
l-36 37 -7 119 c-6 114 -15 156 -35 156 -4 0 -14 2 -22 4 -7 3 -23 1 -34 -4z
m82 -348 c52 -42 59 -109 15 -152 -36 -36 -73 -46 -112 -30 -109 45 -81 200
36 200 23 0 49 -8 61 -18z M843 1543 c-4 -10 3 -24 21 -40 54 -46 110 -16 61
33 -28 28 -73 32 -82 7z M1875 1537 c-48 -41 -8 -77 45 -40 32 22 39 33 33 50
-8 20 -49 15 -78 -10z M788 1263 c-37 -6 -54 -28 -38 -48 16 -19 93 -20 109
-1 12 14 5 46 -9 46 -5 0 -14 2 -22 3 -7 2 -25 2 -40 0z M1930 1245 c-22 -26
5 -46 59 -43 42 3 46 5 46 28 0 23 -4 25 -46 28 -32 2 -50 -2 -59 -13z M879
971 c-41 -22 -50 -56 -18 -66 42 -14 106 62 66 78 -8 3 -30 -2 -48 -12z M1853
963 c-9 -23 42 -65 75 -61 36 4 38 23 6 53 -31 29 -72 33 -81 8z M1010 788
c-22 -37 -22 -47 4 -62 14 -9 22 -5 42 19 29 36 28 69 -3 73 -16 2 -28 -6 -43
-30z M1725 810 c-17 -28 30 -98 60 -87 21 9 19 40 -6 71 -21 27 -43 34 -54 16z
M1377 704 c-11 -11 -8 -102 3 -109 6 -3 19 -3 31 0 17 6 20 14 17 58 -3 44 -6
52 -23 55 -12 2 -24 0 -28 -4z"/>
</g>
</svg>
