<?xml version="1.0" standalone="no"?>
<!DOCTYPE svg PUBLIC "-//W3C//DTD SVG 20010904//EN"
 "http://www.w3.org/TR/2001/REC-SVG-20010904/DTD/svg10.dtd">
<svg version="1.0" xmlns="http://www.w3.org/2000/svg"
 width="280.000000pt" height="280.000000pt" viewBox="0 0 280.000000 280.000000"
 preserveAspectRatio="xMidYMid meet">
<metadata>
Created by potrace 1.16, written by Peter Selinger 2001-2019
</metadata>
<g transform="translate(0.000000,280.000000) scale(0.100000,-0.100000)"
fill="currentColor" stroke="currentColor" stroke-width="2" stroke-linejoin="round" stroke-linecap="round">
<path d="M1230 2459 c-92 -37 -129 -153 -75 -233 14 -20 25 -41 25 -46 0 -4
-24 -16 -52 -26 -429 -141 -704 -566 -644 -994 64 -457 433 -797 886 -817 378
-16 743 209 886 547 115 273 107 556 -23 803 -20 37 -34 69 -32 71 2 2 21 11
42 21 58 27 82 68 82 140 0 75 -16 99 -132 201 -79 68 -89 74 -130 74 -24 0
-61 -9 -83 -20 -37 -19 -80 -67 -80 -89 0 -18 -38 -13 -88 13 -26 13 -77 33
-114 45 -65 21 -85 42 -54 54 22 9 49 92 42 129 -10 51 -41 95 -85 118 -36 18
-58 20 -193 19 -84 0 -164 -5 -178 -10z m335 -119 c15 -17 16 -24 7 -45 -9
-20 -19 -25 -49 -25 -47 0 -60 -8 -64 -40 -4 -22 -9 -25 -51 -28 -45 -3 -48
-2 -48 22 0 31 -9 37 -61 40 -43 3 -59 17 -59 52 0 39 17 44 165 44 129 0 144
-2 160 -20z m51 -280 c288 -74 511 -303 590 -605 25 -95 25 -285 1 -374 -155
-570 -801 -812 -1272 -476 -156 111 -279 294 -326 485 -20 83 -17 299 5 385
50 188 173 361 339 474 185 126 438 168 663 111z m538 -50 c69 -68 79 -82 70
-97 -15 -25 -61 -28 -86 -6 -12 10 -35 18 -57 18 -34 0 -36 2 -39 34 -2 19
-12 46 -23 59 -18 23 -17 32 4 60 20 26 52 10 131 -68z M1231 1969 c-439 -113
-666 -593 -476 -1004 118 -256 378 -419 665 -418 266 1 511 156 634 401 57
114 71 176 70 322 0 119 -4 145 -27 215 -81 245 -270 423 -515 486 -99 25
-249 24 -351 -2z m127 -141 c2 -46 7 -61 25 -73 28 -19 33 -19 57 5 15 15 20
33 20 75 0 55 0 55 31 55 38 0 172 -44 219 -72 153 -91 264 -234 306 -393 8
-27 14 -62 14 -77 0 -27 -2 -28 -56 -28 -67 0 -94 -13 -94 -45 0 -40 25 -55
91 -55 58 0 59 -1 59 -27 -1 -116 -116 -322 -232 -414 -29 -23 -85 -57 -124
-76 -67 -32 -190 -65 -206 -56 -5 2 -8 25 -8 51 0 76 -39 112 -84 79 -14 -10
-18 -26 -17 -70 l0 -57 -33 0 c-83 0 -236 69 -324 146 -104 91 -194 250 -208
367 l-7 57 61 0 c64 0 92 15 92 50 0 35 -28 50 -91 50 -58 0 -59 1 -59 28 0
49 29 143 68 216 43 82 151 198 225 241 66 38 205 86 242 83 29 -3 30 -5 33
-60z M1370 1660 c-17 -17 -20 -33 -20 -125 l0 -104 -44 -45 c-69 -68 -74 -147
-15 -219 47 -57 133 -71 196 -31 19 12 29 10 87 -17 75 -35 104 -35 125 3 14
24 14 28 -4 48 -11 12 -42 33 -68 46 -47 24 -60 41 -72 98 -3 16 -24 47 -45
68 l-38 38 -4 111 c-3 102 -5 113 -27 130 -30 24 -46 24 -71 -1z m68 -352 c21
-21 15 -67 -12 -79 -32 -15 -66 4 -66 36 0 44 50 71 78 43z"/>
</g>
</svg>
