<?xml version="1.0" standalone="no"?>
<!DOCTYPE svg PUBLIC "-//W3C//DTD SVG 20010904//EN"
 "http://www.w3.org/TR/2001/REC-SVG-20010904/DTD/svg10.dtd">
<svg version="1.0" xmlns="http://www.w3.org/2000/svg"
 width="280.000000pt" height="280.000000pt" viewBox="0 0 280.000000 280.000000"
 preserveAspectRatio="xMidYMid meet">
<metadata>
Created by potrace 1.16, written by Peter Selinger 2001-2019
</metadata>
<g transform="translate(0.000000,280.000000) scale(0.100000,-0.100000)"
fill="currentColor" stroke="currentColor" stroke-width="2" stroke-linejoin="round" stroke-linecap="round">
<path d="M988 2396 c-50 -18 -64 -28 -220 -152 -353 -284 -374 -305 -392 -391
-11 -47 9 -105 53 -155 34 -38 378 -310 485 -382 83 -56 161 -53 222 8 40 40
54 89 54 194 l0 82 143 0 c78 0 168 -4 201 -10 110 -18 191 -78 242 -178 26
-51 29 -67 29 -152 0 -88 -3 -101 -33 -162 -34 -70 -86 -123 -157 -161 -34
-19 -56 -22 -155 -21 -63 0 -156 4 -206 8 -77 8 -96 6 -128 -9 -81 -39 -126
-106 -134 -201 -4 -54 -1 -71 25 -127 45 -94 93 -122 261 -152 289 -50 547 22
749 209 122 113 188 219 239 381 26 82 29 104 29 235 0 131 -3 154 -29 235
-89 284 -290 480 -572 556 -66 19 -114 23 -296 27 l-218 4 6 53 c14 118 -16
209 -81 246 -45 25 -76 29 -117 15z m72 -269 c4 -132 7 -150 24 -163 16 -11
69 -14 264 -14 272 0 314 -6 439 -66 182 -87 314 -247 363 -440 27 -104 27
-263 1 -366 -63 -245 -270 -449 -521 -514 -130 -34 -401 -13 -471 37 -33 23
-55 84 -45 124 4 15 20 41 37 57 33 34 17 33 228 9 119 -14 202 -2 297 44 181
87 289 300 254 502 -30 184 -167 332 -341 372 -24 6 -146 11 -271 11 -193 0
-229 -2 -242 -16 -13 -12 -16 -41 -16 -148 0 -185 -16 -195 -146 -89 -39 32
-146 116 -237 186 -225 172 -225 176 -55 314 62 50 175 141 251 202 185 149
181 150 187 -42z"/>
</g>
</svg>
