<?xml version="1.0" standalone="no"?>
<!DOCTYPE svg PUBLIC "-//W3C//DTD SVG 20010904//EN"
 "http://www.w3.org/TR/2001/REC-SVG-20010904/DTD/svg10.dtd">
<svg version="1.0" xmlns="http://www.w3.org/2000/svg"
 width="280.000000pt" height="280.000000pt" viewBox="0 0 280.000000 280.000000"
 preserveAspectRatio="xMidYMid meet">
<metadata>
Created by potrace 1.16, written by Peter Selinger 2001-2019
</metadata>
<g transform="translate(0.000000,280.000000) scale(0.100000,-0.100000)"
fill="currentColor" stroke="currentColor" stroke-width="2" stroke-linejoin="round" stroke-linecap="round">
<path d="M1152 2389 c-28 -8 -206 -137 -378 -273 -29 -23 -87 -68 -129 -101
-116 -90 -149 -154 -125 -243 14 -53 47 -86 201 -196 68 -49 185 -134 259
-187 87 -63 152 -102 182 -110 41 -11 49 -10 94 12 71 35 88 70 92 196 l4 102
55 7 c75 9 236 -3 301 -23 62 -19 143 -86 172 -142 81 -159 13 -377 -141 -457
-112 -58 -333 -60 -473 -5 -70 28 -117 32 -172 16 -104 -30 -167 -114 -167
-220 0 -134 85 -213 278 -259 377 -89 728 -12 942 206 76 76 105 119 148 212
62 134 70 175 70 351 0 183 -12 238 -87 387 -33 65 -60 102 -127 168 -98 97
-189 149 -346 196 -79 24 -111 28 -271 32 l-182 4 -4 112 c-3 87 -8 119 -24
144 -34 59 -108 89 -172 71z m93 -94 c24 -23 25 -30 25 -142 0 -178 -23 -160
213 -166 240 -6 306 -19 437 -83 173 -85 307 -250 355 -439 34 -131 29 -289
-12 -420 -77 -244 -273 -418 -543 -481 -88 -20 -340 -20 -435 0 -106 23 -191
51 -223 75 -85 60 -80 198 8 258 44 30 95 29 188 -3 105 -36 233 -50 335 -36
197 26 318 116 374 276 27 77 24 223 -7 300 -43 111 -153 199 -285 227 -37 8
-121 12 -220 11 -138 -1 -162 -4 -172 -19 -9 -11 -13 -57 -13 -138 0 -108 -2
-124 -20 -143 -31 -33 -78 -29 -134 11 -122 86 -481 354 -502 376 -31 30 -32
88 -4 124 20 25 436 350 524 409 51 34 80 35 111 3z"/>
</g>
</svg>
