<?xml version="1.0" standalone="no"?>
<!DOCTYPE svg PUBLIC "-//W3C//DTD SVG 20010904//EN"
 "http://www.w3.org/TR/2001/REC-SVG-20010904/DTD/svg10.dtd">
<svg version="1.0" xmlns="http://www.w3.org/2000/svg"
 width="240.000000pt" height="280.000000pt" viewBox="0 0 240.000000 280.000000"
 preserveAspectRatio="xMidYMid meet">
<metadata>
Created by potrace 1.16, written by Peter Selinger 2001-2019
</metadata>
<g transform="translate(0.000000,280.000000) scale(0.100000,-0.100000)"
fill="currentColor" stroke="none">
<path d="M1165 2366 c-16 -8 -37 -21 -45 -28 -37 -31 -392 -451 -400 -474 -26
-67 2 -145 66 -181 32 -18 55 -23 120 -23 65 0 83 -3 88 -16 3 -9 6 -106 6
-217 0 -175 3 -207 19 -242 35 -77 102 -115 198 -115 73 0 130 26 171 75 38
47 41 65 44 300 1 105 4 196 6 203 3 8 29 12 83 12 95 0 137 15 173 62 39 53
37 118 -8 183 -43 61 -361 421 -396 447 -35 25 -89 31 -125 14z m114 -103 c51
-54 333 -381 353 -412 23 -34 23 -66 -2 -91 -18 -18 -33 -20 -133 -20 -75 0
-117 -4 -125 -12 -9 -9 -12 -79 -12 -251 0 -223 -1 -242 -20 -272 -42 -68
-160 -87 -216 -34 -52 48 -54 61 -54 312 0 181 -3 237 -13 245 -7 6 -64 13
-127 14 -110 3 -113 4 -133 30 -20 26 -20 30 -5 60 16 32 339 416 380 451 33
28 66 21 107 -20z M461 1339 c-46 -18 -84 -53 -102 -93 -17 -37 -19 -70 -19
-332 0 -341 4 -367 75 -438 85 -84 52 -81 795 -81 496 0 665 3 696 13 55 16
127 81 156 140 23 46 23 52 23 357 l0 310 -27 47 c-34 57 -92 88 -164 88 -62
-1 -108 -24 -148 -73 l-31 -39 -3 -171 c-2 -95 -7 -176 -12 -181 -9 -9 -933
-19 -962 -10 -16 5 -18 22 -18 170 0 204 -13 240 -107 288 -35 17 -114 20
-152 5z m153 -98 l31 -31 3 -173 c1 -94 4 -182 7 -193 10 -43 33 -45 579 -42
499 3 518 4 532 22 11 15 14 59 14 193 0 136 3 180 15 203 35 68 135 79 188
20 l28 -31 -3 -308 -3 -308 -28 -41 c-15 -23 -45 -51 -67 -62 -38 -19 -57 -20
-694 -20 -538 -1 -661 2 -689 13 -36 16 -83 66 -99 106 -6 15 -10 150 -11 319
0 278 1 294 20 320 45 61 123 67 177 13z M1138 769 c-28 -16 -23 -67 7 -81 19
-8 28 -8 40 2 22 18 19 67 -4 80 -23 12 -22 12 -43 -1z M1241 756 c-16 -19
-11 -56 11 -70 24 -15 60 19 56 53 -2 20 -10 27 -29 29 -14 2 -31 -4 -38 -12z
M1058 699 c-11 -6 -18 -22 -18 -39 0 -23 5 -31 25 -36 50 -13 74 43 30 72 -14
9 -25 10 -37 3z M1326 681 c-26 -29 -17 -56 18 -56 36 0 56 27 40 53 -16 24
-37 26 -58 3z M1173 660 c-25 -10 -73 -77 -73 -100 0 -41 24 -53 109 -56 73
-1 83 1 96 19 23 33 18 64 -17 102 -35 37 -78 51 -115 35z"/>
</g>
</svg>
