<?xml version="1.0" standalone="no"?>
<!DOCTYPE svg PUBLIC "-//W3C//DTD SVG 20010904//EN"
 "http://www.w3.org/TR/2001/REC-SVG-20010904/DTD/svg10.dtd">
<svg version="1.0" xmlns="http://www.w3.org/2000/svg"
 width="280.000000pt" height="280.000000pt" viewBox="0 0 280.000000 280.000000"
 preserveAspectRatio="xMidYMid meet">
<metadata>
Created by potrace 1.16, written by Peter Selinger 2001-2019
</metadata>
<g transform="translate(0.000000,280.000000) scale(0.100000,-0.100000)"
fill="currentColor" stroke="currentColor" stroke-width="2" stroke-linejoin="round" stroke-linecap="round">
<path d="M1334 2331 c-62 -16 -124 -53 -164 -98 -21 -25 -153 -237 -291 -472
-568 -960 -524 -875 -524 -1001 0 -80 4 -103 24 -143 34 -68 101 -131 169
-159 l57 -23 639 -3 639 -3 -7 23 c-3 13 -6 31 -6 41 0 16 -36 17 -611 17
-432 0 -624 3 -657 12 -33 8 -61 26 -98 62 -90 88 -103 189 -40 314 13 26 160
277 326 557 166 281 324 548 351 594 27 47 61 100 75 118 87 115 270 119 361
9 16 -20 74 -113 130 -208 554 -944 529 -903 563 -906 18 -2 36 0 41 5 9 9
-84 180 -233 428 -52 88 -158 266 -233 395 -76 129 -151 256 -167 282 -37 59
-98 115 -153 139 -49 22 -145 32 -191 20z M1329 1850 c-22 -12 -43 -34 -54
-57 -17 -35 -17 -54 -6 -303 7 -146 17 -280 22 -298 11 -35 68 -72 111 -72 29
0 84 33 98 59 12 24 40 369 40 504 0 104 -15 139 -72 168 -47 24 -93 24 -139
-1z M1353 1009 c-49 -14 -87 -70 -87 -129 0 -55 21 -92 67 -120 119 -73 260
78 183 195 -33 50 -101 73 -163 54z M2038 950 c-9 -6 -22 -25 -28 -44 -13 -41
5 -94 41 -120 33 -22 52 -20 83 10 69 70 -13 202 -96 154z M2249 931 c-56 -57
-29 -161 42 -161 50 0 97 78 78 127 -26 69 -72 81 -120 34z M1882 787 c-49
-52 -12 -147 57 -147 63 0 83 89 32 141 -35 35 -60 37 -89 6z M2401 776 c-33
-35 -39 -98 -12 -125 36 -36 89 -23 116 29 21 41 19 73 -8 98 -30 29 -68 28
-96 -2z M2144 719 c-42 -12 -120 -83 -144 -130 -29 -56 -26 -120 6 -153 31
-31 17 -28 174 -31 70 -2 137 1 153 7 32 12 57 54 57 95 -1 68 -75 173 -145
204 -44 20 -56 21 -101 8z"/>
</g>
</svg>
