<?xml version="1.0" standalone="no"?>
<!DOCTYPE svg PUBLIC "-//W3C//DTD SVG 20010904//EN"
 "http://www.w3.org/TR/2001/REC-SVG-20010904/DTD/svg10.dtd">
<svg version="1.0" xmlns="http://www.w3.org/2000/svg"
 width="280.000000pt" height="280.000000pt" viewBox="0 0 280.000000 280.000000"
 preserveAspectRatio="xMidYMid meet">
<metadata>
Created by potrace 1.16, written by Peter Selinger 2001-2019
</metadata>
<g transform="translate(0.000000,280.000000) scale(0.100000,-0.100000)"
fill="currentColor" stroke="currentColor" stroke-width="2" stroke-linejoin="round" stroke-linecap="round">
<path d="M1260 2490 c-68 -12 -137 -48 -173 -91 -32 -37 -153 -244 -315 -539
-95 -174 -304 -550 -375 -675 -28 -49 -75 -137 -104 -194 -49 -95 -53 -109
-53 -172 0 -131 58 -226 169 -278 l56 -26 715 -3 714 -2 26 -24 c58 -55 139
-74 217 -51 44 13 61 14 90 4 52 -17 135 -7 178 22 41 28 85 108 85 154 0 20
8 39 21 51 31 27 59 92 59 137 0 50 -23 104 -64 147 -19 19 -39 52 -46 73 -24
75 -78 120 -162 132 l-46 7 -123 221 c-68 122 -155 278 -195 347 -39 69 -111
197 -159 285 -154 282 -205 363 -252 404 -66 59 -171 87 -263 71z m105 -121
c88 -22 79 -9 420 -624 40 -71 103 -184 140 -250 143 -252 185 -328 185 -335
0 -4 -19 -10 -43 -12 -24 -3 -56 -11 -72 -19 -35 -17 -84 -85 -85 -116 0 -13
-13 -32 -31 -45 -83 -61 -104 -177 -50 -274 17 -28 27 -55 24 -58 -12 -12
-1338 -7 -1374 5 -70 24 -119 92 -119 166 0 49 16 83 199 413 84 151 248 448
364 659 121 219 229 402 252 428 23 25 57 50 80 58 49 17 56 18 110 4z m796
-1314 c27 -14 32 -14 51 0 13 8 41 15 65 15 58 0 92 -31 104 -95 5 -28 14 -52
20 -53 26 -9 69 -56 79 -88 15 -43 2 -78 -41 -120 -22 -21 -29 -37 -29 -66 0
-55 -24 -104 -59 -122 -38 -20 -68 -20 -127 0 -42 14 -49 14 -85 0 -104 -42
-189 11 -189 116 0 33 -6 50 -21 64 -69 62 -62 156 14 202 27 16 35 28 41 62
9 60 52 100 106 100 22 0 54 -7 71 -15z M1245 1946 c-17 -7 -43 -28 -58 -45
-41 -50 -50 -98 -38 -215 6 -55 15 -164 21 -241 7 -77 18 -154 25 -172 28 -68
135 -96 196 -52 43 30 56 64 64 164 4 50 13 160 20 245 18 202 8 247 -68 304
-33 25 -121 32 -162 12z m128 -108 c20 -26 20 -29 2 -270 -9 -134 -21 -251
-26 -260 -18 -34 -79 -11 -79 30 0 9 -7 107 -15 217 -19 256 -19 257 6 289 29
36 83 33 112 -6z M1267 1126 c-77 -28 -112 -81 -105 -163 5 -62 29 -100 79
-125 74 -38 167 -14 210 54 16 26 19 46 17 93 -4 72 -25 106 -84 135 -47 23
-65 24 -117 6z m77 -86 c51 -19 58 -79 14 -120 -28 -25 -49 -25 -82 1 -33 26
-36 79 -6 109 22 22 37 24 74 10z M2076 964 c-25 -24 -20 -77 9 -104 23 -22
25 -22 50 -6 32 21 34 72 5 104 -25 26 -43 28 -64 6z M2221 954 c-28 -35 -27
-79 1 -98 29 -20 34 -20 58 4 36 36 19 120 -25 120 -7 0 -23 -12 -34 -26z
M1961 851 c-16 -30 -13 -47 12 -77 49 -56 114 4 70 64 -25 34 -68 41 -82 13z
M2321 844 c-26 -33 -26 -45 -3 -74 25 -31 65 -21 82 20 10 25 10 34 -4 55 -21
32 -49 32 -75 -1z M2139 805 c-34 -18 -96 -100 -104 -136 -8 -34 13 -74 44
-84 11 -3 36 -2 54 3 21 6 55 6 91 0 73 -13 96 3 96 67 0 33 -8 52 -37 89 -36
46 -78 76 -105 76 -7 -1 -25 -7 -39 -15z"/>
</g>
</svg>
