<?xml version="1.0" standalone="no"?>
<!DOCTYPE svg PUBLIC "-//W3C//DTD SVG 20010904//EN"
 "http://www.w3.org/TR/2001/REC-SVG-20010904/DTD/svg10.dtd">
<svg version="1.0" xmlns="http://www.w3.org/2000/svg"
 width="280.000000pt" height="280.000000pt" viewBox="0 0 280.000000 280.000000"
 preserveAspectRatio="xMidYMid meet">
<metadata>
Created by potrace 1.16, written by Peter Selinger 2001-2019
</metadata>
<g transform="translate(0.000000,280.000000) scale(0.100000,-0.100000)"
fill="#FF6B9D" stroke="#FF6B9D" stroke-width="2">
<path d="M1937 2423 c-27 -31 -22 -71 11 -85 106 -43 142 -66 210 -135 64 -66
76 -74 104 -71 25 2 35 9 42 31 22 62 -75 175 -202 238 -83 41 -140 48 -165
22z"/>
<path d="M1351 2269 c-51 -16 -75 -32 -118 -75 l-55 -54 -44 15 c-61 20 -98
19 -175 -7 -50 -17 -76 -34 -120 -77 -73 -73 -101 -144 -98 -248 2 -73 2 -74
-31 -98 -40 -30 -95 -105 -112 -154 -17 -52 -15 -177 6 -238 28 -84 87 -163
219 -294 136 -136 193 -220 220 -324 27 -103 54 -218 67 -280 6 -33 18 -85 26
-116 8 -30 14 -64 14 -76 0 -11 11 -32 25 -47 46 -50 133 -25 136 39 2 31 -9
114 -17 127 -2 3 -16 62 -30 130 -44 215 -63 277 -114 385 -49 100 -58 111
-214 271 -151 155 -164 172 -184 232 -12 35 -22 77 -22 92 0 69 52 136 121
157 54 16 63 38 44 110 -20 78 -19 117 5 170 47 104 143 136 252 86 72 -34 95
-32 116 6 107 199 322 178 384 -36 19 -63 43 -78 102 -61 165 48 260 -126 207
-380 -42 -206 -35 -362 25 -522 14 -37 40 -109 59 -160 19 -51 41 -107 49
-125 8 -18 31 -72 50 -122 39 -96 54 -115 97 -115 41 0 58 9 74 40 16 31 12
65 -14 124 -40 89 -155 386 -179 461 -35 110 -35 261 -2 429 22 107 23 125 12
199 -15 101 -50 173 -114 233 -58 54 -115 81 -191 90 -52 6 -59 10 -73 39 -39
83 -121 151 -214 179 -69 21 -111 19 -189 -5z"/>
<path d="M1846 2251 c-25 -27 -17 -72 14 -87 14 -7 54 -26 90 -43 50 -23 75
-43 107 -85 51 -66 87 -81 115 -46 27 34 22 63 -21 117 -56 71 -117 120 -178
143 -67 25 -105 25 -127 1z"/>
<path d="M1391 2015 c-41 -35 -65 -103 -57 -161 16 -123 107 -183 191 -128 34
22 55 64 62 124 5 40 1 59 -20 102 -43 87 -116 113 -176 63z"/>
<path d="M333 1923 c-50 -51 -100 -162 -115 -256 -11 -72 -10 -79 9 -105 22
-30 66 -40 89 -21 8 6 14 29 14 53 0 82 42 195 96 259 25 30 32 71 14 82 -6 4
-24 10 -41 15 -26 8 -34 5 -66 -27z"/>
<path d="M1011 1907 c-26 -32 -42 -89 -36 -130 9 -56 26 -87 74 -130 35 -32
48 -37 89 -37 52 0 81 20 100 71 23 60 -27 180 -91 219 -37 23 -119 27 -136 7z"/>
<path d="M522 1850 c-105 -64 -171 -338 -92 -380 54 -29 90 7 90 89 0 69 13
109 56 176 47 73 50 89 18 114 -33 26 -31 26 -72 1z"/>
<path d="M1757 1827 c-28 -7 -45 -20 -70 -56 -27 -39 -32 -55 -32 -106 0 -44
5 -67 20 -87 38 -52 95 -62 152 -27 45 28 66 72 67 139 1 100 -55 157 -137
137z"/>
<path d="M1373 1619 c-102 -19 -140 -60 -198 -214 -14 -38 -30 -74 -37 -82
-15 -18 -38 -119 -32 -146 8 -42 44 -106 71 -125 83 -57 149 -48 292 42 34 22
52 26 116 26 89 0 148 22 189 71 32 38 40 66 34 127 -7 75 -40 115 -164 196
-166 110 -191 120 -271 105z"/>
<path d="M868 1554 c-36 -19 -48 -43 -48 -99 0 -118 143 -207 230 -145 22 15
31 32 36 65 8 59 0 87 -38 131 -53 61 -123 79 -180 48z"/>
</g>
</svg>
