<?xml version="1.0" standalone="no"?>
<!DOCTYPE svg PUBLIC "-//W3C//DTD SVG 20010904//EN"
 "http://www.w3.org/TR/2001/REC-SVG-20010904/DTD/svg10.dtd">
<svg version="1.0" xmlns="http://www.w3.org/2000/svg"
 width="280.000000pt" height="280.000000pt" viewBox="0 0 280.000000 280.000000"
 preserveAspectRatio="xMidYMid meet">
<metadata>
Created by potrace 1.16, written by Peter Selinger 2001-2019
</metadata>
<g transform="translate(0.000000,280.000000) scale(0.100000,-0.100000)"
fill="#F5E6C8" stroke="#F5E6C8" stroke-width="2" stroke-linejoin="round" stroke-linecap="round">
<path d="M1062 2358 c-104 -42 -178 -130 -204 -242 -13 -57 -14 -59 -65 -81
-96 -43 -177 -139 -198 -234 -26 -122 11 -273 105 -421 132 -207 151 -333 116
-747 -19 -224 -17 -245 25 -258 35 -12 66 3 78 36 6 17 18 130 27 252 30 415
6 537 -165 826 -78 130 -92 258 -39 353 34 62 78 88 149 88 32 0 61 5 65 11 3
6 8 39 10 74 7 111 47 191 112 224 97 48 152 39 237 -40 34 -33 66 -59 70 -59
5 0 34 24 65 54 63 61 114 80 180 70 98 -16 163 -107 176 -247 7 -85 1 -80 94
-92 105 -13 155 -83 154 -215 -1 -86 -19 -138 -94 -270 -58 -102 -85 -185
-101 -317 -11 -85 -9 -137 10 -397 12 -167 27 -311 34 -325 17 -36 67 -41 97
-9 19 21 21 30 15 93 -19 205 -26 315 -32 460 -8 236 3 281 131 525 52 98 72
190 63 287 -12 123 -80 220 -193 274 -53 25 -64 34 -64 54 0 46 -41 134 -86
184 -67 74 -138 106 -240 106 -71 0 -87 -4 -145 -33 l-66 -33 -63 33 c-82 43
-177 49 -258 16z M473 2344 c-29 -14 -69 -44 -89 -67 -40 -47 -98 -155 -109
-205 -9 -45 16 -84 53 -80 28 3 33 11 78 115 26 61 65 105 153 171 36 27 39
44 11 72 -25 25 -34 25 -97 -6z M2198 2359 c-11 -6 -18 -22 -18 -39 0 -24 9
-35 55 -65 64 -43 86 -71 140 -180 37 -73 43 -80 70 -80 68 0 63 85 -12 205
-46 71 -79 106 -128 135 -51 29 -85 37 -107 24z M615 2213 c-92 -48 -185 -190
-185 -283 0 -29 27 -60 52 -60 22 0 35 19 58 86 28 80 56 119 117 159 59 40
73 67 47 96 -21 23 -49 24 -89 2z M2057 2212 c-25 -27 -21 -48 15 -74 83 -61
134 -123 159 -193 22 -66 26 -70 56 -73 49 -5 60 27 38 104 -28 99 -81 172
-164 225 -52 34 -81 36 -104 11z M1150 2133 c-127 -47 -94 -297 42 -319 79
-13 134 50 125 143 -13 123 -90 204 -167 176z M1543 2120 c-92 -56 -121 -207
-53 -280 55 -58 142 -33 185 54 44 88 27 199 -36 231 -37 20 -58 19 -96 -5z
M884 1830 c-28 -11 -61 -54 -69 -90 -14 -65 39 -163 105 -190 39 -16 76 -6
113 31 28 28 29 33 24 90 -6 73 -39 128 -90 152 -39 19 -52 20 -83 7z M1805
1820 c-47 -19 -95 -100 -95 -160 0 -47 27 -90 66 -106 32 -13 39 -13 78 4 23
11 52 33 64 49 45 64 46 169 1 206 -22 18 -79 22 -114 7z M1290 1713 c-38 -19
-66 -43 -90 -77 -19 -28 -58 -75 -86 -105 -93 -101 -109 -168 -63 -257 46 -90
134 -113 263 -69 52 18 80 17 191 -8 116 -27 186 0 226 88 21 45 24 100 9 140
-6 15 -37 55 -69 89 -32 33 -76 86 -99 118 -58 79 -93 102 -167 106 -50 3 -69
-1 -115 -25z"/>
</g>
</svg>
